<svg width="42" height="43" viewBox="0 0 42 43" fill="none" xmlns="http://www.w3.org/2000/svg">
<path d="M30.24 27.8699C30.5106 26.5788 31.6725 25.5915 33.0732 25.5915C34.665 25.5915 35.9542 26.8674 35.9542 28.4319C35.9542 29.9964 34.665 31.2723 33.0732 31.2723M31.577 34.3861V35.9506C31.577 36.1329 31.7362 36.2848 31.9113 36.2848H34.2193C34.4103 36.2848 34.5535 36.1329 34.5535 35.9506V34.0975C35.0947 33.9608 35.5882 33.7482 36.0657 33.4747L37.3868 34.781C37.5141 34.9177 37.737 34.9177 37.8643 34.781L39.4879 33.171C39.6152 33.0343 39.6152 32.8216 39.4879 32.7001L38.1667 31.3938C38.4373 30.9381 38.6443 30.4369 38.7875 29.9053H40.6658C40.8568 29.9053 41 29.7534 41 29.5711V27.2927C41 27.1104 40.8408 26.9585 40.6658 26.9585H38.7875C38.6443 26.4269 38.4373 25.9257 38.1667 25.47L39.5038 24.1637C39.6311 24.027 39.6311 23.8143 39.5038 23.6928L37.8802 22.0828C37.7529 21.9461 37.5301 21.9461 37.4027 22.0828L36.0657 23.4042C35.6041 23.1308 35.0947 22.9334 34.5695 22.7967V20.9436C34.5695 20.7613 34.4103 20.6094 34.2352 20.6094H31.9272C31.7362 20.6094 31.5929 20.7613 31.5929 20.9436V22.7967C31.0676 22.9334 30.5583 23.146 30.0967 23.4042M29.3645 21.4904V14.959M31.7043 8.44276L33.0732 7.19724L39.6152 14.6096H36.766V20.4423M20.9921 1.01519L30.6856 11.6173H26.3243V20.6094M8.91086 31.2875C7.31914 31.2875 6.02985 30.0116 6.02985 28.4471C6.02985 26.8826 7.31914 25.6067 8.91086 25.6067C10.3116 25.6067 11.4735 26.5788 11.7441 27.8851M11.9033 23.4042C11.4417 23.1308 10.9324 22.9334 10.4071 22.7967V20.9436C10.4071 20.7613 10.2479 20.6094 10.0728 20.6094H7.76482C7.57381 20.6094 7.43057 20.7613 7.43057 20.9436V22.7967C6.9053 22.9334 6.39595 23.146 5.93435 23.4042L4.59731 22.0828C4.46997 21.9461 4.24713 21.9461 4.11979 22.0828L2.49622 23.6928C2.36889 23.8295 2.36889 24.0422 2.49622 24.1637L3.83329 25.47C3.5627 25.9257 3.33983 26.4269 3.21249 26.9585H1.33427C1.14327 26.9585 1 27.1104 1 27.2927V29.5711C1 29.7534 1.15918 29.9053 1.33427 29.9053H3.21249C3.35575 30.4369 3.5627 30.9381 3.83329 31.3938L2.51216 32.7001C2.38482 32.8368 2.38482 33.0495 2.51216 33.171L4.1357 34.781C4.26303 34.9177 4.48588 34.9177 4.61322 34.781L5.93435 33.4747C6.39595 33.7482 6.9053 33.9608 7.44648 34.0975V35.9506C7.44648 36.1329 7.60566 36.2848 7.78075 36.2848H10.0887C10.2798 36.2848 10.423 36.1329 10.423 35.9506V34.3861M12.6196 21.4904V14.959M10.2797 8.44276L8.91086 7.19724L2.36888 14.6096H5.21808V20.4423M15.6598 20.5942V11.6021H11.2984L20.9761 1L30.7016 11.6021H26.3402V20.5942M20.9443 35.1C18.7796 35.1 17.0287 33.3684 17.0287 31.2419C17.0287 29.1154 18.7796 27.3838 20.9443 27.3838C23.1091 27.3838 24.844 29.1154 24.844 31.2419C24.844 33.3684 23.0931 35.1 20.9443 35.1ZM31.2427 29.2369H28.696C28.505 28.523 28.2185 27.8547 27.8524 27.2319L29.651 25.4548C29.8261 25.2725 29.8261 24.9839 29.651 24.8017L27.4544 22.6296C27.2794 22.4473 26.9769 22.4473 26.8018 22.6296L25.0032 24.4067C24.3824 24.0422 23.698 23.7688 22.9658 23.5713V21.0499C22.9658 20.7917 22.7589 20.5942 22.5042 20.5942H19.3844C19.1297 20.5942 18.9228 20.7917 18.9228 21.0499V23.5713C18.2065 23.7536 17.5221 24.0422 16.8854 24.4067L15.0708 22.6296C14.8958 22.4473 14.5933 22.4473 14.4182 22.6296L12.2057 24.8017C12.0307 24.9839 12.0307 25.2725 12.2057 25.4548L14.0044 27.2319C13.6383 27.8547 13.3518 28.523 13.1608 29.2369H10.614C10.3593 29.2369 10.1524 29.4344 10.1524 29.6926V32.776C10.1524 33.0343 10.3593 33.2317 10.614 33.2317H13.1608C13.3518 33.9456 13.6383 34.6291 14.0044 35.2519L12.2057 37.0291C12.0307 37.2113 12.0307 37.4999 12.2057 37.667L14.4182 39.8391C14.5933 40.0213 14.8958 40.0213 15.0708 39.8391L16.8695 38.0619C17.5062 38.4265 18.1906 38.7151 18.9069 38.8973V41.4036C18.9069 41.6618 19.1138 41.8593 19.3685 41.8593H22.4883C22.7429 41.8593 22.9499 41.6618 22.9499 41.4036V38.8973C23.6821 38.7151 24.3665 38.4265 25.0032 38.0619L26.8018 39.8391C26.9769 40.0213 27.2794 40.0213 27.4544 39.8391L29.651 37.667C29.8261 37.4847 29.8261 37.1961 29.651 37.0291L27.8524 35.2519C28.2185 34.6291 28.505 33.9456 28.696 33.2317H31.2427C31.4974 33.2317 31.7043 33.0343 31.7043 32.776V29.6926C31.7043 29.4344 31.4974 29.2369 31.2427 29.2369Z" stroke="white" stroke-width="1.5" stroke-linejoin="round"/>
</svg>
