<svg width="40" height="40" viewBox="0 0 40 40" fill="none" xmlns="http://www.w3.org/2000/svg">
<g clip-path="url(#clip0_3922_9028)">
<path d="M18.7333 40.0001C18.1872 39.9981 17.6481 39.8776 17.1533 39.6468C16.3449 39.2868 15.6958 38.6442 15.3275 37.8397C14.9593 37.0351 14.8973 36.1238 15.1533 35.2768L17.7549 26.6667H11.6249C10.8439 26.6677 10.0736 26.4857 9.3756 26.1353C8.67762 25.7849 8.07144 25.2758 7.60562 24.649C7.1398 24.0221 6.82731 23.2948 6.69318 22.5254C6.55906 21.756 6.60703 20.9659 6.83326 20.2184L11.8733 3.55175C12.1805 2.52088 12.8137 1.61746 13.678 0.977067C14.5423 0.336675 15.5909 -0.00613605 16.6666 8.31489e-05H22.8216C23.5212 0.000668387 24.2102 0.170626 24.8299 0.495433C25.4495 0.820239 25.9812 1.29024 26.3797 1.86526C26.7782 2.44028 27.0315 3.10322 27.118 3.79744C27.2046 4.49166 27.1217 5.19651 26.8766 5.85175L24.0716 13.3334H28.3333C29.2417 13.3333 30.133 13.5808 30.9114 14.0491C31.6898 14.5174 32.3258 15.189 32.7513 15.9916C33.1768 16.7942 33.3756 17.6976 33.3263 18.6047C33.277 19.5118 32.9815 20.3883 32.4716 21.1401L21.8049 38.3068C21.4752 38.8232 21.0213 39.2487 20.4847 39.5445C19.9481 39.8403 19.346 39.997 18.7333 40.0001Z" fill="white"/>
</g>
<defs>
<clipPath id="clip0_3922_9028">
<rect width="40" height="40" fill="white"/>
</clipPath>
</defs>
</svg>
