<svg width="48" height="48" viewBox="0 0 48 48" fill="none" xmlns="http://www.w3.org/2000/svg">
<path d="M32.4147 14.6037C31.8685 12.9728 31.0063 10.8237 30.3432 10.1613C29.619 9.43707 27.3493 8.57325 25.9009 8.08984C25.9663 9.49389 26.7647 11.1169 28.0762 12.4283C29.3878 13.7398 31.0099 14.5374 32.4147 14.6037Z" fill="white"/>
<path d="M21.5021 32.6526C21.9559 32.164 22.4698 31.6099 23.0902 30.9894C23.7133 30.3664 24.5378 29.6413 25.4113 28.8752C25.427 28.8603 25.4436 28.8464 25.4602 28.8324C27.4916 27.0479 30.0117 24.8324 31.6451 22.4808C33.3388 20.0419 33.7646 17.9145 32.9375 15.9922C32.8249 16.0001 32.7123 16.0036 32.5981 16.0036C30.7735 16.0036 28.7351 15.0612 27.0885 13.4146C25.3399 11.6659 24.3861 9.47662 24.5101 7.56998C20.2989 5.8562 14.9447 11.2619 11.7022 14.535C11.1961 15.0464 10.7171 15.5289 10.3051 15.9216C8.46655 17.6738 5.85928 20.3046 4.45873 22.9068C2.54772 26.4582 2.30169 31.7443 5.53114 34.973C8.65672 38.0986 13.3042 37.7164 16.3338 36.4398C19.0484 35.2948 19.9715 34.3 21.5021 32.6526ZM25.3328 22.6684C25.7952 22.3299 26.2813 22.0471 26.817 21.8037C26.9395 21.7487 27.0483 21.6672 27.1356 21.5653C27.2229 21.4633 27.2867 21.3433 27.3223 21.2138C27.4767 20.6598 27.6494 20.0393 27.9296 19.3631C28.0771 19.0071 28.4854 18.8378 28.8414 18.9852C29.1974 19.1327 29.3667 19.5411 29.2192 19.8971C28.9722 20.4948 28.8117 21.0725 28.6695 21.5812C28.4836 22.2496 28.0194 22.7915 27.3946 23.075C26.94 23.281 26.5465 23.5104 26.1564 23.7958C26.0372 23.8833 25.8932 23.9304 25.7454 23.9302C25.6354 23.9305 25.5269 23.9047 25.4287 23.855C25.3306 23.8052 25.2457 23.733 25.1809 23.644C24.9541 23.3333 25.0212 22.8961 25.3328 22.6684ZM15.8748 15.3116C16.7744 14.4129 17.1776 13.6624 17.4289 13.1092C17.5683 12.8011 17.7736 12.5275 18.0304 12.3075C18.2872 12.0875 18.5891 11.9266 18.9148 11.836C19.4314 11.692 20.0091 11.5315 20.6068 11.2846C20.7778 11.2138 20.9699 11.2138 21.1409 11.2847C21.3119 11.3555 21.4478 11.4914 21.5186 11.6624C21.5894 11.8334 21.5894 12.0255 21.5185 12.1965C21.4477 12.3675 21.3118 12.5034 21.1408 12.5742C20.4645 12.8534 19.8441 13.0262 19.297 13.1789C19.0273 13.254 18.8127 13.4381 18.7002 13.6859C18.4236 14.295 17.9322 15.2286 16.8625 16.2984C16.7254 16.4345 16.5475 16.5026 16.3686 16.5026C16.1897 16.5026 16.0117 16.4345 15.8747 16.2984C15.6025 16.0262 15.6025 15.5838 15.8748 15.3116ZM14.5318 24.6029C15.2797 23.8542 15.7875 23.5698 16.2351 23.3184C16.6574 23.081 17.0222 22.8769 17.6339 22.2643C18.2465 21.6527 18.4507 21.2879 18.688 20.8655C18.9394 20.4179 19.2238 19.9101 19.9725 19.1622C20.7203 18.4135 21.2282 18.1291 21.6758 17.8778C22.0981 17.6404 22.4629 17.4354 23.0755 16.8237C23.1402 16.7588 23.2171 16.7072 23.3018 16.6721C23.3865 16.6369 23.4772 16.6189 23.5689 16.6189C23.6606 16.6189 23.7514 16.6369 23.8361 16.6721C23.9207 16.7072 23.9976 16.7588 24.0624 16.8237C24.1273 16.8884 24.1788 16.9653 24.214 17.05C24.2491 17.1347 24.2672 17.2254 24.2672 17.3171C24.2672 17.4088 24.2491 17.4996 24.214 17.5843C24.1788 17.6689 24.1273 17.7458 24.0624 17.8106C23.3145 18.5584 22.8067 18.8437 22.3591 19.095C21.9367 19.3324 21.5719 19.5366 20.9595 20.1491C20.3478 20.7617 20.1427 21.1264 19.9054 21.5487C19.654 21.9963 19.3696 22.5033 18.6218 23.252C17.8731 23.9999 17.3661 24.2843 16.9185 24.5356C16.4962 24.773 16.1305 24.978 15.5188 25.5897C15.3827 25.7258 15.2038 25.7948 15.0249 25.7948C14.846 25.7948 14.6681 25.7258 14.5319 25.5897C14.467 25.525 14.4154 25.4481 14.3802 25.3634C14.3451 25.2788 14.327 25.188 14.327 25.0963C14.3269 25.0046 14.345 24.9139 14.3802 24.8292C14.4154 24.7445 14.4669 24.6676 14.5318 24.6029ZM8.60959 23.7138C8.58865 23.7862 8.56945 23.856 8.55112 23.9189C8.39665 24.4738 8.22393 25.0943 7.94466 25.7705C7.66286 26.452 7.34519 27.0227 7.066 27.5262C7.06513 27.5279 7.06076 27.5358 7.05902 27.5375C6.99821 27.645 6.90992 27.7344 6.8032 27.7965C6.69648 27.8586 6.57516 27.8911 6.45169 27.8909C6.33474 27.8909 6.21605 27.8612 6.10705 27.7993C5.77201 27.609 5.65506 27.1823 5.8461 26.8473L5.84872 26.8421C6.10705 26.377 6.40282 25.8438 6.65416 25.2365C6.90202 24.6388 7.06251 24.0611 7.20476 23.5524C7.22484 23.4791 7.24491 23.4067 7.26585 23.3325C7.41946 22.7906 7.80773 22.3508 8.33128 22.1248C8.92988 21.8657 9.73881 21.4476 10.6812 20.5053C11.2588 19.9276 11.6602 19.4015 11.9814 18.8002C12.2248 18.3449 12.5321 17.9267 12.8941 17.5585C13.0241 17.4266 13.2013 17.3518 13.3865 17.3505C13.5717 17.3492 13.7499 17.4215 13.8818 17.5515C14.0134 17.6818 14.0879 17.859 14.0891 18.0441C14.0902 18.2293 14.0179 18.4074 13.8879 18.5393C13.6198 18.8118 13.3923 19.1215 13.2125 19.459C12.8286 20.1763 12.3382 20.8229 11.6681 21.4921C10.5581 22.602 9.59743 23.0985 8.8845 23.4066C8.74827 23.465 8.64791 23.5768 8.60959 23.7138ZM11.4777 29.9772C11.0545 30.2138 10.6897 30.4188 10.078 31.0305C10.0134 31.0956 9.93645 31.1473 9.85167 31.1825C9.76689 31.2177 9.67597 31.2358 9.58417 31.2355C9.49251 31.2357 9.40174 31.2176 9.31712 31.1824C9.23249 31.1472 9.15569 31.0955 9.09116 31.0305C9.02623 30.9657 8.97471 30.8888 8.93955 30.8042C8.9044 30.7195 8.8863 30.6287 8.8863 30.537C8.8863 30.4453 8.9044 30.3546 8.93955 30.2699C8.97471 30.1852 9.02623 30.1083 9.09116 30.0436C9.839 29.2957 10.346 29.0104 10.7936 28.7591C11.2168 28.5226 11.5816 28.3176 12.1932 27.7059C12.2579 27.641 12.3348 27.5895 12.4194 27.5543C12.5041 27.5191 12.5948 27.501 12.6864 27.5009C12.7781 27.5008 12.8689 27.5188 12.9536 27.5538C13.0383 27.5889 13.1152 27.6402 13.1801 27.705C13.245 27.7698 13.2965 27.8468 13.3317 27.9316C13.3668 28.0163 13.3849 28.1071 13.3849 28.1989C13.3849 28.2906 13.3668 28.3815 13.3317 28.4662C13.2965 28.551 13.245 28.628 13.1801 28.6928C12.4324 29.4406 11.9254 29.7259 11.4777 29.9772ZM13.6567 34.6578C13.5521 34.7162 13.4344 34.7469 13.3146 34.7468C13.0729 34.7468 12.8373 34.622 12.7082 34.3978C12.5162 34.0627 12.6296 33.6377 12.9639 33.4458L12.9691 33.4432L12.977 33.438C13.4813 33.1588 14.052 32.8411 14.7335 32.5593C15.4081 32.28 16.0293 32.1073 16.5773 31.9546L16.6079 31.9459C16.6646 31.9302 16.7266 31.9127 16.7903 31.8944C16.9273 31.856 17.039 31.7556 17.0974 31.6195C17.4054 30.9065 17.902 29.945 19.0119 28.835C19.6812 28.1657 20.3278 27.6753 21.045 27.2914C21.7405 26.9197 22.2954 26.3674 22.6506 25.6955C22.8303 25.3543 23.2526 25.2234 23.5929 25.4032C23.9341 25.5839 24.065 26.0062 23.8852 26.3464C23.4001 27.2661 22.6452 28.0183 21.7037 28.5227C21.1025 28.8438 20.5763 29.2452 19.9987 29.8229C19.0563 30.7652 18.6383 31.5742 18.3792 32.1736C18.1531 32.6963 17.7134 33.0846 17.1706 33.2382C17.1052 33.2565 17.0414 33.274 16.9821 33.2906L16.9524 33.2993C16.442 33.4415 15.8643 33.6021 15.2675 33.849C14.6601 34.1002 14.127 34.3969 13.6567 34.6578ZM44.6215 21.5908C44.4356 21.1562 43.926 20.5393 43.2977 19.8918C42.6703 19.2452 41.9251 18.5681 41.2707 18.0122C40.8083 19.3404 40.9444 21.1439 41.673 22.8499C42.4016 24.5549 43.6101 25.9005 44.8884 26.4851C44.9888 24.767 44.9888 22.4511 44.6215 21.5908Z" fill="white"/>
<path d="M40.3886 23.3965C39.4174 21.1225 39.3476 18.7342 40.1739 17.0117C38.9069 15.7822 36.9951 15.3791 34.3598 15.7857C36.0081 20.2586 32.1216 24.6477 28.4558 28.0264C29.153 27.7158 29.4619 27.4662 29.8171 27.1808C30.2167 26.8588 30.6704 26.4949 31.6434 26.0787C32.6163 25.6634 33.1931 25.5883 33.7018 25.522C34.1826 25.4592 34.5979 25.4051 35.3947 25.0639C35.565 24.9913 35.7572 24.9893 35.929 25.0584C36.1008 25.1274 36.2381 25.2618 36.3108 25.4321C36.3834 25.6024 36.3854 25.7946 36.3164 25.9664C36.2474 26.1382 36.1129 26.2756 35.9426 26.3483C34.9697 26.7645 34.3921 26.8396 33.8825 26.9059C33.4026 26.9687 32.9872 27.0228 32.1914 27.3631C31.3956 27.7025 31.0701 27.9652 30.6923 28.2688C30.2927 28.5899 29.839 28.9547 28.866 29.3709C27.893 29.7862 27.3163 29.8613 26.8075 29.9276C26.6129 29.9529 26.4271 29.9774 26.2212 30.0201C25.3757 30.7627 24.6444 31.4085 24.0772 31.9748C23.4751 32.5769 22.9708 33.1205 22.5249 33.6004C20.9246 35.3246 19.867 36.4634 16.8757 37.7243C16.1599 38.0255 15.4195 38.2649 14.6628 38.4398C16.4587 39.9128 18.9586 40.7583 21.6157 40.7583C21.6872 40.7583 21.7588 40.7583 21.8304 40.7566C24.7763 40.706 26.004 40.1266 28.0371 39.1676C28.6401 38.8831 29.3234 38.5603 30.1305 38.2156C30.9472 37.8666 31.9917 37.4992 33.0982 37.1092C35.6549 36.2087 38.8363 35.0883 41.2395 33.5071C43.7203 31.8745 44.9078 30.0577 44.8573 27.967C43.0395 27.3755 41.3606 25.6722 40.3886 23.3965ZM32.5981 34.2044C31.8049 34.8763 30.825 35.2943 29.763 35.4104C29.085 35.4845 28.4471 35.6608 27.6968 35.9819C26.4708 36.5054 25.7814 37.1006 25.3181 37.5595C24.9612 37.9138 24.4883 38.1084 23.9969 38.1084C23.9315 38.1084 23.866 38.1049 23.7997 38.0979C23.7194 38.0892 23.6426 38.0805 23.5737 38.0726C23.1897 38.0307 22.914 37.6852 22.9567 37.3021C22.9986 36.919 23.3441 36.6433 23.7272 36.6851C23.7944 36.693 23.8695 36.7009 23.9472 36.7096C24.0877 36.7244 24.2291 36.6729 24.3346 36.5682C24.8861 36.0211 25.7046 35.3143 27.1478 34.6973C28.0187 34.3256 28.8014 34.1109 29.6103 34.0219C30.3948 33.9364 31.1146 33.631 31.6949 33.1389C31.8361 33.0193 32.019 32.9607 32.2034 32.9759C32.3878 32.9912 32.5586 33.079 32.6783 33.2201C32.9279 33.5142 32.8921 33.9549 32.5981 34.2044ZM39.9514 30.2062C39.4994 30.6687 39.1346 31.1442 38.8136 31.5649C38.8118 31.5657 38.8066 31.5736 38.8048 31.5753C38.3913 32.1146 37.7595 32.4444 37.0736 32.4749C36.5754 32.4976 36.1251 32.564 35.6566 32.6826C35.599 32.6975 35.5405 32.7045 35.4838 32.7045C35.1723 32.7045 34.8878 32.495 34.8075 32.1792C34.7619 31.9997 34.7894 31.8095 34.8839 31.6503C34.9785 31.4911 35.1324 31.3759 35.3118 31.3301C35.8668 31.1887 36.4226 31.1067 37.0116 31.0805C37.2839 31.0683 37.5352 30.9374 37.7001 30.721C37.7019 30.7201 37.7071 30.7123 37.7089 30.7105C38.05 30.2647 38.4419 29.7533 38.9532 29.2298C39.2228 28.9541 39.6644 28.9497 39.9401 29.2184C40.2158 29.488 40.221 29.9305 39.9514 30.2062Z" fill="white"/>
</svg>
