<svg width="40" height="40" viewBox="0 0 40 40" fill="none" xmlns="http://www.w3.org/2000/svg">
<g clip-path="url(#clip0_3922_9031)">
<path d="M40 16.2062V35.8346C40 38.1362 38.135 40.0013 35.8333 40.0013C33.5317 40.0013 31.6667 38.1362 31.6667 35.8346V20.0013C31.6667 19.0813 30.92 18.3346 30 18.3346H10C9.08 18.3346 8.33333 19.0813 8.33333 20.0013V35.8346C8.33333 38.1362 6.46833 40.0013 4.16667 40.0013C1.865 40.0013 0 38.1362 0 35.8346V16.2062C0 13.4362 1.37667 10.8479 3.67167 9.29958L15.3383 1.42625C18.155 -0.475417 21.845 -0.475417 24.6617 1.42625L36.3283 9.29958C38.6233 10.8496 40 13.4379 40 16.2062ZM16.6667 33.3346H15C14.0783 33.3346 13.3333 34.0812 13.3333 35.0013V38.3346C13.3333 39.2546 14.0783 40.0013 15 40.0013H16.6667C17.5883 40.0013 18.3333 39.2546 18.3333 38.3346V35.0013C18.3333 34.0812 17.5883 33.3346 16.6667 33.3346ZM16.6667 23.3346H15C14.0783 23.3346 13.3333 24.0813 13.3333 25.0013V28.3346C13.3333 29.2546 14.0783 30.0013 15 30.0013H16.6667C17.5883 30.0013 18.3333 29.2546 18.3333 28.3346V25.0013C18.3333 24.0813 17.5883 23.3346 16.6667 23.3346ZM25 33.3346H23.3333C22.4117 33.3346 21.6667 34.0812 21.6667 35.0013V38.3346C21.6667 39.2546 22.4117 40.0013 23.3333 40.0013H25C25.9217 40.0013 26.6667 39.2546 26.6667 38.3346V35.0013C26.6667 34.0812 25.9217 33.3346 25 33.3346Z" fill="white"/>
</g>
<defs>
<clipPath id="clip0_3922_9031">
<rect width="40" height="40" fill="white"/>
</clipPath>
</defs>
</svg>
