<svg width="40" height="40" viewBox="0 0 40 40" fill="none" xmlns="http://www.w3.org/2000/svg">
<g clip-path="url(#clip0_3922_9455)">
<path d="M28.775 13.965L27.1367 13.0217C27.3517 12.325 27.5 11.6 27.5 10.8333C27.5 10.0667 27.3517 9.34167 27.1367 8.645L28.775 7.70167C29.5733 7.24333 29.8483 6.22333 29.3867 5.42667C28.9283 4.62833 27.91 4.35167 27.1117 4.815L25.4833 5.75333C24.475 4.66667 23.1617 3.87667 21.6683 3.535V1.66667C21.6683 0.745 20.9233 0 20.0017 0C19.08 0 18.335 0.745 18.335 1.66667V3.535C16.8417 3.87667 15.5267 4.665 14.52 5.75333L12.8917 4.815C12.0933 4.35333 11.0733 4.63 10.6167 5.42667C10.1567 6.225 10.4317 7.24333 11.2283 7.70167L12.8667 8.645C12.6517 9.34167 12.5033 10.0667 12.5033 10.8333C12.5033 11.6 12.6517 12.325 12.8667 13.0217L11.2283 13.965C10.43 14.4233 10.155 15.4433 10.6167 16.24C10.925 16.775 11.485 17.075 12.0617 17.075C12.3433 17.075 12.63 17.0033 12.8917 16.8517L14.52 15.9133C15.5283 17 16.8417 17.79 18.335 18.1317V20C18.335 20.9217 19.08 21.6667 20.0017 21.6667C20.9233 21.6667 21.6683 20.9217 21.6683 20V18.1317C23.1617 17.79 24.4767 17.0017 25.4833 15.9133L27.1117 16.8517C27.3733 17.0033 27.66 17.075 27.9417 17.075C28.5183 17.075 29.08 16.775 29.3867 16.24C29.8467 15.4417 29.5717 14.4233 28.775 13.965ZM20 13.3333C18.6217 13.3333 17.5 12.2117 17.5 10.8333C17.5 9.455 18.6217 8.33333 20 8.33333C21.3783 8.33333 22.5 9.455 22.5 10.8333C22.5 12.2117 21.3783 13.3333 20 13.3333ZM0 20V16.6667C0 12.99 2.99 10 6.66667 10C7.58833 10 8.33333 10.745 8.33333 11.6667C8.33333 12.5883 7.58833 13.3333 6.66667 13.3333C4.82833 13.3333 3.33333 14.8283 3.33333 16.6667V20C3.33333 20.9217 2.58833 21.6667 1.66667 21.6667C0.745 21.6667 0 20.9217 0 20ZM40 16.6667V20C40 20.9217 39.255 21.6667 38.3333 21.6667C37.4117 21.6667 36.6667 20.9217 36.6667 20V16.6667C36.6667 14.8283 35.1717 13.3333 33.3333 13.3333C32.4117 13.3333 31.6667 12.5883 31.6667 11.6667C31.6667 10.745 32.4117 10 33.3333 10C37.01 10 40 12.99 40 16.6667ZM25.8333 38.3333C25.8333 39.2533 25.0867 40 24.1667 40H15.8333C14.9133 40 14.1667 39.2533 14.1667 38.3333C14.1667 35.8333 17.0617 33.3333 20 33.3333C22.9383 33.3333 25.8333 35.8333 25.8333 38.3333ZM10.8333 38.3333C10.8333 39.2533 10.0867 40 9.16667 40H1.66667C0.746667 40 0 39.2533 0 38.3333C0.111667 35.8983 2.63833 33.3333 5.41667 33.3333C8.195 33.3333 10.7017 35.9033 10.8333 38.3333ZM9.55167 27.5C9.55167 29.8017 7.68667 31.6667 5.385 31.6667C3.08333 31.6667 1.21833 29.8017 1.21833 27.5C1.21833 25.1983 3.08333 23.3333 5.385 23.3333C7.68667 23.3333 9.55167 25.1983 9.55167 27.5ZM15.8333 27.5C15.8333 25.1983 17.6983 23.3333 20 23.3333C22.3017 23.3333 24.1667 25.1983 24.1667 27.5C24.1667 29.8017 22.3017 31.6667 20 31.6667C17.6983 31.6667 15.8333 29.8017 15.8333 27.5ZM30.4483 27.5C30.4483 25.1983 32.3133 23.3333 34.615 23.3333C36.9167 23.3333 38.7817 25.1983 38.7817 27.5C38.7817 29.8017 36.9167 31.6667 34.615 31.6667C32.3133 31.6667 30.4483 29.8017 30.4483 27.5ZM40 38.3333C40 39.2533 39.2533 40 38.3333 40H30.8333C29.9133 40 29.1667 39.2533 29.1667 38.3333C29.2783 35.8983 31.805 33.3333 34.5833 33.3333C37.3617 33.3333 39.8683 35.9033 40 38.3333Z" fill="white"/>
</g>
<defs>
<clipPath id="clip0_3922_9455">
<rect width="40" height="40" fill="white"/>
</clipPath>
</defs>
</svg>
