<svg width="40" height="40" viewBox="0 0 40 40" fill="none" xmlns="http://www.w3.org/2000/svg">
<g clip-path="url(#clip0_3922_9034)">
<path d="M40 18.3324V19.9991H26.6667V13.3324C26.6667 11.4941 28.1617 9.99906 30 9.99906H31.6667C36.2617 9.99906 40 13.7374 40 18.3324ZM26.6667 31.6657H35C37.7617 31.6657 40 29.4274 40 26.6657V23.3324H26.6667V31.6657ZM5.83333 -0.0859375H5C4.08 -0.0859375 3.33333 0.659063 3.33333 1.58073V10.7474C3.33333 11.2074 2.96 11.5807 2.5 11.5807H1.66667C0.746667 11.5807 0 12.3274 0 13.2474C0 14.1674 0.746667 14.9141 1.66667 14.9141H2.5C4.80167 14.9141 6.66667 13.0491 6.66667 10.7474V5.18406L19.0133 19.9991H4.16667C1.865 19.9991 0 21.8641 0 24.1657V27.4991C0 29.8007 1.865 31.6657 4.16667 31.6657H23.3333V19.9774L7.11333 0.514062C6.79667 0.134062 6.32833 -0.0859375 5.83333 -0.0859375ZM5.09667 34.9991C5.04 35.2691 5 35.5457 5 35.8324C5 38.1341 6.865 39.9991 9.16667 39.9991C11.4683 39.9991 13.3333 38.1341 13.3333 35.8324C13.3333 35.5457 13.2933 35.2691 13.2367 34.9991H5.09667ZM26.7633 34.9991C26.7067 35.2691 26.6667 35.5457 26.6667 35.8324C26.6667 38.1341 28.5317 39.9991 30.8333 39.9991C33.135 39.9991 35 38.1341 35 35.8324C35 35.5457 34.96 35.2691 34.9033 34.9991H26.7617H26.7633Z" fill="white"/>
</g>
<defs>
<clipPath id="clip0_3922_9034">
<rect width="40" height="40" fill="white"/>
</clipPath>
</defs>
</svg>
