<svg width="40" height="40" viewBox="0 0 40 40" fill="none" xmlns="http://www.w3.org/2000/svg">
<g clip-path="url(#clip0_3922_9037)">
<path d="M33.3333 8.50167V8.33333C33.3333 3.73833 29.595 0 25 0H15C10.405 0 6.66667 3.73833 6.66667 8.33333V15.1683C2.86833 15.9433 0 19.3083 0 23.3333V31.6667C0 36.2617 3.73833 40 8.33333 40H31.6667C36.2617 40 40 36.2617 40 31.6667V16.6667C40 12.6417 37.1317 9.275 33.3333 8.50167ZM8.33333 31.6667H6.66667C5.74667 31.6667 5 30.9217 5 30C5 29.0783 5.74667 28.3333 6.66667 28.3333H8.33333C9.25333 28.3333 10 29.0783 10 30C10 30.9217 9.25333 31.6667 8.33333 31.6667ZM8.33333 25H6.66667C5.74667 25 5 24.255 5 23.3333C5 22.4117 5.74667 21.6667 6.66667 21.6667H8.33333C9.25333 21.6667 10 22.4117 10 23.3333C10 24.255 9.25333 25 8.33333 25ZM16.6667 31.6667H15C14.08 31.6667 13.3333 30.9217 13.3333 30C13.3333 29.0783 14.08 28.3333 15 28.3333H16.6667C17.5867 28.3333 18.3333 29.0783 18.3333 30C18.3333 30.9217 17.5867 31.6667 16.6667 31.6667ZM16.6667 25H15C14.08 25 13.3333 24.255 13.3333 23.3333C13.3333 22.4117 14.08 21.6667 15 21.6667H16.6667C17.5867 21.6667 18.3333 22.4117 18.3333 23.3333C18.3333 24.255 17.5867 25 16.6667 25ZM16.6667 18.3333H15C14.08 18.3333 13.3333 17.5883 13.3333 16.6667C13.3333 15.745 14.08 15 15 15H16.6667C17.5867 15 18.3333 15.745 18.3333 16.6667C18.3333 17.5883 17.5867 18.3333 16.6667 18.3333ZM16.6667 11.6667H15C14.08 11.6667 13.3333 10.9217 13.3333 10C13.3333 9.07833 14.08 8.33333 15 8.33333H16.6667C17.5867 8.33333 18.3333 9.07833 18.3333 10C18.3333 10.9217 17.5867 11.6667 16.6667 11.6667ZM25 31.6667H23.3333C22.4133 31.6667 21.6667 30.9217 21.6667 30C21.6667 29.0783 22.4133 28.3333 23.3333 28.3333H25C25.92 28.3333 26.6667 29.0783 26.6667 30C26.6667 30.9217 25.92 31.6667 25 31.6667ZM25 25H23.3333C22.4133 25 21.6667 24.255 21.6667 23.3333C21.6667 22.4117 22.4133 21.6667 23.3333 21.6667H25C25.92 21.6667 26.6667 22.4117 26.6667 23.3333C26.6667 24.255 25.92 25 25 25ZM25 18.3333H23.3333C22.4133 18.3333 21.6667 17.5883 21.6667 16.6667C21.6667 15.745 22.4133 15 23.3333 15H25C25.92 15 26.6667 15.745 26.6667 16.6667C26.6667 17.5883 25.92 18.3333 25 18.3333ZM25 11.6667H23.3333C22.4133 11.6667 21.6667 10.9217 21.6667 10C21.6667 9.07833 22.4133 8.33333 23.3333 8.33333H25C25.92 8.33333 26.6667 9.07833 26.6667 10C26.6667 10.9217 25.92 11.6667 25 11.6667ZM33.3333 31.6667H31.6667C30.7467 31.6667 30 30.9217 30 30C30 29.0783 30.7467 28.3333 31.6667 28.3333H33.3333C34.2533 28.3333 35 29.0783 35 30C35 30.9217 34.2533 31.6667 33.3333 31.6667ZM33.3333 25H31.6667C30.7467 25 30 24.255 30 23.3333C30 22.4117 30.7467 21.6667 31.6667 21.6667H33.3333C34.2533 21.6667 35 22.4117 35 23.3333C35 24.255 34.2533 25 33.3333 25ZM33.3333 18.3333H31.6667C30.7467 18.3333 30 17.5883 30 16.6667C30 15.745 30.7467 15 31.6667 15H33.3333C34.2533 15 35 15.745 35 16.6667C35 17.5883 34.2533 18.3333 33.3333 18.3333Z" fill="white"/>
</g>
<defs>
<clipPath id="clip0_3922_9037">
<rect width="40" height="40" fill="white"/>
</clipPath>
</defs>
</svg>
