<svg width="40" height="40" viewBox="0 0 40 40" fill="none" xmlns="http://www.w3.org/2000/svg">
<g clip-path="url(#clip0_3922_9040)">
<path d="M38.8101 16.7614C38.3414 16.2082 37.7577 15.7638 37.0997 15.4592C36.4417 15.1547 35.7252 14.9973 35.0001 14.9981H29.3001L22.1884 2.57473C21.8121 1.87078 21.2663 1.27168 20.6003 0.831547C19.9344 0.391417 19.1693 0.124129 18.3742 0.053828C17.579 -0.0164725 16.7789 0.11243 16.0461 0.428891C15.3132 0.745351 14.6708 1.2394 14.1768 1.8664C13.7623 2.44402 13.4913 3.11196 13.3861 3.81503C13.2809 4.5181 13.3446 5.23612 13.5718 5.90973L16.8051 14.9981H9.22009L6.86009 11.8314C6.49134 11.2675 5.98776 10.8046 5.39494 10.4845C4.80213 10.1643 4.13882 9.99716 3.46509 9.99807C2.90802 9.9969 2.35891 10.1303 1.86448 10.387C1.37006 10.6436 0.944952 11.016 0.625337 11.4722C0.305722 11.9285 0.101059 12.4552 0.0287609 13.0076C-0.043537 13.5599 0.0186705 14.1216 0.21009 14.6447L3.33342 19.9981L0.21009 25.3514C0.0188657 25.874 -0.0434111 26.4351 0.0285485 26.9869C0.100508 27.5388 0.304579 28.0651 0.62343 28.5212C0.942282 28.9773 1.3665 29.3497 1.86005 29.6068C2.3536 29.864 2.90191 29.9982 3.45842 29.9981C4.13215 29.999 4.79546 29.8318 5.38828 29.5117C5.98109 29.1915 6.48468 28.7286 6.85342 28.1647L9.22009 24.9981H16.8051L13.5718 34.0864C13.3446 34.76 13.2809 35.478 13.3861 36.1811C13.4913 36.8842 13.7623 37.5521 14.1768 38.1297C14.6708 38.7567 15.3132 39.2508 16.0461 39.5672C16.7789 39.8837 17.579 40.0126 18.3742 39.9423C19.1693 39.872 19.9344 39.6047 20.6003 39.1646C21.2663 38.7245 21.8121 38.1254 22.1884 37.4214L29.3001 24.9981H35.0001C35.9511 24.9904 36.8803 24.7127 37.6796 24.1973C38.4788 23.6818 39.1152 22.9499 39.5144 22.0867C39.9137 21.2236 40.0595 20.2647 39.9348 19.3219C39.8101 18.3791 39.42 17.4911 38.8101 16.7614Z" fill="white"/>
</g>
<defs>
<clipPath id="clip0_3922_9040">
<rect width="40" height="40" fill="white"/>
</clipPath>
</defs>
</svg>
