<svg width="43" height="43" viewBox="0 0 43 43" fill="none" xmlns="http://www.w3.org/2000/svg">
<path d="M27.1136 10.6944L32.9012 15.2805M28.2857 3.66143L27.1136 10.6798L21.0915 12.8776M6.55676 30.9435L8.37359 32.7603M21.0915 29.1266H28.359C31.9927 29.1266 31.9927 24.5845 28.359 24.5845H23.5532C22.7912 24.5845 21.37 22.7677 20.1685 22.7677H15.6264C14.3956 22.7677 12.8718 23.764 11.9927 24.5845C10.6301 25.9471 8.35902 28.2182 8.35902 28.2182M15.641 35.5003C15.9927 35.1486 16.3443 34.5918 17.4579 34.5918H30.1905C31.2015 34.5918 36.7546 29.0241 37.4579 28.2329C38.1319 27.471 41.1648 22.9142 42 20.9508C41.4725 20.2329 40.0513 19.6468 38.3663 20.0424C36.7546 20.4087 35.8169 21.5662 34.7327 23.6761L30.5714 25.8446M36.3737 6.81163L29.3846 1.1999C29.1649 1.02407 28.7986 0.936154 28.4762 1.05337L20.2271 4.26217C19.8608 4.33543 19.5531 4.62847 19.4945 5.02408L18.2051 13.742C18.1465 14.123 18.2051 14.5332 18.4982 14.753L25.5018 20.3647C25.7655 20.5845 25.9707 20.7164 26.2491 20.6138L34.718 17.3318C35.1722 17.1559 35.3627 16.9655 35.4359 16.5406L36.7546 7.66142C36.7985 7.39769 36.6667 7.0021 36.4176 6.81163H36.3737ZM12.9158 41.8593L17.4579 37.3171L6.54209 26.4014L2 30.9435L12.9158 41.8593Z" stroke="white" stroke-width="1.5" stroke-miterlimit="10"/>
</svg>
