<svg width="42" height="43" viewBox="0 0 42 43" fill="none" xmlns="http://www.w3.org/2000/svg">
<path d="M17.5548 9.00428V10.7783C17.5548 12.3707 12.0365 12.9435 12.0365 16.9945C12.0365 18.2238 12.7375 19.3273 13.9306 20.2213M21.686 22.3307C20.0753 22.3307 18.5541 22.1212 17.2416 21.758C18.5541 22.1212 20.0604 22.3307 21.686 22.3307ZM21.686 22.3307C26.5928 22.3307 29.1879 19.5648 29.9634 17.8885M21.686 22.3307C26.6077 22.3307 29.2028 19.5648 29.9634 17.8885M29.9634 17.8885C29.9933 17.8327 30.0082 17.7628 30.0082 17.7069M29.9634 17.8885C30.0082 17.8327 30.0082 17.7628 30.0082 17.7069M30.0082 17.7069C30.0082 17.1482 28.8598 16.6732 28.0246 16.6732C27.6517 16.6732 27.3386 16.771 27.2193 16.9945M27.2193 16.9945C26.7718 17.8885 25.0567 18.7686 23.7741 18.7686M27.2193 16.9945C26.7718 17.8745 25.0567 18.7686 23.7741 18.7686M23.7741 18.7686C21.865 18.7686 20.3289 17.7767 20.3289 16.5475M20.3289 16.5475C20.3289 15.8211 20.8658 15.1786 21.701 14.7735M20.3289 16.5475C20.314 15.8211 20.8658 15.1786 21.701 14.7735M21.701 14.7735C24.1618 13.628 25.8471 12.9016 25.8471 10.9879V8.9903M10.6644 1V6.32226L14.7957 8.9903H28.5913L32.7226 6.32226V1H10.6495M3.7591 26.7588L17.5548 17.8745C18.6137 17.1901 18.8822 16.9805 20.135 16.9805M20.135 16.9805C20.2096 16.9805 20.299 16.9805 20.3736 16.9805C20.2841 16.9805 20.2096 16.9805 20.135 16.9805ZM27.95 20.5566L38.2408 26.7588M25.8322 30.321H16.1827V26.7728H25.8322V30.321ZM41 41.8593H1V26.7588H41V41.8593Z" stroke="white" stroke-width="1.5" stroke-linejoin="round"/>
</svg>
