<svg width="40" height="43" viewBox="0 0 40 43" fill="none" xmlns="http://www.w3.org/2000/svg">
<path d="M5.00184 32.0934V22.3276M11.6612 9.00188C11.6612 7.15776 10.209 4.52788 6.65933 5.45795C4.50312 6.01921 2.14154 6.16355 0.821412 4.576M15.8269 35.6534V38.3153M5.83792 35.6534V38.3153M9.16758 35.6534V38.3153M12.4973 35.6534V38.3153M17.4991 32.0934H2.50825V41.8593M19.1712 26.7696H23.337M33.326 35.6534V38.3153M23.337 35.6534V38.3153M26.6667 35.6534V38.3153M29.9963 35.6534V38.3153M0 41.8593H40M37.4917 26.7696H29.9963M36.6557 15.2238V21.4457M30.8324 15.2238H33.326M23.337 4.55995H26.6667M30.8324 10.7819H33.326M33.326 20.5477V2.77998C33.326 1.80179 32.5779 1 31.6538 1H26.652C25.7279 1 24.9798 1.80179 24.9798 2.77998V4.55995M29.1602 22.3276V11.6638C29.1602 9.5471 27.8254 8.0718 26.6667 7.2219H23.337C22.1636 8.05576 20.8434 9.5471 20.8434 11.6638V22.3276M37.4917 41.8593V26.7535L39.1639 24.9735V22.3116H17.4991V25.8716L19.1712 26.7535V41.8593M9.16758 32.0934H14.1694V10.7819H9.16758V32.0934Z" stroke="white" stroke-width="1.5" stroke-linejoin="round"/>
</svg>
