<svg width="42" height="43" viewBox="0 0 42 43" fill="none" xmlns="http://www.w3.org/2000/svg">
<path d="M18.6336 28.67V23.8736L22.0936 21.7752M15.186 21.7752L18.6459 23.8736M15.186 28.3702L18.6459 30.4686L23.5765 27.4709V20.8908L18.6459 17.8931L13.7155 20.8908V23.8886M5.80694 28.67V42.4296M8.26599 33.4514V42.4296M10.7374 42.4296V27.4709H13.7031C15.1983 27.4709 15.6803 26.4067 15.6803 25.0727H6.30118C4.53411 25.0727 3.82975 25.972 3.82975 28.67V32.8668C3.82975 34.1559 4.24991 35.265 5.31262 35.265M6.30118 19.8566L2.45813 12.2573L1 11.4929C1 11.4929 1.63022 8.49516 1.7785 8.37525C1.92679 8.25534 4.49709 8.25534 4.49709 8.25534L5.27552 7.02627L7.64814 5.79719L6.19001 3.15917L10.169 1.57037L13.0235 3.03927L19.4739 9.61932L24.3179 10.3837L25.3312 11.4479H26.2085L27.7655 13.5014V14.5656L29.5079 15.6298V18.3877L31.5962 21.0407H32.8566L34.253 25.1027L38.1825 25.987L39.6901 25.5223L41 27.4559L39.6901 32.1024L30.0392 36.1643L27.0365 37.4534L24.5156 40.8108L23.0574 39.5818L20.2029 39.6417L16.7182 38.9972L16.3846 41.875H15.7544L12.8504 36.644L10.7621 31.0832M8.26599 23.274C9.39049 23.274 10.2431 22.1199 10.2431 20.711V19.8566C10.2431 18.4477 9.40285 17.2935 8.26599 17.2935C7.12914 17.2935 6.28881 18.4477 6.28881 19.8566V20.711C6.28881 22.1199 7.12914 23.274 8.26599 23.274Z" stroke="white" stroke-width="1.5" stroke-miterlimit="10"/>
</svg>
