<svg width="42" height="43" viewBox="0 0 42 43" fill="none" xmlns="http://www.w3.org/2000/svg">
<path d="M21 29.0413V20.4792L13.5597 17.1486M28.4568 17.1486L21.0165 20.4792M21 10.9751L10.7613 15.7356V27.1573L21 31.9178L31.2387 27.1573V15.7356L21 10.9751ZM22.4486 4.31382L24.5226 1L27.93 2.0093L27.9959 6.11373L30.4815 7.594L34.0041 5.60908L36.4897 8.14911L34.5309 11.7489L35.9794 14.2889L39.9959 14.3562L41 17.8383L37.7572 19.9578V22.9015L41 25.021L39.9959 28.503L35.9794 28.5703L34.5309 31.1104L36.4733 34.7101L33.9877 37.2502L30.465 35.2484L27.963 36.7287L27.8971 40.8331L24.4897 41.8593L22.4156 38.5454H19.535L17.4609 41.8593L14.0535 40.85L13.9877 36.7455L11.5021 35.2653L7.97942 37.2502L5.49382 34.7101L7.45267 31.1104L6.02057 28.5703L2.00412 28.503L1 25.021L4.2428 22.9015V19.9578L1 17.8383L2.00412 14.3562L6.02057 14.2889L7.46914 11.7489L5.52675 8.14911L8.01234 5.60908L11.535 7.594L14.0206 6.13054L14.0864 2.02611L17.4938 1L19.5679 4.31382H22.4486Z" stroke="white" stroke-width="1.5" stroke-linejoin="round"/>
</svg>
