<svg width="42" height="43" viewBox="0 0 42 43" fill="none" xmlns="http://www.w3.org/2000/svg">
<path d="M3.38593 35.5573L4.50995 38.6689C5.60269 41.6728 10.364 42.7511 15.1564 41.0566C19.9489 39.3621 22.9461 35.5573 21.8534 32.5534L20.7294 29.4418M3.38593 35.5573C4.47867 38.5611 9.23994 39.6394 14.0324 37.9449C18.8249 36.2659 21.8221 32.4456 20.7294 29.4418M3.38593 35.5573C2.29318 32.5534 5.29049 28.7332 10.083 27.0541C14.8754 25.3596 19.6366 26.4379 20.7294 29.4418M28.2694 15.7782L25.1628 17.6421C22.15 19.4444 22.0408 24.6972 24.9131 29.3647C27.7855 34.0322 32.5467 36.3583 35.5595 34.556L38.6661 32.6921M2.46495 18.2274L5.36851 21.0926C8.17844 23.8654 14.0168 22.5715 18.419 18.212C22.8212 13.8526 24.1169 8.09144 21.3226 5.31867L18.419 2.45347M28.0196 27.4854C25.1473 22.8179 25.2565 17.5805 28.2694 15.7628C31.2822 13.9605 36.0435 16.2865 38.9159 20.954C41.7882 25.6215 41.679 30.8744 38.6661 32.6767C35.6533 34.479 30.892 32.1529 28.0196 27.4854ZM15.5311 15.3469C11.1289 19.7063 5.27489 20.9848 2.48058 18.2274C-0.329346 15.4547 0.981928 9.69348 5.38414 5.33407C9.78635 0.974661 15.6403 -0.303892 18.4346 2.45347C21.2446 5.22624 19.9333 10.9874 15.5311 15.3469Z" stroke="white" stroke-width="1.5" stroke-miterlimit="10"/>
</svg>
