<svg width="42" height="43" viewBox="0 0 42 43" fill="none" xmlns="http://www.w3.org/2000/svg">
<path d="M41 23.7621H38.3716L36.6297 20.9019H34.8879L34.017 21.8552H31.3886L27.0184 17.0884H20.8907V15.1816C20.8907 13.0705 22.4615 11.3681 24.39 11.3681H26.1319L27.8893 9.46127H32.2595L34.0014 7.55452M18.8222 3.86019C20.2375 3.45159 21.7461 3.24727 23.2702 3.24727C33.0683 3.24727 41 11.8958 41 22.5533C41 33.2107 33.0527 41.8593 23.2702 41.8593C13.4877 41.8593 5.54047 33.2107 5.54047 22.5533C5.54047 16.5606 8.0444 11.1978 11.9947 7.65666M5.12055 20.306C1.99451 18.0928 -0.151725 14.5517 1.66791 10.2614C3.48754 5.97121 11.0305 5.22212 14.4831 1C17.6092 4.88163 17.7802 11.317 14.9808 16.3903C13.0989 19.8123 9.67741 20.255 7.88888 20.255M27.8738 35.1856H25.2454V28.5119L23.5035 26.6051H20.0042V23.745L22.6326 20.8849H27.0028L31.373 25.6518V31.3721L27.8738 35.1856Z" stroke="white" stroke-width="1.5" stroke-linejoin="round"/>
</svg>
