<svg width="42" height="43" viewBox="0 0 42 43" fill="none" xmlns="http://www.w3.org/2000/svg">
<path d="M5.40944 30.3983L8.1691 33.4331L12.6685 28.4656M14.3183 11.3589C14.3183 10.1891 14.6483 9.22271 17.3629 8.61236C19.8076 8.06983 23.2722 9.35835 25.7469 8.40892C28.2216 7.45949 31.4312 7.03564 34.1309 8.03593C35.9456 8.71409 39.1102 7.79857 41 7.13736M36.4406 1C34.5658 2.22069 31.4012 3.8991 29.5714 2.64449C26.8718 0.779547 23.6622 1.55948 21.1875 3.3227C18.7128 5.08592 15.2482 2.71232 12.8035 3.71261C10.0889 4.83158 9.7589 6.64568 9.7589 8.8158V11.3419M34.1459 31.5851V28.2113M30.3363 31.5851V28.2113M26.5268 31.5851V28.2113M22.7023 31.5851V28.2113M18.8928 31.5851V28.2113M15.0832 22.3112L21.9524 16.4112V22.3112H23.4822L30.3363 16.4112V22.3112H31.8661L38.7353 16.4112V34.959H16.628M8.979 20.6158V13.0373H15.0832V23.3963M8.79902 19.9377C8.79902 19.9377 4.53956 23.5828 1 23.5828V32.8228C1 34.7386 1.70491 36.4679 2.90476 37.4512C4.1496 38.4685 7.86914 41.1811 8.01912 41.2998L8.79902 41.8593L9.57893 41.2998C9.74391 41.1811 13.4484 38.4685 14.6933 37.4512C15.8931 36.4849 16.5981 34.7555 16.5981 32.8228V23.5828C13.0585 23.5828 8.79902 19.9377 8.79902 19.9377Z" stroke="white" stroke-width="1.5" stroke-linejoin="round"/>
</svg>
