<svg width="45" height="50" viewBox="0 0 45 50" fill="none" xmlns="http://www.w3.org/2000/svg">
<path d="M17.7856 24.9643L21.625 27.8571L26.6786 21.1071M22.2321 34.375V36.5893M9.53565 32.1786L12.125 30.6786M32.3393 30.6607L35.1785 32.3036M35.25 17.3393L32.3393 19.0179M11.8749 18.8571L9.53565 17.5179M39.4642 29.1786V20.125M35.25 12.4107L26.6963 7.46428M17.7856 7.44643L9.53565 12.2321M5.01785 20.125V29.1786M43.3213 34.2857C43.3213 36.4286 41.5892 38.1607 39.4642 38.1607C37.3392 38.1607 35.6071 36.4286 35.6071 34.2857C35.6071 32.1429 37.3392 30.4107 39.4642 30.4107C41.5892 30.4107 43.3213 32.1429 43.3213 34.2857ZM8.87494 34.2857C8.87494 36.4286 7.14285 38.1607 5.01785 38.1607C2.89285 38.1607 1.16064 36.4286 1.16064 34.2857C1.16064 32.1429 2.89285 30.4107 5.01785 30.4107C7.14285 30.4107 8.87494 32.1429 8.87494 34.2857ZM8.87494 14.9286C8.87494 17.0714 7.14285 18.8036 5.01785 18.8036C2.89285 18.8036 1.16064 17.0714 1.16064 14.9286C1.16064 12.7857 2.89285 11.0536 5.01785 11.0536C7.14285 11.0536 8.87494 12.7857 8.87494 14.9286ZM43.3213 14.9286C43.3213 17.0714 41.5892 18.8036 39.4642 18.8036C37.3392 18.8036 35.6071 17.0714 35.6071 14.9286C35.6071 12.7857 37.3392 11.0536 39.4642 11.0536C41.5892 11.0536 43.3213 12.7857 43.3213 14.9286ZM26.1071 4.875C26.1071 7.01785 24.3749 8.75 22.2321 8.75C20.0892 8.75 18.375 7.01785 18.375 4.875C18.375 2.73214 20.1071 1 22.2321 1C24.3571 1 26.1071 2.73214 26.1071 4.875ZM29.1606 31.4286C25.3392 35.2679 19.1249 35.2679 15.3035 31.4286C11.482 27.5893 11.482 21.375 15.3035 17.5357C19.1249 13.6964 25.3392 13.6964 29.1606 17.5357C32.9821 21.375 32.9821 27.5893 29.1606 31.4286ZM23.9285 36.6786V47.3036C23.9285 48.2321 23.1606 49 22.2321 49C21.3035 49 20.5535 48.2321 20.5535 47.3036V36.6786C20.5535 36.6786 20.5535 36.625 20.5535 36.6071H23.9285C23.9285 36.6071 23.9285 36.6607 23.9285 36.6786Z" stroke="#517632" stroke-width="2" stroke-miterlimit="10"/>
</svg>
