<svg width="59" height="48" viewBox="0 0 59 48" fill="none" xmlns="http://www.w3.org/2000/svg">
<path d="M26.4795 31.9201V26.4343L31.2795 24.0344M21.6966 24.0344L26.4965 26.4343M21.6966 31.5772L26.4965 33.9772L33.3366 30.5486V23.0229L26.4965 19.5944L19.6566 23.0229V26.4515M8.6852 31.9201V47.6572M12.0966 37.3886V47.6572M15.5252 47.6572V30.5486H19.6394C21.7137 30.5486 22.3823 29.3315 22.3823 27.8058H9.37085C6.91942 27.8058 5.94228 28.8343 5.94228 31.9201V36.7201C5.94228 38.1943 6.52516 39.4629 7.99944 39.4629M9.37085 21.8401L4.03945 13.1486L2.0166 12.2744C2.0166 12.2744 2.8909 8.84578 3.09661 8.70864C3.30232 8.5715 6.86806 8.57149 6.86806 8.57149L7.94796 7.16578L11.2395 5.76007L9.21662 2.74292L14.7366 0.925781L18.6966 2.60578L27.6452 10.1315L34.3652 11.0058L35.7709 12.2229H36.988L39.148 14.5715V15.7886L41.5652 17.0058V20.1601L44.4623 23.1943H46.2108L48.148 27.8401L53.5994 28.8515L55.6909 28.3201L57.508 30.5315L55.6909 35.8458L42.3023 40.4915L38.1366 41.9658L34.6394 45.8058L32.6166 44.4001L28.6566 44.4686L23.8223 43.7315L23.3595 47.0229H22.4852L18.4565 41.0401L15.5594 34.6801M12.0966 25.7486C13.6566 25.7486 14.8394 24.4286 14.8394 22.8172V21.8401C14.8394 20.2286 13.6738 18.9086 12.0966 18.9086C10.5195 18.9086 9.35369 20.2286 9.35369 21.8401V22.8172C9.35369 24.4286 10.5195 25.7486 12.0966 25.7486Z" stroke="#517632" stroke-width="1.25" stroke-miterlimit="10"/>
</svg>
