<svg width="48" height="47" viewBox="0 0 48 47" fill="none" xmlns="http://www.w3.org/2000/svg">
<path d="M32.1932 29.1949V32.7866H35.7849M13.4898 13.3714H17.0815M17.0815 13.3714V16.9632M17.0815 13.3714C14.036 15.5894 12.0498 19.3632 12.0498 23.4349C12.0498 30.188 17.5283 35.6666 24.2815 35.6666C25.8042 35.6666 27.2608 35.4018 28.6015 34.8887M21.418 11.5507C22.3449 11.3356 23.3049 11.2197 24.298 11.2197C31.0511 11.2197 36.5298 16.6983 36.5298 23.4514C36.5298 26.828 35.1394 29.8735 32.9381 32.0914L32.2263 32.8032M42.8028 18.2376L41.0649 14.0335C40.8332 13.4873 40.9656 12.8749 41.3794 12.4611L42.0911 11.7494C42.6539 11.1866 42.6539 10.2763 42.0911 9.7135L38.0194 5.64178C37.4566 5.07902 36.5463 5.07902 35.9835 5.64178L35.2718 6.35349C34.858 6.76728 34.2456 6.88315 33.6994 6.66798L29.4953 4.93005C28.9656 4.69833 28.6015 4.18522 28.6015 3.60591V2.59625C28.6015 1.80177 27.9559 1.15625 27.1614 1.15625H21.4015C20.607 1.15625 19.9615 1.80177 19.9615 2.59625V3.60591C19.9615 4.18522 19.6139 4.71488 19.0677 4.93005L14.8635 6.66798C14.3339 6.88315 13.705 6.76728 13.2912 6.35349L12.5794 5.64178C12.0166 5.07902 11.1063 5.07902 10.5435 5.64178L6.47178 9.7135C5.90902 10.2763 5.90902 11.1866 6.47178 11.7494L7.18359 12.4611C7.59739 12.8749 7.71325 13.4873 7.49808 14.0335L5.76007 18.2376C5.5449 18.7838 5.01526 19.1314 4.43595 19.1314H3.42632C2.63184 19.1314 1.98633 19.7769 1.98633 20.5714V26.3314C1.98633 27.1259 2.63184 27.7714 3.42632 27.7714H4.43595C5.01526 27.7714 5.5449 28.119 5.76007 28.6652L7.49808 32.8694C7.7298 33.399 7.59739 34.028 7.18359 34.4418L6.47178 35.1535C5.90902 35.7163 5.90902 36.6266 6.47178 37.1894L10.5435 41.2611C11.1063 41.8238 12.0166 41.8238 12.5794 41.2611L13.2912 40.5494C13.705 40.1356 14.3173 40.0197 14.8635 40.2349L19.0677 41.9728C19.5974 42.2045 19.9615 42.7176 19.9615 43.2969V44.3066C19.9615 45.1011 20.607 45.7466 21.4015 45.7466H27.1614C27.9559 45.7466 28.6015 45.1011 28.6015 44.3066V43.2969C28.6015 42.7176 28.9491 42.188 29.4953 41.9728L33.6994 40.2349C34.229 40.0197 34.858 40.1356 35.2718 40.5494L35.9835 41.2611C36.5463 41.8238 37.4566 41.8238 38.0194 41.2611L42.0911 37.1894C42.6539 36.6266 42.6539 35.7163 42.0911 35.1535L41.3794 34.4418C40.9656 34.028 40.8497 33.4156 41.0649 32.8694L42.8028 28.6652C43.018 28.1356 43.5476 27.7714 44.127 27.7714H45.1367C45.9312 27.7714 46.5767 27.1259 46.5767 26.3314V20.5714C46.5767 19.7769 45.9312 19.1314 45.1367 19.1314H44.127C43.5476 19.1314 43.018 18.7838 42.8028 18.2376Z" stroke="#517632" stroke-width="2" stroke-miterlimit="10"/>
</svg>
