<svg width="46" height="48" viewBox="0 0 46 48" fill="none" xmlns="http://www.w3.org/2000/svg">
<path d="M25.9483 8.1261C26.2068 8.49533 27.7021 8.71688 28.3483 8.71688C28.9944 8.71688 30.4899 8.51379 30.7299 8.1261L30.7114 8.14458C30.7114 8.14458 32.816 3.03074 32.7606 2.29228C32.2252 2.31074 31.1175 2.43994 28.3298 1.71994C26.3729 1.22148 24.2868 0.87074 23.2899 2.69843C23.1791 2.90151 25.9483 8.1261 25.9483 8.1261ZM25.9483 8.1261C20.4837 12.0215 17.3453 16.6369 17.3453 21.7323C17.3453 23.283 17.7698 24.5938 18.5267 25.6461M39.2037 23.1723C39.296 22.7292 39.3329 22.2492 39.3329 21.7507C39.3329 16.6553 36.1945 12.04 30.7299 8.14458M6.82219 34.4338L8.72367 36.3907M22.1268 32.4769H29.7699C33.5914 32.4769 33.5914 27.603 29.7699 27.603H24.7114C23.9176 27.603 22.4222 25.6461 21.1668 25.6461H16.3853C15.0929 25.6461 13.4868 26.7169 12.5637 27.603C11.1237 29.0615 8.74215 31.4984 8.74215 31.4984M16.3853 39.3077C16.7545 38.9384 17.1237 38.3292 18.3052 38.3292H31.6898C32.7421 38.3292 38.5945 32.3661 39.3329 31.5169C40.0529 30.7046 43.2284 25.8307 44.1145 23.7261C43.5607 22.9692 42.0653 22.3415 40.293 22.7477C38.613 23.1538 37.616 24.3907 36.4714 26.643L32.096 28.9507M13.5237 46.12L18.3052 41.2461L6.84067 29.5599L2.05908 34.4338L13.5237 46.12Z" stroke="#517632" stroke-width="2" stroke-linejoin="round"/>
</svg>
