<svg width="62" height="48" viewBox="0 0 62 48" fill="none" xmlns="http://www.w3.org/2000/svg">
<path d="M37.7336 19.8221C38.267 19.8221 38.8003 19.911 39.067 20.4444C39.2448 20.7999 39.4225 21.1555 39.4225 21.511C39.4225 21.6888 39.4225 21.6888 39.2448 21.6888C39.067 21.6888 38.8003 21.6888 38.6225 21.6888C37.9114 21.6888 37.2003 21.6888 36.4003 21.6888C36.4003 21.6888 36.2225 21.6888 36.1336 21.6888C36.1336 20.7999 36.8448 19.9999 37.7336 19.911M40.1336 24.711C40.1336 24.5332 39.9559 24.4444 39.867 24.2666C39.867 24.0888 39.7781 24.0888 39.6003 24.2666C39.2448 24.4444 38.8892 24.6221 38.5336 24.6221C37.3781 24.7999 36.3114 24.1777 36.1336 22.7555C36.1336 22.5777 36.1336 22.5777 36.3114 22.4888C36.9336 22.4888 37.5559 22.4888 38.267 22.4888C38.9781 22.4888 39.6003 22.4888 40.2225 22.4888C40.4003 22.4888 40.4003 22.4888 40.4003 22.311C40.4003 21.6888 40.4003 21.0666 40.1336 20.4444C39.6003 19.111 38.4448 18.6666 37.2892 18.9332C36.4003 19.111 35.7781 19.7332 35.3336 20.5332C34.8892 21.4221 34.8892 22.3999 35.1559 23.3777C35.4225 24.2666 35.9559 24.8888 36.8448 25.2444C37.3781 25.511 38.0003 25.511 38.6225 25.4221C39.1559 25.4221 39.6003 25.1555 39.9559 24.8888C40.0448 24.8888 40.0448 24.7999 39.9559 24.6221" fill="#517632"/>
<path d="M37.289 34.5787C37.289 35.0231 37.289 35.4676 37.0224 35.8231C36.5779 36.8009 35.689 36.9787 34.889 36.712C34.4446 36.5342 34.089 36.1787 33.9113 35.7342C33.5557 34.9342 33.5557 34.0454 33.9113 33.2454C34.2668 32.2676 35.2446 31.912 36.1335 32.2676C36.5779 32.4454 36.8446 32.8009 37.0224 33.2454C37.2002 33.6009 37.289 34.0454 37.289 34.5787ZM38.3557 33.512C38.0002 32.0898 36.9335 31.112 35.3335 31.2009C34.2668 31.2009 33.5557 31.7342 33.0224 32.6231C32.5779 33.512 32.489 34.4898 32.7557 35.4676C33.1113 36.8009 34.1779 37.8676 35.8668 37.6898C36.8446 37.6009 37.6446 37.0676 38.089 36.0898C38.3557 35.5565 38.4446 35.0231 38.4446 34.4009C38.4446 34.0454 38.4446 33.7787 38.3557 33.4231" fill="#517632"/>
<path d="M27.2446 19.0215C26.9779 19.0215 26.8002 19.0215 26.5335 19.0215C26.3557 19.0215 26.3557 19.0215 26.3557 19.1993C26.3557 19.1993 26.3557 19.1993 26.3557 19.2882V23.1104C26.3557 23.7326 26.3557 24.4437 26.3557 25.066C26.3557 25.2438 26.3557 25.2437 26.5335 25.2437C26.8002 25.2437 27.0668 25.2437 27.2446 25.2437C27.3335 25.2437 27.4224 25.2438 27.4224 25.066C27.4224 25.066 27.4224 24.9771 27.4224 24.8882V19.1993C27.4224 19.1993 27.4224 19.1104 27.4224 19.0215C27.4224 18.9326 27.4224 18.8438 27.2446 18.8438" fill="#517632"/>
<path d="M42.4447 19.0214C41.8224 19.288 41.378 19.8214 41.378 20.4436C41.378 21.1547 41.6447 21.5991 42.178 22.0436C42.4447 22.2214 42.7113 22.3102 42.978 22.3991C43.3335 22.488 43.6002 22.6658 43.9558 22.7547C44.1336 22.7547 44.3113 22.9325 44.4002 23.0214C44.6669 23.288 44.7558 23.5547 44.6669 23.8214C44.578 24.1769 44.2224 24.3547 43.8669 24.4436C43.3335 24.5325 42.8002 24.4436 42.2669 24.1769C42.0891 24.088 41.8224 23.9102 41.6447 23.7325C41.5558 23.7325 41.4669 23.7325 41.4669 23.7325C41.378 23.9102 41.2002 24.088 41.1113 24.2658V24.4436C41.8224 24.9769 42.5335 25.2436 43.4224 25.2436C43.6002 25.2436 43.6891 25.2436 43.8669 25.2436C44.4002 25.2436 44.8447 24.9769 45.2002 24.6214C45.9113 23.9991 46.0002 22.488 44.8447 21.8658C44.6669 21.7769 44.4891 21.688 44.3113 21.5991C43.9558 21.4214 43.6002 21.3325 43.1558 21.1547C42.978 21.1547 42.8002 20.9769 42.6224 20.7991C42.4447 20.6214 42.3558 20.3547 42.3558 20.088C42.4447 19.7325 42.7113 19.5547 43.0669 19.4658C43.5113 19.3769 43.9558 19.4658 44.4002 19.6436C44.578 19.7325 44.7558 19.8214 44.9335 19.9991C44.9335 19.9991 45.0224 19.9991 45.1113 19.9991C45.2002 19.8214 45.378 19.6436 45.4669 19.4658C45.4669 19.3769 45.4669 19.288 45.4669 19.1991C45.2002 19.0214 45.0224 18.9325 44.6669 18.7547C43.9558 18.488 43.1558 18.488 42.4447 18.7547" fill="#517632"/>
<path d="M40.5779 28.7998C40.3112 28.7998 39.9557 28.9776 39.689 28.9776C39.689 28.9776 39.6001 28.9776 39.6001 29.1554C39.6001 29.1554 39.6001 29.2443 39.6001 29.3332V37.3332V37.5109C39.6001 37.5998 39.6001 37.5998 39.689 37.5998C39.9557 37.5998 40.2223 37.5998 40.489 37.5998C40.5779 37.5998 40.6668 37.5998 40.5779 37.5109C40.5779 37.5109 40.5779 37.422 40.5779 37.3332V28.9776C40.5779 28.9776 40.5779 28.7998 40.5779 28.7109" fill="#517632"/>
<path d="M46.4446 24.7116C47.3335 25.4227 48.4002 25.6894 49.4668 25.4227C50.0002 25.3339 50.3557 25.0672 50.7113 24.6227C51.2446 23.8227 51.0668 22.6672 50.1779 22.1339C50.0002 22.045 49.8224 21.9561 49.6446 21.8672C49.289 21.6894 48.9335 21.6005 48.5779 21.4227C48.3113 21.3339 48.1335 21.245 47.9557 21.0672C47.7779 20.8894 47.689 20.6227 47.7779 20.3561C47.7779 20.0894 48.0446 19.9116 48.3113 19.8227C48.7557 19.645 49.2002 19.7339 49.6446 19.8227C49.8224 19.9116 50.0002 20.0005 50.1779 20.1783H50.3557C50.4446 20.0005 50.6224 19.8227 50.7113 19.7339C50.8002 19.5561 50.8002 19.5561 50.7113 19.4672C50.0002 18.9339 49.2002 18.7561 48.3113 18.9339C47.8668 18.9339 47.5113 19.2005 47.2446 19.4672C46.5335 20.0894 46.4446 21.3339 47.3335 22.045C47.5113 22.1339 47.689 22.3116 47.8668 22.4005C48.2224 22.5783 48.5779 22.6672 49.0224 22.845C49.2002 22.845 49.4668 23.0227 49.6446 23.1116C49.8224 23.2005 49.9113 23.3783 50.0002 23.5561C50.089 23.9116 50.0002 24.3561 49.6446 24.5339C49.4668 24.6227 49.2002 24.7116 48.9335 24.7116C48.4002 24.7116 47.8668 24.6227 47.4224 24.2672C47.2446 24.1783 47.0668 24.0005 46.889 23.9116C46.7113 24.0894 46.6224 24.3561 46.4446 24.5339C46.3557 24.7116 46.3557 24.7116 46.4446 24.8005" fill="#517632"/>
<path d="M30.5336 35.7326C30.3558 36.2659 30.0002 36.6214 29.378 36.7992C28.578 36.977 27.778 36.7103 27.4224 35.9103C27.1558 35.4659 27.0669 35.0214 27.1558 34.4881C27.1558 34.0437 27.1558 33.5992 27.4224 33.1548C28.0447 31.9103 29.4669 31.9103 30.0891 32.6214C30.4447 32.977 30.6224 33.3326 30.7113 33.777C30.8002 34.3992 30.8002 35.1103 30.5336 35.7326ZM28.9336 31.1992C27.6891 31.1992 26.8002 31.9103 26.3558 32.977C26.178 33.4214 26.0891 33.9548 26.0891 34.4881C26.0891 34.6659 26.0891 34.8437 26.0891 35.0214C26.0891 35.1992 26.0891 35.377 26.178 35.5548C26.5336 36.977 27.6002 37.9548 29.2002 37.8659C30.178 37.8659 30.978 37.2437 31.4224 36.3548C31.9558 35.2881 31.9558 34.1326 31.5113 33.0659C31.0669 31.9103 30.0891 31.2881 28.8447 31.2881" fill="#517632"/>
<path d="M18.5335 36.4458C18.4446 36.268 18.4446 36.268 18.2668 36.4458C17.8224 36.7125 17.3779 36.8903 16.8446 36.8903C16.1335 36.8903 15.6002 36.5347 15.2446 35.9125C15.0668 35.468 14.9779 35.0236 14.9779 34.5792C14.9779 34.1347 14.9779 33.6903 15.2446 33.3347C15.6002 32.5347 16.4002 32.1791 17.2002 32.268C17.5557 32.268 17.8224 32.4458 18.0891 32.6236C18.1779 32.7125 18.1779 32.7125 18.3557 32.6236C18.4446 32.4458 18.6224 32.268 18.7113 32.0903C18.7113 32.0014 18.7113 31.9125 18.7113 31.8236C18.4446 31.5569 18.0891 31.3791 17.7335 31.2903C16.4891 30.9347 14.8891 31.468 14.2668 32.8903C13.7335 33.9569 13.8224 35.1125 14.2668 36.268C14.4446 36.7125 14.8002 37.1569 15.2446 37.4236C15.9557 37.868 16.7557 38.0458 17.5557 37.868C18.0002 37.7791 18.4446 37.5125 18.8891 37.2458C18.9779 37.2458 18.9779 37.068 18.8891 36.9791C18.8002 36.8014 18.7113 36.6236 18.6224 36.5347" fill="#517632"/>
<path d="M39.5113 12.9762C39.6891 12.9762 39.9557 12.9762 40.1335 12.9762C40.4891 12.9762 40.4891 12.9762 40.4891 12.6207C40.4891 11.3762 40.4891 10.0429 40.4891 8.79844C40.4891 8.70955 40.4891 8.62066 40.4891 8.53177C40.9335 7.99844 41.4668 7.55399 42.1779 7.55399C42.9779 7.55399 43.3335 7.90955 43.4224 8.53177C43.4224 8.70955 43.4224 8.97622 43.4224 9.15399C43.4224 10.3095 43.4224 11.4651 43.4224 12.5318C43.4224 13.5984 43.4224 12.6207 43.4224 12.7095C43.4224 12.7095 43.4224 12.7984 43.5113 12.7984C43.7779 12.7984 44.0446 12.7984 44.4002 12.7984C44.4002 12.7984 44.4891 12.7984 44.4891 12.7095C44.4891 12.7095 44.4891 12.6207 44.4891 12.5318C44.4891 11.1984 44.4891 9.95399 44.4891 8.62066C44.4891 8.35399 44.4891 8.08733 44.4002 7.82066C44.2224 7.19844 43.8668 6.6651 43.2446 6.48733C42.9779 6.48733 42.8002 6.39844 42.5335 6.39844C41.8224 6.39844 41.2002 6.6651 40.6668 7.10955C40.6668 7.10955 40.4891 7.19844 40.4002 7.37622C40.4002 7.10955 40.4002 6.93177 40.4002 6.84288C40.4002 6.6651 40.4002 6.6651 40.2224 6.6651C39.9557 6.6651 39.7779 6.6651 39.5113 6.6651C39.3335 6.6651 39.3335 6.6651 39.3335 6.84288C39.3335 6.84288 39.3335 6.84288 39.3335 6.93177V12.6207C39.3335 12.6207 39.3335 12.7095 39.3335 12.7984C39.3335 12.8873 39.3335 12.9762 39.5113 12.9762Z" fill="#517632"/>
<path d="M10.9779 24.2674C10.8001 24.2674 10.6224 24.2674 10.4446 24.2674C9.91125 24.2674 9.37792 24.2674 8.7557 24.2674C8.57792 24.2674 8.57792 24.2674 8.57792 24.0897C8.57792 23.2008 8.57792 22.3119 8.57792 21.5119C8.57792 21.3341 8.57792 21.3341 8.7557 21.3341C9.02236 21.3341 9.37792 21.3341 9.73347 21.3341C10.089 21.3341 10.5335 21.3341 10.889 21.3341C11.5113 21.423 11.9557 21.7786 12.0446 22.4008C12.2224 23.2897 11.8668 24.0008 10.889 24.1786M8.57792 17.7786C8.57792 17.6008 8.57792 17.6008 8.84459 17.6008C9.28903 17.6008 9.82236 17.6008 10.2668 17.6008C10.5335 17.6008 10.8001 17.6008 10.9779 17.7786C11.3335 17.9563 11.5113 18.223 11.6001 18.5786C11.6001 18.8452 11.6001 19.2008 11.6001 19.4674C11.5113 19.823 11.2446 20.0897 10.889 20.1786C10.6224 20.2674 10.2668 20.3563 10.0001 20.3563C9.64459 20.3563 9.20014 20.3563 8.84459 20.3563C8.66681 20.3563 8.66681 20.3563 8.66681 20.1786C8.66681 19.7341 8.66681 19.3786 8.66681 18.9341C8.66681 18.4897 8.66681 18.1341 8.66681 17.7786M11.7779 20.8897C11.7779 20.8897 11.689 20.8897 11.6001 20.8897C12.4001 20.5341 12.6668 19.9119 12.7557 19.1119C12.7557 18.0452 12.2224 17.2452 11.2446 16.9786C10.889 16.8897 10.5335 16.8008 10.1779 16.8008C9.37792 16.8008 8.48903 16.8008 7.68903 16.8008C7.51125 16.8008 7.51125 16.8008 7.42236 16.9786V25.2452C7.42236 25.5119 7.42236 25.5119 7.68903 25.5119C8.66681 25.5119 9.5557 25.5119 10.5335 25.5119C10.9779 25.5119 11.3335 25.5119 11.689 25.3341C12.489 25.0674 13.0224 24.5341 13.2001 23.7341C13.2001 23.4674 13.2001 23.2008 13.2001 22.9341C13.2001 22.0452 12.5779 21.3341 11.7779 21.0674" fill="#517632"/>
<path d="M26.4446 17.8675C26.7112 17.8675 26.9779 17.8675 27.2446 17.8675C27.3335 17.8675 27.4224 17.8675 27.4224 17.6898C27.4224 17.512 27.4224 17.3342 27.4224 17.1564C27.4224 16.9786 27.4224 16.8009 27.4224 16.6231C27.4224 16.5342 27.4224 16.4453 27.3335 16.4453C27.0668 16.4453 26.8001 16.4453 26.5335 16.4453C26.4446 16.4453 26.4446 16.4453 26.4446 16.6231C26.4446 16.9786 26.4446 17.3342 26.4446 17.6009C26.4446 17.6898 26.4446 17.7786 26.6224 17.7786" fill="#517632"/>
<path d="M24.9336 32.7128C24.7558 31.9128 24.3114 31.3795 23.4225 31.2906C22.6225 31.1128 21.9114 31.2906 21.2892 31.824C21.2003 31.824 21.0225 32.0017 20.9336 32.1795V29.1573C20.9336 29.1573 20.9336 29.0684 20.9336 28.9795C20.9336 28.9795 20.9336 28.8906 20.8447 28.8906C20.5781 28.8906 20.3114 29.0684 19.9558 29.0684C19.9558 29.0684 19.8669 29.0684 19.8669 29.2462C19.8669 29.2462 19.8669 29.3351 19.8669 29.424C19.8669 32.0906 19.8669 34.7573 19.8669 37.424C19.8669 40.0906 19.8669 37.424 19.8669 37.5128C19.8669 37.6906 19.8669 37.6906 20.0447 37.6906C20.2225 37.6906 20.4003 37.6906 20.6669 37.6906C21.0225 37.6906 20.9336 37.6906 20.9336 37.424C20.9336 36.1795 20.9336 34.8462 20.9336 33.6017C20.9336 33.424 20.9336 33.3351 21.1114 33.1573C21.3781 32.8906 21.7336 32.624 22.0892 32.4462C22.3558 32.3573 22.6225 32.2684 22.9781 32.2684C23.5114 32.2684 23.7781 32.5351 23.8669 33.0684C23.8669 33.3351 23.8669 33.5128 23.8669 33.7795C23.8669 35.024 23.8669 36.1795 23.8669 37.424C23.8669 38.6684 23.8669 37.6017 23.8669 37.6017C23.8669 37.6017 23.8669 37.6906 23.9558 37.6906C24.2225 37.6906 24.4892 37.6906 24.8447 37.6906C25.2003 37.6906 24.9336 37.6906 24.9336 37.6017C24.9336 37.5128 24.9336 37.5128 24.9336 37.424C24.9336 36.1795 24.9336 34.8462 24.9336 33.6017C24.9336 33.3351 24.9336 33.0684 24.9336 32.7128Z" fill="#517632"/>
<path d="M18.2668 23.4665C17.8224 23.9998 17.289 24.3553 16.5779 24.4442C15.9557 24.4442 15.5113 24.2665 15.4224 23.6442C15.4224 23.3776 15.4224 23.1998 15.4224 22.9331C15.4224 21.7776 15.4224 20.5331 15.4224 19.3776C15.4224 18.222 15.4224 19.2887 15.4224 19.1998C15.4224 19.1109 15.4224 19.022 15.2446 19.022C14.9779 19.022 14.7113 19.022 14.4446 19.022C14.3557 19.022 14.3557 19.022 14.3557 19.1998C14.3557 19.1998 14.3557 19.1998 14.3557 19.2887C14.3557 20.5331 14.3557 21.7776 14.3557 23.022C14.3557 23.4665 14.3557 23.822 14.5335 24.2665C14.7113 24.7998 15.0668 25.1553 15.689 25.3331C15.9557 25.3331 16.2224 25.422 16.489 25.422C17.1113 25.422 17.7335 25.1553 18.1779 24.7109C18.1779 24.7109 18.3557 24.622 18.4446 24.5331C18.4446 24.7109 18.4446 24.8887 18.4446 24.9776C18.4446 25.3331 18.4446 25.2442 18.7113 25.2442C18.889 25.2442 19.0668 25.2442 19.2446 25.2442C19.5113 25.2442 19.5113 25.2442 19.5113 24.9776V19.1998C19.5113 19.1998 19.5113 19.1109 19.5113 19.022C19.5113 18.9331 19.5113 18.9331 19.4224 18.9331C19.1557 18.9331 18.889 18.9331 18.6224 18.9331C18.5335 18.9331 18.4446 18.9331 18.4446 19.1109C18.4446 19.2887 18.4446 19.3776 18.4446 19.5553C18.4446 20.7109 18.4446 21.8665 18.4446 23.1109C18.4446 23.1998 18.4446 23.3776 18.3557 23.4665" fill="#517632"/>
<path d="M7.60032 12.9777C7.60032 12.9777 7.60032 12.9777 7.68921 12.9777H11.867C11.867 12.9777 11.9559 12.9777 12.0448 12.9777C12.0448 12.9777 12.1337 12.9777 12.1337 12.8888C12.1337 12.6221 12.1337 12.3555 12.1337 12.0888C12.1337 11.9999 12.1337 11.911 12.0448 11.9999C12.0448 11.9999 11.9559 11.9999 11.867 11.9999H8.93365C8.5781 11.9999 8.66698 11.9999 8.66698 11.7332V4.71102V4.53325C8.66698 4.44436 8.66698 4.35547 8.48921 4.35547C8.22254 4.35547 7.95587 4.35547 7.60032 4.35547C7.51143 4.35547 7.42254 4.35547 7.51143 4.44436V4.62214V12.6221C7.51143 12.6221 7.51143 12.711 7.51143 12.7999C7.51143 12.8888 7.51143 12.9777 7.68921 12.9777" fill="#517632"/>
<path d="M19.4225 12.7115C19.4225 12.7115 19.4225 12.8003 19.4225 12.8892C19.4225 12.9781 19.4225 13.067 19.6003 13.067C19.8669 13.067 20.1336 13.067 20.4003 13.067C20.4891 13.067 20.578 13.067 20.578 12.8892C20.578 12.8892 20.578 12.8003 20.578 12.7115C20.578 11.467 20.578 10.2226 20.578 8.88924C20.578 8.71146 20.578 8.62257 20.6669 8.53368C20.9336 8.17813 21.2891 7.91146 21.6447 7.73368C21.9114 7.64479 22.178 7.5559 22.4447 7.5559C22.978 7.5559 23.3336 7.91146 23.4225 8.44479C23.4225 8.62257 23.4225 8.80035 23.4225 8.97813C23.4225 9.77813 23.4225 10.5781 23.4225 11.3781C23.4225 12.1781 23.4225 12.3559 23.4225 12.8003C23.4225 12.9781 23.4225 12.9781 23.6003 12.9781C23.8669 12.9781 24.0447 12.9781 24.3114 12.9781C24.4891 12.9781 24.4891 12.9781 24.4891 12.7115C24.4891 11.3781 24.4891 10.0448 24.4891 8.71146C24.4891 8.3559 24.4891 8.08924 24.3114 7.73368C24.1336 7.11146 23.6891 6.7559 23.0669 6.57812C22.8891 6.57812 22.7114 6.57812 22.5336 6.57812C21.8225 6.57812 21.2003 6.84479 20.6669 7.28924C20.6669 7.28924 20.4891 7.37812 20.4003 7.46701C20.4003 7.20035 20.4003 7.11146 20.4003 6.93368C20.4003 6.7559 20.4003 6.7559 20.2225 6.7559C20.0447 6.7559 19.8669 6.7559 19.6891 6.7559C19.3336 6.7559 19.4225 6.7559 19.4225 7.02257V12.7115Z" fill="#517632"/>
<path d="M21.5557 19.2003C20.5779 19.8225 20.4001 21.2447 21.4668 21.9558C21.6446 22.0447 21.8223 22.2225 22.0001 22.3114C22.3557 22.4892 22.6223 22.578 22.9779 22.6669C23.2446 22.6669 23.4223 22.8447 23.6001 23.0225C23.7779 23.1114 23.8668 23.2891 23.9557 23.4669C24.0446 23.8225 23.9557 24.2669 23.6001 24.4447C23.3335 24.6225 22.9779 24.6225 22.7112 24.6225C22.2668 24.6225 21.8223 24.4447 21.4668 24.178C21.289 24.0892 21.2001 24.0003 21.1112 23.9114C21.0223 23.9114 20.9335 23.9114 20.9335 23.9114C20.8446 24.0891 20.6668 24.2669 20.5779 24.4447C20.489 24.6225 20.489 24.6225 20.5779 24.7114C21.2001 25.1558 22.0001 25.5114 22.8001 25.5114C23.0668 25.5114 23.2446 25.5114 23.5112 25.5114C24.0446 25.4225 24.489 25.1558 24.7557 24.8003C25.3779 24.0003 25.2001 22.7558 24.3112 22.2225C24.1335 22.1336 23.9557 22.0447 23.7779 21.9558C23.4223 21.8669 23.0668 21.6891 22.7112 21.6003C22.5335 21.6003 22.2668 21.4225 22.089 21.2447C22.0001 21.1558 21.9112 21.0669 21.8223 20.8892C21.6446 20.5336 21.8223 20.0891 22.2668 19.9114C22.6223 19.7336 23.0668 19.7336 23.4223 19.9114C23.689 19.9114 23.9557 20.178 24.1335 20.2669C24.3112 20.3558 24.3112 20.3558 24.489 20.2669C24.5779 20.0891 24.6668 20.0003 24.7557 19.8225C24.8446 19.6447 24.8446 19.6447 24.7557 19.5558C24.3112 19.2003 23.7779 19.0225 23.1557 18.9336C22.6223 18.9336 22.089 18.9336 21.5557 19.2892" fill="#517632"/>
<path d="M7.24465 36.7109C8.31131 37.5998 9.55576 38.0442 10.978 37.7776C12.1335 37.5109 12.9335 36.622 13.0224 35.5553C13.0224 34.7553 12.7558 34.1331 12.1335 33.6887C11.8669 33.5109 11.5113 33.3331 11.2446 33.1553C10.8002 32.9776 10.3558 32.7998 9.91131 32.622C9.55576 32.4442 9.28909 32.3553 9.02242 32.0887C8.66687 31.7331 8.48909 31.2887 8.66687 30.7553C8.75576 30.3109 9.11131 30.0442 9.55576 29.9553C10.3558 29.7776 11.0669 29.9553 11.6891 30.3998C11.8669 30.4887 11.9558 30.5776 12.1335 30.7553C12.3113 30.5776 12.4002 30.3998 12.578 30.222C12.6669 30.0442 12.6669 30.0442 12.578 29.8664C11.6002 28.9776 10.4446 28.7109 9.2002 29.0664C8.31131 29.3331 7.68909 29.8664 7.51131 30.8442C7.33353 31.822 7.68909 32.5331 8.4002 33.1553C8.66687 33.3331 8.93353 33.5109 9.2002 33.5998C9.55576 33.7776 10.0002 33.9553 10.4446 34.1331C10.8002 34.3109 11.0669 34.3998 11.4224 34.5776C12.2224 35.1109 12.1335 36.3553 11.2446 36.7109C10.8002 36.8887 10.3558 36.9776 9.91131 36.8887C9.2002 36.8887 8.57798 36.4442 8.04465 35.9998C8.04465 35.9998 7.86687 35.9109 7.77798 35.822C7.6002 36.0887 7.42242 36.2664 7.24465 36.5331C7.15576 36.7109 7.15576 36.7109 7.24465 36.7998" fill="#517632"/>
<path d="M13.7335 8.79964C13.7335 8.53297 13.9113 8.35519 14.0891 8.08853C14.8002 7.19964 16.2224 7.19964 16.8447 8.26631C17.1113 8.71075 17.2002 9.24408 17.2002 9.68853C17.2002 10.2219 17.2002 10.6663 16.9335 11.0219C16.6669 11.6441 16.1335 12.0885 15.4224 12.0885C14.8891 12.0885 14.3558 11.9107 14.0002 11.4663C13.7335 11.1996 13.6447 10.8441 13.5558 10.3996C13.4669 9.86631 13.5558 9.33297 13.5558 8.71075M15.1558 13.0663C16.2224 13.1552 17.2002 12.7108 17.8224 11.8219C18.178 11.1996 18.3558 10.4885 18.3558 9.68853C18.3558 9.51075 18.3558 9.15519 18.2669 8.88853C17.9113 7.46631 16.9335 6.66631 15.778 6.57742C14.6224 6.48853 13.4669 6.93297 12.9335 8.08853C12.4891 9.06631 12.4002 10.133 12.7558 11.1108C13.1113 12.2663 13.9113 12.9774 15.2447 13.1552" fill="#517632"/>
<path d="M33.8223 8.44241C34.1779 7.82019 34.6223 7.46463 35.3335 7.46463C36.0446 7.46463 36.5779 7.82019 36.8446 8.44241C37.1112 8.97575 37.1112 9.42019 37.1112 10.0424C37.1112 10.4869 37.0223 10.8424 36.8446 11.2869C36.489 11.9091 36.0446 12.1757 35.3335 12.1757C34.6223 12.1757 34.1779 11.8202 33.8223 11.2869C33.5557 10.8424 33.4668 10.398 33.4668 9.86463C33.4668 9.42019 33.4668 8.97575 33.7335 8.5313M32.489 10.1313C32.489 10.9313 32.7557 11.6424 33.289 12.1757C34.4446 13.5091 37.0223 13.4202 38.0001 11.4646C38.3557 10.5757 38.4446 9.68686 38.1779 8.79797C37.9112 7.82019 37.2001 6.75352 35.689 6.57575C34.6223 6.48686 33.7335 6.84241 33.1112 7.7313C32.6668 8.35352 32.489 9.06463 32.489 9.86463C32.489 9.95352 32.489 10.0424 32.489 10.2202" fill="#517632"/>
<path d="M30.0003 19.8205C30.0003 19.6427 30.0003 19.4649 30.0003 19.2872C30.0003 19.1094 30.0003 19.1094 29.8225 19.1094C29.6447 19.1094 29.378 19.1094 29.2003 19.1094C29.0225 19.1094 28.9336 19.1983 28.9336 19.376V25.1538C28.9336 25.1538 28.9336 25.2427 28.9336 25.3316C28.9336 25.4205 28.9336 25.4205 29.0225 25.4205C29.2003 25.4205 29.4669 25.4205 29.6447 25.4205C29.9114 25.4205 29.9114 25.4205 29.9114 25.1538C29.9114 23.8205 29.9114 22.576 29.9114 21.3316C29.9114 21.1538 29.9114 21.0649 30.0891 20.976C30.3558 20.6205 30.7114 20.4427 31.0669 20.2649C31.4225 20.0872 31.6891 20.0872 32.0447 20.176C32.4891 20.176 32.6669 20.5316 32.7558 20.8872C32.7558 21.1538 32.7558 21.3316 32.7558 21.5983C32.7558 22.8427 32.7558 24.0872 32.7558 25.3316C32.7558 26.576 32.7558 25.4205 32.7558 25.5094C32.7558 25.5983 32.7558 25.6872 32.9336 25.6872C33.2003 25.6872 33.4669 25.6872 33.7336 25.6872C33.8225 25.6872 33.9114 25.6872 33.9114 25.5094C33.9114 25.5094 33.9114 25.5094 33.9114 25.4205C33.9114 24.176 33.9114 22.8427 33.9114 21.5983C33.9114 21.3316 33.9114 21.0649 33.9114 20.7983C33.7336 19.8205 33.0225 19.2872 32.0447 19.2872C31.3336 19.2872 30.8003 19.4649 30.178 19.9094C30.0892 19.9094 30.0003 20.0872 29.8225 20.176" fill="#517632"/>
<path d="M26.9781 8.53325C27.2448 7.91102 27.7781 7.55547 28.4892 7.46658C29.2003 7.46658 29.7336 7.73325 30.1781 8.35547C30.1781 8.44436 30.267 8.53325 30.267 8.71102C30.267 9.06658 30.267 9.42214 30.267 9.86658C30.267 10.311 30.267 10.5777 30.267 10.9332C30.267 11.0221 30.267 11.1999 30.1781 11.2888C29.8225 11.911 29.2003 12.1777 28.4892 12.1777C27.7781 12.1777 27.2448 11.7332 26.9781 11.111C26.6225 10.311 26.6225 9.42214 26.9781 8.62214M28.2225 13.1555C28.9336 13.1555 29.5559 12.9777 30.0892 12.5332C30.0892 12.5332 30.0892 12.4444 30.267 12.4444C30.267 12.6221 30.267 12.7999 30.267 12.9777C30.267 13.0666 30.267 13.1555 30.4448 13.1555C30.6225 13.1555 30.8892 13.1555 31.067 13.1555C31.4225 13.1555 31.3336 13.1555 31.3336 12.8888C31.3336 10.1332 31.3336 7.37769 31.3336 4.62214C31.3336 4.53325 31.3336 4.44436 31.3336 4.35547C31.067 4.35547 30.8003 4.44436 30.5336 4.53325C30.267 4.53325 30.267 4.53325 30.267 4.79991V7.2888C30.267 7.2888 30.267 7.46658 30.267 7.55547C29.6448 6.84436 28.8448 6.66658 27.9559 6.93325C26.9781 7.11102 26.3559 7.73325 26.0003 8.71102C25.6448 9.59991 25.6448 10.5777 26.0003 11.4666C26.3559 12.6221 27.1559 13.3332 28.4003 13.4221" fill="#517632"/>
<path d="M57.3779 41.332H7.51123V42.2209H57.3779V41.332Z" fill="#517632"/>
</svg>
