<svg width="108" height="56" viewBox="0 0 108 56" fill="none" xmlns="http://www.w3.org/2000/svg">
<g clip-path="url(#clip0_19_3)">
<path d="M70.7075 19.3274V0.867259C70.7075 0.702067 70.6249 0.619471 70.4597 0.619471C69.9642 0.619471 69.5925 0.619471 69.0969 0.619471C68.973 0.619471 68.8491 0.619472 68.8491 0.371684C68.8491 -0.123891 68.8491 2.54778e-06 69.2208 2.54778e-06C70.5836 2.54778e-06 71.9465 2.54778e-06 73.1854 2.54778e-06H73.4332V9.91151C73.4332 9.91151 73.5571 9.91151 73.5571 9.78761C74.4243 8.79646 75.4155 8.30089 76.6544 8.0531C77.7695 7.80531 78.8845 7.92921 79.9996 8.42478C81.1146 8.92036 81.6102 9.66372 81.7341 10.7788C81.7341 11.5221 81.7341 12.1416 81.7341 12.885C81.7341 14.9912 81.7341 16.9735 81.7341 19.0796C81.7341 21.1858 81.7341 19.3274 81.9819 19.3274C82.4774 19.3274 82.973 19.3274 83.3447 19.3274C83.4686 19.3274 83.5925 19.3274 83.5925 19.5752C83.5925 20.0708 83.5925 19.9469 83.2208 19.9469C81.2385 19.9469 79.2562 19.9469 77.15 19.9469C75.0438 19.9469 76.9022 19.9469 76.9022 19.6991C76.9022 19.3274 76.9022 19.3274 77.2739 19.3274C77.7695 19.3274 78.1411 19.3274 78.6367 19.3274C78.7606 19.3274 78.7606 19.3274 78.7606 19.2035C78.7606 16.4779 78.7606 13.7522 78.7606 11.0266C78.7606 10.6549 78.7606 10.2832 78.6367 10.0354C78.5128 9.53983 78.1411 9.16814 77.5217 9.04425C76.4066 8.79646 75.4155 9.04425 74.5482 9.78761C73.9288 10.4071 73.4332 11.2743 73.4332 12.2655C73.4332 13.0089 73.4332 13.7522 73.3093 14.4956C73.3093 15.9823 73.3093 17.5929 73.3093 19.0796C73.3093 19.3274 73.3093 19.3274 73.5571 19.3274C74.0526 19.3274 74.4243 19.3274 74.9199 19.3274C75.0438 19.3274 75.1677 19.3274 75.1677 19.5752C75.1677 20.0708 75.1677 19.9469 74.796 19.9469C72.8137 19.9469 70.7075 19.9469 68.7252 19.9469C66.7429 19.9469 68.4774 19.9469 68.4774 19.6991C68.4774 19.4513 68.4774 19.6991 68.4774 19.5752C68.4774 19.4513 68.4774 19.3274 68.7252 19.3274C69.2208 19.3274 69.7164 19.3274 70.2119 19.3274H70.4597" fill="#CC073C"/>
<path d="M30.6898 10.1593V10.4071C30.6898 13.2566 30.6898 16.1062 30.6898 19.0796C30.6898 19.3274 30.6898 19.3274 30.9376 19.3274C31.681 19.3274 32.4243 19.3274 33.0438 19.3274C33.1677 19.3274 33.2916 19.3274 33.2916 19.5752C33.2916 20.0708 33.2916 19.9469 32.9199 19.9469C30.3181 19.9469 27.7164 19.9469 24.9907 19.9469C22.265 19.9469 24.7429 19.9469 24.7429 19.6991C24.7429 19.6991 24.7429 19.6991 24.7429 19.5752C24.7429 19.4513 24.7429 19.3274 24.9907 19.3274C25.6102 19.3274 26.3535 19.3274 26.973 19.3274C27.4686 19.3274 27.4686 19.3274 27.4686 18.8319C27.4686 12.885 27.4686 6.93805 27.4686 0.991151C27.4686 0.743364 27.4686 0.743364 27.2208 0.743364C26.4774 0.743364 25.858 0.743364 25.1146 0.743364H24.8668C24.8668 0.61947 24.8668 0.371682 24.8668 0.247788C24.8668 0.247788 24.8668 0.247788 24.9907 0.247788C29.8226 0.247788 34.5305 0.247788 39.3624 0.247788C39.6102 0.247788 39.6102 0.247789 39.6102 0.495576C39.6102 2.23009 39.858 3.9646 39.9819 5.57522C39.9819 5.69912 39.9819 5.82301 39.858 5.82301C39.6102 5.82301 39.4863 5.82301 39.4863 5.57522C39.3624 4.70797 39.1146 3.71682 38.619 2.97345C37.9996 1.73451 37.0084 0.991151 35.6456 0.867257C35.15 0.867257 34.5305 0.867257 34.035 0.867257C33.0438 0.867257 31.9288 0.867257 30.9376 0.867257H30.6898V9.78761C30.6898 9.78761 30.6898 9.78761 30.8137 9.78761C31.681 9.78761 32.6721 9.78761 33.5394 9.78761C34.1589 9.78761 34.7783 9.66372 35.15 9.16814C35.3978 8.79646 35.5217 8.42478 35.5217 7.9292C35.5217 7.30974 35.5217 6.69027 35.6456 6.0708C35.6456 6.0708 35.8934 6.0708 36.0173 6.0708C36.0173 6.0708 36.0173 6.0708 36.1412 6.19469C36.1412 6.19469 36.1412 6.31858 36.1412 6.44248C36.1412 8.92035 36.1412 11.3982 36.1412 13.8761C36.1412 14 36.1412 14.1239 36.0173 14.1239C35.6456 14.1239 35.6456 14.1239 35.6456 13.8761C35.6456 13.3805 35.6456 12.7611 35.3978 12.2655C35.15 11.1504 34.4066 10.6549 33.1677 10.531H32.9199H30.5659" fill="#CC073C"/>
<path d="M56.5836 17.7168C56.3358 18.8319 55.8402 19.5752 54.8491 19.9469C53.734 20.3186 52.619 20.3186 51.5039 19.823C50.6367 19.4513 50.1411 18.5841 50.1411 17.7168C50.1411 16.1062 50.1411 14.4956 50.1411 12.7611C50.1411 11.5221 50.1411 10.4071 50.1411 9.16814C50.1411 9.16814 50.1411 9.16814 50.1411 8.92035H49.8933C49.3978 8.92035 48.9022 8.92035 48.4066 8.92035H48.1588C48.1588 8.79646 48.1588 8.67256 48.1588 8.54867C48.1588 8.54867 48.4066 8.54867 48.5305 8.42478C50.1411 7.55752 51.2562 6.19469 51.9995 4.58407C51.9995 4.33628 52.1234 4.21239 52.1234 3.9646C52.1234 3.71681 52.2473 3.71681 52.4951 3.71681C52.7429 3.71681 52.619 3.71681 52.619 3.9646V8.17699C52.619 8.42478 52.619 8.42478 52.8668 8.42478C53.734 8.42478 54.6013 8.42478 55.4686 8.42478C55.7163 8.42478 55.7163 8.42478 55.7163 8.67256C55.7163 9.04425 55.7163 9.04425 55.3447 9.04425C54.4774 9.04425 53.6101 9.04425 52.7429 9.04425C52.619 9.04425 52.4951 9.04425 52.4951 9.29203C52.4951 12.1416 52.4951 14.8673 52.4951 17.7168C52.4951 17.9646 52.4951 18.2124 52.619 18.5841C52.7429 19.0796 53.1146 19.3274 53.6101 19.4513C54.6013 19.5752 55.3447 19.0796 55.5924 18.2124C55.5924 18.0472 55.7163 17.9646 55.9641 17.9646H56.2119" fill="#CC073C"/>
<path d="M68.2296 16.1062C68.2296 16.1062 68.2296 16.2301 68.2296 16.354C67.734 18.3363 66.4951 19.5752 64.5128 20.0708C62.5305 20.5664 60.796 20.0708 59.1853 18.8319C57.9464 17.8407 57.203 16.4779 57.0791 14.8673C56.8314 12.3894 57.6986 10.531 59.6809 9.04425C60.9198 8.17699 62.4066 7.80531 63.8933 7.92921C64.7606 7.92921 65.6278 8.30089 66.3712 8.79646C66.9906 9.29204 67.4862 9.78761 67.734 10.6549C67.8579 11.3982 67.4862 12.2655 66.7429 12.5133C65.7517 12.885 64.6367 12.0177 64.8844 10.9027C64.8844 10.531 65.1322 10.1593 65.38 9.91151C65.6278 9.66372 65.5039 9.41593 65.38 9.29204C64.8845 8.92036 64.265 8.79646 63.6455 8.67257C63.026 8.67257 62.4066 8.67257 61.911 8.92036C61.2915 9.16814 60.9199 9.66372 60.6721 10.2832C60.4243 11.0266 60.3004 11.8938 60.1765 12.7611C60.1765 14.1239 60.1765 15.4867 60.1765 16.7257C60.1765 17.0973 60.1765 17.5929 60.4243 17.9646C60.796 19.0796 61.6632 19.5752 62.7783 19.6991C64.8844 19.823 66.7429 18.5841 67.3623 16.4779C67.3623 16.354 67.3623 16.2301 67.6101 16.2301C67.734 16.2301 67.8579 16.2301 68.1057 16.2301" fill="#CC073C"/>
<path d="M42.9553 19.3274V8.92036H42.5836C42.0881 8.92036 41.5925 8.92036 41.0969 8.92036C40.973 8.92036 40.8491 8.92036 40.8491 8.67257C40.8491 8.177 40.8491 8.30089 41.2208 8.30089C42.5836 8.30089 43.9465 8.30089 45.3093 8.30089C45.5571 8.30089 45.5571 8.30089 45.5571 8.54868C45.5571 12.0177 45.5571 15.4867 45.5571 18.9558C45.5571 19.2035 45.5571 19.2035 45.8049 19.2035C46.3004 19.2035 46.6721 19.2035 47.1677 19.2035C47.2916 19.2035 47.4155 19.2035 47.4155 19.4513C47.4155 19.823 47.4155 19.823 47.0438 19.823C45.0615 19.823 42.9553 19.823 40.973 19.823C40.8491 19.823 40.7252 19.823 40.7252 19.5752C40.7252 19.2035 40.7252 19.2035 41.0969 19.2035C41.5925 19.2035 42.2119 19.2035 42.7075 19.2035" fill="#CC073C"/>
<path d="M44.1942 3.84071C43.2031 3.84071 42.4597 3.09735 42.4597 2.2301C42.4597 1.36284 43.2031 0.619476 44.1942 0.619476C45.0615 0.619476 45.9287 1.23895 45.9287 2.2301C45.9287 3.22125 45.1854 3.96461 44.1942 3.96461" fill="#CC073C"/>
<path d="M0.70752 23.4159V22.7965H0.955307C3.68097 22.7965 6.28274 22.7965 9.0084 22.7965H9.25619C9.25619 22.9204 9.25619 23.1681 9.25619 23.292C9.25619 23.292 9.1323 23.292 9.0084 23.292C8.38894 23.292 7.64557 23.292 7.0261 23.292C6.77832 23.292 6.77832 23.292 6.77832 23.5398C6.77832 25.1504 6.77832 26.7611 6.77832 28.3717C6.77832 32.8319 6.77832 37.292 6.77832 41.6283C6.77832 42 6.77832 42 7.15 42C8.38894 42 9.50398 42 10.7429 42C11.4863 42 12.2296 42 12.973 41.7522C14.0881 41.5044 14.8314 40.7611 15.327 39.7699C15.8226 38.9027 16.0704 37.9115 16.3181 36.9204C16.3181 36.9204 16.3181 36.9204 16.3181 36.7965C16.3181 36.5487 16.5246 36.4248 16.9376 36.4248C16.9376 36.7965 16.9376 37.1681 16.9376 37.6637C16.9376 38.531 16.8137 39.3982 16.6898 40.2655C16.6898 41.0089 16.6898 41.7522 16.5659 42.4956C16.5659 42.4956 16.5659 42.6195 16.442 42.6195C16.3181 42.6195 16.1942 42.6195 16.0704 42.6195C11.2385 42.6195 6.28274 42.6195 1.45088 42.6195H1.20309C1.20309 42.2891 1.36829 42.1239 1.69867 42.1239C2.31814 42.1239 2.93761 42.1239 3.68097 42.1239C3.80486 42.1239 3.92876 42.1239 3.92876 41.8761C3.92876 41.3805 3.92876 41.0089 3.92876 40.5133C3.92876 34.9381 3.92876 29.3628 3.92876 23.7876C3.92876 23.5398 3.80486 23.4159 3.55708 23.4159H0.70752Z" fill="#3F2A57"/>
<path d="M57.2031 31.5929H55.3447V30.9735H60.0527V32.5841C60.0527 32.5841 60.3005 32.3363 60.4244 32.2124C61.7872 30.7257 64.0173 30.2301 65.9996 30.9735C67.2385 31.5929 67.9819 32.5841 67.9819 33.9469C67.9819 34.8142 67.9819 35.5575 67.9819 36.4248C67.9819 38.1593 67.9819 39.8938 67.9819 41.6283C67.9819 41.7935 68.0645 41.8761 68.2297 41.8761C68.7252 41.8761 69.2208 41.8761 69.5925 41.8761C69.7164 41.8761 69.8403 41.8761 69.8403 42.1239C69.8403 42.4956 69.8403 42.4956 69.4686 42.4956C67.4863 42.4956 65.504 42.4956 63.5217 42.4956C63.2739 42.4956 63.2739 42.4956 63.2739 42.2478C63.2739 42 63.2739 42 63.5217 42C64.0173 42 64.5129 42 65.0084 42C65.0084 42 65.0084 41.8761 65.0084 41.7522C65.0084 39.0265 65.0084 36.4248 65.0084 33.6991C65.0084 33.3274 65.0084 32.9558 64.8845 32.708C64.6367 31.9646 64.0173 31.5929 63.2739 31.5929C62.1589 31.5929 60.6721 32.4602 60.1766 33.9469C59.9288 34.8142 59.8049 35.8053 59.8049 36.7965C59.8049 38.531 59.8049 40.2655 59.8049 42C59.8049 42.2478 59.8049 42.2478 60.0527 42.2478C60.5483 42.2478 61.0438 42.2478 61.5394 42.2478C61.6633 42.2478 61.7872 42.2478 61.7872 42.4956C61.7872 42.9911 61.7872 42.8673 61.4155 42.8673C59.4332 42.8673 57.327 42.8673 55.3447 42.8673C55.0969 42.8673 55.0969 42.8673 55.0969 42.6195C55.0969 42.2478 55.0969 42.2478 55.4686 42.2478C55.9642 42.2478 56.4598 42.2478 56.9553 42.2478V31.9646L57.2031 31.5929Z" fill="#3F2A57"/>
<path d="M93.7518 42.6195H93.504C91.5217 42.6195 89.5394 42.6195 87.4332 42.6195C87.1854 42.6195 87.1854 42.6195 87.1854 42.3717C87.1854 42 87.1854 42 87.5571 42C88.0527 42 88.5483 42 89.0438 42C89.0438 42 89.0438 41.8761 89.0438 41.7522C89.0438 39.1504 89.0438 36.5487 89.0438 33.9469C89.0438 33.5752 89.0438 33.2035 88.9199 32.8319C88.6721 31.9646 88.0527 31.469 87.1854 31.5929C86.0704 31.5929 84.7076 32.4602 84.3359 33.6991C83.9642 34.6903 83.9642 35.5575 83.9642 36.5487C83.9642 38.2832 83.9642 40.0177 83.9642 41.8761C83.9642 42.0413 84.0468 42.1239 84.212 42.1239C84.7076 42.1239 85.2031 42.1239 85.6987 42.1239C85.8226 42.1239 85.9465 42.1239 85.9465 42.3717C85.9465 42.7434 85.9465 42.7434 85.5748 42.7434C83.5925 42.7434 81.6102 42.7434 79.6279 42.7434H79.3801C79.3801 42.6195 79.3801 42.3717 79.3801 42.2478C79.3801 42.2478 79.3801 42.2478 79.504 42.2478C79.9996 42.2478 80.4952 42.2478 80.8668 42.2478H81.1146V31.8407H79.2562V31.2212C79.2562 31.2212 79.2562 31.2212 79.3801 31.2212C80.8668 31.2212 82.2297 31.2212 83.7164 31.2212C83.9642 31.2212 83.9642 31.2212 83.9642 31.469C83.9642 31.8407 83.9642 32.2124 83.9642 32.5841V32.708C84.212 32.5841 84.3359 32.3363 84.5837 32.2124C86.0704 30.8496 88.3005 30.4779 90.1589 31.469C91.2739 32.0885 91.7695 32.9557 91.8934 34.1947C91.8934 34.8142 91.8934 35.4336 91.8934 36.0531C91.8934 38.0354 91.8934 40.0177 91.8934 42C91.8934 43.9823 91.8934 42.2478 92.1412 42.2478C92.6368 42.2478 93.1323 42.2478 93.504 42.2478C93.6279 42.2478 93.7518 42.2478 93.7518 42.4956C93.7518 42.4956 93.7518 42.7434 93.7518 42.8672" fill="#3F2A57"/>
<path d="M50.8845 42.6195C50.8845 42.6195 50.6367 42.6195 50.5128 42.6195C48.4066 42.6195 46.4243 42.6195 44.3181 42.6195C44.0703 42.6195 44.0703 42.6195 44.0703 42.3717C44.0703 42.3717 44.0703 42.3717 44.0703 42.2478C44.0703 42 44.0703 42 44.3181 42C44.8137 42 45.4331 42 45.9287 42C46.0526 42 46.1765 42 46.1765 41.8761C46.1765 38.531 46.1765 35.3097 46.1765 31.9646C46.1765 28.6195 46.1765 31.7168 45.9287 31.7168H44.1942V31.2212C44.1942 31.0973 44.1942 31.0973 44.442 31.0973C45.557 31.0973 46.796 31.0973 47.911 31.0973C48.1588 31.0973 48.5305 31.0973 48.7783 31.0973C48.7783 31.0973 48.9022 31.0973 49.0261 31.0973V33.5752C49.0261 33.5752 49.0261 33.5752 49.0261 33.4513C49.3977 32.708 49.7694 32.0885 50.3889 31.5929C51.2562 30.9734 52.1234 30.6018 53.2385 31.0973C54.2296 31.469 54.6013 32.5841 53.9818 33.4513C53.3623 34.3186 51.9995 34.3186 51.5039 33.4513C51.38 33.2035 51.38 32.8319 51.2562 32.5841V32.4602C51.2562 32.2124 51.0084 32.2124 50.8845 32.2124C50.6367 32.2124 50.3889 32.5841 50.265 32.8319C49.6455 33.9469 49.2739 35.0619 49.15 36.4248C48.9022 38.2832 49.0261 40.2655 49.0261 42.1239C49.0261 42.2478 49.0261 42.3717 49.2739 42.3717C49.7694 42.3717 50.265 42.3717 50.7606 42.3717C50.8845 42.3717 51.0084 42.3717 51.0084 42.6195C51.0084 42.6195 51.0084 42.8673 51.0084 42.9911" fill="#3F2A57"/>
<path d="M73.0615 31.5929H71.0792V30.9734C71.0792 30.9734 71.2031 30.9734 71.327 30.9734C72.8137 30.9734 74.1766 30.9734 75.6633 30.9734C75.9111 30.9734 75.9111 30.9735 75.9111 31.2212C75.9111 34.6903 75.9111 38.1593 75.9111 41.7522C75.9111 41.8761 75.9111 42 76.1589 42C76.6544 42 77.15 42 77.6456 42C77.7695 42 77.8934 42 77.8934 42.2478C77.8934 42.6195 77.8934 42.6195 77.5217 42.6195C75.5394 42.6195 73.4332 42.6195 71.4509 42.6195C71.2031 42.6195 71.2031 42.6195 71.2031 42.3717C71.2031 42 71.2031 42 71.5748 42C72.0704 42 72.5659 42 72.9376 42C73.0615 42 73.1854 42 73.1854 41.7522C73.1854 39.0265 73.1854 36.3009 73.1854 33.4513C73.1854 32.8319 73.1854 32.3363 73.1854 31.7168C73.1854 31.7168 73.1854 31.7168 73.1854 31.5929" fill="#3F2A57"/>
<path d="M74.3004 28.3717C73.3093 28.3717 72.5659 27.6283 72.5659 26.6372C72.5659 25.7699 73.4332 25.0266 74.3004 25.0266C75.2916 25.0266 76.0349 25.7699 76.0349 26.7611C76.0349 27.7522 75.2916 28.3717 74.3004 28.3717Z" fill="#3F2A57"/>
<path d="M102.672 37.0443C102.672 37.9115 101.805 38.4071 101.185 38.4071C100.938 38.4071 100.566 38.4071 100.318 38.4071C99.5748 38.2832 98.9553 37.6637 98.9553 36.7965C98.9553 36.177 98.9553 35.6814 98.9553 35.062C98.9553 34.3186 98.9553 33.5752 99.0792 32.708C99.2031 31.7168 99.8226 31.0974 100.938 31.2212C101.309 31.2212 101.681 31.2212 101.929 31.3451C102.548 31.5929 102.796 31.9646 102.92 32.5841C102.92 33.6991 102.92 34.9381 102.92 36.0531C102.92 36.3009 102.92 36.6726 102.92 36.9204M97.3447 45.3451C97.5925 44.8496 98.0881 44.6018 98.7075 44.7257C99.6987 44.7257 100.69 44.7257 101.681 44.7257C102.672 44.7257 103.663 44.7257 104.654 44.7257C104.902 44.7257 105.15 44.7257 105.398 44.7257C105.893 44.8496 106.141 45.2212 106.141 45.7168C106.141 46.708 105.769 47.5752 105.15 48.3186C104.159 49.3097 103.044 49.8053 101.681 49.9292C101.433 49.9292 101.185 49.9292 100.938 49.9292C100.194 49.9292 99.4509 49.9292 98.8314 49.5575C97.9642 49.1858 97.4686 48.5664 97.2208 47.823C96.973 47.0796 96.973 46.3363 97.3447 45.5929C97.3447 45.5929 97.3447 45.469 97.4686 45.3451M107.38 31.0974C106.885 30.7257 106.265 30.8496 105.646 31.0974C105.15 31.2212 104.778 31.5929 104.407 31.8407C104.407 31.8407 104.159 31.8407 104.035 31.8407C103.539 31.469 103.044 31.0973 102.424 30.9735C101.309 30.6018 100.194 30.7257 99.0792 30.9735C98.0881 31.2212 97.3447 31.7168 96.6013 32.4602C95.2385 33.9469 95.3624 36.7965 97.3447 38.2832C97.3447 38.2832 97.3447 38.2832 97.4686 38.4071C97.4686 38.4071 97.4686 38.4071 97.3447 38.4071C96.6013 38.9027 95.858 39.3982 95.3624 40.1416C94.8668 40.885 94.7429 41.6283 94.8668 42.3717C95.1146 43.3628 95.7341 43.8584 96.6013 44.2301C96.7252 44.2301 96.8491 44.2301 96.973 44.354C96.973 44.354 96.973 44.354 96.8491 44.4779C96.3535 44.6018 95.858 44.9735 95.4863 45.3451C94.7429 46.0885 94.619 47.2035 95.1146 48.0708C95.4863 48.8142 96.1058 49.3097 96.8491 49.6814C97.9642 50.3009 99.0792 50.5487 100.318 50.4248C100.938 50.4248 101.433 50.4248 102.053 50.4248C103.292 50.177 104.531 49.6814 105.398 48.6903C106.637 47.4513 107.008 45.9646 106.885 44.2301C106.761 43.2389 106.265 42.4956 105.274 42.1239C104.902 42.1239 104.531 41.8761 104.159 41.8761C103.292 41.8761 102.424 41.8761 101.557 41.8761C100.318 41.8761 99.0792 41.8761 97.9642 41.8761C96.8491 41.8761 97.5925 41.8761 97.3447 41.8761C96.6013 41.8761 96.2296 41.2566 96.3535 40.6372C96.3535 40.2655 96.4774 40.0177 96.7252 39.7699C97.0969 39.3982 97.4686 39.1504 97.8403 38.7788C98.0881 38.531 98.3358 38.531 98.8314 38.6549C100.442 39.1504 102.053 39.0266 103.539 38.2832C105.398 37.4159 106.141 35.5575 105.522 33.6991C105.398 33.2035 105.026 32.708 104.654 32.2124C104.778 32.0885 104.902 31.9646 105.15 31.8407C105.398 31.7168 105.646 31.8407 105.646 32.0885C105.646 32.2124 105.646 32.3363 105.769 32.4602C105.893 32.9558 106.265 33.0797 106.761 33.0797C107.256 33.0797 107.628 32.8319 107.752 32.4602C107.752 32.3363 107.752 32.0885 107.752 31.8407C107.752 31.469 107.628 31.0973 107.256 30.9735" fill="#3F2A57"/>
<path d="M38.3712 39.646C37.9996 40.6372 37.3801 41.2566 36.3889 41.5044C35.2739 41.7522 34.1589 41.0088 34.1589 39.7699C34.1589 38.6549 34.5305 37.9115 35.3978 37.292C36.1412 36.7965 37.0084 36.6726 37.8757 36.5487C38.1235 36.5487 38.3712 36.5487 38.619 36.5487C38.619 37.5398 38.619 38.531 38.3712 39.5221M43.2031 41.8761C43.2031 41.7522 43.0792 41.6283 42.9553 41.5044C42.9553 41.5044 42.8314 41.5044 42.7075 41.6283C42.5836 41.6283 42.3358 41.8761 42.212 42C41.8403 42.1239 41.5925 42 41.4686 41.6283C41.4686 41.3805 41.4686 41.2566 41.4686 41.0088C41.4686 40.3894 41.4686 39.8938 41.4686 39.2743C41.4686 37.4159 41.4686 35.5575 41.4686 33.6991C41.4686 32.5841 40.8491 31.7168 39.7341 31.2212C37.8757 30.4779 36.1412 30.4779 34.2828 31.2212C33.5394 31.5929 32.9199 32.0885 32.4243 32.8319C32.1766 33.2035 32.1766 33.6991 32.3004 34.0708C32.5482 34.9381 33.6633 35.3097 34.4066 34.6903C34.9022 34.3186 35.0261 33.6991 34.6544 33.2035C34.6544 33.2035 34.5305 32.9558 34.4066 32.8319C34.1589 32.4602 34.1589 32.3363 34.4066 32.0885C35.2739 31.3451 36.1412 31.0973 37.2562 31.3451C37.8757 31.469 38.2474 31.8407 38.4951 32.4602C38.4951 32.708 38.619 33.0796 38.619 33.3274C38.619 34.1947 38.619 35.0619 38.619 35.9292C38.619 36.7965 38.619 36.0531 38.619 36.0531C37.6279 36.0531 36.7606 36.177 35.8934 36.3009C34.9022 36.3009 34.035 36.6726 33.2916 37.1681C32.5482 37.6637 31.9288 38.1593 31.5571 39.0265C31.0615 40.3894 31.5571 41.7522 32.9199 42.3717C33.2916 42.4956 33.6633 42.6195 34.1589 42.7434C35.8934 42.9912 37.6279 42.2478 38.619 40.6372C38.619 40.6372 38.619 40.6372 38.619 40.5133C38.619 40.5133 38.619 40.6372 38.619 40.7611C38.619 41.5044 39.1146 42.1239 39.858 42.4956C40.973 42.9911 42.3358 42.7434 43.2031 41.8761V41.7522Z" fill="#3F2A57"/>
<path d="M26.4775 35.3097C25.7341 35.3097 24.9907 35.3097 24.2474 35.3097C23.504 35.3097 22.7606 35.3097 22.1412 35.3097C22.0173 35.3097 21.8934 35.3097 21.8934 35.0619C21.8934 34.4425 21.8934 33.823 21.8934 33.2035C22.0173 32.2124 22.8845 31.469 23.8757 31.3451C24.2474 31.3451 24.619 31.3451 25.1146 31.3451C25.9819 31.5929 26.4775 32.3363 26.6013 33.2035C26.6013 33.823 26.6013 34.4425 26.6013 35.0619C26.6013 35.1858 26.6013 35.1858 26.3536 35.1858M29.9465 35.6814C29.9465 35.5575 29.9465 35.4336 29.9465 35.1858C29.8226 34.0708 29.327 33.0796 28.5836 32.2124C26.973 30.6018 24.2474 30.1062 22.2651 31.2212C19.9111 32.4602 18.4244 35.1858 18.9199 37.9115C19.5394 41.0088 22.6367 43.2389 25.4863 42.8673C27.3447 42.6195 28.7075 41.6283 29.4509 39.8938C29.5748 39.5221 29.6987 39.1504 29.8226 38.7788C29.5748 38.7788 29.4509 38.7788 29.327 38.7788C29.2031 38.7788 29.0792 38.7788 29.0792 39.0265C29.0792 39.3982 28.8314 39.7699 28.7075 40.0177C27.8403 41.6283 26.4775 42.4956 24.619 42.3717C24.1235 42.3717 23.6279 42.2478 23.2562 41.8761C22.389 41.2566 22.1412 40.3894 22.1412 39.5221C22.1412 38.4071 22.1412 37.4159 22.1412 36.3009C22.1412 36.0531 22.1412 36.0531 22.389 36.0531H28.9553C29.327 36.0531 29.5748 36.0531 29.9465 36.0531C30.0704 36.0531 30.1943 36.0531 30.1943 35.8053" fill="#3F2A57"/>
</g>
<defs>
<clipPath id="clip0_19_3">
<rect width="107.292" height="56" fill="white" transform="translate(0.70752)"/>
</clipPath>
</defs>
</svg>
