<svg width="72" height="56" viewBox="0 0 72 56" fill="none" xmlns="http://www.w3.org/2000/svg">
<path d="M43.4888 23.1271C44.111 23.1271 44.7332 23.2308 45.0443 23.853C45.2517 24.2679 45.4591 24.6827 45.4591 25.0975C45.4591 25.3049 45.4591 25.3049 45.2517 25.3049C45.0443 25.3049 44.7332 25.3049 44.5258 25.3049C43.6962 25.3049 42.8665 25.3049 41.9332 25.3049C41.9332 25.3049 41.7258 25.3049 41.6221 25.3049C41.6221 24.2679 42.4517 23.3345 43.4888 23.2308M46.2888 28.8308C46.2888 28.6234 46.0814 28.5197 45.9777 28.3123C45.9777 28.1049 45.874 28.1049 45.6665 28.3123C45.2517 28.5197 44.8369 28.7271 44.4221 28.7271C43.074 28.9345 41.8295 28.2086 41.6221 26.5493C41.6221 26.3419 41.6221 26.3419 41.8295 26.2382C42.5554 26.2382 43.2814 26.2382 44.111 26.2382C44.9406 26.2382 45.6665 26.2382 46.3925 26.2382C46.5999 26.2382 46.5999 26.2382 46.5999 26.0308C46.5999 25.3049 46.5999 24.579 46.2888 23.853C45.6666 22.2975 44.3184 21.779 42.9703 22.0901C41.9332 22.2975 41.2073 23.0234 40.6888 23.9568C40.1703 24.9938 40.1703 26.1345 40.4814 27.2753C40.7925 28.3123 41.4147 29.0382 42.4517 29.453C43.074 29.7642 43.7999 29.7642 44.5258 29.6605C45.148 29.6605 45.6665 29.3493 46.0814 29.0382C46.1851 29.0382 46.1851 28.9345 46.0814 28.7271" fill="#001F62"/>
<path d="M42.9702 40.3418C42.9702 40.8603 42.9702 41.3788 42.6591 41.7937C42.1406 42.9344 41.1036 43.1418 40.1702 42.8307C39.6517 42.6233 39.2369 42.2085 39.0295 41.69C38.6147 40.7566 38.6147 39.7196 39.0295 38.7863C39.4443 37.6455 40.5851 37.2307 41.6221 37.6455C42.1406 37.8529 42.4517 38.2677 42.6591 38.7863C42.8665 39.2011 42.9702 39.7196 42.9702 40.3418ZM44.2147 39.0974C43.7999 37.4381 42.5554 36.2974 40.6888 36.4011C39.4443 36.4011 38.6147 37.0233 37.9925 38.0603C37.4739 39.0974 37.3702 40.2381 37.6813 41.3788C38.0962 42.9344 39.3406 44.1788 41.311 43.9714C42.4517 43.8677 43.385 43.2455 43.9036 42.1048C44.2147 41.4825 44.3184 40.8603 44.3184 40.1344C44.3184 39.7196 44.3184 39.4085 44.2147 38.9937" fill="#001F62"/>
<path d="M31.2519 22.1918C30.9408 22.1918 30.7334 22.1918 30.4223 22.1918C30.2148 22.1918 30.2148 22.1918 30.2148 22.3992C30.2148 22.3992 30.2148 22.3992 30.2148 22.5029V26.9622C30.2148 27.6881 30.2148 28.5177 30.2148 29.2436C30.2148 29.451 30.2148 29.451 30.4223 29.451C30.7334 29.451 31.0445 29.451 31.2519 29.451C31.3556 29.451 31.4593 29.451 31.4593 29.2436C31.4593 29.2436 31.4593 29.1399 31.4593 29.0362V22.3992C31.4593 22.3992 31.4593 22.2955 31.4593 22.1918C31.4593 22.0881 31.4593 21.9844 31.2519 21.9844" fill="#001F62"/>
<path d="M48.9852 22.1929C48.2593 22.504 47.7408 23.1262 47.7408 23.8521C47.7408 24.6818 48.0519 25.2003 48.6741 25.7188C48.9852 25.9262 49.2964 26.0299 49.6075 26.1336C50.0223 26.2373 50.3334 26.4447 50.7482 26.5484C50.9556 26.5484 51.163 26.7558 51.2667 26.8595C51.5778 27.1707 51.6815 27.4818 51.5778 27.7929C51.4741 28.2077 51.0593 28.4151 50.6445 28.5188C50.0223 28.6225 49.4001 28.5188 48.7778 28.2077C48.5704 28.104 48.2593 27.8966 48.0519 27.6892C47.9482 27.6892 47.8445 27.6892 47.8445 27.6892C47.7408 27.8966 47.5334 28.104 47.4297 28.3114V28.5188C48.2593 29.141 49.0889 29.4521 50.126 29.4521C50.3334 29.4521 50.4371 29.4521 50.6445 29.4521C51.2667 29.4521 51.7852 29.141 52.2001 28.7262C53.0297 28.0003 53.1334 26.2373 51.7852 25.5114C51.5778 25.4077 51.3704 25.304 51.163 25.2003C50.7482 24.9929 50.3334 24.8892 49.8149 24.6818C49.6075 24.6818 49.4001 24.4744 49.1927 24.267C48.9852 24.0595 48.8815 23.7484 48.8815 23.4373C48.9852 23.0225 49.2964 22.8151 49.7112 22.7114C50.2297 22.6077 50.7482 22.7114 51.2667 22.9188C51.4741 23.0225 51.6815 23.1262 51.8889 23.3336C51.8889 23.3336 51.9927 23.3336 52.0964 23.3336C52.2001 23.1262 52.4075 22.9188 52.5112 22.7114C52.5112 22.6077 52.5112 22.504 52.5112 22.4003C52.2001 22.1929 51.9927 22.0892 51.5778 21.8818C50.7482 21.5707 49.8149 21.5707 48.9852 21.8818" fill="#001F62"/>
<path d="M46.8072 33.5998C46.4961 33.5998 46.0813 33.8072 45.7702 33.8072C45.7702 33.8072 45.6665 33.8072 45.6665 34.0146C45.6665 34.0146 45.6665 34.1183 45.6665 34.222V43.5554V43.7628C45.6665 43.8665 45.6665 43.8665 45.7702 43.8665C46.0813 43.8665 46.3924 43.8665 46.7035 43.8665C46.8072 43.8665 46.911 43.8665 46.8072 43.7628C46.8072 43.7628 46.8072 43.6591 46.8072 43.5554V33.8072C46.8072 33.8072 46.8072 33.5998 46.8072 33.4961" fill="#001F62"/>
<path d="M53.652 28.8302C54.689 29.6599 55.9335 29.971 57.1779 29.6599C57.8001 29.5562 58.215 29.2451 58.6298 28.7265C59.252 27.7932 59.0446 26.4451 58.0076 25.8228C57.8001 25.7191 57.5927 25.6154 57.3853 25.5117C56.9705 25.3043 56.5557 25.2006 56.1409 24.9932C55.8298 24.8895 55.6224 24.7858 55.415 24.5784C55.2076 24.371 55.1038 24.0599 55.2076 23.7488C55.2076 23.4376 55.5187 23.2302 55.8298 23.1265C56.3483 22.9191 56.8668 23.0228 57.3853 23.1265C57.5927 23.2302 57.8001 23.3339 58.0076 23.5413H58.215C58.3187 23.3339 58.5261 23.1265 58.6298 23.0228C58.7335 22.8154 58.7335 22.8154 58.6298 22.7117C57.8001 22.0895 56.8668 21.8821 55.8298 22.0895C55.3113 22.0895 54.8964 22.4006 54.5853 22.7117C53.7557 23.4376 53.652 24.8895 54.689 25.7191C54.8964 25.8228 55.1038 26.0302 55.3113 26.1339C55.7261 26.3414 56.1409 26.4451 56.6594 26.6525C56.8668 26.6525 57.1779 26.8599 57.3853 26.9636C57.5927 27.0673 57.6964 27.2747 57.8001 27.4821C57.9038 27.8969 57.8001 28.4154 57.3853 28.6228C57.1779 28.7265 56.8668 28.8302 56.5557 28.8302C55.9335 28.8302 55.3113 28.7265 54.7927 28.3117C54.5853 28.208 54.3779 28.0006 54.1705 27.8969C53.9631 28.1043 53.8594 28.4154 53.652 28.6228C53.5483 28.8302 53.5483 28.8302 53.652 28.9339" fill="#001F62"/>
<path d="M35.089 41.6912C34.8816 42.3135 34.4668 42.7283 33.7408 42.9357C32.8075 43.1431 31.8742 42.832 31.4594 41.8986C31.1483 41.3801 31.0445 40.8616 31.1483 40.2394C31.1483 39.7209 31.1483 39.2023 31.4594 38.6838C32.1853 37.232 33.8445 37.232 34.5705 38.0616C34.9853 38.4764 35.1927 38.8912 35.2964 39.4098C35.4001 40.1357 35.4001 40.9653 35.089 41.6912ZM33.2223 36.4023C31.7705 36.4023 30.7334 37.232 30.2149 38.4764C30.0075 38.9949 29.9038 39.6172 29.9038 40.2394C29.9038 40.4468 29.9038 40.6542 29.9038 40.8616C29.9038 41.069 29.9038 41.2764 30.0075 41.4838C30.4223 43.1431 31.6668 44.2838 33.5334 44.1801C34.6742 44.1801 35.6075 43.4542 36.126 42.4172C36.7483 41.1727 36.7483 39.8246 36.2297 38.5801C35.7112 37.232 34.5705 36.506 33.1186 36.506" fill="#001F62"/>
<path d="M21.0891 42.5182C20.9853 42.3108 20.9853 42.3108 20.7779 42.5182C20.2594 42.8293 19.7409 43.0367 19.1187 43.0367C18.2891 43.0367 17.6668 42.6219 17.252 41.8959C17.0446 41.3774 16.9409 40.8589 16.9409 40.3404C16.9409 39.8219 16.9409 39.3033 17.252 38.8885C17.6668 37.9552 18.6002 37.5404 19.5335 37.6441C19.9483 37.6441 20.2594 37.8515 20.5705 38.0589C20.6742 38.1626 20.6742 38.1626 20.8816 38.0589C20.9853 37.8515 21.1928 37.6441 21.2965 37.4367C21.2965 37.333 21.2965 37.2293 21.2965 37.1256C20.9853 36.8145 20.5705 36.6071 20.1557 36.5034C18.7039 36.0885 16.8372 36.7108 16.1113 38.37C15.4891 39.6145 15.5928 40.9626 16.1113 42.3108C16.3187 42.8293 16.7335 43.3478 17.252 43.6589C18.0816 44.1774 19.015 44.3848 19.9483 44.1774C20.4668 44.0737 20.9853 43.7626 21.5039 43.4515C21.6076 43.4515 21.6076 43.2441 21.5039 43.1404C21.4002 42.933 21.2965 42.7256 21.1928 42.6219" fill="#001F62"/>
<path d="M45.5629 15.1428C45.7703 15.1428 46.0814 15.1428 46.2888 15.1428C46.7036 15.1428 46.7036 15.1428 46.7036 14.728C46.7036 13.2762 46.7036 11.7206 46.7036 10.2687C46.7036 10.165 46.7036 10.0613 46.7036 9.95764C47.2221 9.33542 47.8444 8.8169 48.674 8.8169C49.6073 8.8169 50.0221 9.23171 50.1258 9.95764C50.1258 10.165 50.1258 10.4762 50.1258 10.6836C50.1258 12.0317 50.1258 13.3799 50.1258 14.6243C50.1258 15.8688 50.1258 14.728 50.1258 14.8317C50.1258 14.8317 50.1258 14.9354 50.2295 14.9354C50.5407 14.9354 50.8518 14.9354 51.2666 14.9354C51.2666 14.9354 51.3703 14.9354 51.3703 14.8317C51.3703 14.8317 51.3703 14.728 51.3703 14.6243C51.3703 13.0688 51.3703 11.6169 51.3703 10.0613C51.3703 9.75023 51.3703 9.43912 51.2666 9.12801C51.0592 8.40208 50.6444 7.77986 49.9184 7.57245C49.6073 7.57245 49.3999 7.46875 49.0888 7.46875C48.2592 7.46875 47.5332 7.77986 46.911 8.29838C46.911 8.29838 46.7036 8.40208 46.5999 8.60949C46.5999 8.29838 46.5999 8.09097 46.5999 7.98727C46.5999 7.77986 46.5999 7.77986 46.3925 7.77986C46.0814 7.77986 45.874 7.77986 45.5629 7.77986C45.3555 7.77986 45.3555 7.77986 45.3555 7.98727C45.3555 7.98727 45.3555 7.98727 45.3555 8.09097V14.728C45.3555 14.728 45.3555 14.8317 45.3555 14.9354C45.3555 15.0391 45.3555 15.1428 45.5629 15.1428Z" fill="#001F62"/>
<path d="M12.2741 28.3127C12.0667 28.3127 11.8593 28.3127 11.6519 28.3127C11.0297 28.3127 10.4075 28.3127 9.68153 28.3127C9.47413 28.3127 9.47412 28.3127 9.47412 28.1053C9.47412 27.0682 9.47412 26.0312 9.47412 25.0979C9.47412 24.8905 9.47413 24.8905 9.68153 24.8905C9.99264 24.8905 10.4075 24.8905 10.8223 24.8905C11.2371 24.8905 11.7556 24.8905 12.1704 24.8905C12.8963 24.9942 13.4149 25.409 13.5186 26.1349C13.726 27.1719 13.3112 28.0016 12.1704 28.209M9.47412 20.7423C9.47412 20.5349 9.47412 20.5349 9.78524 20.5349C10.3038 20.5349 10.926 20.5349 11.4445 20.5349C11.7556 20.5349 12.0667 20.5349 12.2741 20.7423C12.6889 20.9497 12.8963 21.2608 13.0001 21.6756C13.0001 21.9867 13.0001 22.4016 13.0001 22.7127C12.8963 23.1275 12.5852 23.4386 12.1704 23.5423C11.8593 23.646 11.4445 23.7497 11.1334 23.7497C10.7186 23.7497 10.2001 23.7497 9.78524 23.7497C9.57783 23.7497 9.57783 23.7497 9.57783 23.5423C9.57783 23.0238 9.57783 22.609 9.57783 22.0905C9.57783 21.5719 9.57783 21.1571 9.57783 20.7423M13.2075 24.3719C13.2075 24.3719 13.1038 24.3719 13.0001 24.3719C13.9334 23.9571 14.2445 23.2312 14.3482 22.2979C14.3482 21.0534 13.726 20.1201 12.5852 19.809C12.1704 19.7053 11.7556 19.6016 11.3408 19.6016C10.4075 19.6016 9.37042 19.6016 8.43709 19.6016C8.22968 19.6016 8.22968 19.6016 8.12598 19.809V29.4534C8.12598 29.7645 8.12598 29.7645 8.43709 29.7645C9.57783 29.7645 10.6149 29.7645 11.7556 29.7645C12.2741 29.7645 12.6889 29.7645 13.1038 29.5571C14.0371 29.246 14.6593 28.6238 14.8667 27.6905C14.8667 27.3793 14.8667 27.0682 14.8667 26.7571C14.8667 25.7201 14.1408 24.8905 13.2075 24.5793" fill="#001F62"/>
<path d="M30.3184 20.8468C30.6295 20.8468 30.9406 20.8468 31.2517 20.8468C31.3554 20.8468 31.4591 20.8468 31.4591 20.6394C31.4591 20.4319 31.4591 20.2245 31.4591 20.0171C31.4591 19.8097 31.4591 19.6023 31.4591 19.3949C31.4591 19.2912 31.4591 19.1875 31.3554 19.1875C31.0443 19.1875 30.7332 19.1875 30.4221 19.1875C30.3184 19.1875 30.3184 19.1875 30.3184 19.3949C30.3184 19.8097 30.3184 20.2245 30.3184 20.5356C30.3184 20.6394 30.3184 20.7431 30.5258 20.7431" fill="#001F62"/>
<path d="M28.5556 38.1624C28.3482 37.2291 27.8297 36.6068 26.7927 36.5031C25.8593 36.2957 25.0297 36.5031 24.3038 37.1253C24.2001 37.1253 23.9927 37.3328 23.889 37.5402V34.0142C23.889 34.0142 23.889 33.9105 23.889 33.8068C23.889 33.8068 23.889 33.7031 23.7853 33.7031C23.4742 33.7031 23.1631 33.9105 22.7482 33.9105C22.7482 33.9105 22.6445 33.9105 22.6445 34.1179C22.6445 34.1179 22.6445 34.2216 22.6445 34.3253C22.6445 37.4365 22.6445 40.5476 22.6445 43.6587C22.6445 46.7698 22.6445 43.6587 22.6445 43.7624C22.6445 43.9698 22.6445 43.9698 22.8519 43.9698C23.0593 43.9698 23.2668 43.9698 23.5779 43.9698C23.9927 43.9698 23.889 43.9698 23.889 43.6587C23.889 42.2068 23.889 40.6513 23.889 39.1994C23.889 38.992 23.889 38.8883 24.0964 38.6809C24.4075 38.3698 24.8223 38.0587 25.2371 37.8513C25.5482 37.7476 25.8593 37.6439 26.2742 37.6439C26.8964 37.6439 27.2075 37.955 27.3112 38.5772C27.3112 38.8883 27.3112 39.0957 27.3112 39.4068C27.3112 40.8587 27.3112 42.2068 27.3112 43.6587C27.3112 45.1105 27.3112 43.8661 27.3112 43.8661C27.3112 43.8661 27.3112 43.9698 27.4149 43.9698C27.726 43.9698 28.0371 43.9698 28.4519 43.9698C28.8668 43.9698 28.5556 43.9698 28.5556 43.8661C28.5556 43.7624 28.5556 43.7624 28.5556 43.6587C28.5556 42.2068 28.5556 40.6513 28.5556 39.1994C28.5556 38.8883 28.5556 38.5772 28.5556 38.1624Z" fill="#001F62"/>
<path d="M20.7778 27.3788C20.2593 28.0011 19.6371 28.4159 18.8074 28.5196C18.0815 28.5196 17.563 28.3122 17.4593 27.5862C17.4593 27.2751 17.4593 27.0677 17.4593 26.7566C17.4593 25.4085 17.4593 23.9566 17.4593 22.6085C17.4593 21.2603 17.4593 22.5048 17.4593 22.4011C17.4593 22.2974 17.4593 22.1936 17.2519 22.1936C16.9408 22.1936 16.6297 22.1936 16.3185 22.1936C16.2148 22.1936 16.2148 22.1936 16.2148 22.4011C16.2148 22.4011 16.2148 22.4011 16.2148 22.5048C16.2148 23.9566 16.2148 25.4085 16.2148 26.8603C16.2148 27.3788 16.2148 27.7936 16.4223 28.3122C16.6297 28.9344 17.0445 29.3492 17.7704 29.5566C18.0815 29.5566 18.3926 29.6603 18.7037 29.6603C19.4297 29.6603 20.1556 29.3492 20.6741 28.8307C20.6741 28.8307 20.8815 28.727 20.9852 28.6233C20.9852 28.8307 20.9852 29.0381 20.9852 29.1418C20.9852 29.5566 20.9852 29.4529 21.2963 29.4529C21.5037 29.4529 21.7111 29.4529 21.9185 29.4529C22.2297 29.4529 22.2297 29.4529 22.2297 29.1418V22.4011C22.2297 22.4011 22.2297 22.2973 22.2297 22.1936C22.2297 22.0899 22.2297 22.0899 22.126 22.0899C21.8148 22.0899 21.5037 22.0899 21.1926 22.0899C21.0889 22.0899 20.9852 22.0899 20.9852 22.2973C20.9852 22.5048 20.9852 22.6085 20.9852 22.8159C20.9852 24.164 20.9852 25.5122 20.9852 26.964C20.9852 27.0677 20.9852 27.2751 20.8815 27.3788" fill="#001F62"/>
<path d="M8.33318 15.1413C8.33318 15.1413 8.33318 15.1413 8.43689 15.1413H13.311C13.311 15.1413 13.4147 15.1413 13.5184 15.1413C13.5184 15.1413 13.6221 15.1413 13.6221 15.0376C13.6221 14.7265 13.6221 14.4154 13.6221 14.1043C13.6221 14.0006 13.6221 13.8968 13.5184 14.0006C13.5184 14.0006 13.4147 14.0006 13.311 14.0006H9.88874C9.47392 14.0006 9.57763 14.0005 9.57763 13.6894V5.49685V5.28944C9.57763 5.18573 9.57763 5.08203 9.37022 5.08203C9.05911 5.08203 8.748 5.08203 8.33318 5.08203C8.22948 5.08203 8.12578 5.08203 8.22948 5.18573V5.39314V14.7265C8.22948 14.7265 8.22948 14.8302 8.22948 14.9339C8.22948 15.0376 8.22948 15.1413 8.43689 15.1413" fill="#001F62"/>
<path d="M22.1258 14.8313C22.1258 14.8313 22.1258 14.935 22.1258 15.0387C22.1258 15.1424 22.1258 15.2462 22.3332 15.2462C22.6443 15.2462 22.9554 15.2462 23.2665 15.2462C23.3702 15.2462 23.4739 15.2462 23.4739 15.0387C23.4739 15.0387 23.4739 14.935 23.4739 14.8313C23.4739 13.3795 23.4739 11.9276 23.4739 10.3721C23.4739 10.1647 23.4739 10.061 23.5776 9.95726C23.8887 9.54245 24.3036 9.23134 24.7184 9.02393C25.0295 8.92023 25.3406 8.81652 25.6517 8.81652C26.2739 8.81652 26.6887 9.23134 26.7924 9.85356C26.7924 10.061 26.7924 10.2684 26.7924 10.4758C26.7924 11.4091 26.7924 12.3424 26.7924 13.2758C26.7924 14.2091 26.7924 14.4165 26.7924 14.935C26.7924 15.1424 26.7924 15.1424 26.9999 15.1424C27.311 15.1424 27.5184 15.1424 27.8295 15.1424C28.0369 15.1424 28.0369 15.1424 28.0369 14.8313C28.0369 13.2758 28.0369 11.7202 28.0369 10.1647C28.0369 9.74986 28.0369 9.43874 27.8295 9.02393C27.6221 8.298 27.1036 7.88319 26.3776 7.67578C26.1702 7.67578 25.9628 7.67578 25.7554 7.67578C24.9258 7.67578 24.1999 7.98689 23.5776 8.50541C23.5776 8.50541 23.3702 8.60911 23.2665 8.71282C23.2665 8.40171 23.2665 8.298 23.2665 8.0906C23.2665 7.88319 23.2665 7.88319 23.0591 7.88319C22.8517 7.88319 22.6443 7.88319 22.4369 7.88319C22.0221 7.88319 22.1258 7.88319 22.1258 8.1943V14.8313Z" fill="#001F62"/>
<path d="M24.615 22.401C23.4743 23.1269 23.2669 24.7861 24.5113 25.6158C24.7187 25.7195 24.9261 25.9269 25.1335 26.0306C25.5483 26.238 25.8594 26.3417 26.2743 26.4454C26.5854 26.4454 26.7928 26.6528 27.0002 26.8602C27.2076 26.9639 27.3113 27.1713 27.415 27.3787C27.5187 27.7935 27.415 28.3121 27.0002 28.5195C26.6891 28.7269 26.2743 28.7269 25.9632 28.7269C25.4446 28.7269 24.9261 28.5195 24.5113 28.2084C24.3039 28.1047 24.2002 28.001 24.0965 27.8973C23.9928 27.8973 23.8891 27.8973 23.8891 27.8973C23.7854 28.1047 23.578 28.3121 23.4743 28.5195C23.3706 28.7269 23.3706 28.7269 23.4743 28.8306C24.2002 29.3491 25.1335 29.7639 26.0669 29.7639C26.378 29.7639 26.5854 29.7639 26.8965 29.7639C27.5187 29.6602 28.0372 29.3491 28.3483 28.9343C29.0743 28.001 28.8669 26.5491 27.8298 25.9269C27.6224 25.8232 27.415 25.7195 27.2076 25.6158C26.7928 25.5121 26.378 25.3047 25.9632 25.201C25.7557 25.201 25.4446 24.9935 25.2372 24.7861C25.1335 24.6824 25.0298 24.5787 24.9261 24.3713C24.7187 23.9565 24.9261 23.438 25.4446 23.2306C25.8594 23.0232 26.378 23.0232 26.7928 23.2306C27.1039 23.2306 27.415 23.5417 27.6224 23.6454C27.8298 23.7491 27.8298 23.7491 28.0372 23.6454C28.1409 23.438 28.2446 23.3343 28.3483 23.1269C28.452 22.9195 28.452 22.9195 28.3483 22.8158C27.8298 22.401 27.2076 22.1935 26.4817 22.0898C25.8594 22.0898 25.2372 22.0898 24.615 22.5047" fill="#001F62"/>
<path d="M7.9186 42.8307C9.16304 43.8677 10.6149 44.3862 12.2742 44.0751C13.6223 43.764 14.5556 42.727 14.6593 41.4825C14.6593 40.5492 14.3482 39.8233 13.6223 39.3047C13.3112 39.0973 12.8964 38.8899 12.5853 38.6825C12.0667 38.4751 11.5482 38.2677 11.0297 38.0603C10.6149 37.8529 10.3038 37.7492 9.99267 37.4381C9.57786 37.0233 9.37045 36.5047 9.57786 35.8825C9.68156 35.364 10.0964 35.0529 10.6149 34.9492C11.5482 34.7418 12.3779 34.9492 13.1038 35.4677C13.3112 35.5714 13.4149 35.6751 13.6223 35.8825C13.8297 35.6751 13.9334 35.4677 14.1408 35.2603C14.2445 35.0529 14.2445 35.0529 14.1408 34.8455C13.0001 33.8084 11.6519 33.4973 10.2001 33.9122C9.16304 34.2233 8.43712 34.8455 8.22971 35.9862C8.0223 37.127 8.43712 37.9566 9.26675 38.6825C9.57786 38.8899 9.88897 39.0973 10.2001 39.201C10.6149 39.4084 11.1334 39.6159 11.6519 39.8233C12.0667 40.0307 12.3779 40.1344 12.7927 40.3418C13.726 40.964 13.6223 42.4159 12.5853 42.8307C12.0667 43.0381 11.5482 43.1418 11.0297 43.0381C10.2001 43.0381 9.47415 42.5196 8.85193 42.001C8.85193 42.001 8.64452 41.8973 8.54082 41.7936C8.33341 42.1047 8.12601 42.3122 7.9186 42.6233C7.81489 42.8307 7.81489 42.8307 7.9186 42.9344" fill="#001F62"/>
<path d="M15.489 10.2656C15.489 9.95448 15.6964 9.74708 15.9038 9.43596C16.7334 8.39893 18.3927 8.39893 19.1186 9.64337C19.4297 10.1619 19.5334 10.7841 19.5334 11.3026C19.5334 11.9249 19.5334 12.4434 19.2223 12.8582C18.9112 13.5841 18.289 14.1026 17.4594 14.1026C16.8371 14.1026 16.2149 13.8952 15.8001 13.3767C15.489 13.0656 15.3853 12.6508 15.2816 12.1323C15.1779 11.51 15.2816 10.8878 15.2816 10.1619M17.1482 15.2434C18.3927 15.3471 19.5334 14.8286 20.2594 13.7915C20.6742 13.0656 20.8816 12.236 20.8816 11.3026C20.8816 11.0952 20.8816 10.6804 20.7779 10.3693C20.3631 8.71004 19.2223 7.77671 17.8742 7.673C16.526 7.5693 15.1779 8.08782 14.5557 9.43596C14.0371 10.5767 13.9334 11.8211 14.3482 12.9619C14.7631 14.31 15.6964 15.1397 17.2519 15.3471" fill="#001F62"/>
<path d="M38.9262 9.85339C39.341 9.12746 39.8595 8.71265 40.6891 8.71265C41.5188 8.71265 42.141 9.12746 42.4521 9.85339C42.7632 10.4756 42.7632 10.9941 42.7632 11.7201C42.7632 12.2386 42.6595 12.6534 42.4521 13.1719C42.0373 13.8978 41.5188 14.2089 40.6891 14.2089C39.8595 14.2089 39.341 13.7941 38.9262 13.1719C38.615 12.6534 38.5113 12.1349 38.5113 11.5126C38.5113 10.9941 38.5113 10.4756 38.8225 9.95709M37.3706 11.8238C37.3706 12.7571 37.6817 13.5867 38.3039 14.2089C39.6521 15.7645 42.6595 15.6608 43.8002 13.3793C44.2151 12.3423 44.3188 11.3052 44.0076 10.2682C43.6965 9.12746 42.8669 7.88302 41.1039 7.67561C39.8595 7.57191 38.8225 7.98672 38.0965 9.02376C37.578 9.74968 37.3706 10.5793 37.3706 11.5126C37.3706 11.6164 37.3706 11.7201 37.3706 11.9275" fill="#001F62"/>
<path d="M34.4666 23.1265C34.4666 22.9191 34.4666 22.7117 34.4666 22.5043C34.4666 22.2969 34.4666 22.2969 34.2592 22.2969C34.0518 22.2969 33.7407 22.2969 33.5333 22.2969C33.3259 22.2969 33.2222 22.4006 33.2222 22.608V29.3487C33.2222 29.3487 33.2222 29.4524 33.2222 29.5561C33.2222 29.6598 33.2222 29.6598 33.3259 29.6598C33.5333 29.6598 33.8444 29.6598 34.0518 29.6598C34.3629 29.6598 34.3629 29.6598 34.3629 29.3487C34.3629 27.7932 34.3629 26.3413 34.3629 24.8895C34.3629 24.6821 34.3629 24.5784 34.5703 24.4747C34.8814 24.0598 35.2962 23.8524 35.7111 23.645C36.1259 23.4376 36.437 23.4376 36.8518 23.5413C37.3703 23.5413 37.5777 23.9561 37.6814 24.3709C37.6814 24.6821 37.6814 24.8895 37.6814 25.2006C37.6814 26.6524 37.6814 28.1043 37.6814 29.5561C37.6814 31.008 37.6814 29.6598 37.6814 29.7635C37.6814 29.8672 37.6814 29.9709 37.8888 29.9709C38.1999 29.9709 38.5111 29.9709 38.8222 29.9709C38.9259 29.9709 39.0296 29.9709 39.0296 29.7635C39.0296 29.7635 39.0296 29.7635 39.0296 29.6598C39.0296 28.208 39.0296 26.6524 39.0296 25.2006C39.0296 24.8895 39.0296 24.5784 39.0296 24.2672C38.8222 23.1265 37.9925 22.5043 36.8518 22.5043C36.0222 22.5043 35.3999 22.7117 34.674 23.2302C34.5703 23.2302 34.4666 23.4376 34.2592 23.5413" fill="#001F62"/>
<path d="M30.9406 9.95611C31.2517 9.23018 31.874 8.81536 32.7036 8.71166C33.5332 8.71166 34.1554 9.02277 34.674 9.7487C34.674 9.8524 34.7777 9.95611 34.7777 10.1635C34.7777 10.5783 34.7777 10.9931 34.7777 11.5117C34.7777 12.0302 34.7777 12.3413 34.7777 12.7561C34.7777 12.8598 34.7777 13.0672 34.674 13.1709C34.2591 13.8968 33.5332 14.208 32.7036 14.208C31.874 14.208 31.2517 13.6894 30.9406 12.9635C30.5258 12.0302 30.5258 10.9931 30.9406 10.0598M32.3925 15.3487C33.2221 15.3487 33.948 15.1413 34.5702 14.6228C34.5702 14.6228 34.5703 14.5191 34.7777 14.5191C34.7777 14.7265 34.7777 14.9339 34.7777 15.1413C34.7777 15.245 34.7777 15.3487 34.9851 15.3487C35.1925 15.3487 35.5036 15.3487 35.711 15.3487C36.1258 15.3487 36.0221 15.3487 36.0221 15.0376C36.0221 11.8228 36.0221 8.60796 36.0221 5.39314C36.0221 5.28944 36.0221 5.18573 36.0221 5.08203C35.711 5.08203 35.3999 5.18573 35.0888 5.28944C34.7777 5.28944 34.7777 5.28944 34.7777 5.60055V8.50425C34.7777 8.50425 34.7777 8.71166 34.7777 8.81536C34.0517 7.98573 33.1184 7.77833 32.0814 8.08944C30.9406 8.29685 30.2147 9.02277 29.7999 10.1635C29.3851 11.2005 29.3851 12.3413 29.7999 13.3783C30.2147 14.7265 31.148 15.5561 32.5999 15.6598" fill="#001F62"/>
<path d="M66.4073 48.2227H8.22949V49.2597H66.4073V48.2227Z" fill="#D2232A"/>
</svg>
