<svg width="112" height="56" viewBox="0 0 112 56" fill="none" xmlns="http://www.w3.org/2000/svg">
<path d="M100.509 22.9464C100.509 21.6288 100.509 20.3111 100.509 18.9935C100.509 18.7739 100.509 18.7739 100.29 18.6641C100.07 18.4445 99.7407 18.3347 99.5211 18.2249C98.7524 17.8954 97.9838 17.8954 97.2152 18.0053C96.3367 18.1151 95.6779 18.5543 95.1289 19.3229C94.9093 19.6523 94.7995 20.0915 94.6897 20.4209C94.4701 21.4092 94.3603 22.3974 94.3603 23.3856C94.3603 24.0445 94.4701 24.5935 94.6897 25.2523C95.1289 26.3504 95.8975 27.119 97.1054 27.4484C97.6544 27.5582 98.2034 27.5582 98.7524 27.5582C99.3015 27.5582 99.7407 27.4484 100.18 27.119C100.29 27.119 100.399 27.0092 100.399 26.7896C100.399 25.4719 100.399 24.1543 100.399 22.8366M104.901 28.8758C104.462 28.8758 104.133 28.8758 103.694 28.8758C102.925 28.8758 102.156 29.0954 101.498 29.2053C101.278 29.2053 101.058 29.2053 100.949 29.4249C100.839 29.4249 100.729 29.4249 100.509 29.4249C100.509 29.4249 100.509 29.4249 100.509 29.3151C100.509 29.0955 100.509 28.8758 100.509 28.5464C100.509 28.217 100.509 28.5464 100.509 28.4366C100.509 28.4366 100.509 28.4366 100.399 28.4366C99.6309 28.9856 98.6426 29.4249 97.7642 29.4249C96.1171 29.6445 94.4701 29.2053 93.2622 28.1072C92.4936 27.3386 91.9446 26.4602 91.725 25.3621C91.5054 24.4837 91.5054 23.6053 91.5054 22.7268C91.5054 21.9582 91.725 21.0798 92.0544 20.3111C92.823 18.4445 94.1407 17.2366 96.1171 16.6876C96.8858 16.468 97.7642 16.3582 98.6426 16.468C99.3014 16.468 99.8505 16.468 100.509 16.6876C100.619 16.6876 100.619 16.6876 100.619 16.5778C100.619 15.1504 100.619 13.8327 100.619 12.4053C100.619 12.1856 100.619 11.8562 100.619 11.6366C100.619 11.3072 100.29 11.0876 100.07 10.9778C99.8505 10.9778 99.5211 10.9778 99.3015 10.868C99.2283 10.868 99.1916 10.8314 99.1916 10.7582C99.1916 10.7582 99.1916 10.5386 99.1916 10.4288C99.1916 10.4288 99.1917 10.319 99.3015 10.319C99.9603 10.319 100.729 10.2092 101.388 10.0994C102.047 9.98957 102.705 9.87976 103.364 9.66016C103.584 9.66016 103.694 9.66016 103.694 9.87976C103.694 10.2092 103.694 10.4288 103.694 10.7582C103.694 12.0758 103.694 13.2837 103.694 14.6013C103.694 18.3347 103.694 22.068 103.694 25.8013C103.694 26.2405 103.694 26.6798 103.694 27.119C103.694 27.119 103.694 27.2288 103.694 27.3386C103.694 27.668 103.913 27.8876 104.352 28.1072C104.682 28.1072 105.011 28.217 105.341 28.217V28.8758H104.901Z" fill="#991B1E"/>
<path d="M86.5641 51.9356C86.5641 51.9356 86.3445 51.9356 86.2347 51.9356C85.9052 51.9356 85.5758 51.716 85.2464 51.4964C85.1366 51.3866 85.1366 51.2768 85.2464 51.0572C85.466 50.8376 85.6856 50.5082 85.9052 50.2886C86.015 50.1788 86.1248 50.1788 86.2347 50.2886C86.4543 50.7278 86.7837 50.8376 87.2229 50.8376C87.6621 50.8376 88.1013 50.7278 88.3209 50.3984C88.5405 50.1788 88.6503 49.8493 88.7601 49.6297C88.9797 49.0807 89.1994 48.5317 89.419 47.8729V47.6533C88.8699 46.3356 88.4307 45.1278 87.8817 43.8101C87.4425 42.7121 87.1131 41.7238 86.6739 40.6258C86.6739 40.6258 86.6739 40.4062 86.5641 40.4062C86.4543 40.1866 86.2346 39.967 86.015 39.967C85.7954 39.967 85.7954 39.967 85.7954 39.7474C85.7954 39.418 85.7954 39.5278 86.1249 39.5278C86.8935 39.5278 87.5523 39.5278 88.3209 39.5278C88.6503 39.5278 88.9797 39.5278 89.3092 39.5278C89.419 39.5278 89.419 39.5278 89.419 39.6376C89.419 39.784 89.3458 39.8938 89.1994 39.967H88.9798C88.7601 40.0768 88.6503 40.2964 88.6503 40.516C88.6503 40.7356 88.6503 40.8454 88.7601 41.065C89.1994 42.1631 89.6386 43.3709 90.0778 44.4689C90.0778 44.6886 90.2974 44.9082 90.2974 45.2376C90.2974 45.2376 90.2974 45.2376 90.2974 45.3474C90.2974 45.3474 90.2974 45.2376 90.2974 45.1278C90.7366 43.7003 91.2856 42.2729 91.7248 40.8454C91.7248 40.7356 91.7248 40.516 91.7248 40.4062C91.7248 40.1866 91.7248 40.0768 91.5052 39.967C91.3954 39.967 91.2856 39.967 91.066 39.8572C90.9562 39.8572 90.9562 39.8572 90.9562 39.7474C90.9562 39.418 90.9562 39.418 91.2856 39.418C92.0543 39.418 92.8229 39.418 93.7013 39.418C93.7013 39.418 93.9209 39.418 94.0307 39.418C94.0307 39.418 94.0307 39.418 94.0307 39.5278C94.0307 39.6742 93.9575 39.784 93.8111 39.8572C93.5915 39.8572 93.4817 40.0768 93.2621 40.1866C93.1523 40.4062 93.0425 40.6258 92.9327 40.8454C91.8347 43.7003 90.8464 46.4454 89.7484 49.3003C89.6386 49.6297 89.419 50.0689 89.1994 50.3984C88.8699 51.0572 88.3209 51.4964 87.6621 51.716C87.5523 51.716 87.3327 51.716 87.2229 51.716C87.2229 51.716 87.2229 51.716 87.1131 51.716H86.1249L86.5641 51.9356Z" fill="#991B1E"/>
<path d="M48.1328 17.5678C48.1328 17.5678 48.2426 17.5678 48.3524 17.458C49.5603 16.6894 50.8779 16.36 52.3054 16.4698C52.7446 16.4698 53.1838 16.4698 53.5132 16.6894C54.8309 17.1286 55.5995 18.0071 55.9289 19.3247C55.9289 19.6541 56.0387 19.9835 56.0387 20.3129C56.0387 20.862 56.0387 21.3012 56.0387 21.8502C56.0387 23.1678 56.0387 24.5953 56.0387 25.9129C56.0387 26.3522 56.0387 26.9012 56.0387 27.3404C56.0387 27.56 56.0387 27.7796 56.1485 27.9992C56.1485 28.2188 56.3681 28.4384 56.5877 28.5482C56.8073 28.658 57.1367 28.7678 57.4662 28.7678C57.576 28.7678 57.576 28.7678 57.576 28.8776C57.576 28.8776 57.576 29.0973 57.576 29.2071C57.4662 29.2071 57.2465 29.2071 57.1367 29.2071C55.7093 29.2071 54.2818 29.0973 52.8544 29.2071C52.4152 29.2071 52.0858 29.2071 51.6465 29.2071C51.5733 29.2071 51.5367 29.1705 51.5367 29.0973C51.5367 29.0973 51.5367 28.8777 51.5367 28.7678V28.658C51.6465 28.658 51.7564 28.658 51.976 28.658C52.7446 28.4384 52.9642 28.2188 53.074 27.4502C53.074 27.011 53.074 26.5718 53.074 26.1326C53.074 24.8149 53.074 23.4973 53.074 22.1796C53.074 21.5208 53.074 20.9718 52.9642 20.3129C52.9642 20.0933 52.9642 19.8737 52.8544 19.7639C52.525 18.9953 52.0858 18.4463 51.2073 18.3365C50.2191 18.1169 49.1211 18.3365 48.2426 18.6659C48.1328 18.6659 48.1328 18.7757 48.1328 18.8855C48.1328 21.3012 48.1328 23.6071 48.1328 25.9129C48.1328 26.462 48.1328 27.011 48.2426 27.56C48.2426 27.6698 48.2426 27.7796 48.3524 27.8894C48.3524 28.109 48.572 28.3286 48.7916 28.4384C49.0113 28.5482 49.3407 28.658 49.6701 28.658C49.7799 28.658 49.7799 28.658 49.7799 28.7678C49.7799 28.7678 49.7799 28.9875 49.7799 29.0973C49.7799 29.0973 49.7799 29.2071 49.6701 29.2071C49.2309 29.2071 48.7916 29.2071 48.4622 29.2071C47.474 29.2071 46.4858 29.2071 45.4975 29.2071C44.9485 29.2071 44.2897 29.2071 43.7407 29.2071C43.6309 29.2071 43.6309 29.2071 43.6309 29.0973C43.6309 29.0973 43.6309 28.8777 43.6309 28.7678C43.6309 28.7678 43.6309 28.658 43.7407 28.658C44.0701 28.658 44.3995 28.658 44.6191 28.4384C44.9485 28.3286 45.0583 27.9992 45.1681 27.6698C45.1681 27.3404 45.2779 26.9012 45.2779 26.5718C45.2779 26.0227 45.2779 25.3639 45.2779 24.8149C45.2779 23.3875 45.2779 21.96 45.2779 20.5326C45.2779 20.0933 45.2779 19.5443 45.2779 19.1051C45.2779 19.1051 45.2779 18.8855 45.2779 18.7757C45.2779 18.4463 45.0583 18.2267 44.7289 18.1169C44.3995 18.1169 44.1799 18.0071 43.8505 18.0071C43.7407 18.0071 43.6309 18.0071 43.6309 17.7875C43.6309 17.5678 43.6309 17.458 43.6309 17.3482C44.1799 17.3482 44.6191 17.3482 45.1681 17.3482C45.6073 17.3482 46.1564 17.2384 46.5956 17.1286C46.925 17.1286 47.2544 16.909 47.474 16.7992C47.8034 16.6894 47.9132 16.7992 47.9132 17.1286C47.9132 17.458 47.9132 17.5678 47.9132 17.7875" fill="#991B1E"/>
<path d="M19.9133 13.3949V15.0419C19.9133 15.0419 19.9133 15.0419 19.9133 15.1517C19.8035 15.1517 19.5839 15.1517 19.4741 15.1517C19.4741 14.9321 19.4741 14.8223 19.4741 14.6027C19.4741 14.4929 19.4741 14.2733 19.3643 14.1635C19.1447 13.7243 18.8152 13.2851 18.376 13.1753C17.9368 12.9557 17.6074 12.9557 17.1682 12.8458C16.6192 12.8458 16.1799 12.8458 15.6309 12.8458C15.1917 12.8458 14.7525 12.8458 14.4231 13.0655C13.6545 13.3949 13.2152 13.9439 13.1054 14.8223C13.1054 15.1517 13.1054 15.4811 13.1054 15.8106C13.1054 16.2498 13.4348 16.689 13.7643 17.1282C14.0937 17.4576 14.4231 17.6772 14.7525 17.8968C15.7407 18.5557 16.6192 19.2145 17.6074 19.7635C18.1564 20.0929 18.5956 20.4223 19.0349 20.8615C19.9133 21.74 20.4623 22.7282 20.4623 23.936C20.4623 24.5949 20.4623 25.3635 20.2427 26.0223C19.9133 27.1204 19.3643 27.889 18.376 28.438C17.7172 28.8772 17.0584 29.0968 16.2898 29.2066C15.3015 29.4262 14.4231 29.4262 13.4348 29.3164C12.4466 29.3164 11.4584 29.0968 10.5799 28.8772C10.4701 28.8772 10.3603 28.8772 10.2505 28.7674C10.0309 28.7674 10.1407 28.7674 10.1407 28.5478C10.1407 28.3282 10.1407 28.1086 10.1407 27.889C10.1407 27.0106 10.1407 26.1321 10.1407 25.2537V25.1439C10.3603 25.1439 10.4701 25.1439 10.6898 25.1439C10.6898 25.1439 10.7996 25.1439 10.7996 25.2537C10.7996 25.5831 10.7996 25.9125 10.9094 26.1321C11.129 26.6811 11.4584 27.0106 11.8976 27.34C12.4466 27.5596 12.9956 27.7792 13.5447 27.7792C14.3133 27.7792 15.0819 27.7792 15.8505 27.6694H16.0701C17.0584 27.34 17.6074 26.5713 17.7172 25.5831C17.7172 25.2537 17.7172 24.8145 17.7172 24.4851C17.7172 23.936 17.3878 23.387 16.9486 22.9478C16.6192 22.6184 16.2898 22.3988 15.9603 22.1792C15.0819 21.6302 14.2035 20.9713 13.4348 20.4223C12.8858 20.0929 12.4466 19.7635 12.0074 19.3243C11.4584 18.8851 11.0192 18.336 10.7996 17.5674C10.4701 16.7988 10.4701 16.14 10.5799 15.3713C10.5799 14.8223 10.7996 14.3831 10.9094 13.9439C11.3486 12.9557 12.227 12.187 13.2152 11.7478C13.8741 11.5282 14.5329 11.3086 15.3015 11.3086C16.2898 11.3086 17.3878 11.3086 18.376 11.3086C18.925 11.3086 19.4741 11.3086 20.0231 11.5282C20.2427 11.5282 20.2427 11.5282 20.2427 11.7478V13.3949H19.9133Z" fill="#991B1E"/>
<path d="M70.4232 22.8395C70.4232 23.6081 70.4232 24.4865 70.7526 25.2552C70.9722 25.914 71.1918 26.463 71.5212 26.9022C71.9605 27.4512 72.3997 27.7806 73.0585 27.8904C73.3879 27.8904 73.7173 27.8904 74.0467 27.8904C74.7056 27.8904 75.2546 27.561 75.6938 27.1218C76.133 26.6826 76.3526 26.2434 76.5722 25.6944C76.7918 25.0355 76.9016 24.4865 77.0114 23.8277C77.0114 22.7297 77.0114 21.7414 76.7918 20.6434C76.682 19.9846 76.3526 19.4355 76.0232 18.8865C75.6938 18.3375 75.1448 18.0081 74.5958 17.8983C74.1565 17.8983 73.8271 17.8983 73.3879 17.8983C72.8389 17.8983 72.2899 18.2277 71.8507 18.5571C71.4114 18.9963 71.082 19.5453 70.8624 20.2042C70.533 21.0826 70.533 21.961 70.533 22.8395M67.4585 23.1689C67.4585 22.0708 67.6781 20.9728 68.1173 19.8748C68.9958 18.0081 70.4232 16.9101 72.5095 16.5806C73.6075 16.361 74.7056 16.4708 75.8036 16.6904C77.7801 17.2395 78.9879 18.4473 79.6467 20.4238C79.9761 21.412 79.9761 22.4002 79.9761 23.3885C79.9761 24.4865 79.6467 25.5846 79.0977 26.5728C78.2193 28.2199 76.9016 29.0983 75.035 29.5375C73.8271 29.7571 72.7291 29.7571 71.5212 29.4277C69.6546 28.8787 68.3369 27.6708 67.7879 25.8042C67.5683 25.0355 67.4585 24.2669 67.4585 23.3885" fill="#991B1E"/>
<path d="M37.8112 22.8382C37.8112 22.8382 37.7014 22.8382 37.5916 22.8382C36.7132 23.0578 35.9446 23.3873 35.0661 23.8265C34.6269 24.0461 34.2975 24.3755 34.0779 24.9245C33.9681 25.3637 33.8583 25.8029 33.9681 26.2422C34.0779 26.901 34.5171 27.3402 35.1759 27.5598C35.3955 27.5598 35.5053 27.5598 35.7249 27.5598C36.3838 27.5598 37.0426 27.45 37.5916 27.1206C37.7014 27.1206 37.8112 27.0108 37.8112 26.7912C37.8112 25.4735 37.8112 24.2657 37.8112 22.948C37.8112 22.948 37.8112 22.8382 37.8112 22.7284M32.87 19.5441C32.6504 19.5441 32.5406 19.3245 32.321 19.2147C32.321 19.2147 32.321 19.2147 32.321 19.1049C32.321 19.1049 32.321 18.8853 32.4308 18.7755C32.87 17.6775 33.7485 17.0186 34.8465 16.5794C35.3955 16.3598 36.0544 16.25 36.7132 16.25C37.372 16.25 37.921 16.25 38.47 16.4696C39.6779 16.9088 40.4465 17.6774 40.6661 18.9951C40.7759 19.5441 40.7759 20.0931 40.7759 20.752C40.7759 22.0696 40.7759 23.3873 40.7759 24.8147C40.7759 25.3637 40.7759 25.9127 40.7759 26.4618C40.7759 26.6814 40.7759 26.901 40.8857 27.1206C41.1053 27.6696 41.6544 27.7794 42.0936 27.45C42.0936 27.45 42.0936 27.45 42.2034 27.45C42.2034 27.5598 42.423 27.6696 42.5328 27.7794C42.5328 27.7794 42.5328 27.7794 42.5328 27.8892C41.9838 28.548 41.4348 29.2069 40.5563 29.3167C40.1171 29.3167 39.6779 29.3167 39.3485 29.3167C38.7995 29.2069 38.3602 28.8775 38.1406 28.2186C38.1406 28.2186 38.1406 28.2186 38.0308 28.2186C37.1524 29.0971 36.0544 29.4265 34.8465 29.4265C34.4073 29.4265 33.9681 29.4265 33.5289 29.2069C32.5406 28.8775 31.772 28.2186 31.5524 27.1206C31.3328 26.352 31.3328 25.5833 31.5524 24.8147C31.772 23.9363 32.4308 23.2775 33.3093 22.8382C33.7485 22.6186 34.1877 22.5088 34.6269 22.2892C35.7249 21.9598 36.7132 21.6304 37.8112 21.301C37.8112 21.301 37.8112 21.301 37.921 21.301C37.921 21.301 37.921 21.301 37.921 21.1912C37.921 20.752 37.921 20.2029 37.921 19.7637C37.7014 18.8853 37.2622 18.4461 36.3838 18.1167C35.5053 17.8971 34.7367 18.0069 33.9681 18.4461C33.5289 18.6657 33.3093 18.9951 32.9799 19.4343C32.9799 19.4343 32.9799 19.4343 32.9799 19.5441" fill="#991B1E"/>
<path d="M63.7251 22.7278V25.6925C63.7251 26.2415 63.7251 26.7905 63.7251 27.3396C63.7251 27.4494 63.7251 27.669 63.7251 27.7788C63.7251 27.9984 63.9447 28.218 64.1643 28.3278C64.3839 28.4376 64.7133 28.5474 65.0428 28.5474C65.2624 28.5474 65.482 28.5474 65.7016 28.5474C65.9212 28.5474 65.8114 28.5474 65.8114 28.6572C65.8114 28.767 65.8114 28.9866 65.8114 29.0964C65.8114 29.0964 65.8114 29.0964 65.7016 29.0964C64.7133 29.0964 63.6153 29.0964 62.6271 29.0964C61.6388 29.0964 60.7604 29.0964 59.882 29.0964C59.6624 29.0964 59.5526 29.0964 59.333 29.0964H59.2231C59.2231 28.9866 59.2231 28.8768 59.2231 28.767C59.2231 28.767 59.2231 28.767 59.333 28.6572C59.4428 28.6572 59.5526 28.6572 59.7722 28.6572C60.5408 28.4376 60.8702 28.1082 60.98 27.3396C60.98 26.6807 60.98 26.0219 60.98 25.2533C60.98 22.9474 60.98 20.7513 60.98 18.4454C60.98 18.3356 60.98 18.2258 60.98 18.2258C60.98 18.2258 60.98 18.2258 60.8702 18.2258C60.431 18.2258 59.9918 18.2258 59.6624 18.2258C59.6624 18.2258 59.5526 18.2258 59.5526 18.116C59.5526 18.0062 59.5526 17.7866 59.5526 17.6768C59.5526 17.6768 59.5526 17.567 59.6624 17.4572C59.9918 17.3474 60.3212 17.1278 60.6506 17.018C60.7604 17.018 60.8702 16.9082 61.0898 16.7984C61.0898 16.7984 61.1996 16.6886 61.1996 16.5788C61.1996 15.9199 61.1996 15.3709 61.1996 14.7121C61.1996 13.9435 61.3094 13.2846 61.529 12.516C62.078 10.9788 63.0663 10.1003 64.6035 9.66112C65.8114 9.33171 66.9094 9.33171 68.0075 9.66112C68.4467 9.77093 68.8859 9.99053 69.3251 10.3199C69.5447 10.4297 69.5447 10.6494 69.3251 10.869C68.9957 11.3082 68.6663 11.8572 68.3369 12.2964C68.3369 12.4062 68.1173 12.4062 68.0075 12.4062H67.8977C67.8977 12.1866 67.678 12.0768 67.5682 11.8572C67.0192 10.9788 65.9212 10.6494 64.9329 11.0886C64.4937 11.3082 64.2741 11.6376 64.0545 11.967C64.0545 12.2964 63.9447 12.516 63.8349 12.8454C63.8349 13.1748 63.8349 13.3945 63.8349 13.7239C63.8349 14.6023 63.8349 15.5905 63.8349 16.469C63.8349 16.469 63.8349 16.469 63.8349 16.5788H66.2506C66.2506 16.5788 66.2506 16.5788 66.3604 16.5788C66.3604 16.5788 66.4702 16.5788 66.4702 16.6886C66.4702 17.1278 66.4702 17.567 66.4702 18.0062C66.4702 18.0062 66.4702 18.116 66.3604 18.116C66.031 18.116 65.5918 18.116 65.2624 18.116C64.9329 18.116 64.4937 18.116 64.0545 18.116C64.0545 18.116 63.8349 18.116 63.7251 18.116C63.7251 18.116 63.7251 18.3356 63.7251 18.4454C63.7251 19.3239 63.7251 20.0925 63.7251 20.9709V22.5082V22.7278Z" fill="#991B1E"/>
<path d="M22.8781 22.618C22.8781 21.0807 22.8781 19.7631 22.8781 18.5553C22.8781 18.3356 22.8781 18.3356 22.6585 18.3356C22.2193 18.3356 21.78 18.3356 21.4506 18.3356C21.3408 18.3356 21.3408 18.3356 21.3408 18.2258C21.3408 17.8964 21.3408 17.8964 21.6702 17.7866C22.7683 17.3474 23.5369 16.5788 24.1957 15.7004C24.5251 15.2611 24.8545 14.7121 25.184 14.1631C25.184 14.0533 25.2938 13.9435 25.4036 14.0533C25.5134 14.0533 25.6232 14.0533 25.733 14.0533C25.733 14.0533 25.733 14.2729 25.733 14.3827C25.733 15.1513 25.733 15.8102 25.733 16.5788C25.733 17.3474 25.733 16.5788 25.733 16.6886C25.733 16.6886 25.733 16.7984 25.8428 16.7984C25.8428 16.7984 25.8428 16.7984 25.9526 16.7984H29.6859C29.6859 16.7984 29.6859 16.7984 29.7957 16.7984C29.7957 16.7984 29.9055 16.7984 29.9055 16.9082C29.9055 17.3474 29.9055 17.7866 29.9055 18.116C29.9055 18.3356 29.9055 18.3356 29.6859 18.3356H26.282C26.1722 18.3356 25.9526 18.3356 25.8428 18.3356C25.7696 18.3356 25.733 18.3722 25.733 18.4455C25.733 20.6415 25.733 22.7278 25.733 24.8141C25.733 25.3631 25.733 25.9121 25.8428 26.4611C25.8428 26.4611 25.8428 26.5709 25.8428 26.6807C26.0624 27.4494 26.6114 27.8886 27.38 27.8886C28.1487 27.8886 28.8075 27.8886 29.4663 27.5592C29.5761 27.5592 29.5761 27.5592 29.6859 27.5592C29.6859 27.5592 29.6859 27.5592 29.6859 27.669C29.6859 27.8154 29.6859 27.9618 29.6859 28.1082C29.2467 28.5474 28.8075 28.8768 28.2585 29.0964C27.1604 29.4258 26.0624 29.5356 24.9644 29.0964C24.0859 28.8768 23.5369 28.3278 23.2075 27.5592C22.9879 27.12 22.8781 26.6807 22.8781 26.2415C22.8781 25.5827 22.8781 25.0337 22.8781 24.3749C22.8781 23.6062 22.8781 22.8376 22.8781 22.3984" fill="#991B1E"/>
<path d="M85.6859 17.676C85.6859 17.676 85.7957 17.676 85.7957 17.5662C86.8938 16.6878 88.1016 16.3584 89.4193 16.6878C89.8585 16.6878 90.1879 17.0172 90.5173 17.2368C90.5173 17.2368 90.5173 17.3466 90.5173 17.4564C90.5173 17.676 90.5173 17.7858 90.4075 17.8956C90.0781 18.4447 89.8585 18.8839 89.5291 19.4329C89.5291 19.5427 89.4193 19.5427 89.3095 19.5427C89.0898 19.5427 88.98 19.5427 88.7604 19.3231C88.5408 18.9937 88.2114 18.6643 87.7722 18.5545C87.2232 18.3349 86.6742 18.3349 86.1251 18.5545C86.0153 18.5545 85.9055 18.5545 85.7957 18.6643C85.5761 18.6643 85.5761 18.8839 85.5761 18.9937C85.5761 21.2996 85.5761 23.7153 85.5761 26.0211C85.5761 26.4604 85.5761 26.8996 85.5761 27.3388C85.5761 27.778 85.9055 27.9976 86.2349 28.2172C86.6742 28.327 87.0036 28.4368 87.4428 28.4368C87.882 28.4368 87.6624 28.4368 87.6624 28.6564C87.6624 28.876 87.6624 28.876 87.6624 28.9858C87.5526 28.9858 87.333 28.9858 87.2232 28.9858C85.5761 28.9858 83.9291 28.876 82.1722 28.9858C81.8428 28.9858 81.4036 28.9858 81.0742 28.9858C80.9644 28.9858 80.9644 28.9858 80.9644 28.876C80.9644 28.7662 80.9644 28.6564 80.9644 28.5466C80.9644 28.5466 80.9644 28.4368 81.0742 28.4368C81.2938 28.4368 81.5134 28.4368 81.733 28.327C82.1722 28.2172 82.5016 27.8878 82.6114 27.4486C82.6114 27.0094 82.7212 26.68 82.7212 26.2407C82.7212 25.4721 82.7212 24.5937 82.7212 23.8251C82.7212 22.3976 82.7212 20.8604 82.7212 19.4329C82.7212 19.2133 82.7212 18.8839 82.7212 18.6643C82.7212 18.3349 82.3918 18.1153 82.0624 18.0054C81.8428 18.0054 81.5134 17.8956 81.2938 17.8956C81.1474 17.8956 81.0742 17.8224 81.0742 17.676C81.0742 17.5662 81.0742 17.3466 81.0742 17.2368C81.0742 17.127 81.0742 17.127 81.184 17.127C81.5134 17.127 81.733 17.127 81.9526 17.127C82.9408 17.127 83.8193 16.9074 84.6977 16.6878C84.8075 16.6878 84.9173 16.6878 85.1369 16.578C85.3565 16.578 85.4663 16.578 85.4663 16.7976C85.4663 17.0172 85.4663 17.2368 85.4663 17.4564C85.4663 17.4564 85.4663 17.5662 85.4663 17.676" fill="#991B1E"/>
<path d="M28.2582 40.7363C28.2582 39.8579 28.2582 38.9795 28.2582 38.2108C28.2582 37.8814 28.2582 37.552 28.2582 37.3324C28.2582 37.003 28.0386 36.8932 27.819 36.7834C27.7092 36.7834 27.4896 36.7834 27.3798 36.7834C27.3798 36.7834 27.2699 36.7834 27.2699 36.6736C27.2699 36.6736 27.2699 36.5638 27.2699 36.454C27.2699 36.3442 27.2699 36.3442 27.3798 36.3442C27.5994 36.3442 27.819 36.3442 28.0386 36.3442C28.917 36.3442 29.7954 36.3442 30.6739 36.3442C30.7837 36.3442 30.7837 36.3442 30.7837 36.454V36.6736C30.7837 36.6736 30.6739 36.6736 30.5641 36.6736C30.1249 36.6736 29.7954 37.003 29.7954 37.552C29.7954 37.9912 29.7954 38.4305 29.7954 38.7599C29.7954 40.1873 29.7954 41.6148 29.7954 43.0422C29.7954 43.701 29.7954 44.2501 29.5758 44.9089C29.2464 46.3363 28.368 47.105 26.9405 47.4344C26.1719 47.654 25.2935 47.654 24.5249 47.5442C24.0856 47.5442 23.5366 47.4344 23.0974 47.2148C21.9994 46.7756 21.3405 46.0069 21.0111 44.9089C20.9013 44.3599 20.9013 43.8108 20.9013 43.3716C20.9013 41.8344 20.9013 40.2971 20.9013 38.8697C20.9013 38.5403 20.9013 38.2108 20.9013 37.8814C20.9013 37.6618 20.9013 37.552 20.9013 37.3324C20.9013 37.1128 20.6817 36.8932 20.4621 36.7834C20.3523 36.7834 20.1327 36.7834 20.0229 36.6736C20.0229 36.6736 19.9131 36.6736 19.9131 36.5638C19.9131 36.2344 19.9131 36.2344 20.2425 36.2344C21.4503 36.2344 22.6582 36.2344 23.866 36.2344C23.9758 36.2344 23.9758 36.2344 23.9758 36.3442V36.5638C23.9758 36.5638 23.866 36.5638 23.7562 36.5638C23.317 36.5638 22.9876 36.8932 22.9876 37.3324C22.9876 37.6618 22.9876 37.8814 22.9876 38.2108C22.9876 39.8579 22.9876 41.505 22.9876 43.152C22.9876 43.701 22.9876 44.2501 23.2072 44.7991C23.2072 44.9089 23.2072 45.0187 23.2072 45.1285C23.4268 45.6775 23.7562 46.0069 24.3052 46.2265C24.6347 46.2265 24.8543 46.3363 25.1837 46.4461C25.7327 46.4461 26.1719 46.4461 26.6111 46.4461C27.4896 46.2265 27.9288 45.7873 28.1484 44.9089C28.2582 44.3599 28.368 43.8108 28.368 43.2618C28.368 42.3834 28.368 41.6148 28.368 40.7363H28.2582Z" fill="#991B1E"/>
<path d="M33.8581 40.0772C33.8581 40.0772 33.9679 40.0772 34.0777 40.0772C35.066 39.5282 36.0542 39.3086 37.1523 39.5282C38.1405 39.7478 38.6895 40.5164 38.9091 41.6145C38.9091 42.0537 38.9091 42.4929 38.9091 42.9321C38.9091 43.9204 38.9091 44.9086 38.9091 45.787C38.9091 46.0066 38.9091 46.2262 38.9091 46.4458C38.9091 46.8851 39.1287 47.1047 39.6777 47.2145C39.7876 47.2145 39.7876 47.2145 39.7876 47.3243C39.7876 47.5439 39.7876 47.5439 39.5679 47.5439C39.0189 47.5439 38.4699 47.5439 37.8111 47.5439C37.1523 47.5439 36.6032 47.5439 35.9444 47.5439C35.7248 47.5439 35.7248 47.5439 35.7248 47.3243C35.7248 47.2145 35.7248 47.2145 35.9444 47.1047C36.0542 47.1047 36.164 47.1047 36.3836 46.9949C36.6032 46.9949 36.713 46.7753 36.8228 46.5557C36.8228 46.336 36.8228 46.0066 36.8228 45.787C36.8228 44.7988 36.8228 43.9204 36.8228 42.9321C36.8228 42.4929 36.8228 42.1635 36.8228 41.7243C36.8228 41.6145 36.8228 41.5047 36.8228 41.3949C36.6032 40.8459 36.2738 40.6262 35.7248 40.5164C35.066 40.5164 34.517 40.5164 33.8581 40.736C33.7483 40.736 33.7483 40.8458 33.7483 40.9557C33.7483 42.3831 33.7483 43.9204 33.7483 45.3478C33.7483 45.6772 33.7483 46.0066 33.7483 46.336V46.5557C33.7483 46.7753 33.9679 46.8851 34.0777 46.9949C34.1876 46.9949 34.4072 46.9949 34.517 46.9949C34.6268 46.9949 34.6268 46.9949 34.6268 47.1047C34.6268 47.1047 34.6268 47.2145 34.517 47.2145C34.0777 47.2145 33.7483 47.2145 33.3091 47.2145C32.5405 47.2145 31.6621 47.2145 30.8934 47.2145C30.6738 47.2145 30.6738 47.2145 30.6738 46.9949C30.6738 46.7753 30.6738 46.8851 30.7836 46.8851C30.8934 46.8851 31.0032 46.8851 31.113 46.8851C31.4425 46.7753 31.5523 46.5557 31.6621 46.2262C31.6621 45.8968 31.6621 45.5674 31.6621 45.1282C31.6621 43.7007 31.6621 42.3831 31.6621 40.9557C31.6621 40.8458 31.6621 40.736 31.6621 40.6262C31.6621 40.4066 31.4425 40.187 31.2228 40.187C31.113 40.187 30.8934 40.187 30.7836 40.187C30.6738 40.187 30.6738 40.187 30.6738 40.0772C30.6738 39.7478 30.6738 39.7478 31.0032 39.7478C31.5523 39.7478 32.1013 39.7478 32.6503 39.5282C32.8699 39.5282 33.0895 39.4184 33.3091 39.3086C33.4189 39.3086 33.5287 39.3086 33.5287 39.4184C33.5287 39.5282 33.5287 39.7478 33.5287 39.8576" fill="#991B1E"/>
<path d="M56.8074 42.2729H57.2466C57.576 42.2729 57.9055 42.2729 58.2349 42.2729C58.3447 42.2729 58.3447 42.2729 58.3447 42.1631C58.3447 41.8337 58.3447 41.5042 58.2349 41.1748C58.0153 40.7356 57.6858 40.4062 57.2466 40.2964C57.1368 40.2964 57.027 40.2964 56.9172 40.2964C56.2584 40.2964 55.8192 40.6258 55.5996 41.1748C55.4898 41.5042 55.38 41.8337 55.38 42.1631C55.38 42.2729 55.38 42.2729 55.4898 42.2729C55.929 42.2729 56.478 42.2729 56.9172 42.2729M59.8819 46.0062C60.2113 46.4454 60.2113 46.3356 59.8819 46.665C59.4427 47.1042 58.8937 47.3239 58.2349 47.4337C57.4662 47.6533 56.6976 47.5435 55.929 47.4337C54.8309 47.1042 54.1721 46.4454 53.7329 45.3474C53.5133 44.5788 53.4035 43.9199 53.5133 43.1513C53.5133 42.4925 53.7329 41.8337 54.0623 41.2846C54.6113 40.1866 55.5996 39.5278 56.8074 39.418C57.2466 39.418 57.6858 39.418 58.1251 39.418C59.1133 39.6376 59.7721 40.2964 60.1015 41.2846C60.2113 41.8337 60.2113 42.3827 60.2113 42.9317H59.9917C58.4545 42.9317 57.027 42.9317 55.4898 42.9317C55.2702 42.9317 55.2702 42.9317 55.2702 43.1513C55.2702 43.5905 55.2702 44.0297 55.4898 44.4689C55.8192 45.567 56.5878 46.116 57.6858 46.2258C58.4545 46.2258 59.1133 46.2258 59.7721 45.7866" fill="#991B1E"/>
<path d="M49.4506 45.0175C49.4506 45.0175 49.4506 45.0175 49.4506 44.9077C49.8898 43.6999 50.4389 42.4921 50.8781 41.394C50.8781 41.1744 51.0977 40.9548 51.0977 40.6254C51.0977 40.4058 51.0977 40.1862 50.7683 40.0764C50.6585 40.0764 50.5487 40.0764 50.3291 40.0764C50.3291 39.6371 50.3291 39.747 50.6585 39.747C51.5369 39.747 52.3055 39.747 53.184 39.747C53.3304 39.747 53.4036 39.7836 53.4036 39.8568C53.4036 39.8568 53.4036 40.0764 53.4036 40.1862C53.4036 40.1862 53.2938 40.1862 53.184 40.1862C52.9644 40.1862 52.7447 40.4058 52.6349 40.6254C52.5251 40.845 52.4153 41.1744 52.1957 41.394C51.3173 43.3705 50.4389 45.4568 49.4506 47.4332C49.4506 47.543 49.3408 47.6528 49.1212 47.6528C49.0114 47.6528 48.7918 47.6528 48.682 47.6528C48.5722 47.6528 48.5722 47.6528 48.4624 47.543C48.2428 46.994 48.0232 46.445 47.8036 46.0058C47.1448 44.3587 46.4859 42.7117 45.8271 41.0646C45.8271 40.845 45.7173 40.7352 45.6075 40.5156C45.4977 40.1862 45.2781 40.0764 44.9487 39.9666C44.9487 39.9666 44.8389 39.9666 44.8389 39.8568C44.8389 39.5273 44.8389 39.5273 45.1683 39.5273C45.9369 39.5273 46.5957 39.5273 47.3644 39.5273C47.6938 39.5273 48.0232 39.5273 48.3526 39.5273C48.4624 39.5273 48.4624 39.5273 48.4624 39.6371C48.4624 39.7836 48.3892 39.8568 48.2428 39.8568C48.133 39.8568 47.9134 39.8568 47.8036 39.9666C47.6938 39.9666 47.584 40.1862 47.584 40.296C47.584 40.5156 47.584 40.7352 47.6938 40.9548C48.0232 41.8332 48.3526 42.7117 48.682 43.5901C48.7918 44.0293 49.0114 44.3587 49.1212 44.7979C49.1212 44.7979 49.1212 44.7979 49.1212 44.9077" fill="#991B1E"/>
<path d="M73.0585 40.7348C73.0585 40.9544 73.0585 41.174 73.0585 41.3936C73.0585 41.5034 73.0585 41.5034 72.9487 41.5034C72.9487 41.5034 72.7291 41.5034 72.6193 41.5034C72.6193 41.5034 72.5095 41.5034 72.5095 41.3936C72.5095 41.2838 72.5095 41.0642 72.5095 40.9544C72.3997 40.625 72.1801 40.4053 71.8506 40.2955C71.4114 40.0759 70.9722 40.0759 70.533 40.2955C69.8742 40.5152 69.5448 41.2838 70.0938 41.8328C70.2036 41.9426 70.4232 42.0524 70.533 42.1622C70.9722 42.4916 71.5212 42.7112 71.9604 43.0406C72.1801 43.1504 72.3997 43.2602 72.5095 43.4799C73.1683 44.0289 73.3879 44.6877 73.3879 45.4563C73.3879 45.6759 73.3879 45.7857 73.3879 46.0053C73.1683 46.5544 72.8389 46.8838 72.3997 47.2132C71.9604 47.4328 71.5212 47.5426 70.9722 47.5426C70.2036 47.5426 69.3252 47.5426 68.5565 47.323C68.5565 47.323 68.5565 47.323 68.4467 47.323C68.4467 47.323 68.3369 47.323 68.3369 47.2132C68.3369 46.8838 68.3369 46.6642 68.3369 46.3348C68.3369 46.0053 68.3369 45.6759 68.3369 45.3465C68.3369 45.2367 68.3369 45.2367 68.4467 45.2367C68.4467 45.2367 68.5565 45.2367 68.6663 45.2367C68.7761 45.2367 68.7761 45.2367 68.8859 45.3465C68.8859 45.3465 68.8859 45.5661 68.8859 45.6759C68.9957 46.225 69.435 46.6642 69.984 46.774C70.4232 46.774 70.8624 46.774 71.1918 46.774C71.9604 46.5544 72.2899 45.5661 71.7408 45.0171C71.631 44.9073 71.5212 44.7975 71.3016 44.6877C70.8624 44.3583 70.3134 44.0289 69.8742 43.8093C69.6546 43.6995 69.435 43.4799 69.2153 43.3701C68.6663 42.821 68.4467 42.272 68.5565 41.5034C68.5565 41.2838 68.5565 41.174 68.6663 40.9544C68.8859 40.1857 69.435 39.8563 70.2036 39.6367C70.533 39.6367 70.7526 39.6367 71.082 39.6367C71.8506 39.6367 72.5095 39.6367 73.2781 39.8563C73.3879 39.8563 73.3879 39.8563 73.3879 40.0759C73.3879 40.4053 73.3879 40.7348 73.3879 41.0642" fill="#991B1E"/>
<path d="M80.5248 43.152C80.5248 42.3834 80.5248 41.5049 80.5248 40.7363C80.5248 40.5167 80.5249 40.5167 80.3052 40.5167C80.0856 40.5167 79.866 40.5167 79.6464 40.5167C79.5366 40.5167 79.5366 40.5167 79.5366 40.4069C79.5366 40.2971 79.5366 40.1873 79.6464 40.1873C80.3052 39.9677 80.8543 39.5285 81.2935 38.9795C81.5131 38.65 81.7327 38.3206 81.9523 37.9912C81.9523 37.8814 82.1719 37.7716 82.2817 37.8814C82.2817 37.8814 82.2817 37.8814 82.2817 37.9912C82.2817 38.4304 82.2817 38.9795 82.2817 39.4187C82.2817 39.6383 82.2817 39.6383 82.5013 39.6383C83.27 39.6383 84.0386 39.6383 84.8072 39.6383C85.0268 39.6383 85.0268 39.6383 85.0268 39.8579C85.0268 40.0775 85.0268 40.1873 85.0268 40.4069C85.0268 40.6265 85.0268 40.6265 84.8072 40.6265H82.5013C82.4281 40.6265 82.3915 40.6997 82.3915 40.8461C82.3915 41.1755 82.3915 41.3951 82.3915 41.7246C82.3915 42.8226 82.3915 43.9206 82.3915 45.0187C82.3915 46.1167 82.3915 45.5677 82.3915 45.7873C82.3915 45.7873 82.3915 45.7873 82.3915 45.8971C82.5013 46.4461 82.9405 46.6657 83.4896 46.7755C83.9288 46.7755 84.368 46.7755 84.8072 46.5559C84.917 46.5559 84.917 46.5559 85.0268 46.5559C85.0268 46.7023 85.0268 46.8121 85.0268 46.8853C84.6974 47.2148 84.2582 47.4344 83.819 47.5442C83.2699 47.654 82.8307 47.654 82.2817 47.5442C81.4033 47.3246 80.8543 46.7755 80.7445 46.0069C80.7445 45.6775 80.7445 45.4579 80.7445 45.1285C80.7445 44.4697 80.7445 43.8108 80.7445 43.2618" fill="#991B1E"/>
<path d="M63.9446 40.0774C64.0544 40.0774 64.1642 39.9676 64.1642 39.8578C64.8231 39.3087 65.5917 39.1989 66.4701 39.4185C66.6897 39.4185 66.9093 39.5283 67.0191 39.748C67.1289 39.748 67.2387 39.9676 67.0191 40.1872C66.7995 40.5166 66.5799 40.9558 66.4701 41.2852C66.4701 41.395 66.1407 41.395 66.0309 41.2852C66.0309 41.1754 65.8113 41.0656 65.7015 40.9558C65.1525 40.6264 64.6035 40.6264 64.0544 40.9558C64.0544 40.9558 63.9446 41.0656 63.9446 41.1754C63.9446 42.6029 63.9446 44.1401 63.9446 45.5676C63.9446 45.897 63.9446 46.2264 63.9446 46.446C63.9446 46.7754 64.1642 46.8852 64.3838 46.995C64.6035 46.995 64.8231 46.995 65.0427 46.995C65.1525 46.995 65.2623 46.995 65.1525 47.2146C65.1525 47.544 65.1525 47.4342 64.9329 47.4342C64.1642 47.4342 63.3956 47.4342 62.627 47.4342C62.078 47.4342 61.6387 47.4342 61.0897 47.4342C61.0897 47.4342 60.9799 47.4342 60.8701 47.4342C60.8701 47.4342 60.8701 47.4342 60.8701 47.3244C60.8701 47.1048 60.8701 47.1048 61.0897 47.1048C61.0897 47.1048 61.3093 47.1048 61.4191 47.1048C61.7485 47.1048 61.8584 46.7754 61.9682 46.446C61.9682 46.2264 61.9682 46.0068 61.9682 45.7872C61.9682 44.3597 61.9682 42.8225 61.9682 41.395C61.9682 41.2852 61.9682 41.0656 61.9682 40.9558C61.9682 40.7362 61.7486 40.5166 61.5289 40.5166C61.4191 40.5166 61.1995 40.5166 60.9799 40.5166C60.9799 40.5166 60.8701 40.5166 60.8701 40.4068C60.8701 40.0774 60.8701 40.0774 61.1995 40.0774C61.9682 40.0774 62.7368 39.9676 63.5054 39.748C63.6152 39.748 63.725 39.748 63.725 39.8578C63.725 40.0774 63.725 40.1872 63.725 40.4068" fill="#991B1E"/>
<path d="M77.5604 42.4929C77.5604 43.7008 77.5604 44.4694 77.5604 45.238C77.5604 45.5674 77.5604 46.0066 77.5604 46.336C77.5604 46.6655 77.78 46.8851 78.1094 46.9949C78.2192 46.9949 78.4388 46.9949 78.5486 46.9949C78.5486 46.9949 78.6584 46.9949 78.6584 47.1047C78.6584 47.3243 78.6584 47.3243 78.4388 47.3243C77.6702 47.3243 76.9016 47.3243 76.2428 47.3243C75.8035 47.3243 75.2545 47.3243 74.8153 47.3243C74.5957 47.3243 74.5957 47.3243 74.5957 47.1047C74.5957 46.9949 74.5957 46.9949 74.5957 46.8851C74.7055 46.8851 74.9251 46.8851 75.0349 46.8851C75.3643 46.8851 75.5839 46.5557 75.5839 46.2262C75.5839 46.0066 75.5839 45.787 75.5839 45.4576C75.5839 44.0302 75.5839 42.4929 75.5839 41.0655C75.5839 40.8459 75.5839 40.736 75.5839 40.5164C75.5839 40.2968 75.3643 40.0772 75.1447 40.0772C75.0349 40.0772 74.8153 40.0772 74.7055 40.0772C74.7055 40.0772 74.7055 40.0772 74.5957 39.9674C74.5957 39.638 74.5957 39.638 74.9251 39.638C75.5839 39.638 76.2428 39.638 76.7918 39.4184C76.9016 39.4184 77.0114 39.4184 77.1212 39.3086C77.231 39.3086 77.4506 39.3086 77.4506 39.5282C77.4506 40.6262 77.4506 41.7243 77.4506 42.3831" fill="#991B1E"/>
<path d="M42.9719 47.4332C42.2033 47.4332 41.5444 47.4332 40.8856 47.4332C40.666 47.4332 40.666 47.4332 40.666 47.2136C40.666 46.994 40.666 46.994 40.7758 46.994C40.8856 46.994 40.9954 46.994 41.1052 46.994C41.4346 46.994 41.5444 46.7744 41.6542 46.445C41.6542 46.2254 41.6542 45.896 41.6542 45.6764C41.6542 44.2489 41.6542 42.7117 41.6542 41.2842C41.6542 41.0646 41.6542 40.845 41.6542 40.7352C41.6542 40.5156 41.4346 40.4058 41.215 40.296C41.1052 40.296 40.8856 40.296 40.7758 40.296C40.7758 40.296 40.7758 40.296 40.666 40.1862C40.666 39.8568 40.666 39.8568 40.9954 39.8568C41.6543 39.8568 42.3131 39.8568 42.8621 39.6371C42.9719 39.6371 43.0817 39.6371 43.1915 39.5273C43.3013 39.5273 43.5209 39.5273 43.5209 39.747C43.5209 40.6254 43.5209 41.5038 43.5209 42.3822C43.5209 43.3705 43.5209 44.3587 43.5209 45.347C43.5209 45.7862 43.5209 46.1156 43.5209 46.5548C43.5209 46.8842 43.7405 47.1038 44.0699 47.2136C44.1797 47.2136 44.3993 47.2136 44.5092 47.2136C44.619 47.2136 44.619 47.2136 44.619 47.3234C44.619 47.543 44.619 47.543 44.3993 47.543C43.8503 47.543 43.3013 47.543 42.8621 47.543" fill="#991B1E"/>
<path d="M42.5327 37.8806C42.4229 37.8806 42.2033 37.8806 41.9836 37.7708C41.6542 37.661 41.5444 37.3316 41.5444 37.0022C41.5444 36.563 41.6542 36.1237 42.0935 35.9041C42.4229 35.7943 42.7523 35.6845 43.0817 35.9041C43.4111 36.0139 43.6307 36.3434 43.6307 36.6728C43.6307 37.3316 43.3013 37.7708 42.5327 37.7708" fill="#991B1E"/>
<path d="M76.5722 37.8823C76.4624 37.8823 76.2427 37.8823 76.1329 37.8823C75.6937 37.7725 75.4741 37.3333 75.4741 36.8941C75.4741 36.4548 75.8035 36.1254 76.2428 36.0156C76.4624 36.0156 76.682 36.0156 76.9016 36.0156C77.3408 36.1254 77.5604 36.4548 77.5604 36.8941C77.5604 37.3333 77.3408 37.7725 77.0114 37.8823C76.9016 37.8823 76.682 37.8823 76.4624 37.8823" fill="#991B1E"/>
</svg>
