<svg width="134" height="56" viewBox="0 0 134 56" fill="none" xmlns="http://www.w3.org/2000/svg">
<path d="M128.5 23.099C128.267 23.3323 128.034 23.449 127.684 23.449C127.334 23.449 127.217 23.5656 127.1 23.799C126.867 24.149 126.75 24.3823 126.517 24.7323C125.934 25.899 125.467 27.0656 124.884 28.349C123.717 31.2656 122.55 34.299 121.267 37.2156C120.684 38.499 120.1 39.7823 119.517 40.949C118.7 42.5823 117.884 44.2156 117.067 45.849C117.067 46.0823 116.834 46.199 116.834 46.4323C116.6 46.899 116.134 47.249 115.667 47.249C114.967 47.249 114.267 47.4823 113.684 47.7156H112.75C112.75 47.7156 112.517 47.7156 112.4 47.4823C112.284 47.3656 112.284 47.249 112.4 47.1323C112.634 47.1323 112.867 46.899 113.1 46.899C114.034 46.4323 114.85 45.9656 115.434 45.149C116.717 43.5156 118 41.7656 119.05 39.899C119.284 39.4323 119.517 39.0823 119.75 38.6156C119.867 38.2656 119.867 37.9156 119.75 37.5656C119.284 36.2823 118.7 34.999 118.234 33.7156C117.067 30.9156 115.9 28.2323 114.734 25.4323C114.5 24.9656 114.267 24.3823 114.034 23.9156C113.8 23.5656 113.45 23.3323 112.984 23.3323C112.984 23.3323 112.75 23.3323 112.634 23.3323C112.284 23.3323 112.284 23.3323 112.284 23.099C112.284 22.749 112.284 22.6323 112.634 22.5156C112.867 22.5156 113.217 22.5156 113.567 22.5156C113.8 22.5156 114.15 22.5156 114.384 22.5156C115.084 22.5156 115.784 22.5156 116.484 22.5156C117.3 22.5156 118.117 22.5156 118.934 22.5156C119.05 22.5156 119.167 22.5156 119.284 22.5156C119.634 22.5156 119.75 22.749 119.634 23.099C119.634 23.3323 119.517 23.449 119.167 23.449C118.934 23.449 118.7 23.449 118.467 23.449H118.234C117.884 23.449 117.767 23.6823 117.65 24.0323C117.65 24.499 117.65 24.849 117.65 25.3156C117.767 25.899 118 26.3656 118.234 26.8323C119.167 28.8156 119.984 30.799 120.684 32.7823C120.8 33.1323 121.034 33.4823 121.267 33.8323C121.5 34.0656 121.617 34.0656 121.85 33.8323C121.967 33.599 122.084 33.249 122.2 33.0156C122.9 31.149 123.484 29.2823 124.067 27.4156C124.3 26.599 124.534 25.899 124.767 25.0823C124.767 24.7323 124.767 24.3823 124.767 23.9156C124.767 23.6823 124.534 23.449 124.3 23.449C124.067 23.449 123.95 23.449 123.717 23.449C123.367 23.449 122.9 23.449 122.55 23.449C122.317 23.449 122.2 23.3323 122.2 22.9823C122.2 22.749 122.2 22.6323 122.55 22.6323C122.9 22.6323 123.367 22.6323 123.717 22.6323C124.184 22.6323 124.767 22.6323 125.234 22.6323C125.817 22.6323 126.284 22.6323 126.867 22.6323C127.217 22.6323 127.567 22.6323 127.917 22.6323C128.15 22.6323 128.267 22.6323 128.384 22.8656V23.2156L128.5 23.099Z" fill="#1D3D6D"/>
<path d="M18.8339 18.4323C18.8339 19.949 18.8339 21.5823 18.8339 23.099C18.8339 23.5656 18.9505 23.6823 19.4172 23.799C19.6505 23.799 19.8839 23.799 20.2339 23.799C21.0505 23.799 21.8672 23.799 22.6839 23.799C23.3839 23.799 23.9672 23.799 24.6672 23.9156C24.7839 23.9156 25.0172 23.9156 25.1339 23.799C25.3672 23.5656 25.7172 23.3323 25.9505 23.2156C26.5339 22.749 27.0005 22.049 27.2339 21.349C27.3505 20.8823 27.4672 20.299 27.5839 19.8323C27.5839 19.249 27.5839 18.7823 27.5839 18.199C27.4672 17.2656 27.1172 16.449 26.7672 15.749C26.3005 14.9323 25.7172 14.2323 25.0172 13.649C24.0839 12.949 22.9172 12.599 21.7505 12.599C21.4005 12.599 21.1672 12.599 20.8172 12.599C20.4672 12.599 20.0005 12.599 19.6505 12.8323C19.1839 12.949 19.0672 13.1823 19.0672 13.649C19.0672 13.649 19.0672 13.7656 19.0672 13.8823V18.4323M18.8339 29.5156C18.8339 30.3323 18.8339 31.149 18.8339 31.9656C18.8339 32.899 18.8339 33.8323 18.8339 34.7656C18.8339 35.2323 18.9505 35.699 19.0672 36.1656C19.0672 36.399 19.3005 36.6323 19.5339 36.749C19.7672 36.8656 20.1172 36.9823 20.4672 37.099C21.1672 37.3323 21.8672 37.3323 22.6839 37.3323C23.3839 37.3323 24.2005 37.2156 24.9005 36.8656C26.1839 36.399 27.1172 35.4656 27.7005 34.1823C28.2839 32.7823 28.4005 31.3823 28.1672 29.8656C27.9339 28.699 27.3505 27.649 26.4172 26.7156C25.3672 25.6656 24.2005 25.0823 22.8005 24.7323C22.2172 24.6156 21.6339 24.499 21.0505 24.499C20.5839 24.499 20.1172 24.499 19.6505 24.499C19.1839 24.499 18.9505 24.7323 18.8339 25.199C18.8339 25.3156 18.8339 25.4323 18.8339 25.6656V29.399M15.3339 25.899C15.3339 22.5156 15.3339 19.1323 15.3339 15.749C15.3339 15.1656 15.3339 14.5823 15.1005 13.999C15.1005 13.7656 14.9839 13.5323 14.8672 13.4156C14.6339 12.949 14.2839 12.7156 13.8172 12.7156C13.3505 12.7156 12.8839 12.7156 12.5339 12.7156C12.3005 12.7156 11.9505 12.7156 11.7172 12.7156C11.4839 12.7156 11.3672 12.599 11.3672 12.3656C11.3672 12.1323 11.3672 12.0156 11.6005 12.0156H11.8339C12.5339 12.0156 13.2339 12.0156 13.9339 12.0156C14.2839 12.0156 14.7505 12.0156 15.1005 12.0156C16.1505 12.0156 17.2005 12.0156 18.2505 12.0156C18.8339 12.0156 19.3005 12.0156 19.8839 12.0156C21.0505 12.0156 22.2172 12.0156 23.5005 12.0156C24.7839 12.0156 26.0672 12.249 27.2339 12.7156C28.0505 13.0656 28.7505 13.5323 29.4505 14.1156C30.2672 14.9323 30.8505 15.9823 30.9672 17.149C31.0839 18.3156 30.9672 19.3656 30.5005 20.4156C30.2672 20.999 29.9172 21.4656 29.4505 21.9323C28.7505 22.6323 28.0505 23.2156 27.2339 23.6823C27.0005 23.799 26.6505 24.0323 26.4172 24.149C26.4172 24.149 26.4172 24.149 26.3005 24.149C26.1839 24.2656 26.1839 24.3823 26.3005 24.3823C26.6505 24.499 26.8839 24.6156 27.2339 24.7323C28.4005 25.199 29.4505 25.7823 30.3839 26.7156C31.3172 27.5323 31.9005 28.5823 32.1339 29.749C32.3672 31.149 32.2505 32.549 31.6672 33.949C31.2005 34.8823 30.6172 35.699 29.6839 36.2823C28.6339 37.099 27.4672 37.449 26.1839 37.799C25.1339 38.0323 23.9672 38.149 22.9172 38.149C21.6339 38.149 20.4672 38.149 19.1839 37.9156C18.0172 37.799 16.8505 37.6823 15.5672 37.799C14.5172 37.799 13.5839 37.9156 12.5339 37.9156C12.5339 37.9156 12.4172 37.9156 12.3005 37.9156C12.0672 37.9156 11.9505 37.799 11.9505 37.5656C11.9505 37.3323 11.9505 37.2156 12.3005 37.099C12.5339 37.099 12.7672 37.099 13.0005 37.099C13.4672 37.099 13.9339 37.099 14.4005 37.099C14.5172 37.099 14.6339 37.099 14.8672 37.099C15.1005 37.099 15.2172 36.8656 15.2172 36.6323V36.399V26.249" fill="#1D3D6D"/>
<path d="M62.7003 32.0818C62.7003 30.7984 62.7003 29.5151 62.7003 28.1151C62.7003 24.0318 62.7003 19.8318 62.7003 15.7484C62.7003 15.1651 62.7003 14.6984 62.467 14.1151C62.3503 13.6484 62.117 13.4151 61.5337 13.4151C61.417 13.4151 61.1837 13.4151 61.067 13.4151C60.717 13.4151 60.4837 13.4151 60.1337 13.4151C60.1337 13.4151 60.1337 13.4151 60.017 13.4151C59.7837 13.4151 59.667 13.2984 59.667 13.0651C59.667 12.8318 59.667 12.7151 60.017 12.5984C60.017 12.5984 60.1337 12.5984 60.2503 12.5984C61.767 12.5984 63.4003 12.3651 64.8003 11.8984C64.917 11.8984 65.1503 11.8984 65.267 11.8984C65.5003 11.8984 65.5003 11.8984 65.617 12.1318C65.617 12.2484 65.617 12.3651 65.617 12.4818C65.617 12.9484 65.617 13.4151 65.617 13.7651C65.617 14.8151 65.617 15.8651 65.617 16.9151C65.617 18.0818 65.617 19.2484 65.617 20.4151C65.617 21.3484 65.617 22.3984 65.617 23.3318C65.617 24.3818 65.617 25.4318 65.617 26.4818C65.617 27.9984 65.617 29.6318 65.617 31.1484C65.617 32.6651 65.617 31.7318 66.2003 31.4984C66.7837 31.2651 67.367 30.7984 67.8337 30.4484C69.117 29.5151 70.4003 28.3484 71.567 27.2984C72.1503 26.8318 72.7337 26.2484 73.2003 25.5484C73.5503 25.0818 73.667 24.6151 73.667 24.1484C73.667 23.7984 73.667 23.6818 73.2003 23.5651C72.967 23.5651 72.8503 23.5651 72.617 23.5651C72.267 23.5651 71.917 23.5651 71.567 23.5651C71.4503 23.5651 71.3337 23.5651 71.217 23.3318C71.1003 23.0984 71.217 22.8651 71.4503 22.8651C71.8003 22.8651 72.0337 22.8651 72.3837 22.8651C73.0837 22.8651 73.7837 22.8651 74.367 22.8651C75.067 22.8651 75.767 22.8651 76.3503 22.8651C76.3503 22.8651 76.467 22.8651 76.5837 22.8651C76.817 22.8651 76.817 22.8651 76.817 23.2151C76.817 23.4484 76.5837 23.6818 76.467 23.7984C75.767 24.8484 74.8337 25.6651 73.9003 26.5984C72.8503 27.5318 71.6837 28.4651 70.6337 29.3984C70.167 29.7484 70.167 29.8651 70.6337 30.3318C71.3337 31.2651 72.0337 32.0818 72.7337 32.8984C73.5503 33.8318 74.367 34.8818 75.1837 35.8151C75.5337 36.2818 76.0003 36.6318 76.467 36.9818C76.817 37.2151 77.0503 37.3318 77.517 37.3318C77.7503 37.3318 77.9837 37.3318 78.217 37.3318C78.3337 37.3318 78.4503 37.3318 78.567 37.4484C78.8003 37.6818 78.6837 37.9151 78.4503 37.9151C78.217 37.9151 77.9837 37.9151 77.7503 37.9151C77.517 37.9151 77.2837 37.9151 76.9337 37.9151C76.3503 37.9151 75.6503 37.9151 75.067 37.9151C74.8337 37.9151 74.6003 37.9151 74.367 37.9151C74.1337 37.9151 73.7837 37.9151 73.5503 37.5651C73.317 37.3318 73.0837 36.9818 72.8503 36.7484C72.267 35.9318 71.567 35.2318 70.9837 34.4151C70.2837 33.4818 69.5837 32.5484 68.8837 31.6151C68.767 31.4984 68.6503 31.2651 68.5337 31.1484C68.417 30.9151 68.3003 30.9151 68.067 31.1484C68.067 31.1484 67.8337 31.1484 67.8337 31.2651C67.367 31.6151 66.9003 31.8484 66.4337 32.1984C66.317 32.1984 66.2003 32.4318 66.0837 32.5484C66.0837 32.5484 65.967 32.7818 65.967 32.8984C65.967 33.9484 65.967 34.9984 65.967 36.1651C65.967 36.6318 66.2003 36.8651 66.667 36.9818C67.1337 36.9818 67.6003 36.9818 68.067 36.9818C68.5337 36.9818 68.5337 36.9818 68.767 36.9818C69.0003 36.9818 69.117 37.2151 69.117 37.4484C69.117 37.6818 69.117 37.6818 68.8837 37.7984C68.8837 37.7984 68.6503 37.7984 68.5337 37.7984C67.8337 37.7984 67.2503 37.7984 66.5503 37.7984C65.5003 37.7984 64.4503 37.7984 63.4003 37.7984C62.7003 37.7984 62.0003 37.7984 61.1837 37.7984C61.067 37.7984 60.8337 37.7984 60.717 37.7984C60.6003 37.7984 60.4837 37.7984 60.4837 37.5651C60.4837 37.4484 60.4837 37.3318 60.6003 37.2151C60.8337 37.0984 61.067 37.0984 61.3003 37.0984C61.6503 37.0984 62.117 37.0984 62.467 37.0984C62.467 37.0984 62.5837 37.0984 62.7003 37.0984C63.0503 37.0984 63.0503 36.9818 63.0503 36.6318C63.0503 35.4651 63.0503 34.1818 63.0503 33.0151C63.0503 32.7818 63.0503 32.5484 63.0503 32.3151" fill="#1D3D6D"/>
<path d="M93.8506 25.5481V15.8647C93.8506 15.3981 93.8506 14.9314 93.8506 14.4647C93.7339 13.7647 93.5006 13.5314 92.8006 13.5314C92.4506 13.5314 92.1006 13.5314 91.7506 13.5314C91.4006 13.5314 91.5172 13.5314 91.4006 13.5314C91.1672 13.5314 90.9339 13.2981 91.0506 13.0647C91.0506 12.8314 91.1672 12.7147 91.5172 12.7147C91.7506 12.7147 92.1006 12.7147 92.3339 12.7147C93.6172 12.7147 94.9006 12.3647 96.1839 12.0147C96.6506 11.8981 96.8839 12.0147 96.8839 12.4814C96.8839 12.9481 96.8839 13.4147 96.8839 13.8814C96.8839 14.3481 96.8839 14.6981 96.8839 15.1647C96.8839 17.1481 96.8839 19.0147 96.8839 20.9981C96.8839 22.5147 96.8839 24.0314 96.8839 25.5481C96.8839 26.9481 96.8839 28.3481 96.8839 29.8647C96.8839 30.7981 96.8839 31.6147 96.8839 32.5481C96.8839 33.2481 96.8839 33.8314 96.8839 34.5314C96.8839 35.1147 96.8839 35.8147 97.0006 36.3981C97.0006 36.3981 97.0006 36.5147 97.0006 36.6314C97.1172 37.0981 97.3506 37.2147 97.8172 37.2147C98.2839 37.2147 98.6339 37.2147 99.1006 37.2147H99.3339C99.4506 37.2147 99.5672 37.3314 99.5672 37.5647C99.5672 37.6814 99.5672 37.7981 99.3339 37.9147C99.2172 37.9147 99.1006 37.9147 98.9839 37.9147C98.2839 37.9147 97.5839 37.9147 96.7672 37.9147C96.4172 37.9147 95.9506 37.9147 95.6006 37.9147C94.4339 37.9147 93.2672 37.9147 92.1006 37.9147C91.9839 37.9147 91.7506 37.9147 91.6339 37.9147C91.4006 37.9147 91.2839 37.9147 91.2839 37.6814C91.2839 37.4481 91.2839 37.3314 91.5172 37.2147C91.7506 37.2147 91.8672 37.2147 92.1006 37.2147C92.5672 37.2147 93.0339 37.2147 93.5006 37.2147C93.6172 37.2147 93.7339 37.2147 93.9672 37.2147C94.2006 37.2147 94.3172 36.9814 94.4339 36.6314V36.3981V25.8981" fill="#1D3D6D"/>
<path d="M80.667 27.9974C81.2503 27.9974 81.9503 27.9974 82.5337 27.8807C83.5837 27.7641 84.6337 27.5307 85.6837 27.2974C86.1503 27.2974 86.617 27.1807 87.0837 27.0641C87.4337 27.0641 87.4337 26.8307 87.4337 26.5974C87.4337 26.3641 87.317 26.1307 87.2003 26.0141C86.8503 25.3141 86.267 24.7307 85.6837 24.1474C85.3337 23.7974 84.9837 23.5641 84.517 23.3307C83.9337 23.0974 83.3503 22.9807 82.767 23.2141C82.067 23.4474 81.6003 23.7974 81.1337 24.3807C80.5503 25.0807 80.2003 25.8974 79.967 26.8307C79.967 27.1807 79.8503 27.4141 79.7337 27.7641C79.7337 27.9974 79.7337 28.1141 79.967 28.1141C80.2003 28.1141 80.317 28.1141 80.5503 28.1141M86.5003 36.3974C87.7837 36.3974 89.067 36.1641 90.2337 35.5807C90.2337 35.5807 90.3503 35.5807 90.467 35.5807C90.5837 35.5807 90.7003 35.5807 90.817 35.6974C90.817 35.8141 90.817 35.9307 90.817 35.9307C90.467 36.2807 90.0003 36.5141 89.5337 36.7474C88.367 37.4474 87.0837 37.9141 85.8003 38.1474C85.1003 38.2641 84.4003 38.1474 83.5837 38.1474C82.8837 38.1474 82.067 37.9141 81.367 37.5641C79.3837 36.7474 78.1003 35.3474 77.517 33.2474C77.2837 32.5474 77.2837 31.8474 77.167 31.1474C77.167 29.9807 77.167 28.8141 77.517 27.6474C77.867 26.3641 78.567 25.1974 79.5003 24.1474C80.667 22.9807 81.9503 22.2807 83.5837 22.1641C84.6337 22.1641 85.6837 22.2807 86.617 22.7474C87.667 23.2141 88.6003 23.7974 89.417 24.6141C89.8837 25.0807 90.3503 25.6641 90.7003 26.3641C90.7003 26.3641 90.7003 26.5974 90.817 26.7141C90.817 26.9474 90.817 27.0641 90.7003 27.0641C90.2337 27.1807 89.8837 27.2974 89.417 27.4141C87.7837 27.7641 86.1503 28.1141 84.517 28.3474C83.7003 28.3474 82.8837 28.5807 82.1837 28.5807C81.6003 28.5807 81.1337 28.5807 80.5503 28.6974C80.0837 28.6974 79.967 28.8141 79.967 29.2807C79.967 29.6307 79.967 29.9807 79.967 30.3307C79.967 30.7974 79.967 31.2641 80.2003 31.7307C80.4337 32.7807 80.9003 33.5974 81.717 34.4141C82.417 35.1141 83.3503 35.6974 84.4003 35.9307C85.217 36.1641 86.0337 36.2807 86.8503 36.2807" fill="#1D3D6D"/>
<path d="M102.134 27.9977C102.95 27.9977 103.65 27.9977 104.467 27.7644C105.517 27.6477 106.567 27.4144 107.5 27.2977C107.85 27.2977 108.2 27.2977 108.55 27.0644C108.9 27.0644 109.017 26.831 108.9 26.481C108.9 26.3644 108.9 26.2477 108.784 26.131C108.55 25.781 108.434 25.431 108.084 25.081C107.5 24.381 106.917 23.7977 106.1 23.331C105.75 23.0977 105.284 22.981 104.934 22.981C104 22.981 103.417 23.4477 102.834 24.031C102.134 24.8477 101.784 25.781 101.434 26.831C101.434 27.0644 101.317 27.2977 101.317 27.6477C101.317 27.9977 101.317 27.9977 101.667 27.9977C101.9 27.9977 102.017 27.9977 102.25 27.9977M108.084 36.3977C109.25 36.3977 110.417 36.1644 111.584 35.6977C111.584 35.6977 111.7 35.6977 111.817 35.6977C111.934 35.6977 112.05 35.6977 112.167 35.8144C112.167 35.931 112.167 36.0477 112.167 36.0477C111.7 36.5144 111.117 36.8644 110.534 37.0977C109.484 37.681 108.434 38.031 107.267 38.2644C106.567 38.2644 105.867 38.2644 105.167 38.2644C104.117 38.2644 103.184 37.9144 102.367 37.4477C100.734 36.631 99.5671 35.231 99.1005 33.481C98.8671 32.781 98.7505 32.081 98.7505 31.381C98.7505 30.0977 98.7505 28.8144 99.2171 27.531C99.9171 25.431 101.084 23.9144 103.067 22.8644C104.467 22.1644 105.867 22.0477 107.384 22.5144C108.667 22.981 109.834 23.5644 110.767 24.4977C111.35 25.081 111.934 25.781 112.284 26.5977C112.517 26.9477 112.517 27.0644 112.05 27.181C111.234 27.4144 110.417 27.6477 109.484 27.7644C107.967 28.1144 106.45 28.3477 104.934 28.4644C104.234 28.4644 103.417 28.6977 102.717 28.6977C102.484 28.6977 102.134 28.6977 101.9 28.6977C101.55 28.6977 101.434 28.8144 101.317 29.281C101.317 29.631 101.317 29.981 101.317 30.2144C101.317 30.9144 101.434 31.6144 101.667 32.1977C102.134 33.5977 103.067 34.6477 104.35 35.3477C105.517 35.931 106.8 36.281 108.317 36.281" fill="#1D3D6D"/>
<path d="M37.3838 27.9987C37.9672 27.9987 38.5505 27.9987 39.1338 27.882C40.4172 27.6487 41.8172 27.4154 43.1005 27.182C43.3338 27.182 43.5672 27.182 43.8005 27.0654C44.0338 27.0654 44.1505 26.9487 44.1505 26.7154C44.1505 26.482 44.1505 26.3654 44.0338 26.132C43.4505 24.9654 42.6338 24.1487 41.5838 23.4487C40.7672 22.982 39.9505 22.982 39.0172 23.4487C38.5505 23.682 38.2005 24.032 37.9672 24.382C37.3838 25.082 37.0338 26.0154 36.8005 26.9487C36.8005 27.2987 36.6838 27.532 36.5672 27.882C36.5672 28.1154 36.5672 28.232 36.8005 28.232C37.0338 28.232 37.2672 28.232 37.3838 28.232M43.1005 36.3987C44.3838 36.3987 45.6672 36.1654 46.8338 35.582C46.8338 35.582 46.9505 35.582 47.0672 35.582C47.1838 35.582 47.3005 35.582 47.4172 35.6987C47.4172 35.8154 47.4172 35.932 47.4172 35.932C47.1838 36.1654 46.9505 36.282 46.8338 36.3987C45.4338 37.2154 44.0338 37.9154 42.5172 38.2654C41.8172 38.382 41.0005 38.2654 40.3005 38.2654C39.2505 38.1487 38.3172 37.7987 37.3838 37.332C35.9838 36.5154 34.9338 35.3487 34.4672 33.832C34.1172 32.6654 34.0005 31.4987 34.0005 30.332C34.0005 29.0487 34.2338 27.7654 34.8172 26.5987C35.5172 24.9654 36.5672 23.7987 38.2005 22.982C39.8338 22.1654 41.4672 22.0487 43.1005 22.7487C44.3838 23.2154 45.4338 23.9154 46.3672 24.8487C46.8338 25.3154 47.3005 25.8987 47.6505 26.5987C47.8838 27.0654 47.7672 27.0654 47.4172 27.2987C46.7172 27.532 45.9005 27.6487 45.2005 27.882C43.9172 28.1154 42.6338 28.3487 41.3505 28.582C40.5338 28.582 39.7172 28.8154 38.9005 28.8154C38.3172 28.8154 37.8505 28.8154 37.2672 28.932C36.9172 28.932 36.6838 29.1654 36.6838 29.5154C36.6838 31.2654 36.9172 32.8987 38.0838 34.2987C38.9005 35.232 39.9505 35.8154 41.1172 36.1654C41.9338 36.3987 42.7505 36.5154 43.5672 36.5154" fill="#1D3D6D"/>
<path d="M51.0339 30.5656C51.0339 28.9323 51.0339 27.1823 51.0339 25.549C51.0339 25.199 51.0339 24.849 51.0339 24.3823C51.0339 23.9156 50.8006 23.6823 50.2173 23.5656C49.8673 23.5656 49.5173 23.5656 49.1673 23.5656C48.9339 23.5656 48.8173 23.5656 48.5839 23.5656C48.3506 23.5656 48.3506 23.5656 48.3506 23.3323C48.3506 23.3323 48.3506 23.099 48.3506 22.9823C48.3506 22.749 48.3506 22.749 48.7006 22.6323H48.9339C49.6339 22.6323 50.4506 22.6323 51.1506 22.6323C51.7339 22.6323 52.3173 22.6323 52.9006 22.5156C53.0173 22.5156 53.1339 22.5156 53.3673 22.5156C53.6006 22.5156 53.7173 22.5156 53.7173 22.8656C53.7173 23.2156 53.7173 23.449 53.7173 23.799C53.7173 24.0323 53.7173 24.149 53.7173 24.3823C53.7173 24.6156 53.8339 24.6156 54.0673 24.6156C54.3006 24.6156 54.4173 24.3823 54.6506 24.2656C55.2339 23.9156 55.7006 23.449 56.4006 23.2156C56.8673 22.9823 57.2173 22.8656 57.6839 22.749C58.0339 22.749 58.2673 22.749 58.6173 22.749C59.2006 22.9823 59.7839 23.2156 60.1339 23.799C60.3673 24.0323 60.4839 24.3823 60.3673 24.7323C60.2506 25.199 60.0173 25.7823 59.7839 26.249C59.6673 26.599 59.5506 26.599 59.3173 26.249C59.2006 26.1323 58.9673 25.899 58.8506 25.7823C58.3839 25.199 57.6839 24.9656 56.9839 24.9656C56.4006 24.9656 55.8173 24.9656 55.3506 25.199C54.5339 25.549 54.0673 26.1323 53.9506 27.0656C53.9506 27.1823 53.9506 27.299 53.9506 27.5323C53.9506 30.2156 53.9506 32.899 53.9506 35.4656C53.9506 38.0323 53.9506 35.9323 53.9506 36.2823C53.9506 36.6323 54.1839 36.8656 54.6506 36.9823C55.0006 36.9823 55.3506 36.9823 55.5839 36.9823C56.0506 36.9823 56.5173 36.9823 56.9839 36.9823C57.1006 36.9823 57.3339 36.9823 57.4506 36.9823C57.6839 36.9823 57.9173 37.3323 57.8006 37.5656C57.8006 37.5656 57.8006 37.5656 57.6839 37.5656H57.4506C56.5173 37.5656 55.7006 37.5656 54.7673 37.449C54.6506 37.449 54.4173 37.449 54.3006 37.449C53.6006 37.449 52.9006 37.449 52.2006 37.449C51.5006 37.449 50.8006 37.5656 50.1006 37.5656C49.7506 37.5656 49.5173 37.5656 49.1673 37.5656C48.9339 37.5656 48.8173 37.5656 48.8173 37.2156C48.8173 36.9823 48.8173 36.8656 49.0506 36.8656C49.1673 36.8656 49.4006 36.8656 49.5173 36.8656C49.9839 36.8656 50.4506 36.8656 50.8006 36.8656C51.2673 36.8656 51.2673 36.749 51.2673 36.2823C51.2673 35.2323 51.2673 34.1823 51.2673 33.1323V30.5656" fill="#1D3D6D"/>
<path d="M97.7005 43.8654C97.7005 43.9821 97.7005 44.0987 97.7005 44.2154C97.7005 45.1487 97.7005 45.9654 97.7005 46.8987C97.7005 47.1321 97.7005 47.1321 97.4671 47.2487C97.0782 47.2487 96.8838 47.0543 96.8838 46.6654V42.6987C96.8838 42.6987 96.8838 42.5821 96.8838 42.4654C96.8838 42.4654 96.8838 42.3487 97.0005 42.3487C97.2338 42.3487 97.4671 42.2321 97.5838 42.3487C97.8171 42.3487 97.8171 42.6987 97.9338 42.8154C98.4005 43.6321 98.9838 44.4487 99.4505 45.2654C99.4505 45.2654 99.4505 45.4987 99.6838 45.4987C99.6838 45.4987 99.6838 45.2654 99.6838 45.1487V42.5821C99.6838 42.3487 99.6838 42.3487 99.9171 42.3487C100.617 42.3487 100.5 42.3487 100.5 42.9321C100.5 44.2154 100.5 45.6154 100.5 46.8987C100.5 48.1821 100.5 47.0154 100.5 47.1321C100.5 47.2487 100.5 47.2487 100.384 47.2487C100.267 47.2487 100.034 47.2487 99.9171 47.2487C99.8005 47.2487 99.8005 47.2487 99.6838 47.0154C99.2171 46.3154 98.8671 45.7321 98.4005 45.0321C98.1671 44.6821 97.9338 44.3321 97.7005 43.8654Z" fill="#1D3D6D"/>
<path d="M20.2337 43.8643C20.2337 43.8643 20.2337 44.0977 20.2337 44.2143C20.2337 45.031 20.2337 45.8477 20.2337 46.781C20.2337 47.7143 20.2337 46.8977 20.2337 47.0143C20.2337 47.131 20.2337 47.2477 20.117 47.2477C19.417 47.2477 19.417 47.2477 19.417 46.6643V42.8143C19.417 42.8143 19.417 42.6977 19.417 42.581C19.417 42.581 19.417 42.4643 19.5337 42.3477C19.6503 42.3477 19.8837 42.3477 20.0003 42.3477C20.117 42.3477 20.2337 42.3477 20.2337 42.4643C20.467 42.8143 20.7003 43.281 20.9337 43.631C21.2837 44.2143 21.6337 44.7977 21.9837 45.381C21.9837 45.381 21.9837 45.381 22.1003 45.4977C22.1003 45.4977 22.1003 45.2643 22.1003 45.1477C22.1003 44.331 22.1003 43.3977 22.1003 42.581C22.1003 42.3477 22.1003 42.3477 22.3337 42.3477C22.4503 42.3477 22.567 42.3477 22.6837 42.3477C22.8003 42.3477 22.917 42.3477 22.917 42.581C22.917 42.581 22.917 42.581 22.917 42.6977V47.0143C22.917 47.0143 22.917 47.0143 22.917 47.131C22.917 47.2477 22.917 47.2477 22.8003 47.2477C22.4114 47.2477 22.1392 47.0921 21.9837 46.781C21.4003 45.8477 20.817 45.031 20.3503 44.0977C20.3503 44.0977 20.3503 43.981 20.2337 43.981" fill="#1D3D6D"/>
<path d="M88.3672 44.5633C88.3672 44.9133 88.3672 45.1466 88.4839 45.4966C88.4839 45.8466 88.7172 46.08 89.0672 46.3133C89.5339 46.6633 90.4672 46.5466 90.8172 45.73C91.0505 45.03 91.0505 44.2133 90.8172 43.5133C90.7005 43.0466 90.3505 42.8133 89.7672 42.8133C89.3005 42.8133 88.9505 43.0466 88.7172 43.5133C88.4838 43.8633 88.4839 44.3299 88.4839 44.6799M91.8672 44.5633C91.8672 45.1466 91.8672 45.6133 91.5172 46.1966C91.2838 46.5466 91.0505 46.8966 90.5839 47.0133C89.7672 47.3633 89.0672 47.2466 88.3672 46.7799C88.0172 46.5466 87.7839 46.1966 87.6672 45.73C87.4339 44.9133 87.4339 44.2133 87.6672 43.3966C87.9005 42.6966 88.3672 42.2299 89.1838 42.1133C89.5338 42.1133 90.0005 42.1133 90.3505 42.1133C91.1672 42.3466 91.5172 42.9299 91.7505 43.7466C91.7505 43.9799 91.7505 44.33 91.7505 44.5633" fill="#1D3D6D"/>
<path d="M60.3674 44.6799C60.3674 44.3299 60.3674 43.8633 60.134 43.5133C59.9007 42.9299 59.3174 42.6966 58.734 42.8133C58.2674 42.93 58.034 43.3966 57.9174 43.8633C57.8007 44.3299 57.8007 44.9133 57.9174 45.38C57.9174 45.73 58.1507 46.08 58.5007 46.3133C59.084 46.78 59.9007 46.5466 60.2507 45.8466C60.3674 45.4966 60.484 45.0299 60.484 44.6799M58.9674 47.13C58.034 47.13 57.334 46.5466 57.1007 45.4966C56.984 44.7966 56.984 44.0966 57.1007 43.5133C57.334 42.6966 57.9174 42.1133 58.8507 42.1133C59.084 42.1133 59.434 42.1133 59.6674 42.1133C60.3674 42.2299 60.834 42.5799 61.0674 43.2799C61.4174 44.2133 61.4174 45.1466 61.0674 45.9633C60.7174 46.78 60.0174 47.2466 58.9674 47.2466" fill="#1D3D6D"/>
<path d="M93.3841 43.6328C93.3841 43.8661 93.3841 43.9828 93.3841 44.2161C93.3841 44.3328 93.3841 44.4495 93.6174 44.4495C93.8507 44.4495 94.0841 44.4495 94.2007 44.4495C94.6674 44.4495 94.9007 44.2161 94.9007 43.7495C94.9007 43.7495 94.9007 43.6328 94.9007 43.5161C94.9007 43.1661 94.7841 43.0495 94.4341 42.9328C94.0841 42.9328 93.8507 42.9328 93.5007 42.9328C93.5007 42.9328 93.3841 42.9328 93.3841 43.0495V43.6328ZM94.9007 44.9161C95.3674 45.6161 95.7174 46.3161 96.0674 47.0161C95.7174 47.0161 95.4841 47.0161 95.2507 47.0161C95.2507 47.0161 95.1341 47.0161 95.0174 46.7828C94.7841 46.4328 94.6674 45.9661 94.4341 45.6161C94.4341 45.4995 94.3174 45.3828 94.2007 45.2661C93.9674 45.0328 93.7341 45.0328 93.5007 45.0328C93.5007 45.0328 93.5007 45.1495 93.5007 45.2661C93.5007 45.7328 93.5007 46.1995 93.5007 46.5495V46.7828C93.5007 46.8995 93.5007 47.0161 93.2674 47.0161C93.1507 47.0161 92.9174 47.0161 92.8007 47.0161C92.6841 47.0161 92.5674 47.0161 92.6841 46.7828C92.6841 46.7828 92.6841 46.6661 92.6841 46.5495V42.3495C92.6841 42.3495 92.6841 42.2328 92.6841 42.1161C92.6841 41.9995 92.6841 41.8828 92.9174 41.8828C93.3841 41.8828 93.8507 41.8828 94.3174 41.8828C94.4341 41.8828 94.5507 41.8828 94.7841 41.8828C95.9507 42.1161 96.1841 43.1661 95.8341 43.8661C95.8341 44.0995 95.4841 44.3328 95.2507 44.4495C95.2507 44.4495 95.0174 44.4495 95.0174 44.5661" fill="#1D3D6D"/>
<path d="M36.4506 43.63C36.4506 43.8633 36.4506 43.98 36.4506 44.2133C36.4506 44.33 36.4506 44.4466 36.5672 44.4466C36.8006 44.4466 37.0339 44.4466 37.2672 44.4466C37.6172 44.4466 37.8506 44.2133 37.8506 43.8633C37.8506 43.7466 37.8506 43.5133 37.8506 43.3966C37.8506 43.1633 37.6172 42.9299 37.3839 42.9299C37.0339 42.9299 36.8006 42.9299 36.4506 42.9299C36.4506 42.9299 36.3339 42.93 36.3339 43.0466V43.63M39.1339 47.13C38.7839 47.13 38.5506 47.13 38.3172 47.13C38.2006 47.13 38.2006 47.1299 38.0839 47.0133C37.8506 46.6633 37.7339 46.3133 37.5006 45.8466C37.5006 45.8466 37.5006 45.6133 37.3839 45.4966C37.1506 45.1466 36.9172 45.03 36.5672 45.1466C36.5672 45.1466 36.5672 45.1466 36.5672 45.2633C36.5672 45.4966 36.5672 45.6133 36.5672 45.8466C36.5672 46.1966 36.5672 46.5466 36.5672 46.8966C36.5672 47.13 36.5672 47.13 36.3339 47.13C35.5172 47.13 35.7506 47.13 35.7506 46.5466C35.7506 45.2633 35.7506 43.8633 35.7506 42.5799C35.7506 42.1133 35.7506 42.1133 35.9839 42.1133C36.4506 42.1133 36.9172 42.1133 37.3839 42.1133C37.7339 42.1133 38.0839 42.1133 38.4339 42.4633C39.0172 42.93 39.0172 44.33 38.3172 44.7966C38.3172 44.7966 38.0839 44.9133 38.0839 45.0299C38.5506 45.7299 38.9006 46.43 39.2506 47.13" fill="#1D3D6D"/>
<path d="M18.1338 43.98C18.1338 44.4466 18.1338 45.0299 18.1338 45.4966C18.1338 46.0799 17.9005 46.5466 17.4338 46.8966C17.3171 46.8966 17.0838 47.0133 16.9671 47.13C16.6171 47.13 16.2671 47.13 15.8005 47.13C15.1005 47.0133 14.6338 46.43 14.6338 45.73C14.6338 45.73 14.6338 45.4966 14.6338 45.38C14.6338 44.33 14.6338 43.3966 14.6338 42.3466C14.6338 42.1133 14.6338 42.1133 14.8671 42.1133C15.5671 42.1133 15.4505 42.1133 15.4505 42.6966C15.4505 43.5133 15.4505 44.4466 15.4505 45.2633C15.4505 45.4966 15.4505 45.6133 15.4505 45.8466C15.4505 45.8466 15.4505 46.0799 15.5671 46.1966C15.9171 46.5466 16.2671 46.5466 16.7338 46.4299C17.0838 46.4299 17.3171 46.08 17.3171 45.73C17.3171 45.73 17.3171 45.4966 17.3171 45.38V42.4633C17.3171 42.4633 17.3171 42.3466 17.3171 42.23C17.3171 42.23 17.3171 42.1133 17.4338 42.1133C17.5505 42.1133 17.7838 42.1133 17.9005 42.1133C18.0171 42.1133 18.1338 42.1133 18.1338 42.3466C18.1338 42.6966 18.1338 43.1633 18.1338 43.5133V43.98Z" fill="#1D3D6D"/>
<path d="M76.0007 45.2643C75.7673 44.5643 75.534 43.7477 75.3006 43.0477C75.0673 43.7477 74.834 44.4477 74.6007 45.2643H76.1173H76.0007ZM77.5173 47.131C77.4007 47.131 77.284 47.131 77.0506 47.131C76.584 47.131 76.7006 47.131 76.4673 46.781C76.4673 46.5477 76.3507 46.431 76.234 46.1977C76.234 46.081 76.234 45.9643 76.0007 45.9643C75.4173 45.9643 74.834 45.9643 74.3673 45.9643C74.2507 45.9643 74.134 45.9643 74.134 46.1977C74.134 46.431 73.9007 46.781 73.9007 47.0143C73.9007 47.131 73.9007 47.2477 73.6673 47.2477C73.434 47.2477 73.3173 47.2477 73.084 47.2477C73.084 47.0143 73.2007 46.781 73.3173 46.5477C73.784 45.2643 74.2507 43.981 74.7173 42.6977C74.834 42.3477 74.834 42.3477 75.184 42.3477C75.3007 42.3477 75.4173 42.3477 75.534 42.3477C75.6507 42.3477 75.7673 42.3477 75.884 42.581C76.234 43.5143 76.584 44.5643 76.934 45.4977C77.1673 46.081 77.284 46.5477 77.5173 47.131C77.5173 47.131 77.5173 47.2477 77.5173 47.3643V47.131Z" fill="#1D3D6D"/>
<path d="M106.217 45.2648C105.984 44.4482 105.75 43.7482 105.4 43.0482C105.167 43.7482 104.934 44.4482 104.7 45.2648H106.217ZM107.734 47.1315C107.5 47.1315 107.15 47.1315 107.034 47.1315C106.8 47.1315 106.8 46.6648 106.8 46.5482C106.567 45.9648 106.8 46.0815 106.1 46.0815C105.634 46.0815 105.284 46.0815 104.817 46.0815C104.584 46.0815 104.584 46.0815 104.467 46.3148C104.467 46.5482 104.35 46.7815 104.234 47.0148C104.234 47.1315 104.117 47.2482 104 47.2482C103.884 47.2482 103.65 47.2482 103.534 47.2482C103.534 47.1315 103.534 47.0148 103.534 46.8982C104 45.4982 104.584 44.0982 105.05 42.6982C105.05 42.4648 105.167 42.4648 105.4 42.4648C105.634 42.4648 105.634 42.4648 105.867 42.4648C106.1 42.4648 106.217 42.4648 106.217 42.6982C106.45 43.2815 106.567 43.7482 106.8 44.3315C107.15 45.2648 107.5 46.3148 107.85 47.2482C107.85 47.2482 107.85 47.2482 107.85 47.3648" fill="#1D3D6D"/>
<path d="M31.3173 44.5633C31.3173 43.8633 31.3173 43.1633 31.3173 42.3466C31.3173 42.1133 31.3173 42.1133 31.6673 42.1133C32.484 42.1133 33.3007 42.1133 34.0007 42.1133C34.234 42.1133 34.234 42.1133 34.234 42.3466C34.234 42.8133 34.234 42.8133 33.7673 42.8133C33.3007 42.8133 32.834 42.8133 32.3673 42.8133C32.134 42.8133 32.134 42.8133 32.134 43.0466C32.134 43.28 32.134 43.6299 32.134 43.8633C32.134 44.0966 32.134 44.0966 32.3673 44.0966C32.834 44.0966 33.3007 44.0966 33.7673 44.0966C34.0007 44.0966 34.0007 44.0966 34.0007 44.3299C34.0007 44.7966 34.0007 44.7966 33.534 44.7966C33.0673 44.7966 32.7173 44.7966 32.2507 44.7966C32.134 44.7966 32.0173 44.7966 32.0173 45.0299C32.0173 45.3799 32.0173 45.73 32.0173 45.9633C32.0173 46.1966 32.0173 46.1966 32.2507 46.1966C32.834 46.1966 33.3007 46.1966 33.884 46.1966C34.1173 46.1966 34.1951 46.3133 34.1173 46.5466C34.1173 46.5466 34.1173 46.5466 34.1173 46.6633C34.1173 46.8966 34.1173 46.8966 33.884 46.8966C33.0673 46.8966 32.2507 46.8966 31.3173 46.8966C31.084 46.8966 31.084 46.8966 31.084 46.6633C31.084 45.9633 31.084 45.1466 31.084 44.4466" fill="#1D3D6D"/>
<path d="M30.5003 42.1167C30.267 42.7 30.1503 43.2833 29.917 43.8667C29.567 44.8 29.217 45.85 28.867 46.7833C28.867 47.1333 28.867 47.0167 28.517 47.0167C28.4003 47.0167 28.167 47.0167 28.0503 47.0167C27.9336 47.0167 27.817 47.0167 27.817 46.7833C27.7003 46.4333 27.5836 45.9667 27.3503 45.6167C27.0003 44.5667 26.6503 43.5167 26.3003 42.4667V42.35C26.3003 42.2333 26.3003 42.1167 26.417 42.1167C27.117 42.1167 27.117 42.1167 27.3503 42.7C27.7003 43.75 28.0503 44.8 28.4003 45.85V45.9667C28.4003 45.85 28.517 45.6167 28.6336 45.3833C28.9836 44.3333 29.3336 43.2833 29.6836 42.2333C29.6836 42.1167 29.6836 42 29.917 42C30.1503 42 30.267 42 30.5003 42" fill="#1D3D6D"/>
<path d="M42.7504 43.1647C42.4004 43.048 42.0504 42.8147 41.7004 42.8147C41.5837 42.8147 41.4671 42.8147 41.3504 42.8147C40.8837 42.8147 40.7671 43.5147 41.0004 43.8647C41.1171 43.9814 41.2337 44.098 41.4671 44.2147C41.7004 44.3314 42.0504 44.448 42.2837 44.5647C42.7504 44.798 43.1004 45.148 43.1004 45.7314C43.1004 46.3147 42.8671 46.6647 42.4004 46.898C41.9337 47.1314 41.4671 47.248 40.8837 47.1314C40.5337 47.1314 40.3004 46.898 39.9504 46.7814C39.7171 46.7814 39.7171 46.6647 39.9504 46.4314C40.1059 46.198 40.3004 46.1203 40.5337 46.198C40.8837 46.3147 41.2337 46.4314 41.7004 46.4314C42.0504 46.4314 42.2837 46.198 42.4004 45.9647C42.4004 45.7314 42.4004 45.6147 42.2837 45.498C42.1671 45.3814 41.9337 45.2647 41.7004 45.148C41.3504 45.0314 41.1171 44.9147 40.7671 44.6814C40.1837 44.3314 40.0671 43.748 40.1837 43.1647C40.1837 42.8147 40.5337 42.5814 40.8837 42.348C41.7004 41.998 42.4004 42.1147 43.1004 42.4647C43.1004 42.4647 43.1004 42.4647 43.1004 42.698C43.1004 42.8147 42.9837 43.048 42.8671 43.1647" fill="#1D3D6D"/>
<path d="M70.7504 47.1316C70.1671 47.1316 69.7004 47.1316 69.3504 46.665C68.8837 46.315 68.7671 45.8483 68.6504 45.265C68.6504 44.6816 68.6504 44.215 68.6504 43.6316C69.0004 42.115 70.6337 41.415 71.9171 42.2316C72.5004 42.5816 72.3837 42.465 72.0337 42.9316C72.0337 43.0483 71.9171 42.9316 71.8004 42.9316C71.5671 42.6983 71.2171 42.5816 70.8671 42.5816C70.1671 42.5816 69.7004 42.815 69.4671 43.515C69.2337 44.0983 69.2337 44.7983 69.4671 45.3816C69.7004 46.1983 70.2837 46.4316 71.1004 46.315C71.3337 46.315 71.6837 46.0816 71.9171 45.965C71.9171 45.965 72.0337 45.965 72.1504 45.965C72.5004 46.315 72.5004 46.4316 72.1504 46.665C71.6837 46.8983 71.2171 47.1316 70.8671 47.015" fill="#1D3D6D"/>
<path d="M84.0507 44.6805C84.0507 43.9805 84.0507 43.1638 84.0507 42.4638C84.0507 42.2305 84.0508 42.2305 84.2841 42.2305C85.1008 42.2305 85.8008 42.2305 86.6174 42.2305C86.8508 42.2305 86.8507 42.2305 86.8507 42.4638C86.8507 42.9305 86.8507 42.9305 86.3841 42.9305C85.9174 42.9305 85.4508 42.9305 84.9841 42.9305C84.7508 42.9305 84.7508 42.9305 84.7508 43.1638C84.7508 43.5138 84.7508 43.7471 84.7508 44.0971C84.7508 44.2138 84.7508 44.3305 84.9841 44.3305C85.4508 44.3305 85.9174 44.3305 86.3841 44.3305C86.6174 44.3305 86.6174 44.3305 86.6174 44.5638C86.6174 45.1471 86.6174 45.0305 86.1508 45.0305C85.8008 45.0305 85.4507 45.0305 85.1007 45.0305C84.7507 45.0305 84.7508 45.0305 84.7508 45.3805C84.7508 45.7305 84.7508 46.4305 84.7508 46.8971C84.7508 47.1305 84.7507 47.1305 84.5174 47.1305C84.4007 47.1305 84.2841 47.1305 84.1674 47.1305C84.0508 47.1305 83.9341 47.1305 83.9341 46.8971C83.9341 46.8971 83.9341 46.7805 83.9341 46.6638V44.5638" fill="#1D3D6D"/>
<path d="M62.4672 44.5633C62.4672 43.8633 62.4672 43.0466 62.4672 42.3466C62.4672 42.1133 62.4672 42.1133 62.7006 42.1133C63.5172 42.1133 64.3339 42.1133 65.0339 42.1133C65.2672 42.1133 65.2672 42.1133 65.2672 42.3466C65.2672 42.9299 65.2672 42.8133 64.8006 42.8133C64.3339 42.8133 63.8672 42.8133 63.4006 42.8133C63.1672 42.8133 63.1672 42.8133 63.1672 43.0466C63.1672 43.3966 63.1672 43.63 63.1672 43.98C63.1672 44.2133 63.1672 44.2133 63.4006 44.2133C63.8672 44.2133 64.2172 44.2133 64.6839 44.2133C64.9172 44.2133 64.9172 44.2133 64.9172 44.4466C64.9172 45.0299 64.9172 44.9133 64.4506 44.9133C64.1006 44.9133 63.7506 44.9133 63.4006 44.9133C63.1672 44.9133 63.1672 44.9133 63.1672 45.1466C63.1672 45.6133 63.1672 46.1966 63.1672 46.6633C63.1672 46.8966 63.0506 47.0133 62.8172 47.0133C62.8172 47.0133 62.5839 47.0133 62.4672 47.0133C62.3506 47.0133 62.2339 47.0133 62.2339 46.7799C62.2339 45.9633 62.2339 45.2633 62.2339 44.4466" fill="#1D3D6D"/>
<path d="M50.1006 42.1167C50.4506 42.1167 50.6839 42.1167 50.9173 42.1167C51.0339 42.1167 51.0339 42.1167 51.1506 42.35C51.3839 42.7 51.5006 43.1667 51.7339 43.5167C51.7339 43.75 51.9673 43.9833 52.0839 44.1C52.4339 43.5167 52.6673 42.8167 53.0173 42.2333C53.0173 42 53.2506 42 53.3673 42C53.6006 42 53.7173 42 53.9506 42C53.9506 42.2333 53.7173 42.35 53.7173 42.5833C53.3673 43.2833 53.0173 43.9833 52.5506 44.5667C52.5506 44.6833 52.4339 44.9167 52.4339 45.0333C52.4339 45.6167 52.4339 46.0833 52.4339 46.6667C52.4339 46.7833 52.4339 46.9 52.2006 46.9C51.3839 46.9 51.6173 46.9 51.6173 46.3167C51.6173 45.85 51.6173 45.5 51.6173 45.0333C51.6173 44.8 51.6173 44.6833 51.5006 44.5667C51.0339 43.75 50.5673 42.9333 50.2173 42.1167C50.2173 42.1167 50.2173 42.1167 50.2173 42" fill="#1D3D6D"/>
<path d="M47.3004 45.0299C47.3004 44.4466 47.3004 43.7466 47.3004 43.1633C47.3004 42.9299 47.3004 42.9299 47.0671 42.9299C46.8338 42.9299 46.4838 42.9299 46.2504 42.9299C46.1338 42.9299 46.0171 42.9299 46.0171 42.6966C46.0171 42.1133 46.0171 42.1133 46.4838 42.1133H49.1671C49.4004 42.1133 49.4004 42.1133 49.4004 42.3466C49.4004 42.9299 49.4004 42.8133 48.9338 42.8133C48.7004 42.8133 48.4671 42.8133 48.3504 42.8133C48.2338 42.8133 48.1171 42.8133 48.1171 43.0466C48.1171 43.0466 48.1171 43.1633 48.1171 43.2799V46.6633C48.1171 46.6633 48.1171 46.78 48.1171 46.8966C48.1171 47.0133 48.1171 47.13 47.8838 47.13C47.7671 47.13 47.6504 47.13 47.4171 47.13C47.3004 47.13 47.1838 47.13 47.1838 46.8966C47.1838 46.8966 47.1838 46.7799 47.1838 46.6633V44.9133" fill="#1D3D6D"/>
<path d="M78.2173 44.6805C78.2173 43.9805 78.2173 43.1638 78.2173 42.4638C78.2173 42.2305 78.2173 42.2305 78.4506 42.2305C78.8395 42.2305 79.034 42.4249 79.034 42.8138V46.0805C79.034 46.0805 79.034 46.1971 79.034 46.3138C79.034 46.5471 79.034 46.5471 79.2673 46.5471C79.734 46.5471 80.3173 46.5471 80.784 46.5471C80.784 46.5471 80.9006 46.5471 81.0173 46.5471C81.134 46.5471 81.134 46.5471 81.134 46.7805C81.134 47.0916 80.9395 47.2471 80.5506 47.2471H78.4506C78.2173 47.2471 78.2173 47.2471 78.2173 47.0138C78.2173 46.3138 78.2173 45.4971 78.2173 44.7971" fill="#1D3D6D"/>
<path d="M82.0673 44.5661V42.3494C82.0673 42.1161 82.0673 41.9994 82.3007 42.1161C83.0007 42.1161 82.884 42.1161 82.884 42.6994C82.884 43.9827 82.884 45.3827 82.884 46.6661C82.884 47.9494 82.884 46.7828 82.884 46.8994C82.884 47.0161 82.884 47.0161 82.7673 47.0161C82.534 47.0161 82.4173 47.0161 82.184 47.0161C82.0673 47.0161 81.9507 47.0161 81.9507 46.7827C81.9507 46.5494 81.9507 46.3161 81.9507 46.0827V44.4494" fill="#1D3D6D"/>
<path d="M24.4341 44.6805C24.4341 43.9805 24.4341 43.1638 24.4341 42.4638C24.4341 42.2305 24.4341 42.2305 24.6674 42.2305C24.7841 42.2305 24.9007 42.2305 25.0174 42.2305C25.1341 42.2305 25.2507 42.2305 25.2507 42.4638V46.8971C25.2507 47.1305 25.2507 47.1305 25.0174 47.1305C24.9007 47.1305 24.7841 47.1305 24.6674 47.1305C24.5507 47.1305 24.4341 47.1305 24.4341 46.8971C24.4341 46.1971 24.4341 45.3805 24.4341 44.6805Z" fill="#1D3D6D"/>
<path d="M44.9671 44.6803C44.9671 45.3803 44.9671 46.197 44.9671 46.897C44.9671 47.1303 44.9671 47.1303 44.7337 47.1303C44.5004 47.1303 44.2671 47.1303 44.1504 47.1303C44.1504 47.0136 44.1504 46.7803 44.1504 46.547C44.1504 45.2636 44.1504 43.8636 44.1504 42.5803C44.1504 41.297 44.1504 42.4636 44.1504 42.347C44.1504 42.2303 44.1504 42.1136 44.3837 42.1136C45.2004 42.1136 44.9671 42.1136 44.9671 42.697C44.9671 43.2803 44.9671 43.9803 44.9671 44.5636" fill="#1D3D6D"/>
<path d="M102.484 44.6803C102.484 45.3803 102.484 46.197 102.484 46.897C102.484 47.1303 102.484 47.1303 102.25 47.1303C102.017 47.1303 101.784 47.1303 101.667 47.1303C101.667 47.0136 101.667 46.7803 101.667 46.547C101.667 45.2636 101.667 43.8636 101.667 42.5803C101.667 41.297 101.667 42.4636 101.667 42.347C101.667 42.2303 101.667 42.2303 101.784 42.2303C102.25 42.2303 102.484 42.4247 102.484 42.8136V44.6803Z" fill="#1D3D6D"/>
</svg>
