<svg width="108" height="56" viewBox="0 0 108 56" fill="none" xmlns="http://www.w3.org/2000/svg">
<path d="M76.3995 34.0508C75.9478 34.0508 75.6769 34.3217 75.4962 34.954C75.4962 35.225 75.4962 35.3153 75.4059 35.4959C75.4059 35.5863 75.2253 35.6766 75.0446 35.6766H74.9543C74.6833 35.6766 74.6833 35.5863 74.6833 35.4056C74.593 34.8637 74.4124 34.5024 74.1414 34.4121C73.8704 34.2314 73.5995 34.1411 73.2382 34.1411C72.8769 34.1411 72.8769 34.1411 72.6962 34.1411V34.5927C72.8769 34.5927 73.0575 34.5927 73.1478 34.5927C73.3285 34.5927 73.5995 34.5927 73.7801 34.7734C73.9607 34.8637 74.0511 35.1347 74.1414 35.4959C74.1414 35.5863 74.1414 35.6766 74.1414 35.7669H72.5156C72.1543 35.7669 71.9736 35.5863 71.9736 35.3153C71.9736 34.683 71.522 34.2314 70.9801 34.2314C70.4382 34.2314 70.2575 34.5024 70.0769 35.1347C70.0769 35.4056 70.0769 35.4959 69.9866 35.6766C69.9866 35.7669 69.8059 35.8572 69.6253 35.8572H69.264V35.4056C69.264 34.683 68.722 34.2314 67.9091 34.2314H67.6382V34.683H67.9091C68.5414 34.683 68.8124 34.8637 68.8124 35.4056V35.7669H67.4575V36.2185H69.7156C69.9866 36.2185 70.2575 36.1282 70.3478 35.9476C70.6188 36.1282 70.7995 36.2185 71.0704 36.2185C71.3414 36.2185 71.6124 36.1282 71.793 35.8572C71.8833 36.1282 72.1543 36.2185 72.5156 36.2185H74.9543C75.2253 36.2185 75.4059 36.1282 75.5866 35.9476C75.8575 36.1282 76.0382 36.2185 76.3091 36.2185C76.7607 36.2185 77.2124 35.8572 77.2124 35.225C77.2124 34.5927 76.8511 34.1411 76.3091 34.1411M71.0704 35.6766C70.8898 35.6766 70.7091 35.5863 70.5285 35.4056C70.5285 35.3153 70.5285 35.225 70.5285 35.0443C70.6188 34.683 70.7995 34.5927 70.9801 34.5927C71.1607 34.5927 71.4317 34.8637 71.4317 35.1347C71.4317 35.4959 71.2511 35.6766 70.9801 35.6766M76.3995 35.6766C76.2188 35.6766 76.0382 35.5863 75.8575 35.4056C75.8575 35.3153 75.8575 35.225 75.8575 35.0443C75.9478 34.683 76.1285 34.5927 76.3091 34.5927C76.4898 34.5927 76.7607 34.8637 76.7607 35.1347C76.7607 35.4959 76.5801 35.6766 76.3091 35.6766" fill="#003528"/>
<path d="M87.9609 34.0478V35.5833H87.5997C87.3287 35.5833 87.1481 35.4027 87.1481 35.0414V34.1382H86.6964V35.0414C86.6964 35.4027 86.6061 35.5833 86.3351 35.5833H85.9739V34.1382H85.5222V35.5833H84.619V34.0478H84.1674V35.5833H83.8061C83.5351 35.5833 83.3545 35.4027 83.3545 35.0414V34.1382H82.9029V35.0414C82.9029 35.4027 82.8126 35.5833 82.5416 35.5833H82.1803V34.1382H81.7287V35.5833H81.1868C80.8255 35.5833 80.6448 35.4027 80.6448 35.0414V33.8672H80.1932V34.0478C80.1029 34.0478 80.0126 34.0478 79.9222 34.0478C79.29 34.0478 78.748 34.4091 78.748 35.1317C78.748 35.8543 79.1093 36.0349 79.561 36.0349C80.0126 36.0349 80.1932 35.8543 80.2835 35.5833C80.3739 35.9446 80.7351 36.1253 81.1868 36.1253H82.5416C82.8126 36.1253 82.9932 36.0349 83.1739 35.764C83.2642 35.9446 83.5351 36.1253 83.8964 36.1253H86.3351C86.6061 36.1253 86.8771 36.0349 86.9674 35.764C87.0577 35.9446 87.3287 36.1253 87.69 36.1253H88.4126V34.1382H87.9609V34.0478ZM80.1932 34.8607C80.1932 35.222 80.0126 35.5833 79.6513 35.5833C79.29 35.5833 79.1997 35.3124 79.1997 35.1317C79.1997 34.7704 79.561 34.4994 79.9222 34.4994C80.2835 34.4994 80.1029 34.4994 80.1932 34.4994V34.8607Z" fill="#003528"/>
<path d="M89.8574 33.5073C89.767 33.5073 89.6767 33.5073 89.6767 33.3266C89.6767 33.146 89.767 33.146 89.8574 33.146C89.9477 33.146 89.9477 33.146 89.9477 33.146V32.875C89.9477 32.875 89.8574 32.875 89.767 32.875C89.4961 32.875 89.3154 32.9653 89.3154 33.2363C89.3154 33.5073 89.3154 33.4169 89.4058 33.5073H89.3154V33.7782H90.038V33.5073H89.767H89.8574Z" fill="#003528"/>
<path d="M92.567 34.0508C92.1154 34.0508 91.8444 34.3217 91.6638 34.954C91.6638 35.225 91.6638 35.3153 91.5735 35.4959C91.5735 35.5863 91.3928 35.6766 91.2122 35.6766H90.8509V34.1411H90.2186C89.3154 34.1411 88.9541 34.683 88.9541 35.1347C88.9541 35.5863 89.3154 36.1282 90.2186 36.1282H90.3993C90.3089 36.4895 90.038 36.5798 89.6767 36.5798C89.3154 36.5798 89.496 36.5798 89.3154 36.5798V37.0314C89.496 37.0314 89.5864 37.0314 89.767 37.0314C90.3993 37.0314 90.7606 36.6701 90.8509 36.1282H91.2122C91.4831 36.1282 91.6638 36.0379 91.8444 35.8572C92.1154 36.0379 92.296 36.1282 92.567 36.1282C93.0186 36.1282 93.4702 35.7669 93.4702 35.1347C93.4702 34.5927 93.1089 34.1411 92.567 34.1411M90.3993 35.6766H90.2186C89.5864 35.6766 89.4057 35.4056 89.4057 35.1347C89.4057 34.8637 89.5864 34.5927 90.2186 34.5927H90.3993V35.6766ZM92.567 35.6766C92.3864 35.6766 92.2057 35.5863 92.0251 35.4056C92.0251 35.3153 92.0251 35.225 92.0251 35.0443C92.1154 34.683 92.296 34.5927 92.4767 34.5927C92.6573 34.5927 92.9283 34.8637 92.9283 35.1347C92.9283 35.4959 92.7476 35.6766 92.4767 35.6766" fill="#003528"/>
<path d="M60.3219 34.0507V35.5862H59.9606C59.6896 35.5862 59.509 35.4055 59.509 35.0443V34.141H59.0574V35.0443C59.0574 35.4055 58.967 35.5862 58.6961 35.5862H58.3348V34.141H57.8832V35.5862H57.3412C56.9799 35.5862 56.7993 35.4055 56.7993 35.0443V33.3281H56.3477V35.0443C56.3477 35.4055 56.167 35.5862 55.8057 35.5862C55.4445 35.5862 55.2638 35.4959 55.2638 35.1346C55.2638 34.5023 54.9025 34.0507 54.2703 34.0507C53.638 34.0507 53.5477 34.3217 53.367 34.9539C53.367 35.2249 53.367 35.3152 53.2767 35.4959C53.2767 35.5862 53.0961 35.6765 52.9154 35.6765H52.3735V33.4184H51.9219V36.1281H52.9154C53.1864 36.1281 53.367 36.0378 53.5477 35.8572C53.8186 36.0378 53.9993 36.1281 54.2703 36.1281C54.5412 36.1281 54.8122 36.0378 54.9928 35.7668C55.0832 36.0378 55.3541 36.1281 55.7154 36.1281C56.0767 36.1281 56.3477 36.0378 56.5283 35.7668C56.6187 36.0378 56.8896 36.1281 57.2509 36.1281H58.6057C58.8767 36.1281 59.1477 36.0378 59.238 35.7668C59.3283 35.9475 59.5993 36.1281 59.9606 36.1281H60.6832V34.141H60.3219V34.0507ZM54.2703 35.6765C54.0896 35.6765 53.909 35.5862 53.7283 35.4055C53.7283 35.3152 53.7283 35.2249 53.7283 35.0443C53.8186 34.683 53.9993 34.5926 54.1799 34.5926C54.3606 34.5926 54.6316 34.8636 54.6316 35.1346C54.6316 35.4959 54.4509 35.6765 54.1799 35.6765" fill="#003528"/>
<path d="M51.3801 36.036C51.2898 36.4876 50.9285 36.9392 50.2059 36.9392C49.4833 36.9392 48.9414 36.4876 48.9414 35.5844V34.4102H49.393V35.5844C49.393 36.1263 49.5737 36.4876 50.2059 36.4876C50.8382 36.4876 51.0188 36.1263 51.0188 35.5844V34.4102H51.4704V35.494C51.4704 35.765 51.3801 35.9456 51.3801 35.9456" fill="#003528"/>
<path d="M66.0123 34.3213V36.0374H64.6575C64.5671 36.5793 64.2058 36.9406 63.4833 36.9406C62.7607 36.9406 62.2188 36.489 62.2188 35.5858V34.4116H62.6704V35.5858C62.6704 36.1277 62.851 36.489 63.4833 36.489C64.1155 36.489 64.2962 36.1277 64.2962 35.5858V34.4116H64.7478V35.4955H65.651V34.1406H66.0123V34.3213Z" fill="#003528"/>
<path d="M65.9218 36.6694C65.9218 36.85 65.8315 36.9404 65.6509 36.9404C65.4702 36.9404 65.3799 36.85 65.3799 36.6694C65.3799 36.4888 65.4702 36.3984 65.6509 36.3984C65.7412 36.3984 65.9218 36.4888 65.9218 36.6694Z" fill="#003528"/>
<path d="M79.7416 33.3257C79.7416 33.5063 79.6513 33.5966 79.4707 33.5966C79.29 33.5966 79.1997 33.5063 79.1997 33.3257C79.1997 33.145 79.29 33.0547 79.4707 33.0547C79.6513 33.0547 79.7416 33.145 79.7416 33.3257Z" fill="#003528"/>
<path d="M80.4638 33.3257C80.4638 33.5063 80.3735 33.5966 80.1928 33.5966C80.0122 33.5966 79.9219 33.5063 79.9219 33.3257C79.9219 33.145 80.0122 33.0547 80.1928 33.0547C80.3735 33.0547 80.4638 33.145 80.4638 33.3257Z" fill="#003528"/>
<path d="M63.7543 34.228C63.7543 34.4086 63.664 34.499 63.4834 34.499C63.3027 34.499 63.2124 34.4086 63.2124 34.228C63.2124 34.0474 63.3027 33.957 63.4834 33.957C63.664 33.957 63.7543 34.0474 63.7543 34.228Z" fill="#003528"/>
<path d="M50.477 34.228C50.477 34.4086 50.3867 34.499 50.206 34.499C50.0254 34.499 49.9351 34.4086 49.9351 34.228C49.9351 34.0474 50.0254 33.957 50.206 33.957C50.3867 33.957 50.477 34.0474 50.477 34.228Z" fill="#003528"/>
<path d="M48.9414 38.1172H49.3027L50.2059 39.3817L51.1091 38.1172H51.4704V40.7365H51.0188V38.9301L50.2962 40.014H50.1156L49.393 38.9301V40.7365H48.9414V38.1172Z" fill="#003528"/>
<path d="M52.5546 40.6429C52.374 40.5525 52.2837 40.3719 52.1933 40.2816C52.103 40.1009 52.103 39.9203 52.103 39.7396C52.103 39.559 52.103 39.3784 52.1933 39.1977C52.2837 39.0171 52.374 38.9267 52.5546 38.8364C52.7353 38.7461 52.9159 38.7461 53.0966 38.7461C53.2772 38.7461 53.4579 38.7461 53.6385 38.8364C53.8192 38.9267 53.9095 39.1074 53.9998 39.1977C54.0901 39.3784 54.0901 39.559 54.0901 39.7396C54.0901 39.9203 54.0901 40.1009 53.9998 40.2816C53.9095 40.4622 53.8192 40.5525 53.6385 40.6429C53.4579 40.7332 53.2772 40.7332 53.0966 40.7332C52.9159 40.7332 52.7353 40.7332 52.5546 40.6429ZM53.3675 40.2816C53.4579 40.2816 53.5482 40.1913 53.5482 40.0106C53.5482 39.9203 53.5482 39.83 53.5482 39.7396C53.5482 39.6493 53.5482 39.4687 53.5482 39.4687C53.5482 39.3784 53.4579 39.288 53.3675 39.1977C53.3675 39.1977 53.1869 39.1977 53.0966 39.1977C53.0063 39.1977 52.9159 39.1977 52.8256 39.1977C52.7353 39.1977 52.645 39.288 52.645 39.4687C52.645 39.559 52.645 39.6493 52.645 39.7396C52.645 39.83 52.645 40.0106 52.645 40.0106C52.645 40.1009 52.7353 40.1913 52.8256 40.2816C52.9159 40.2816 53.0063 40.2816 53.0966 40.2816C53.1869 40.2816 53.2772 40.2816 53.3675 40.2816Z" fill="#003528"/>
<path d="M54.9931 38.0234V39.017C54.9931 38.9267 55.1738 38.8363 55.2641 38.746C55.3544 38.746 55.5351 38.6557 55.6254 38.6557C55.8964 38.6557 56.077 38.6557 56.2576 38.9267C56.348 39.1073 56.4383 39.288 56.4383 39.6492V40.7331H55.9867V39.6492C55.9867 39.4686 55.9867 39.288 55.8964 39.288C55.8964 39.1976 55.7157 39.1976 55.5351 39.1976C55.3544 39.1976 55.3544 39.1976 55.2641 39.1976C55.2641 39.1976 55.1738 39.288 55.0834 39.3783C55.0834 39.4686 55.0834 39.5589 55.0834 39.6492V40.6428H54.6318V38.0234H55.0834H54.9931Z" fill="#003528"/>
<path d="M57.3417 40.6429C57.2514 40.5525 57.0708 40.3719 56.9805 40.2816C56.9805 40.1009 56.8901 39.9203 56.8901 39.7396C56.8901 39.559 56.8901 39.3784 56.9805 39.1977C56.9805 39.0171 57.1611 38.9267 57.3417 38.8364C57.4321 38.7461 57.6127 38.7461 57.7934 38.7461C57.974 38.7461 58.0643 38.7461 58.245 38.8364C58.3353 38.8364 58.5159 39.0171 58.5159 39.1074V38.7461H58.9676V40.7332H58.5159V40.3719C58.5159 40.4622 58.3353 40.6429 58.245 40.6429C58.1547 40.6429 57.974 40.7332 57.7934 40.7332C57.6127 40.7332 57.4321 40.6429 57.3417 40.5525M58.1547 40.2816C58.245 40.2816 58.3353 40.1913 58.3353 40.0106C58.3353 39.9203 58.3353 39.83 58.3353 39.7396C58.3353 39.6493 58.3353 39.559 58.3353 39.4687C58.3353 39.3784 58.245 39.288 58.1547 39.1977C58.0643 39.1977 57.974 39.1977 57.8837 39.1977C57.7934 39.1977 57.703 39.1977 57.6127 39.1977C57.5224 39.1977 57.4321 39.288 57.4321 39.4687C57.4321 39.559 57.4321 39.6493 57.4321 39.83C57.4321 40.0106 57.4321 40.1009 57.4321 40.1913C57.4321 40.2816 57.5224 40.3719 57.6127 40.3719C57.703 40.3719 57.7934 40.3719 57.8837 40.3719C57.974 40.3719 58.0643 40.3719 58.1547 40.2816Z" fill="#003528"/>
<path d="M62.3996 39.018C62.4899 39.1987 62.5803 39.3793 62.5803 39.7406V40.8245H62.1286V39.7406C62.1286 39.56 62.1286 39.3793 62.0383 39.3793C62.0383 39.289 61.8577 39.289 61.7673 39.289C61.677 39.289 61.5867 39.289 61.4964 39.289C61.4964 39.289 61.4061 39.3793 61.3157 39.4696C61.3157 39.4696 61.3157 39.6503 61.3157 39.7406V40.7341H60.8641V39.6503C60.8641 39.4696 60.8641 39.289 60.7738 39.289C60.7738 39.1987 60.5932 39.1987 60.5028 39.1987C60.4125 39.1987 60.3222 39.1987 60.2319 39.1987C60.2319 39.1987 60.1415 39.289 60.0512 39.3793C60.0512 39.3793 60.0512 39.56 60.0512 39.6503V40.6438H59.5996V38.6567H60.0512V38.9277C60.0512 38.8374 60.1415 38.7471 60.3222 38.6567C60.4125 38.6567 60.5932 38.5664 60.6835 38.5664C60.7738 38.5664 60.9544 38.5664 61.0448 38.6567C61.1351 38.6567 61.2254 38.8374 61.3157 39.018C61.3157 38.9277 61.4964 38.7471 61.5867 38.6567C61.677 38.6567 61.8577 38.5664 61.948 38.5664C62.219 38.5664 62.3996 38.6567 62.4899 38.8374" fill="#003528"/>
<path d="M66.1032 39.018C66.1935 39.1987 66.2839 39.3793 66.2839 39.7406V40.8245H65.8323V39.7406C65.8323 39.56 65.8323 39.3793 65.7419 39.3793C65.7419 39.289 65.5613 39.289 65.471 39.289C65.3806 39.289 65.2903 39.289 65.2 39.289C65.2 39.289 65.1097 39.3793 65.0194 39.4696C65.0194 39.56 65.0194 39.6503 65.0194 39.7406V40.7341H64.5677V39.6503C64.5677 39.4696 64.5677 39.289 64.4774 39.289C64.4774 39.1987 64.2968 39.1987 64.2064 39.1987C64.1161 39.1987 64.0258 39.1987 63.9355 39.1987C63.9355 39.1987 63.8452 39.289 63.7548 39.3793C63.7548 39.4696 63.7548 39.56 63.7548 39.6503V40.6438H63.3032V38.6567H63.7548V38.9277C63.7548 38.8374 63.8452 38.7471 64.0258 38.6567C64.1161 38.6567 64.2968 38.5664 64.3871 38.5664C64.4774 38.5664 64.6581 38.5664 64.7484 38.6567C64.8387 38.6567 64.929 38.8374 65.0194 39.018C65.0194 38.9277 65.2 38.7471 65.2903 38.6567C65.3806 38.6567 65.5613 38.5664 65.6516 38.5664C65.9226 38.5664 66.1032 38.6567 66.1935 38.8374" fill="#003528"/>
<path d="M68.7224 39.8295H67.187C67.187 39.9198 67.187 40.0101 67.2773 40.1005C67.2773 40.1005 67.3676 40.1908 67.4579 40.2811C67.4579 40.2811 67.6386 40.2811 67.7289 40.2811C67.8192 40.2811 67.9095 40.2811 67.9999 40.2811C67.9999 40.2811 68.0902 40.1908 68.1805 40.1005H68.6321C68.6321 40.1908 68.5418 40.3714 68.4515 40.4617C68.3611 40.5521 68.2708 40.6424 68.0902 40.7327C67.9999 40.7327 67.8192 40.823 67.6386 40.823C67.4579 40.823 67.2773 40.823 67.0966 40.7327C66.916 40.6424 66.8257 40.4617 66.7353 40.3714C66.645 40.1908 66.645 40.0101 66.645 39.8295C66.645 39.6488 66.645 39.4682 66.7353 39.2876C66.8257 39.1069 66.916 39.0166 67.0966 38.9263C67.2773 38.8359 67.4579 38.8359 67.6386 38.8359C67.8192 38.8359 67.9999 38.8359 68.0902 38.9263C68.2708 39.0166 68.3611 39.1069 68.4515 39.2876C68.5418 39.4682 68.5418 39.6488 68.5418 39.8295C68.5418 39.8295 68.5418 39.9198 68.5418 40.0101M68.2708 39.4682C68.2708 39.4682 68.2708 39.3779 68.2708 39.2876C68.2708 39.2876 68.1805 39.1972 68.0902 39.1972C67.9999 39.1972 67.9095 39.1972 67.8192 39.1972C67.7289 39.1972 67.5482 39.1972 67.4579 39.2876C67.3676 39.2876 67.2773 39.4682 67.2773 39.5585H68.2708V39.4682Z" fill="#003528"/>
<path d="M69.4448 40.6433C69.3545 40.5529 69.1738 40.3723 69.0835 40.282C69.0835 40.1013 68.9932 39.9207 68.9932 39.74C68.9932 39.5594 68.9932 39.3788 69.0835 39.1981C69.0835 39.0175 69.2641 38.9271 69.4448 38.8368C69.5351 38.7465 69.7158 38.7465 69.9867 38.7465C70.2577 38.7465 70.1674 38.7465 70.2577 38.7465C70.348 38.7465 70.4383 38.7465 70.5287 38.8368C70.5287 38.8368 70.619 38.9271 70.7093 39.0175V37.9336H71.1609V40.6433H70.7093V40.282C70.7093 40.3723 70.5287 40.4626 70.4383 40.5529C70.348 40.5529 70.1674 40.6433 70.077 40.6433C69.8061 40.6433 69.6254 40.6433 69.5351 40.5529M70.348 40.282C70.4383 40.282 70.5287 40.1917 70.5287 40.011C70.5287 39.9207 70.5287 39.8304 70.5287 39.74C70.5287 39.6497 70.5287 39.4691 70.5287 39.4691C70.5287 39.4691 70.4383 39.2884 70.348 39.1981C70.2577 39.1981 70.1674 39.1981 70.077 39.1981C69.9867 39.1981 69.8964 39.1981 69.8061 39.1981C69.7157 39.1981 69.6254 39.2884 69.6254 39.4691C69.6254 39.5594 69.6254 39.6497 69.6254 39.74C69.6254 39.8304 69.6254 40.011 69.6254 40.011C69.6254 40.1013 69.7157 40.1917 69.8061 40.282C69.8964 40.282 69.9867 40.282 70.077 40.282C70.1674 40.282 70.2577 40.282 70.348 40.282Z" fill="#003528"/>
<path d="M73.6903 38.1133C73.871 38.1133 73.9613 38.1133 74.0516 38.2036C74.1419 38.2036 74.2323 38.2939 74.3226 38.4746C74.3226 38.5649 74.4129 38.7455 74.4129 38.8359C74.4129 38.9262 74.4129 38.9262 74.4129 39.1068C74.4129 39.1068 74.4129 39.1972 74.3226 39.2875C74.3226 39.2875 74.2323 39.3778 74.1419 39.3778C74.2323 39.3778 74.3226 39.3778 74.4129 39.4681C74.5032 39.5584 74.5032 39.5584 74.5935 39.7391C74.5935 39.8294 74.5935 39.9197 74.5935 40.0101C74.5935 40.1907 74.5935 40.281 74.5032 40.3713C74.5032 40.4617 74.3226 40.552 74.2323 40.6423C74.1419 40.6423 73.9613 40.7326 73.871 40.7326H72.6064V38.1133H73.7806H73.6903ZM73.7806 39.1972C73.7806 39.1972 73.871 39.1972 73.871 39.1068C73.871 39.1068 73.871 39.0165 73.871 38.9262C73.871 38.8359 73.871 38.8359 73.871 38.7455C73.871 38.7455 73.871 38.6552 73.7806 38.6552C73.7806 38.6552 73.6903 38.6552 73.6 38.6552H72.9677V39.2875H73.6C73.6 39.2875 73.6903 39.2875 73.7806 39.2875M73.871 40.281C73.871 40.281 73.9613 40.281 73.9613 40.1907C73.9613 40.1907 73.9613 40.1004 73.9613 40.0101C73.9613 39.9197 73.9613 39.9197 73.9613 39.8294C73.9613 39.8294 73.9613 39.7391 73.871 39.7391C73.7806 39.7391 73.7806 39.7391 73.6903 39.7391H72.9677V40.4617H73.6903C73.7806 40.4617 73.871 40.4617 73.9613 40.4617" fill="#003528"/>
<path d="M75.4965 38.7461H75.0449V40.7332H75.4965V38.7461Z" fill="#003528"/>
<path d="M76.4902 38.7466V39.0175C76.4902 38.9272 76.5805 38.8369 76.7612 38.7466C76.8515 38.7466 77.0321 38.6562 77.1225 38.6562C77.3934 38.6562 77.5741 38.6562 77.7547 38.9272C77.845 39.1079 77.9354 39.2885 77.9354 39.6498V40.7337H77.4837V39.6498C77.4837 39.4692 77.4837 39.2885 77.3934 39.2885C77.3934 39.1982 77.2128 39.1982 77.0321 39.1982C76.8515 39.1982 76.8515 39.1982 76.7612 39.1982C76.7612 39.1982 76.6708 39.2885 76.5805 39.3788C76.5805 39.4692 76.5805 39.5595 76.5805 39.7401V40.7337H76.1289V38.7466H76.5805H76.4902Z" fill="#003528"/>
<path d="M79.7417 40.6453C79.561 40.6453 79.4707 40.4646 79.3804 40.3743C79.3804 40.284 79.29 40.1033 79.29 40.013H79.7417C79.7417 40.013 79.7417 40.1936 79.7417 40.284C79.7417 40.284 79.832 40.3743 79.9223 40.4646C80.0126 40.4646 80.1029 40.4646 80.1933 40.4646C80.5546 40.4646 80.7352 40.3743 80.7352 40.1033C80.7352 39.8324 80.7352 40.013 80.7352 39.9227C80.7352 39.9227 80.6449 39.8324 80.5546 39.8324C80.4642 39.8324 80.3739 39.8324 80.1933 39.742C80.0126 39.742 79.832 39.6517 79.7417 39.6517C79.6513 39.6517 79.4707 39.5614 79.3804 39.3807C79.29 39.2904 79.29 39.1098 79.29 39.0195C79.29 38.9291 79.29 38.7485 79.3804 38.6582C79.3804 38.5678 79.561 38.4775 79.7417 38.3872C79.832 38.3872 80.1029 38.2969 80.2836 38.2969C80.4642 38.2969 80.6449 38.2969 80.8255 38.3872C80.9158 38.3872 81.0965 38.5678 81.1868 38.6582C81.1868 38.7485 81.2771 38.9291 81.2771 39.0195H80.8255C80.8255 38.9291 80.8255 38.8388 80.7352 38.7485C80.6449 38.7485 80.5546 38.6582 80.3739 38.6582C80.1933 38.6582 80.1029 38.6582 80.0126 38.7485C80.0126 38.7485 79.9223 38.8388 79.9223 39.0195C79.9223 39.2001 79.9223 39.1098 79.9223 39.2001C79.9223 39.2001 80.0126 39.2904 80.1029 39.2904C80.1933 39.2904 80.3739 39.2904 80.4642 39.3807C80.7352 39.3807 81.0062 39.4711 81.0965 39.6517C81.2771 39.742 81.3675 39.9227 81.3675 40.1936C81.3675 40.4646 81.3675 40.4646 81.2771 40.6453C81.1868 40.7356 81.0965 40.8259 80.9158 40.9162C80.7352 40.9162 80.5546 41.0066 80.3739 41.0066C80.1933 41.0066 79.9223 41.0066 79.7417 40.9162" fill="#003528"/>
<path d="M82.0903 40.6468C82 40.5565 81.8193 40.3758 81.729 40.2855C81.729 40.1048 81.6387 39.9242 81.6387 39.7435C81.6387 39.5629 81.6387 39.3823 81.729 39.2016C81.729 39.021 81.9096 38.9306 82.0903 38.8403C82.1806 38.75 82.3613 38.75 82.5419 38.75C82.7225 38.75 82.8129 38.75 82.9935 38.8403C83.0838 38.8403 83.2645 39.021 83.2645 39.1113V38.75H83.7161V40.7371H83.2645V40.3758C83.2645 40.4661 83.0838 40.6468 82.9935 40.6468C82.9032 40.6468 82.7225 40.7371 82.5419 40.7371C82.3613 40.7371 82.1806 40.6468 82.0903 40.5565M82.9935 40.2855C83.0838 40.2855 83.1742 40.1952 83.1742 40.0145C83.1742 39.9242 83.1742 39.8339 83.1742 39.7435C83.1742 39.6532 83.1742 39.5629 83.1742 39.4726C83.1742 39.3823 83.0838 39.2919 82.9935 39.2016C82.9935 39.2016 82.8129 39.2016 82.7225 39.2016C82.6322 39.2016 82.5419 39.2016 82.4516 39.2016C82.3613 39.2016 82.2709 39.2919 82.2709 39.4726C82.2709 39.5629 82.2709 39.6532 82.2709 39.8339C82.2709 40.0145 82.2709 40.1048 82.2709 40.1952C82.2709 40.2855 82.3613 40.3758 82.4516 40.3758C82.5419 40.3758 82.6322 40.3758 82.7225 40.3758C82.8129 40.3758 82.9032 40.3758 82.9935 40.2855Z" fill="#003528"/>
<path d="M84.7094 38.0234H84.2578V40.7331H84.7094V38.0234Z" fill="#003528"/>
<path d="M88.2321 39.018C88.3225 39.1987 88.4128 39.3793 88.4128 39.7406V40.8245H87.9612V39.7406C87.9612 39.56 87.9612 39.3793 87.8708 39.3793C87.8708 39.289 87.6902 39.289 87.5999 39.289C87.5095 39.289 87.4192 39.289 87.3289 39.289C87.3289 39.289 87.2386 39.3793 87.1483 39.4696C87.1483 39.56 87.1483 39.6503 87.1483 39.7406V40.7341H86.6966V39.6503C86.6966 39.4696 86.6966 39.289 86.6063 39.289C86.6063 39.1987 86.4257 39.1987 86.3354 39.1987C86.245 39.1987 86.1547 39.1987 86.0644 39.1987C86.0644 39.1987 85.9741 39.289 85.8837 39.3793C85.8837 39.4696 85.8837 39.56 85.8837 39.6503V40.6438H85.4321V38.6567H85.8837V38.9277C85.8837 38.8374 85.9741 38.7471 86.1547 38.6567C86.245 38.6567 86.4257 38.5664 86.516 38.5664C86.6063 38.5664 86.787 38.5664 86.8773 38.6567C86.9676 38.6567 87.0579 38.8374 87.1483 39.018C87.1483 38.9277 87.3289 38.7471 87.4192 38.6567C87.5095 38.6567 87.6902 38.5664 87.7805 38.5664C88.0515 38.5664 88.2321 38.6567 88.3224 38.8374" fill="#003528"/>
<path d="M89.3159 40.6429C89.2255 40.5525 89.0449 40.3719 88.9546 40.2816C88.9546 40.1009 88.8643 39.9203 88.8643 39.7396C88.8643 39.559 88.8643 39.3784 88.9546 39.1977C88.9546 39.0171 89.1352 38.9267 89.3159 38.8364C89.4062 38.7461 89.5868 38.7461 89.7675 38.7461C89.9481 38.7461 90.0385 38.7461 90.2191 38.8364C90.3094 38.8364 90.4901 39.0171 90.4901 39.1074V38.7461H90.9417V40.7332H90.4901V40.3719C90.4901 40.4622 90.3094 40.6429 90.2191 40.6429C90.1288 40.6429 89.9481 40.7332 89.7675 40.7332C89.5868 40.7332 89.4062 40.6429 89.3159 40.5525M90.2191 40.2816C90.3094 40.2816 90.3997 40.1913 90.3997 40.0106C90.3997 39.9203 90.3997 39.83 90.3997 39.7396C90.3997 39.6493 90.3997 39.559 90.3997 39.4687C90.3997 39.3784 90.3094 39.288 90.2191 39.1977C90.2191 39.1977 90.0385 39.1977 89.9481 39.1977C89.8578 39.1977 89.7675 39.1977 89.6772 39.1977C89.5868 39.1977 89.4965 39.288 89.4965 39.4687C89.4965 39.559 89.4965 39.6493 89.4965 39.83C89.4965 40.0106 89.4965 40.1009 89.4965 40.1913C89.4965 40.2816 89.5868 40.3719 89.6772 40.3719C89.7675 40.3719 89.8578 40.3719 89.9481 40.3719C90.0385 40.3719 90.1288 40.3719 90.2191 40.2816Z" fill="#003528"/>
<path d="M91.9355 38.7466V39.0175C91.9355 38.9272 92.0258 38.8369 92.2065 38.7466C92.2968 38.7466 92.4775 38.6562 92.5678 38.6562C92.8387 38.6562 93.0194 38.6562 93.2 38.9272C93.2904 39.1079 93.3807 39.2885 93.3807 39.6498V40.7337H92.9291V39.6498C92.9291 39.4692 92.9291 39.2885 92.8387 39.2885C92.8387 39.1982 92.6581 39.1982 92.4774 39.1982C92.2968 39.1982 92.2968 39.1982 92.2065 39.1982C92.2065 39.1982 92.1162 39.2885 92.0258 39.3788C92.0258 39.4692 92.0258 39.5595 92.0258 39.7401V40.7337H91.5742V38.7466H92.0258H91.9355Z" fill="#003528"/>
<path d="M48.9414 42.0898V44.7092H49.393V43.7157H50.4769V43.3544H49.393V42.6318H50.6575V42.1802H48.9414V42.0898Z" fill="#003528"/>
<path d="M51.29 44.5296C51.1093 44.4393 51.019 44.2586 50.9287 44.1683C50.8384 43.9877 50.8384 43.807 50.8384 43.6264C50.8384 43.4457 50.8384 43.2651 50.9287 43.0844C51.019 42.9038 51.1093 42.8135 51.29 42.7231C51.4706 42.6328 51.6513 42.6328 51.8319 42.6328C52.0126 42.6328 52.1932 42.6328 52.3739 42.7231C52.5545 42.8135 52.6448 42.9941 52.7352 43.0844C52.8255 43.2651 52.8255 43.4457 52.8255 43.6264C52.8255 43.807 52.8255 43.9877 52.7352 44.1683C52.6448 44.3489 52.5545 44.4393 52.3739 44.5296C52.1932 44.6199 52.0126 44.6199 51.8319 44.6199C51.6513 44.6199 51.4706 44.6199 51.29 44.5296ZM52.1029 44.1683C52.1932 44.1683 52.2835 44.078 52.2835 43.8973C52.2835 43.807 52.2835 43.7167 52.2835 43.6264C52.2835 43.536 52.2835 43.3554 52.2835 43.3554C52.2835 43.2651 52.1932 43.1747 52.1029 43.0844C52.1029 43.0844 51.9223 43.0844 51.8319 43.0844C51.7416 43.0844 51.6513 43.0844 51.561 43.0844C51.4706 43.0844 51.3803 43.1747 51.3803 43.3554C51.3803 43.4457 51.3803 43.536 51.3803 43.6264C51.3803 43.7167 51.3803 43.8973 51.3803 43.8973C51.3803 43.9876 51.4706 44.078 51.561 44.1683C51.6513 44.1683 51.7416 44.1683 51.8319 44.1683C51.9223 44.1683 52.1029 44.1683 52.1029 44.1683Z" fill="#003528"/>
<path d="M53.7285 44.6199C53.6381 44.6199 53.4575 44.4393 53.3672 44.2586C53.3672 44.1683 53.2769 43.8973 53.2769 43.7167V42.6328H53.7285V43.6264C53.7285 43.807 53.7285 43.9877 53.8188 43.9877C53.8188 44.078 53.9994 44.078 54.1801 44.078C54.3607 44.078 54.4511 44.078 54.5414 43.9877C54.5414 43.8973 54.6317 43.7167 54.6317 43.6264V42.6328H55.0833V43.7167C55.0833 43.9877 55.0833 44.078 54.993 44.2586C54.993 44.3489 54.8123 44.5296 54.6317 44.6199C54.5414 44.6199 54.3607 44.7102 54.1801 44.7102C53.9994 44.7102 53.8188 44.7102 53.7285 44.6199Z" fill="#003528"/>
<path d="M56.0771 42.7231V42.9941C56.0771 42.9038 56.1674 42.8135 56.3481 42.7231C56.4384 42.7231 56.619 42.6328 56.7094 42.6328C56.9803 42.6328 57.161 42.6328 57.3416 42.9038C57.4319 43.0844 57.5223 43.2651 57.5223 43.6264V44.7102H57.0707V43.6264C57.0707 43.4457 57.0707 43.2651 56.9803 43.2651C56.9803 43.1747 56.7997 43.1747 56.619 43.1747C56.4384 43.1747 56.4384 43.1747 56.3481 43.1747C56.3481 43.1747 56.2578 43.2651 56.1674 43.3554C56.1674 43.4457 56.1674 43.536 56.1674 43.7167V44.7102H55.7158V42.7231H56.1674H56.0771Z" fill="#003528"/>
<path d="M58.4252 44.6194C58.3349 44.529 58.1543 44.3484 58.064 44.2581C58.064 44.0774 57.9736 43.8968 57.9736 43.7161C57.9736 43.5355 57.9736 43.3548 58.064 43.1742C58.064 42.9935 58.2446 42.9032 58.4252 42.8129C58.5156 42.7226 58.6962 42.7226 58.9672 42.7226C59.2381 42.7226 59.1478 42.7226 59.2382 42.7226C59.3285 42.7226 59.4188 42.7226 59.5091 42.8129C59.5091 42.8129 59.5994 42.9032 59.6898 42.9935V42H60.1414V44.7097H59.6898V44.3484C59.6898 44.4387 59.5091 44.529 59.4188 44.6194C59.3285 44.6194 59.1478 44.7097 59.0575 44.7097C58.7865 44.7097 58.6059 44.6194 58.5156 44.529M59.3285 44.1677C59.4188 44.1677 59.5091 44.0774 59.5091 43.8968C59.5091 43.8065 59.5091 43.7161 59.5091 43.6258C59.5091 43.5355 59.5091 43.3548 59.5091 43.3548C59.5091 43.2645 59.4188 43.1742 59.3285 43.0839C59.2381 43.0839 59.1478 43.0839 59.0575 43.0839C58.9672 43.0839 58.8769 43.0839 58.7865 43.0839C58.6962 43.0839 58.6059 43.1742 58.6059 43.3548C58.6059 43.4452 58.6059 43.5355 58.6059 43.6258C58.6059 43.7161 58.6059 43.8968 58.6059 43.8968C58.6059 43.9871 58.6962 44.0774 58.7865 44.1677C58.8769 44.1677 58.9672 44.1677 59.0575 44.1677C59.1478 44.1677 59.2381 44.1677 59.3285 44.1677Z" fill="#003528"/>
<path d="M60.9545 44.5296C60.8642 44.4393 60.6836 44.2586 60.5933 44.1683C60.5933 43.9877 60.5029 43.807 60.5029 43.6264C60.5029 43.4457 60.5029 43.2651 60.5933 43.0844C60.5933 42.9038 60.7739 42.8135 60.9545 42.7231C61.0449 42.6328 61.2255 42.6328 61.4062 42.6328C61.5868 42.6328 61.6771 42.6328 61.8578 42.7231C61.9481 42.7231 62.1287 42.9038 62.1287 42.9941V42.6328H62.5803V44.6199H62.1287V44.2586C62.1287 44.3489 61.9481 44.5296 61.8578 44.5296C61.7674 44.5296 61.5868 44.6199 61.4062 44.6199C61.2255 44.6199 61.0449 44.6199 60.9545 44.4393M61.7674 44.1683C61.8578 44.1683 61.9481 44.078 61.9481 43.8973C61.9481 43.807 61.9481 43.7167 61.9481 43.6264C61.9481 43.536 61.9481 43.4457 61.9481 43.3554C61.9481 43.2651 61.8578 43.1747 61.7674 43.0844C61.6771 43.0844 61.5868 43.0844 61.4965 43.0844C61.4062 43.0844 61.3158 43.0844 61.2255 43.0844C61.1352 43.0844 61.0449 43.1747 61.0449 43.3554C61.0449 43.4457 61.0449 43.536 61.0449 43.7167C61.0449 43.8973 61.0449 43.9876 61.0449 44.078C61.0449 44.1683 61.1352 44.2586 61.2255 44.2586C61.3158 44.2586 61.4062 44.2586 61.4965 44.2586C61.5868 44.2586 61.7674 44.2586 61.7674 44.1683Z" fill="#003528"/>
<path d="M63.4833 44.5281C63.393 44.4378 63.3027 44.2571 63.3027 43.8958V43.0829H62.9414V42.7216H63.3027V42.1797H63.7543V42.7216H64.3866V43.0829H63.7543V43.8958C63.7543 44.1668 63.8446 44.2571 64.0253 44.2571H64.2962V44.6184H63.935C63.7543 44.6184 63.5737 44.6184 63.4833 44.5281Z" fill="#003528"/>
<path d="M65.1997 42.7227H64.748V44.7098H65.1997V42.7227Z" fill="#003528"/>
<path d="M66.103 44.5257C65.9223 44.4354 65.832 44.2547 65.7417 44.1644C65.6514 43.9837 65.6514 43.8031 65.6514 43.6225C65.6514 43.4418 65.6514 43.2612 65.7417 43.0805C65.832 42.8999 65.9223 42.8096 66.103 42.7192C66.2836 42.6289 66.4643 42.6289 66.6449 42.6289C66.8256 42.6289 67.0062 42.6289 67.1868 42.7192C67.3675 42.8096 67.4578 42.9902 67.5481 43.0805C67.6385 43.2612 67.6385 43.4418 67.6385 43.6225C67.6385 43.8031 67.6385 43.9837 67.5481 44.1644C67.4578 44.345 67.3675 44.4354 67.1868 44.5257C67.0062 44.616 66.8256 44.616 66.6449 44.616C66.4643 44.616 66.2836 44.616 66.103 44.5257ZM66.9159 44.1644C67.0062 44.1644 67.0965 44.0741 67.0965 43.8934C67.0965 43.8031 67.0965 43.7128 67.0965 43.6225C67.0965 43.5321 67.0965 43.3515 67.0965 43.3515C67.0965 43.2612 67.0062 43.1708 66.9159 43.0805C66.8256 43.0805 66.7352 43.0805 66.6449 43.0805C66.5546 43.0805 66.4643 43.0805 66.374 43.0805C66.2836 43.0805 66.1933 43.1708 66.1933 43.3515C66.1933 43.4418 66.1933 43.5321 66.1933 43.6225C66.1933 43.7128 66.1933 43.8934 66.1933 43.8934C66.1933 43.9837 66.2836 44.0741 66.374 44.1644C66.4643 44.1644 66.5546 44.1644 66.6449 44.1644C66.7352 44.1644 66.9159 44.1644 66.9159 44.1644Z" fill="#003528"/>
<path d="M68.5415 42.7192V42.9902C68.5415 42.8999 68.6318 42.8096 68.8124 42.7192C68.9028 42.7192 69.0834 42.6289 69.1737 42.6289C69.4447 42.6289 69.6253 42.6289 69.806 42.8999C69.8963 43.0805 69.9866 43.2612 69.9866 43.6225V44.7063H69.535V43.6225C69.535 43.4418 69.535 43.2612 69.4447 43.2612C69.4447 43.1708 69.264 43.1708 69.0834 43.1708C68.9028 43.1708 68.9028 43.1708 68.8124 43.1708C68.8124 43.1708 68.7221 43.2612 68.6318 43.3515C68.6318 43.4418 68.6318 43.5321 68.6318 43.7128V44.7063H68.1802V42.7192H68.6318H68.5415Z" fill="#003528"/>
<path d="M75.4965 38.2046C75.4965 38.3852 75.4062 38.4755 75.2256 38.4755C75.0449 38.4755 74.9546 38.3852 74.9546 38.2046C74.9546 38.0239 75.0449 37.9336 75.2256 37.9336C75.4062 37.9336 75.4965 38.0239 75.4965 38.2046Z" fill="#003528"/>
<path d="M65.1996 42.1772C65.1996 42.3579 65.1093 42.4482 64.9287 42.4482C64.748 42.4482 64.6577 42.3579 64.6577 42.1772C64.6577 41.9966 64.748 41.9062 64.9287 41.9062C65.1093 41.9062 65.1996 41.9966 65.1996 42.1772Z" fill="#003528"/>
<path d="M48.9414 25.3789H50.0253L52.1027 28.1789L54.0898 25.3789H55.264V31.6112H53.9995V27.4563L52.2833 29.8047H51.9221L50.2059 27.4563V31.6112H48.9414V25.3789Z" fill="#003528"/>
<path d="M57.974 26.9141H56.7095V31.6108H57.974V26.9141Z" fill="#003528"/>
<path d="M61.0447 31.7016C59.6899 31.7016 58.9673 30.8887 58.9673 30.0758H60.1415C60.1415 30.7081 60.7737 30.7081 61.0447 30.7081C61.3157 30.7081 61.7673 30.7081 61.7673 30.2565C61.7673 29.8049 61.4963 29.8049 60.8641 29.7145C60.5028 29.7145 59.1479 29.5339 59.1479 28.2694C59.1479 27.0049 59.7802 26.8242 60.9544 26.8242C62.1286 26.8242 62.8512 27.3662 62.8512 28.3597H61.5866C61.5866 28.1791 61.4963 27.8178 60.8641 27.8178C60.2318 27.8178 60.2318 28.1791 60.2318 28.2694C60.2318 28.5403 60.4124 28.6307 60.5931 28.6307C60.6834 28.6307 60.8641 28.6307 61.3157 28.721C62.1286 28.8113 62.9415 29.0823 62.9415 30.1662C62.9415 31.25 62.0383 31.792 60.9544 31.792" fill="#003528"/>
<path d="M68.6319 31.6112H67.1867L66.1028 29.6241L65.3802 30.6176V31.6112H64.1157V25.3789H65.3802V28.7208L66.9157 26.9144H68.2706L66.9157 28.6305L68.6319 31.6112Z" fill="#003528"/>
<path d="M57.3417 24.9297C57.703 24.9297 58.0643 25.2007 58.0643 25.6523C58.0643 26.1039 57.7933 26.3748 57.3417 26.3748C56.8901 26.3748 56.6191 26.1039 56.6191 25.6523C56.6191 25.2007 56.8901 24.9297 57.3417 24.9297Z" fill="#003528"/>
<path d="M75.677 28.1809H73.3286V27.4583H73.5996C73.4189 27.2777 73.3286 27.097 73.3286 26.8261C73.3286 26.1035 73.9609 25.7422 74.5931 25.7422C75.2254 25.7422 75.1351 25.7422 75.406 25.9228L75.0447 26.5551C74.8641 26.5551 74.7738 26.4648 74.5931 26.4648C74.3222 26.4648 74.0512 26.5551 74.0512 26.9164C74.0512 27.2777 74.3222 27.4583 74.6835 27.4583H75.5867V28.1809H75.677Z" fill="#003528"/>
<path d="M91.3934 27.0042C90.3998 27.0042 89.4966 27.6365 89.2256 28.9913C89.045 29.8946 88.9546 30.3462 88.4127 30.3462H88.0514C87.4192 30.3462 87.1482 29.9849 87.1482 29.2623V27.0042H85.8837V29.3526C85.8837 30.3462 85.3417 30.3462 85.1611 30.3462H84.3482V27.2752H83.0837V30.3462H81.6385V27.2752H80.374V30.3462H79.6514C79.1998 30.3462 78.8385 30.2558 78.6579 30.0752C78.4772 29.8946 78.3869 29.6236 78.3869 29.3526V25.4688H77.1224V29.2623C77.1224 29.9849 76.8514 30.3462 76.0385 30.3462H73.7805C72.6966 30.3462 72.1546 29.8042 72.1546 28.901C72.1546 27.9978 72.1547 28.3591 72.3353 27.9978H71.1611C70.9805 28.4494 70.8901 28.901 70.8901 29.2623C70.8901 30.8881 72.3353 31.6107 73.7805 31.6107H76.0385C76.8514 31.6107 77.3934 31.3397 77.845 30.8881C78.1159 31.3397 78.7482 31.6107 79.5611 31.6107H85.2514C86.1546 31.6107 86.5159 30.9784 86.6063 30.8881C86.8772 31.3397 87.3288 31.6107 88.0514 31.6107H88.2321C88.8643 31.6107 89.3159 31.3397 89.6772 30.9784C90.2192 31.43 90.7611 31.6107 91.3934 31.6107C92.6579 31.6107 93.5611 30.6171 93.5611 29.4429C93.6514 28.3591 92.8385 27.0946 91.3934 27.0946M91.2127 30.4365C90.8514 30.4365 90.4901 30.3462 90.1288 30.0752C90.1288 29.8042 90.2192 29.5333 90.3095 29.2623C90.4901 28.63 90.8514 28.2687 91.303 28.2687C92.0256 28.2687 92.2966 28.9913 92.2966 29.3526C92.2966 30.0752 91.845 30.4365 91.2127 30.4365Z" fill="#003528"/>
<path d="M30.877 31.069C31.5093 31.069 31.9609 31.5206 31.9609 31.8819C31.9609 32.2432 31.9609 32.0626 31.9609 32.2432C32.2319 32.6045 32.1415 33.869 31.9609 34.14C32.0512 34.411 32.5028 34.5916 32.5931 34.411C33.2254 33.1465 33.5867 31.8819 33.8577 30.5271C33.8577 30.1658 34.7609 30.2561 34.7609 30.2561C34.7609 30.2561 34.6706 30.7981 34.4899 31.5206C34.4899 31.5206 34.3093 32.4239 34.219 32.8755C33.948 34.6819 33.2254 36.4884 33.2254 36.5787C33.0448 37.3013 32.9544 38.1142 32.8641 38.9271C32.8641 39.6497 32.8641 40.8239 32.8641 41.4561C33.0448 42.9013 33.3157 44.7981 33.3157 44.7981C32.6835 45.1594 31.7802 44.2561 30.7867 44.2561C29.7931 44.2561 28.7996 45.1594 28.2577 44.7981C28.2577 44.7981 28.619 42.9013 28.7093 41.4561C28.7093 40.8239 28.7093 39.5594 28.7093 38.9271C28.7093 38.0239 28.5286 37.211 28.348 36.5787C28.348 36.5787 27.6254 34.7723 27.3544 32.8755C27.3544 32.4239 27.0835 31.5206 27.0835 31.5206C26.9028 30.7981 26.8125 30.2561 26.8125 30.2561C26.8125 30.2561 27.6254 30.2561 27.7157 30.5271C28.077 31.8819 28.4383 33.1465 28.9802 34.411C29.0706 34.6819 29.5222 34.411 29.6125 34.14C29.4319 33.869 29.4319 32.6045 29.6125 32.2432C29.6125 32.1529 29.6125 32.0626 29.6125 31.8819C29.6125 31.5206 30.1544 31.069 30.7867 31.069" fill="#003528"/>
<path d="M27.4447 25.47C27.4447 25.47 27.8963 25.3797 28.0769 24.8377C28.1672 24.4764 27.8963 24.2958 27.8963 24.2958C27.7156 24.7474 27.1737 24.5667 27.0834 24.2958C27.0834 23.9345 27.3543 23.3926 27.9866 23.6635C28.7092 23.9345 28.7092 24.7474 28.3479 25.1087C27.8963 25.5603 27.4447 25.5603 27.4447 25.5603M26.8124 24.5667C26.8124 24.5667 26.4511 24.6571 26.0898 24.2958C25.8189 24.0248 25.8189 23.6635 25.8189 23.3926C25.8189 23.3926 25.7285 23.3022 25.7285 23.3926C25.4576 24.1151 25.5479 24.928 26.0898 25.3797C26.8124 26.0119 27.8963 26.0119 28.4382 25.3797C29.0705 24.6571 28.8898 23.7538 28.3479 23.3926C27.8059 23.0313 27.0834 23.1216 26.8124 23.6635C26.5414 24.2055 26.8124 24.5667 26.8124 24.5667Z" fill="#00B7E1"/>
<path d="M36.4772 27.4562C36.4772 27.4562 36.4772 27.9078 36.9288 28.1788C37.2901 28.3594 37.4708 28.1788 37.4708 28.1788C37.1095 27.9078 37.3805 27.3659 37.7417 27.4562C38.103 27.4562 38.5546 27.9981 38.103 28.5401C37.6514 29.1723 36.9288 28.9014 36.6579 28.5401C36.2966 27.9981 36.4772 27.5465 36.4772 27.5465M37.4708 27.0949C37.4708 27.0949 37.4708 26.7336 37.9224 26.4626C38.2837 26.282 38.5546 26.3723 38.8256 26.4626C38.8256 26.4626 38.9159 26.4627 38.8256 26.3723C38.1934 25.9207 37.3805 25.8304 36.7482 26.1917C35.9353 26.7336 35.6643 27.7272 36.2063 28.5401C36.7482 29.2627 37.6514 29.353 38.103 28.9014C38.645 28.4497 38.645 27.8175 38.1934 27.3659C37.7417 27.0046 37.2901 27.1852 37.2901 27.1852" fill="#00B7E1"/>
<path d="M42.7999 23.483C42.7999 23.483 42.2579 23.3023 42.0773 22.5797C41.987 21.9475 42.3483 21.1346 43.1612 21.2249C44.0644 21.2249 44.0644 22.1281 43.7934 22.3991C43.5225 22.7604 42.8902 22.5797 42.8902 22.0378C42.8902 22.0378 42.5289 22.0378 42.4386 22.4894C42.3483 23.1217 42.7096 23.483 42.7096 23.483M43.9741 22.8507C43.9741 22.8507 44.4257 22.5797 44.4257 21.8572C44.4257 21.1346 43.7934 20.5926 42.9805 20.7733C42.1676 20.8636 41.5354 21.6765 41.8063 22.7604C42.0773 23.8443 43.0708 24.3862 44.245 24.1152C45.0579 23.8443 45.6902 23.0314 45.6902 22.1281C45.6902 21.2249 45.5999 22.0378 45.5999 22.1281C45.5096 22.4894 45.3289 22.8507 44.8773 23.0314C44.245 23.3023 43.9741 23.0314 43.9741 23.0314" fill="#00B7E1"/>
<path d="M17.7801 23.7542C17.7801 23.7542 18.2317 23.6639 18.4123 23.1219C18.5027 22.7606 18.322 22.58 18.322 22.58C18.1414 23.0316 17.5994 22.8509 17.5091 22.4897C17.5091 22.1284 17.7801 21.5864 18.5027 21.8574C19.2253 22.1284 19.1349 22.9413 18.7736 23.3026C18.4123 23.7542 17.8704 23.6639 17.8704 23.6639M17.2382 22.9413C17.2382 22.9413 16.8769 23.0316 16.5156 22.6703C16.2446 22.3993 16.2446 22.038 16.3349 21.7671C16.3349 21.7671 16.2446 21.6768 16.2446 21.7671C15.8833 22.3993 15.9736 23.3026 16.5156 23.8445C17.2382 24.5671 18.2317 24.5671 18.864 23.8445C19.4962 23.2122 19.3156 22.309 18.864 21.8574C18.322 21.4961 17.5994 21.5864 17.3285 22.1284C16.9672 22.6703 17.3285 23.0316 17.3285 23.0316" fill="#00B7E1"/>
<path d="M35.3931 13.6379C35.3931 13.6379 35.935 13.6379 36.2963 13.0959C36.5673 12.7346 36.2963 12.4637 36.2963 12.4637C35.935 12.8249 35.3931 12.4637 35.3931 12.1024C35.3931 11.7411 36.0253 11.1991 36.6576 11.8314C37.2898 12.4637 37.0189 13.2766 36.3866 13.5475C35.7544 13.9088 35.3028 13.6379 35.3028 13.6379M35.1221 12.3733C35.1221 12.3733 34.6705 12.3733 34.4898 11.7411C34.3092 11.2895 34.4898 10.8379 34.6705 10.5669C34.6705 10.5669 34.6705 10.4766 34.5802 10.4766C33.9479 11.1088 33.6769 12.1927 34.1286 12.9153C34.6705 13.9088 35.8447 14.2701 36.7479 13.8185C37.6511 13.2766 37.8318 12.283 37.3802 11.5604C36.9286 10.9282 36.1157 10.8379 35.5737 11.2895C34.9415 11.8314 35.2124 12.3733 35.2124 12.3733" fill="#00B7E1"/>
<path d="M31.5092 26.7344C31.5092 26.7344 31.2382 26.3731 30.6963 26.4634C30.335 26.4634 30.2446 26.8247 30.2446 26.8247C30.6963 26.8247 30.7866 27.457 30.5156 27.5473C30.2446 27.728 29.6124 27.5473 29.6124 26.9151C29.6124 26.1925 30.335 25.9215 30.8769 26.1021C31.4188 26.3731 31.5092 26.8247 31.5092 26.8247M30.9672 27.6376C30.9672 27.6376 31.2382 27.9086 30.9672 28.3602C30.7866 28.7215 30.5156 28.8118 30.2446 28.9021V28.9925C30.9672 28.9925 31.7801 28.6312 32.0511 27.9086C32.4124 27.0054 32.0511 26.0118 31.1479 25.6505C30.2446 25.3796 29.5221 25.8312 29.3414 26.4634C29.1608 27.0957 29.5221 27.728 30.1543 27.8183C30.6963 27.9086 30.9672 27.5473 30.9672 27.5473" fill="#BAD53A"/>
<path d="M28.1672 17.5237C28.1672 17.5237 27.7156 17.1624 27.8059 16.4399C27.8962 15.8076 28.5285 15.1753 29.3414 15.5366C30.064 15.8979 29.8833 16.6205 29.522 16.8011C29.1607 17.0721 28.6188 16.7108 28.7995 16.1689C28.7995 16.1689 28.4382 16.0786 28.2575 16.4399C27.8962 17.0721 28.1672 17.5237 28.1672 17.5237ZM29.4317 17.3431C29.4317 17.3431 29.9736 17.3431 30.2446 16.6205C30.5156 15.8979 30.064 15.2657 29.3414 15.085C28.5285 14.9044 27.6253 15.4463 27.5349 16.5302C27.4446 17.614 28.1672 18.5173 29.3414 18.6076C30.2446 18.6076 31.0575 18.0657 31.4188 17.2528C31.4188 17.2528 31.4188 17.1624 31.3285 17.2528C31.1478 17.5237 30.7865 17.7947 30.3349 17.885C29.7027 17.885 29.522 17.5237 29.522 17.5237" fill="#BAD53A"/>
<path d="M19.6772 19.4169C19.6772 19.4169 19.3159 19.7782 19.4966 20.3201C19.5869 20.6814 19.8579 20.6814 19.8579 20.6814C19.8579 20.2298 20.3095 20.0491 20.5805 20.3201C20.7611 20.5911 20.8514 21.2233 20.0385 21.3136C19.3159 21.404 18.9546 20.7717 19.045 20.2298C19.1353 19.5975 19.5869 19.4169 19.5869 19.4169M21.2127 20.6814C21.2127 20.0491 20.7611 19.8685 20.7611 19.8685L21.2127 20.6814ZM20.6708 19.8685C20.6708 19.8685 20.9417 19.5975 21.3934 19.7782C21.7546 19.8685 21.9353 20.1395 22.0256 20.4104H22.1159C22.0256 19.6878 21.4837 18.9653 20.7611 18.7846C19.7676 18.604 18.8643 19.1459 18.774 20.0491C18.5934 20.9524 19.2256 21.6749 19.8579 21.6749C20.5805 21.6749 21.0321 21.3136 21.0321 20.6814" fill="#BAD53A"/>
<path d="M40.361 18.427C40.361 18.427 40.7223 18.156 41.3545 18.3367C41.8965 18.5173 42.2577 19.1496 41.8061 19.7819C41.3545 20.4141 40.8126 20.0528 40.7223 19.7819C40.6319 19.4206 40.9932 19.0593 41.3545 19.3302C41.3545 19.3302 41.5352 19.0593 41.2642 18.7883C40.9029 18.3367 40.4513 18.5173 40.4513 18.5173M40.2706 19.5109C40.2706 19.5109 40.2706 19.9625 40.7223 20.3238C41.2642 20.6851 41.8965 20.4141 42.1674 19.7819C42.4384 19.1496 42.1674 18.3367 41.2642 18.0657C40.361 17.7948 39.4577 18.2464 39.1868 19.2399C39.0061 19.9625 39.2771 20.6851 39.9094 21.1367C39.9094 21.1367 39.9997 21.1367 39.9997 21.0464C39.819 20.8657 39.6384 20.5948 39.7287 20.1431C39.819 19.6012 40.1803 19.5109 40.1803 19.5109" fill="#BAD53A"/>
<path d="M24.5544 27.9987C24.5544 27.9987 24.1931 28.2697 23.5609 27.9987C23.0189 27.8181 22.6576 27.0955 23.1996 26.5536C23.6512 26.0116 24.1931 26.3729 24.2834 26.6439C24.3738 27.0052 24.0125 27.3665 23.6512 27.0955C23.6512 27.0955 23.4705 27.3665 23.7415 27.6374C24.1028 27.9987 24.5544 27.9987 24.5544 27.9987ZM24.6447 26.9149C24.6447 26.9149 24.7351 26.4633 24.1931 26.102C23.6512 25.7407 23.0189 25.9213 22.748 26.5536C22.3867 27.1858 22.748 27.9987 23.5609 28.36C24.4641 28.7213 25.3673 28.2697 25.7286 27.2762C25.9996 26.6439 25.7286 25.831 25.0963 25.2891C25.0963 25.2891 25.006 25.2891 25.006 25.3794C25.1867 25.6504 25.277 25.9213 25.277 26.2826C25.1867 26.8245 24.7351 26.9149 24.7351 26.9149" fill="#134B99"/>
<path d="M34.5803 17.9753C34.5803 17.9753 34.219 18.3366 33.5868 18.2463C33.0449 18.1559 32.5932 17.614 32.9545 16.8914C33.3158 16.2592 33.9481 16.5301 34.0384 16.8011C34.219 17.1624 33.8578 17.5237 33.4061 17.343C33.4061 17.343 33.3158 17.614 33.5868 17.885C34.0384 18.2463 34.49 18.0656 34.49 18.0656M34.49 16.8914C34.49 16.8914 34.49 16.4398 33.8578 16.1689C33.3158 15.8979 32.6836 16.1689 32.5029 16.8914C32.3223 17.5237 32.7739 18.3366 33.5868 18.5172C34.49 18.6979 35.3029 18.0656 35.4836 17.0721C35.5739 16.3495 35.1223 15.6269 34.49 15.2656C34.49 15.2656 34.3997 15.2656 34.49 15.3559C34.6707 15.5366 34.8513 15.8076 34.8513 16.1689C34.8513 16.7108 34.49 16.8914 34.49 16.8914Z" fill="#134B99"/>
<path d="M22.1157 18.1537C22.1157 18.1537 22.5673 18.1537 22.8383 17.6117C23.0189 17.2505 22.8383 17.0698 22.8383 17.0698C22.5673 17.4311 22.0254 17.2505 22.1157 16.8892C22.1157 16.5279 22.477 16.0763 23.1093 16.4375C23.7415 16.7988 23.6512 17.6117 23.1093 17.8827C22.6576 18.3343 22.1157 18.1537 22.1157 18.1537ZM21.6641 17.1601C21.6641 17.1601 21.3028 17.1601 21.0318 16.7988C20.8512 16.4375 20.8512 16.1666 21.0318 15.8956C21.0318 15.8956 21.0318 15.8053 20.9415 15.8956C20.5802 16.5279 20.4899 17.3408 20.9415 17.973C21.5738 18.7859 22.5673 18.8763 23.2899 18.3343C24.0125 17.7924 24.0125 16.8892 23.4705 16.3472C22.9286 15.8956 22.2964 15.8956 21.9351 16.3472C21.5738 16.8892 21.8447 17.2505 21.8447 17.2505" fill="#134B99"/>
<path d="M33.9483 25.5589C33.9483 25.5589 33.4967 25.4686 33.2257 24.8364C33.045 24.2944 33.2257 23.5719 34.0386 23.5719C34.7612 23.5719 34.8515 24.2041 34.6709 24.4751C34.4902 24.8364 33.9483 24.746 33.9483 24.2944C33.9483 24.2944 33.6773 24.2944 33.587 24.746C33.587 25.288 33.9483 25.5589 33.9483 25.5589ZM34.7612 24.9267C34.7612 24.9267 35.1225 24.6557 35.0321 24.0235C34.9418 23.3912 34.3999 23.0299 33.6773 23.2106C33.045 23.3912 32.5934 24.2041 32.8644 25.017C33.2257 25.9202 34.1289 26.2815 35.1225 25.9202C35.7547 25.6493 36.2063 24.9267 36.116 24.1138C36.116 24.1138 36.0257 24.0235 36.0257 24.1138C36.0257 24.3848 35.845 24.6557 35.4838 24.8364C35.0321 25.1073 34.7612 24.8364 34.7612 24.8364" fill="#134B99"/>
<path d="M37.6511 8.03947C37.6511 8.03947 38.0124 8.40076 37.9221 8.94269C37.9221 9.48463 37.2898 10.0266 36.5672 9.66527C35.935 9.30398 36.1156 8.76205 36.3866 8.5814C36.7479 8.40076 37.1995 8.67172 36.9285 9.12334C36.9285 9.12334 37.1995 9.21366 37.4704 8.85237C37.8317 8.40076 37.6511 7.94914 37.6511 7.94914M36.6575 8.22011C36.6575 8.22011 36.2059 8.22011 35.935 8.85237C35.7543 9.48463 36.0253 10.0266 36.7479 10.2072C37.3801 10.3879 38.193 9.93624 38.2834 9.03301C38.3737 8.12979 37.7414 7.31689 36.7479 7.22656C36.0253 7.22656 35.3027 7.58785 35.0317 8.31043C35.0317 8.31043 35.0317 8.40076 35.1221 8.31043C35.3027 8.12979 35.5737 7.94914 35.935 7.85882C36.4769 7.85882 36.5672 8.22011 36.5672 8.22011" fill="#134B99"/>
<path d="M27.2642 10.0256C27.2642 10.0256 26.8126 10.0256 26.5416 10.5675C26.361 10.9288 26.5416 11.1095 26.5416 11.1095C26.8126 10.7482 27.3545 11.0191 27.2642 11.3804C27.2642 11.7417 26.8126 12.1933 26.1803 11.7417C25.5481 11.2901 25.7287 10.5675 26.1803 10.2965C26.7223 9.93526 27.1739 10.0256 27.1739 10.0256M27.6255 11.0191C27.6255 11.0191 27.9868 11.0191 28.2578 11.4707C28.4384 11.832 28.3481 12.103 28.2578 12.374C28.2578 12.374 28.2578 12.4643 28.3481 12.374C28.7997 11.7417 28.89 10.9288 28.4384 10.2965C27.8965 9.48364 26.8126 9.303 26.09 9.84493C25.3674 10.3869 25.3674 11.2901 25.8191 11.832C26.2707 12.2836 26.9932 12.2836 27.3545 11.832C27.7158 11.3804 27.5352 10.9288 27.5352 10.9288" fill="#134B99"/>
<path d="M31.3287 10.9279C31.3287 10.9279 30.8771 11.1989 30.3352 10.9279C29.7933 10.657 29.6126 9.9344 30.0642 9.48279C30.6062 8.94085 31.0578 9.48279 31.1481 9.75376C31.1481 10.115 30.7868 10.4763 30.4255 10.115C30.4255 10.115 30.2449 10.386 30.4255 10.657C30.6965 11.1086 31.2384 11.1086 31.2384 11.1086M31.5094 9.84408C31.5094 9.84408 31.5997 9.39246 31.1481 8.94085C30.6965 8.57956 30.0642 8.66988 29.6126 9.21182C29.2513 9.75375 29.3416 10.657 30.1545 11.1086C30.9675 11.5602 31.961 11.1989 32.4126 10.2957C32.7739 9.66343 32.5029 8.85053 32.0513 8.30859C32.0513 8.30859 31.8707 8.30859 31.961 8.39892C32.0513 8.66988 32.232 8.94085 32.0513 9.30214C31.8707 9.75376 31.5094 9.75376 31.5094 9.75376" fill="#FCB32E"/>
<path d="M24.2834 15.1725C24.2834 15.1725 23.7414 15.0822 23.4705 14.3596C23.2898 13.7274 23.4705 12.9145 24.464 12.9145C25.3672 12.9145 25.4576 13.6371 25.1866 13.9983C24.9156 14.3596 24.2834 14.2693 24.2834 13.7274C24.2834 13.7274 23.9221 13.7274 23.9221 14.179C23.9221 14.8112 24.2834 15.1725 24.2834 15.1725ZM25.2769 14.45C25.2769 14.45 25.7285 14.179 25.6382 13.4564C25.5479 12.7338 24.9156 12.3725 24.1027 12.4629C23.2898 12.6435 22.7479 13.5467 23.1092 14.5403C23.4705 15.5338 24.5543 15.9854 25.7285 15.6241C26.5414 15.2629 27.0834 14.3596 26.9931 13.4564C26.9931 13.4564 26.9027 13.3661 26.9027 13.4564C26.9027 13.8177 26.7221 14.179 26.2705 14.45C25.6382 14.8112 25.2769 14.45 25.2769 14.45Z" fill="#FCB32E"/>
<path d="M39.1869 17.0699C39.1869 17.0699 39.1869 17.6118 38.5547 17.8828C38.103 18.1537 37.2901 17.9731 37.1998 17.2505C37.1095 16.5279 37.7418 16.3473 38.0127 16.4376C38.374 16.5279 38.374 17.1602 37.9224 17.2505C37.9224 17.2505 37.9224 17.5215 38.4643 17.5215C39.0063 17.5215 39.1869 17.0699 39.1869 17.0699ZM38.4643 16.257C38.4643 16.257 38.1934 15.8957 37.5611 16.0763C36.9288 16.257 36.6579 16.8892 36.9288 17.5215C37.1998 18.1537 38.0127 18.515 38.8256 18.0634C39.6385 17.6118 39.9095 16.6182 39.3676 15.715C39.0063 15.0828 38.1934 14.8118 37.4708 14.9924V15.0828C37.7417 15.0828 38.103 15.1731 38.2837 15.4441C38.645 15.8957 38.374 16.257 38.374 16.257" fill="#FCB32E"/>
<path d="M37.9225 22.8524C37.9225 22.8524 37.6515 23.3041 37.9225 23.846C38.1934 24.2976 38.4644 24.2073 38.4644 24.2073C38.2838 23.6653 38.8257 23.3041 39.187 23.6653C39.458 23.9363 39.6386 24.6589 38.8257 24.9299C38.0128 25.2008 37.4709 24.5686 37.3805 23.9363C37.3805 23.2137 37.8321 22.9428 37.8321 22.9428M39.187 23.1234C39.187 23.1234 39.458 22.7621 39.9999 22.8524C40.4515 22.8524 40.7225 23.2137 40.9031 23.575C40.9031 23.575 41.0838 23.575 40.9934 23.575C40.7225 22.6718 39.9096 21.9492 39.0967 21.9492C38.2838 21.9492 37.0192 22.7621 37.1096 23.846C37.1096 24.9299 38.0128 25.5621 38.7354 25.4718C39.5483 25.3815 39.9999 24.7492 39.8192 24.0266C39.7289 23.3041 39.0967 23.2137 39.0967 23.2137" fill="#FCB32E"/>
<path d="M25.6385 32.0643C25.6385 32.0643 25.9095 31.7933 25.8191 31.432C25.8191 31.161 25.5482 31.161 25.5482 31.161C25.5482 31.5223 25.0966 31.6127 25.0062 31.432C24.9159 31.2514 24.9159 30.7094 25.4578 30.7094C26.0901 30.7094 26.2708 31.161 26.1804 31.6127C25.9998 32.0643 25.6385 32.1546 25.6385 32.1546M25.0062 31.703C25.0062 31.703 24.7353 31.8836 24.374 31.703C24.103 31.6126 24.0127 31.432 24.0127 31.2514H23.9224C23.9224 31.7933 24.374 32.2449 24.8256 32.4256C25.5482 32.6965 26.2708 32.3352 26.4514 31.6127C26.632 30.9804 26.1804 30.3481 25.7288 30.2578C25.1869 30.2578 24.8256 30.5288 24.7353 30.9804C24.7353 31.432 25.0062 31.6127 25.0062 31.6127" fill="#FCB32E"/>
<path d="M23.5611 21.2249C23.5611 21.2249 23.8321 21.4959 24.1934 21.4055C24.4644 21.4055 24.4644 21.1346 24.4644 21.1346C24.1031 21.1346 24.0128 20.7733 24.1934 20.5926C24.374 20.5023 24.916 20.5023 24.916 21.0443C24.916 21.6765 24.4644 21.8572 24.0128 21.7668C23.5611 21.6765 23.4708 21.3152 23.4708 21.3152M24.0128 20.5023C24.0128 20.5023 23.8321 20.2314 24.0128 19.8701C24.1031 19.5991 24.2837 19.5088 24.4644 19.4184V19.3281C23.9224 19.3281 23.4708 19.7797 23.2902 20.2314C23.1095 20.9539 23.4708 21.6765 24.1934 21.8572C24.8257 22.0378 25.4579 21.5862 25.5482 21.1346C25.5482 20.5926 25.2773 20.2314 24.8257 20.141C24.374 20.141 24.1934 20.5023 24.1934 20.5023" fill="#FCB32E"/>
<path d="M26.2707 18.2454C26.2707 18.2454 26.4513 17.8841 26.2707 17.5228C26.0901 17.2518 25.9094 17.3422 25.9094 17.3422C25.9997 17.7035 25.6384 17.8841 25.4578 17.7938C25.2771 17.7035 25.0965 17.1615 25.5481 16.8906C26.0901 16.6196 26.4513 17.0712 26.5417 17.5228C26.5417 18.0647 26.2707 18.2454 26.2707 18.2454ZM25.5481 18.0647C25.5481 18.0647 25.4578 18.3357 25.0062 18.3357C24.5546 18.3357 24.5546 18.2454 24.4642 18.0647C24.4642 18.0647 24.2836 18.0648 24.3739 18.1551C24.6449 18.6067 25.0965 18.968 25.6384 18.8777C26.361 18.8777 26.903 18.2454 26.903 17.5228C26.903 16.8002 26.2707 16.4389 25.7288 16.5293C25.1868 16.6196 24.9159 17.0712 25.0965 17.5228C25.1868 17.9744 25.5481 17.9744 25.5481 17.9744" fill="#38BA93"/>
<path d="M35.8448 32.0621C35.8448 32.0621 35.4835 31.9718 35.3932 31.5202C35.3028 31.0685 35.4835 30.6169 36.1157 30.6169C36.6577 30.6169 36.748 31.1589 36.5673 31.3395C36.3867 31.6105 35.9351 31.4298 36.0254 31.0685C36.0254 31.0685 35.7544 31.0685 35.7544 31.3395C35.6641 31.7911 35.9351 32.0621 35.9351 32.0621M36.5673 31.7008C36.5673 31.7008 36.9286 31.5202 36.8383 31.0685C36.748 30.6169 36.3867 30.2556 35.8448 30.346C35.3028 30.346 34.9415 30.9782 35.1222 31.7008C35.3028 32.4234 36.0254 32.7847 36.748 32.5137C37.1996 32.3331 37.6512 31.8815 37.6512 31.3395C37.6512 31.3395 37.5609 31.2492 37.5609 31.3395C37.5609 31.5202 37.3803 31.7008 37.1996 31.7911C36.8383 31.8815 36.5673 31.7911 36.5673 31.7911" fill="#38BA93"/>
<path d="M30.877 24.5656C30.877 24.5656 30.5157 24.656 30.1544 24.2947C29.7931 24.0237 29.7931 23.3914 30.2447 23.1205C30.7867 22.8495 30.9673 23.2108 30.9673 23.4818C30.9673 23.7527 30.5157 23.9334 30.3351 23.5721C30.3351 23.5721 30.1544 23.6624 30.3351 24.0237C30.4254 24.385 30.877 24.4753 30.877 24.4753M31.3286 23.8431C31.3286 23.8431 31.5092 23.5721 31.3286 23.1205C31.148 22.6689 30.5157 22.6689 30.1544 23.0302C29.7931 23.3914 29.7028 24.0237 30.1544 24.5656C30.6963 25.1076 31.5092 25.0172 31.9609 24.385C32.3221 24.0237 32.3221 23.3914 32.1415 22.9398H32.0512C32.0512 23.1205 32.0512 23.3011 31.9609 23.5721C31.6899 23.9334 31.4189 23.8431 31.4189 23.8431" fill="#38BA93"/>
<path d="M45.3288 18.6975C45.3288 18.6975 45.5095 19.1491 45.1482 19.691C44.7869 20.1427 44.0643 20.3233 43.703 19.691C43.3417 19.0588 43.703 18.6975 44.0643 18.6072C44.4256 18.6072 44.6966 19.0588 44.3353 19.3297C44.3353 19.3297 44.5159 19.6007 44.8772 19.3297C45.3288 19.0588 45.3288 18.6072 45.3288 18.6072M44.245 18.2459C44.245 18.2459 43.7934 18.0652 43.3417 18.4265C42.8901 18.7878 42.8901 19.5104 43.3417 19.962C43.8837 20.4136 44.7869 20.4136 45.3288 19.691C45.8708 18.9685 45.6901 17.9749 44.8772 17.3427C44.245 16.9814 43.4321 16.9814 42.7998 17.433C42.7998 17.433 42.7998 17.6136 42.7998 17.5233C43.0708 17.433 43.3417 17.3427 43.703 17.5233C44.1546 17.7039 44.0643 18.1556 44.0643 18.1556" fill="#38BA93"/>
<path d="M32.2321 12.914C32.2321 12.914 32.6837 13.185 32.774 13.9075C32.774 14.5398 32.3224 15.2624 31.4192 14.9914C30.6063 14.7204 30.6966 13.9979 30.9676 13.7269C31.3289 13.4559 31.8708 13.7269 31.7805 14.2688C31.7805 14.2688 32.1418 14.2688 32.3224 13.9075C32.5934 13.2753 32.3224 12.8237 32.3224 12.8237M30.9676 13.2753C30.9676 13.2753 30.4256 13.3656 30.3353 14.1785C30.245 14.9011 30.6966 15.5333 31.5095 15.5333C32.3224 15.5333 33.1353 14.9011 33.045 13.8172C33.045 12.7333 32.0514 11.9204 30.8773 12.0108C29.974 12.0108 29.2514 12.8237 29.0708 13.7269C29.0708 13.7269 29.1611 13.8172 29.1611 13.7269C29.2514 13.4559 29.6127 13.0946 30.0643 13.0043C30.6966 12.914 30.9676 13.2753 30.9676 13.2753Z" fill="#38BA93"/>
<path d="M24.3739 7.40663C24.3739 7.40663 24.0126 7.40663 23.8319 7.76792C23.7416 8.03889 23.8319 8.21953 23.8319 8.21953C24.0126 7.94856 24.4642 8.12921 24.4642 8.40018C24.4642 8.67114 24.1029 9.03243 23.6513 8.67114C23.1997 8.30985 23.29 7.76792 23.6513 7.49695C24.0126 7.22598 24.3739 7.31631 24.3739 7.31631M24.6448 8.21953C24.6448 8.21953 24.9158 8.21953 25.0964 8.58082C25.1868 8.76147 25.1868 9.03243 25.0964 9.21308C25.0964 9.21308 25.1868 9.3034 25.1868 9.21308C25.4577 8.76147 25.4577 8.12921 25.1868 7.76792C24.7352 7.13566 23.9223 7.04534 23.3803 7.40663C22.8384 7.85824 22.7481 8.4905 23.1094 8.85179C23.4706 9.21308 24.0126 9.21308 24.2835 8.85179C24.5545 8.4905 24.3739 8.12921 24.3739 8.12921" fill="#38BA93"/>
<path d="M23.3805 22.9418C23.3805 22.9418 23.8321 23.2128 23.8321 23.9354C23.8321 24.6579 23.2902 25.2902 22.4773 25.0192C21.6644 24.7483 21.845 24.0257 22.116 23.7547C22.4773 23.4837 23.0192 23.7547 22.8386 24.2966C22.8386 24.2966 23.1999 24.2966 23.3805 23.9354C23.6515 23.3934 23.3805 22.9418 23.3805 22.9418ZM22.116 23.3031C22.116 23.3031 21.5741 23.3934 21.3934 24.116C21.3031 24.8386 21.7547 25.4708 22.5676 25.4708C23.3805 25.4708 24.1934 24.8386 24.1934 23.7547C24.1934 22.6708 23.2902 21.8579 22.116 21.9483C21.2128 21.9483 20.4902 22.7612 20.2192 23.6644C20.2192 23.6644 20.3096 23.7547 20.3096 23.6644C20.4902 23.3934 20.7612 23.0321 21.2128 22.9418C21.845 22.8515 22.0257 23.2128 22.0257 23.2128" fill="#38BA93"/>
<path d="M17.6902 13.0946C17.6902 13.0946 17.3289 13.6366 17.5999 14.3592C17.7805 14.9011 18.2321 14.8108 18.2321 14.8108C18.1418 14.1785 18.8644 13.8172 19.2257 14.1785C19.587 14.5398 19.6773 15.443 18.6838 15.6237C17.5999 15.8946 17.058 14.9914 17.058 14.1785C17.058 13.2753 17.6902 13.0043 17.6902 13.0043M19.1354 13.5462C19.1354 13.5462 19.4967 13.0946 20.2192 13.2753C20.8515 13.4559 21.1225 13.9075 21.3031 14.3592H21.3934C21.3031 13.2753 20.3999 12.1914 19.316 12.1011C17.9612 11.9204 16.787 12.8237 16.6063 14.1785C16.516 15.443 17.4192 16.3462 18.4128 16.3462C19.4063 16.3462 20.0386 15.6237 19.858 14.7204C19.7676 13.8172 19.1354 13.6366 19.1354 13.6366" fill="#38BA93"/>
<path d="M40.5418 30.3493C40.5418 30.3493 40.3611 30.801 39.7289 30.8913C39.1869 30.8913 38.5547 30.53 38.645 29.8074C38.7353 29.0848 39.4579 29.1752 39.6385 29.3558C39.9095 29.6268 39.6385 30.1687 39.2772 30.0784C39.2772 30.0784 39.2772 30.3493 39.6385 30.53C40.1805 30.6203 40.5418 30.3493 40.5418 30.3493ZM40.0901 29.3558C40.0901 29.3558 39.9095 28.9042 39.3676 28.9042C38.7353 28.9042 38.2837 29.3558 38.2837 29.9881C38.2837 30.6203 38.9159 31.2526 39.9095 31.1622C40.8127 31.0719 41.445 30.1687 41.2643 29.1752C41.174 28.4526 40.5418 27.9106 39.8192 27.8203C39.8192 27.8203 39.7289 27.9106 39.8192 27.9106C40.0901 28.001 40.2708 28.1816 40.4514 28.5429C40.5418 28.9945 40.2708 29.2655 40.2708 29.2655" fill="#542D89"/>
<path d="M43.2514 16.0764C43.2514 16.0764 42.8901 16.4377 42.2578 16.257C41.7159 16.1667 41.2643 15.5345 41.7159 14.9022C42.0772 14.2699 42.7094 14.6312 42.7998 14.9022C42.9804 15.2635 42.5288 15.6248 42.1675 15.4441C42.1675 15.4441 42.0772 15.7151 42.3481 15.9861C42.7094 16.3474 43.2514 16.257 43.2514 16.257M43.2514 14.9925C43.2514 14.9925 43.2514 14.5409 42.7094 14.2699C42.1675 13.999 41.5352 14.2699 41.2643 14.9022C40.9933 15.5345 41.3546 16.3474 42.2578 16.6183C43.161 16.8893 44.0643 16.257 44.2449 15.3538C44.4256 14.6312 43.974 13.9086 43.3417 13.457C43.3417 13.457 43.2514 13.457 43.2514 13.5474C43.432 13.728 43.6127 13.999 43.6127 14.4506C43.6127 14.9925 43.161 15.0828 43.161 15.0828" fill="#542D89"/>
<path d="M27.5351 19.9612C27.5351 19.9612 27.0835 20.1419 26.9931 20.6838C26.9931 21.0451 27.1738 21.1354 27.1738 21.1354C27.2641 20.6838 27.8964 20.7741 27.9867 21.1354C27.9867 21.4064 27.806 22.0387 27.0835 21.858C26.3609 21.587 26.2706 20.8645 26.6318 20.4129C26.9931 19.8709 27.5351 19.8709 27.5351 19.8709M28.1673 20.7741C28.1673 20.7741 28.5286 20.5935 28.8899 20.9548C29.1609 21.2258 29.2512 21.587 29.1609 21.858C29.1609 21.858 29.2512 21.9483 29.2512 21.858C29.5222 21.1354 29.2512 20.3225 28.7093 19.8709C27.8964 19.2387 26.9028 19.4193 26.3609 20.1419C25.8189 20.8645 26.0899 21.7677 26.7222 22.129C27.3544 22.4903 27.9867 22.2193 28.1673 21.6774C28.4383 21.0451 28.077 20.7741 28.077 20.7741" fill="#542D89"/>
<path d="M15.7932 18.3351C15.7932 18.3351 15.7029 18.7867 16.0642 19.2383C16.3352 19.5092 16.6061 19.3286 16.6061 19.3286C16.3352 18.9673 16.6965 18.5157 17.0577 18.6963C17.3287 18.7867 17.69 19.4189 17.0577 19.7802C16.4255 20.2318 15.7932 19.7802 15.6126 19.2383C15.4319 18.606 15.7029 18.2447 15.7029 18.2447M16.8771 18.2447C16.8771 18.2447 16.9674 17.8834 17.5094 17.7931C17.8706 17.7931 18.1416 17.8834 18.4126 18.0641C18.4126 18.0641 18.5932 18.0641 18.5029 17.9738C18.0513 17.3415 17.2384 16.9802 16.6061 17.2512C15.6126 17.5221 15.161 18.4254 15.4319 19.3286C15.7029 20.2318 16.5158 20.5028 17.1481 20.2318C17.7803 19.9609 18.0513 19.3286 17.69 18.7867C17.3287 18.2447 16.8771 18.3351 16.8771 18.3351" fill="#542D89"/>
<path d="M32.8644 5.59926C32.8644 5.59926 32.4128 5.59926 32.1418 6.05087C31.8709 6.41216 32.1418 6.59281 32.1418 6.59281C32.4128 6.23152 32.9547 6.59281 32.8644 6.9541C32.8644 7.31539 32.3225 7.67668 31.7805 7.22507C31.2386 6.68313 31.5096 6.05087 31.9612 5.77991C32.5031 5.41862 32.9547 5.68958 32.9547 5.68958M33.1354 6.59281C33.1354 6.59281 33.4967 6.59281 33.7676 7.04442C33.858 7.40571 33.7676 7.67668 33.7676 7.94765C33.7676 7.94765 33.7676 8.03797 33.858 7.94765C34.3096 7.40571 34.4902 6.59281 34.2193 5.96055C33.7676 5.05733 32.7741 4.78636 31.9612 5.23797C31.1483 5.68958 31.058 6.59281 31.4193 7.13475C31.7805 7.67668 32.5031 7.767 32.9547 7.40571C33.4063 7.04442 33.316 6.50249 33.316 6.50249" fill="#542D89"/>
<path d="M37.1094 21.1351C37.1094 21.1351 37.2901 20.5931 36.8385 20.1415C36.4772 19.7802 36.2062 19.9609 36.2062 19.9609C36.4772 20.4125 36.0256 20.8641 35.6643 20.6835C35.303 20.5028 34.9417 19.8706 35.6643 19.3286C36.3868 18.7867 37.1094 19.3286 37.2901 19.9609C37.4707 20.5931 37.1094 21.0448 37.1094 21.0448M35.8449 21.1351C35.8449 21.1351 35.7546 21.5867 35.1223 21.677C34.5804 21.677 34.2191 21.4964 34.0385 21.3157C34.0385 21.3157 33.8578 21.3157 33.9481 21.406C34.3998 22.2189 35.3933 22.6706 36.2062 22.3996C37.2901 22.1286 37.9223 21.0448 37.6514 20.0512C37.3804 19.0577 36.3868 18.606 35.6643 18.9673C34.9417 19.3286 34.6707 20.0512 35.032 20.6835C35.3933 21.3157 35.9352 21.2254 35.9352 21.2254" fill="#542D89"/>
<path d="M26.361 29.0812C26.361 29.0812 26.09 28.6296 26.361 27.9974C26.632 27.3651 27.4449 27.0941 28.0771 27.7264C28.7094 28.3586 28.1674 28.9006 27.8062 28.9909C27.3545 29.0812 26.9932 28.5393 27.3545 28.178C27.3545 28.178 27.0836 27.907 26.7223 28.178C26.1803 28.5393 26.2707 29.0812 26.2707 29.0812M27.6255 29.2619C27.6255 29.2619 28.1674 29.4425 28.6191 28.8103C29.0707 28.2683 28.89 27.4554 28.2578 27.0038C27.6255 26.5522 26.5416 26.7328 26.09 27.7264C25.6384 28.7199 26.09 29.8038 27.0836 30.3457C27.8965 30.707 28.89 30.3457 29.5223 29.7135C29.5223 29.7135 29.5223 29.5328 29.432 29.6232C29.161 29.8038 28.7997 29.9845 28.2578 29.8038C27.7158 29.7135 27.6255 29.1716 27.6255 29.1716" fill="#542D89"/>
<path d="M18.774 25.2888C18.774 25.2888 18.3223 25.5598 18.3223 26.192C18.3223 26.8243 18.6836 26.734 18.6836 26.734C18.6836 26.192 19.4062 26.192 19.5869 26.5533C19.7675 26.9146 19.5869 27.6372 18.6836 27.5469C17.7804 27.4565 17.5998 26.5533 17.8707 26.0114C18.1417 25.2888 18.774 25.2888 18.774 25.2888ZM19.7675 26.1017C19.7675 26.1017 20.1288 25.8307 20.6707 26.192C21.032 26.463 21.2127 26.9146 21.2127 27.1856C21.2127 27.4565 21.303 27.2759 21.303 27.1856C21.4836 26.2824 21.032 25.2888 20.3094 24.9275C19.3159 24.3856 18.0514 24.7469 17.5998 25.7404C17.1481 26.734 17.5998 27.6372 18.3223 27.9082C19.0449 28.1791 19.7675 27.8178 19.9481 27.0953C20.1288 26.3727 19.6772 26.1017 19.6772 26.1017" fill="#542D89"/>
<path d="M28.0769 5.68991C28.0769 5.68991 28.6188 5.41894 29.1608 5.78023C29.7027 6.14152 30.064 6.95442 29.3414 7.49636C28.7091 8.0383 28.0769 7.49636 28.0769 7.13507C28.0769 6.68346 28.6188 6.41249 28.9801 6.77378C28.9801 6.77378 29.2511 6.50281 28.9801 6.14152C28.6188 5.59959 28.0769 5.59959 28.0769 5.59959M27.7156 6.8641C27.7156 6.8641 27.535 7.40604 28.0769 7.85765C28.6188 8.39959 29.3414 8.30926 29.8833 7.67701C30.4253 7.04475 30.2446 5.96088 29.3414 5.41894C28.4382 4.87701 27.264 5.14797 26.6317 6.14152C26.1801 6.8641 26.3608 7.94797 26.993 8.58023C26.993 8.58023 27.1737 8.58023 27.0833 8.48991C26.9027 8.21894 26.8124 7.76733 26.993 7.31572C27.264 6.77378 27.7156 6.77378 27.7156 6.77378" fill="#BD1D4A"/>
<path d="M20.761 11.0205C20.761 11.0205 20.3094 10.6592 20.49 9.93661C20.5803 9.30435 21.2126 8.6721 22.0255 9.12371C22.7481 9.485 22.4771 10.2076 22.2061 10.3882C21.8448 10.6592 21.3029 10.2076 21.5739 9.75597C21.5739 9.75597 21.2126 9.66565 20.9416 10.0269C20.5803 10.5689 20.761 11.0205 20.761 11.0205ZM22.0255 10.8398C22.0255 10.8398 22.5674 10.8398 22.8384 10.1173C23.1094 9.485 22.7481 8.76242 21.9352 8.49145C21.2126 8.31081 20.219 8.85274 20.0384 9.84629C19.8577 10.9302 20.6706 11.8334 21.7545 12.014C22.6577 12.1044 23.4706 11.4721 23.8319 10.6592C23.8319 10.6592 23.8319 10.5689 23.7416 10.6592C23.561 10.9302 23.1997 11.2011 22.7481 11.2011C22.1158 11.2011 21.9352 10.7495 21.9352 10.7495" fill="#BD1D4A"/>
<path d="M43.2511 25.9237C43.2511 25.9237 43.7027 26.285 43.7027 27.0076C43.7027 27.6398 43.0705 28.3624 42.2576 28.0011C41.4447 27.7302 41.6253 26.9173 41.9866 26.7366C42.3479 26.4657 42.8898 26.7366 42.7092 27.3689C42.7092 27.3689 43.0705 27.4592 43.2511 27.0076C43.6124 26.4656 43.2511 26.014 43.2511 26.014M41.9866 26.1947C41.9866 26.1947 41.4447 26.285 41.264 27.0076C41.0834 27.7302 41.535 28.3624 42.3479 28.4527C43.1608 28.5431 43.9737 27.9108 44.064 26.8269C44.1544 25.7431 43.2511 24.8398 42.0769 24.8398C40.9027 24.8398 40.3608 25.5624 40.0898 26.3753C40.0898 26.3753 40.1802 26.4657 40.1802 26.3753C40.3608 26.1044 40.6318 25.7431 41.1737 25.7431C41.806 25.7431 41.9866 26.1044 41.9866 26.1044" fill="#BD1D4A"/>
<path d="M31.1479 19.5086C31.1479 19.5086 31.4189 19.0569 32.0511 19.0569C32.5931 19.0569 33.2253 19.4182 33.0447 20.1408C32.864 20.8634 32.2318 20.7731 31.9608 20.5021C31.6898 20.2311 31.9608 19.6892 32.4124 19.8698C32.4124 19.8698 32.4124 19.5989 32.0511 19.4182C31.5092 19.1473 31.1479 19.4182 31.1479 19.4182M31.4189 20.5021C31.4189 20.5021 31.5092 20.9537 32.1415 21.044C32.7737 21.1344 33.2253 20.6827 33.3157 20.0505C33.3157 19.3279 32.6834 18.6956 31.8705 18.786C30.9673 18.786 30.2447 19.6892 30.4253 20.6827C30.4253 21.4053 31.1479 22.0376 31.8705 22.1279C31.8705 22.1279 31.9608 22.0376 31.8705 22.0376C31.5995 21.9473 31.3286 21.6763 31.3286 21.315C31.2382 20.8634 31.5092 20.5924 31.5092 20.5924" fill="#BD1D4A"/>
<path d="M21.2125 30.5286C21.2125 30.5286 21.5738 30.7995 22.1157 30.6189C22.477 30.5286 22.477 30.1673 22.477 30.1673C22.0254 30.1673 21.8447 29.7156 22.1157 29.4447C22.3867 29.264 23.0189 29.1737 23.1092 29.8963C23.1996 30.6189 22.5673 30.9802 22.0254 30.9802C21.3931 30.8898 21.1221 30.4382 21.1221 30.4382M21.5738 29.535C21.5738 29.535 21.3028 29.264 21.4834 28.8124C21.5738 28.4511 21.8447 28.2705 22.1157 28.1802V28.0898C21.3931 28.1802 20.7609 28.7221 20.5802 29.4447C20.3996 30.4382 21.0318 31.3415 21.9351 31.4318C22.8383 31.5221 23.4705 30.9802 23.5609 30.2576C23.5609 29.535 23.1092 29.0834 22.477 29.1737C21.8447 29.1737 21.6641 29.6253 21.6641 29.6253" fill="#BD1D4A"/>
<path d="M35.2127 28.8137C35.2127 28.8137 35.2127 28.2717 34.5804 28.0008C34.1288 27.8201 33.9482 28.0008 33.9482 28.0008C34.3998 28.2717 34.1288 28.904 33.6772 28.904C33.3159 28.904 32.6837 28.3621 33.2256 27.6395C33.6772 26.9169 34.5804 27.0976 34.9417 27.6395C35.3933 28.2717 35.2127 28.7234 35.2127 28.7234M34.0385 29.3556C34.0385 29.3556 34.0385 29.8072 33.5869 30.0782C33.1353 30.3492 32.6837 30.1685 32.4127 30.0782C32.4127 30.0782 32.3224 30.0782 32.4127 30.1685C33.1353 30.7105 34.2192 30.8008 34.8514 30.2588C35.7546 29.5363 35.9353 28.3621 35.303 27.5492C34.6708 26.7363 33.5869 26.6459 33.045 27.2782C32.503 27.8201 32.503 28.633 33.045 29.0847C33.5869 29.5363 34.1288 29.2653 34.1288 29.2653" fill="#BD1D4A"/>
<path d="M39.6386 10.8397C39.6386 10.8397 40.0902 10.3881 40.9934 10.659C41.716 10.8397 42.3483 11.7429 41.8063 12.6461C41.1741 13.5493 40.3612 13.0977 40.1805 12.6461C39.9096 12.1042 40.5418 11.5622 41.0838 11.9235C41.0838 11.9235 41.2644 11.5622 40.8128 11.201C40.1805 10.659 39.5483 10.8397 39.5483 10.8397M39.6386 12.3751C39.6386 12.3751 39.6386 13.0977 40.3612 13.459C41.1741 13.8203 41.987 13.459 42.4386 12.5558C42.7999 11.6526 42.258 10.4784 40.9934 10.1171C39.7289 9.75579 38.4644 10.5687 38.1031 11.9235C37.8321 13.0074 38.4644 14.1816 39.5483 14.7235C39.5483 14.7235 39.6386 14.7235 39.5483 14.6332C39.187 14.3622 38.916 13.9106 38.916 13.2784C38.916 12.4655 39.5483 12.3751 39.5483 12.3751" fill="#BD1D4A"/>
</svg>
