<svg width="143" height="56" viewBox="0 0 143 56" fill="none" xmlns="http://www.w3.org/2000/svg">
<path d="M124.371 30.971C124.943 30.171 125.285 29.1424 125.285 27.8853C125.285 26.6281 125.285 26.5138 124.943 25.8281C124.257 26.3996 123.914 27.1996 123.914 28.1138C123.914 29.0281 124.028 29.8281 124.371 30.8567" fill="#F7944A"/>
<path d="M131.571 23.7695C131.8 24.9124 131.914 25.941 131.914 27.0838C131.914 31.1981 131.114 34.1695 129.857 36.2267C130.086 36.2267 130.314 36.2267 130.543 36.2267C136.257 36.2267 137.514 30.8552 137.514 28.5695C137.514 24.7981 133.743 23.8838 131.571 23.7695Z" fill="#F7944A"/>
<path d="M125.857 27.8826C125.857 29.4826 125.4 30.6254 124.6 31.654C124.829 32.2254 125.057 32.6826 125.4 33.254C126.543 31.9969 127.114 30.054 127.114 27.654C127.114 25.254 127 25.7112 126.657 24.7969C126.2 25.0254 125.857 25.254 125.514 25.4826C125.743 26.1683 125.857 26.9683 125.857 27.8826Z" fill="#F7944A"/>
<path d="M127.8 27.6561C127.8 30.6276 127 32.5704 125.857 33.8276C126.2 34.1704 126.543 34.6276 126.886 34.8561C128.143 33.2561 128.943 30.8561 128.943 27.3133C128.943 23.7704 128.828 25.1419 128.486 24.1133C128.028 24.1133 127.686 24.3419 127.228 24.4561C127.571 25.3704 127.8 26.5133 127.8 27.5419" fill="#F7944A"/>
<path d="M129.857 27.3124C129.857 31.0838 128.943 33.7124 127.571 35.4267C127.914 35.6552 128.371 35.8838 128.828 35.9981C130.086 34.0552 130.886 31.1981 130.886 27.0838C130.886 22.9695 130.886 25.2552 130.543 23.7695C130.2 23.7695 129.857 23.7695 129.4 23.8838C129.743 25.0267 129.857 26.1695 129.857 27.3124Z" fill="#F7944A"/>
<path d="M118.428 18.7396C121.628 18.7396 124.257 19.9968 125.857 21.9396C126.2 21.4825 126.543 20.911 126.771 20.4539C125.285 18.511 123 17.2539 119.685 17.2539C116.371 17.2539 114.885 17.711 112.143 18.7396C112.143 19.0825 112.257 19.4253 112.485 19.7682C114.428 19.0825 116.6 18.7396 118.428 18.7396Z" fill="#FFBF0F"/>
<path d="M127.571 16.3407C127.343 13.4836 125.857 8.68359 120.486 8.68359C115.114 8.68359 113.971 12.5693 112.829 15.4265C115.914 14.3979 119.114 14.055 121.057 14.055C123.8 14.055 125.971 14.855 127.571 16.2265" fill="#FFBF0F"/>
<path d="M113.857 21.3715C114.771 21.143 115.914 21.0287 117.171 21.0287C119 21.0287 122.314 21.3715 124.371 23.543C124.829 23.3144 125.171 22.9715 125.514 22.6287C124.029 20.6858 121.514 19.543 118.543 19.543C115.571 19.543 114.886 19.7715 113.057 20.4573C113.286 20.8001 113.629 21.143 113.971 21.4858" fill="#FFBF0F"/>
<path d="M123.685 23.7691C121.857 21.8262 118.771 21.5977 117.057 21.5977C115.343 21.5977 115.228 21.5977 114.428 21.8262C116.485 23.3119 119.343 24.3405 121.285 24.3405C123.228 24.3405 123 24.1119 123.685 23.7691Z" fill="#FFBF0F"/>
<path d="M119.8 16.3431C123.114 16.3431 125.514 17.6002 127.228 19.5431C127.457 18.7431 127.685 18.0574 127.685 17.6002C126.2 16.1145 124.143 15.0859 121.171 15.0859C118.2 15.0859 115.8 15.5431 112.6 16.6859C112.485 17.1431 112.371 17.4859 112.371 17.7145C115 16.8002 117.971 16.3431 119.914 16.3431" fill="#FFBF0F"/>
<path d="M105.971 24.3403C105.971 21.9403 107.457 20.226 109.628 18.9689C109.286 18.7403 108.943 18.626 108.714 18.5117C106.771 19.7689 105.4 21.4831 105.4 23.7689C105.4 26.0546 106.086 28.226 107.457 30.7403C107.686 30.7403 107.914 30.7403 108.028 30.626C106.771 28.4546 106.086 26.1689 106.086 24.4546" fill="#BDCC29"/>
<path d="M107.686 25.0287C107.686 22.9715 109.057 21.4858 110.886 20.4573C110.771 20.1144 110.543 19.8858 110.314 19.543C108.371 20.6858 106.886 22.1715 106.886 24.343C106.886 26.5144 107.571 28.1144 108.714 30.1715C108.943 30.0573 109.057 29.8287 109.286 29.7144C108.257 28.0001 107.686 26.4001 107.686 25.0287Z" fill="#BDCC29"/>
<path d="M107.229 18.2852C107 18.2852 106.771 18.2852 106.543 18.2852C104.143 18.2852 99 20.228 99 23.8852C99 27.5423 103.343 30.2852 106.2 30.7423C104.943 28.228 104.257 25.828 104.257 23.7709C104.257 21.7137 105.514 19.6566 107.229 18.2852Z" fill="#BDCC29"/>
<path d="M109.285 25.7121C109.285 24.3406 109.971 23.1978 111.228 22.3978C111.228 21.9406 111.228 21.4835 111 21.1406C109.4 22.0549 108.257 23.3121 108.257 25.0263C108.257 26.7406 108.714 27.6549 109.514 29.1406C109.628 28.9121 109.857 28.5692 109.971 28.3406C109.4 27.4263 109.171 26.5121 109.171 25.7121" fill="#BDCC29"/>
<path d="M109.857 25.7135C109.857 26.2849 110.086 26.9706 110.428 27.6564C111 25.9421 111.228 23.9992 111.343 23.1992C110.428 23.8849 109.971 24.7992 109.971 25.8278" fill="#BDCC29"/>
<path d="M119.114 33.5993C116.257 33.5993 113.857 32.3422 112.143 30.7422C111.8 30.8565 111.457 30.9708 111.229 31.1993C113.171 33.485 116.143 35.4279 119.571 35.4279C123 35.4279 122.657 35.085 123.8 34.5136C123.571 33.9422 123.229 33.3708 122.886 32.9136C121.857 33.3708 120.6 33.5993 119.114 33.5993Z" fill="#00AB9E"/>
<path d="M107.8 33.4844C106.543 34.7415 105.743 36.1129 105.743 37.4844C105.743 42.8558 113.971 45.8272 117.286 45.8272C120.6 45.8272 122.886 43.4272 123.686 40.9129C122.543 41.2558 121.4 41.2558 120.486 41.2558C115.228 41.2558 110.771 37.7129 107.914 33.5987" fill="#00AB9E"/>
<path d="M116.029 29.9414C115 29.9414 113.857 30.17 112.714 30.5128C114.314 31.8843 116.486 33.0271 119.114 33.0271C121.743 33.0271 121.514 32.7985 122.429 32.4557C120.371 30.3985 117.286 29.9414 116.029 29.9414Z" fill="#00AB9E"/>
<path d="M119.571 36.1144C115.8 36.1144 112.714 34.0573 110.543 31.543C110.314 31.6573 110.086 31.7715 109.857 32.0001C112.143 35.2001 115.8 37.8287 120.028 37.8287C124.257 37.8287 122.886 37.6001 124.257 37.0287C124.257 36.343 124.257 35.7715 124.028 35.3144C122.657 36.0001 121.057 36.2287 119.571 36.2287" fill="#00AB9E"/>
<path d="M120.029 38.6256C115.457 38.6256 111.686 35.7684 109.172 32.3398C108.943 32.4541 108.829 32.5684 108.6 32.797C111.343 36.797 115.457 40.1113 120.486 40.1113C125.514 40.1113 122.886 39.997 124.029 39.6541C124.143 39.0827 124.257 38.5113 124.257 37.9398C122.772 38.5113 121.286 38.7398 120.029 38.7398" fill="#00AB9E"/>
<path d="M86.6569 21.4855C86.6569 21.0284 86.314 20.6855 85.8569 20.6855C85.3997 20.6855 85.3997 21.0284 85.2854 21.257C85.2854 21.257 85.2854 21.3713 85.2854 21.4855C85.6283 21.7141 85.8569 22.057 85.9712 22.3998C85.9712 22.6284 86.0855 22.5141 86.1997 22.3998C86.4283 22.1713 86.5426 21.8284 86.5426 21.5998M77.514 23.0855C77.6283 23.0855 77.9712 23.1998 77.9712 22.857C77.9712 22.2855 77.9712 21.7141 77.7426 21.257C77.6283 21.0284 77.3997 20.9141 77.0569 21.0284C76.5997 21.257 76.1426 21.9427 76.2569 22.5141C76.2569 22.9713 76.714 23.1998 77.3997 23.1998M89.9712 23.1998C89.9712 23.4284 89.9712 23.4284 89.9712 23.5427C89.9712 23.8855 89.9712 23.8855 89.6283 23.8855C88.714 23.8855 87.914 23.8855 86.9997 23.8855C86.314 23.8855 85.7426 23.8855 85.0569 23.8855C84.4855 23.8855 84.0283 23.8855 83.4569 23.8855C82.8854 23.8855 82.0855 23.8855 81.6283 23.1998C81.5521 23.657 81.2854 23.8855 80.8283 23.8855C80.3712 23.8855 79.7997 23.8855 79.3426 23.8855C79.114 23.8855 78.9997 23.8855 78.9997 24.2284C78.7712 25.8284 77.8569 26.857 76.2569 27.3141C76.2569 27.3141 76.0283 27.4284 75.914 27.3141C75.914 27.1998 75.914 27.0855 76.1426 27.0855C77.2854 26.5141 77.8569 25.4855 78.0854 24.3427C78.0854 24.1141 78.0854 23.9998 77.8569 23.9998C77.3997 23.9998 76.9426 23.9998 76.5997 23.9998C76.0283 23.8855 75.6854 23.4284 75.7997 22.7427C76.0283 21.8284 76.4854 21.257 77.2854 20.9141C77.8569 20.5713 78.4283 20.7998 78.7712 21.3713C79.114 21.8284 79.2283 22.3998 79.2283 22.9713C79.2283 23.3141 79.2283 23.4284 79.5712 23.3141C79.7997 23.3141 80.1426 23.3141 80.3712 23.3141C80.714 23.3141 80.8283 23.3141 80.8283 22.857C80.8283 21.3713 80.8283 19.9998 80.8283 18.5141C80.8283 18.1713 80.9426 18.057 81.2854 18.057C81.6283 18.057 81.7426 18.057 81.7426 18.5141C81.7426 19.657 81.7426 20.7998 81.7426 21.9427C81.7426 22.857 82.0854 23.1998 82.9997 23.1998C83.914 23.1998 84.714 23.1998 85.6283 23.1998C85.9712 23.1998 85.9712 23.1998 85.8569 22.857C85.6283 22.2855 85.2854 21.9427 84.8283 21.5998C84.4854 21.4855 84.5997 21.3713 84.8283 21.1427C85.0569 20.9141 85.1712 20.6855 85.2854 20.3427C85.3997 20.1141 85.6283 19.9998 85.9712 19.9998C86.4283 19.9998 86.7712 19.9998 87.114 20.2284C87.6854 20.5713 87.914 20.9141 87.6854 21.5998C87.5712 22.057 87.3426 22.5141 86.9997 22.857C86.9997 22.857 86.8854 22.9713 86.9997 23.0855C86.9997 23.0855 87.114 23.0855 87.2283 23.0855C87.7997 23.0855 88.4855 23.0855 89.0569 23.0855C89.2855 23.0855 89.3997 23.0855 89.3997 22.7427C89.3997 21.257 89.3997 19.8855 89.3997 18.3998C89.3997 18.057 89.3997 17.9427 89.8569 17.9427C90.1997 17.9427 90.314 17.9427 90.314 18.3998C90.314 19.5427 90.314 20.6855 90.314 21.8284C90.314 22.857 90.6569 23.1998 91.6854 23.1998C92.714 23.1998 92.3712 23.1998 92.5997 23.1998C92.9426 23.1998 92.9426 23.1998 92.9426 22.857C92.9426 21.4855 92.9426 19.9998 92.9426 18.6284C92.9426 17.257 93.2854 17.9427 93.7426 18.1713C93.8569 18.1713 93.7426 18.2855 93.7426 18.3998C93.7426 20.1141 93.7426 21.9427 93.7426 23.657C93.7426 23.7713 93.7426 23.8855 93.514 23.8855C92.714 23.8855 91.914 23.8855 91.114 23.8855C90.7712 23.8855 90.4283 23.657 90.1997 23.1998" fill="#736159"/>
<path d="M58.4282 12.57C58.4282 12.2271 58.4282 11.77 58.4282 11.4271C58.4282 11.1985 58.1997 10.97 57.8568 10.8557C57.514 10.8557 57.2854 10.97 57.1711 11.3128C56.9425 11.77 56.8282 12.2271 56.5997 12.6843C56.5997 12.9128 56.5997 13.0271 56.714 13.1414C57.1711 13.4843 57.6282 13.5985 58.1997 13.7128C58.4282 13.7128 58.4282 13.7128 58.4282 13.4843C58.4282 13.1414 58.4282 12.9128 58.4282 12.57ZM59.4568 13.8271C59.2282 14.5128 58.9997 14.5128 58.314 14.3985C57.9711 14.3985 57.514 14.2843 57.1711 14.17C56.8282 14.0557 56.4854 13.8271 56.2568 13.4843C56.0282 14.17 55.6854 14.5128 54.8854 14.5128C54.314 14.5128 53.7425 14.5128 53.2854 13.9414C53.2854 14.3224 53.0568 14.5128 52.5997 14.5128C52.1425 14.5128 51.6854 14.5128 51.2282 14.5128C50.6568 14.5128 50.1997 14.5128 49.8568 13.9414C49.8568 14.5128 49.8568 14.5128 49.2854 14.5128C47.3425 14.5128 45.3997 14.5128 43.4568 14.5128C42.7711 14.5128 42.4283 14.17 42.314 13.7128C42.314 13.37 42.314 13.1414 42.5425 12.7985C42.7711 12.4557 42.9997 12.1128 43.2282 11.8843C43.2282 11.8843 43.3425 11.6557 43.5711 11.77C43.6854 11.8843 43.5711 11.9985 43.5711 12.1128C43.5711 12.3414 43.3425 12.4557 43.3425 12.6843C43.114 13.37 43.3425 13.8271 44.1425 13.8271C45.1711 13.8271 46.314 13.8271 47.3425 13.8271C48.3711 13.8271 48.2568 13.8271 48.714 13.8271C49.0568 13.8271 49.1711 13.8271 49.1711 13.4843C49.1711 12.1128 49.1711 10.6271 49.1711 9.25569C49.1711 9.1414 49.1711 8.91283 49.1711 8.79854C49.3997 8.79854 49.6282 8.79854 49.8568 8.79854C49.9711 8.79854 49.8568 9.02711 49.8568 9.1414C49.8568 10.2843 49.8568 11.5414 49.8568 12.6843C49.8568 13.4843 50.1997 13.8271 50.9997 13.8271C51.3425 13.8271 51.6854 13.8271 52.1425 13.8271C52.4854 13.8271 52.4854 13.8271 52.4854 13.4843C52.4854 12.1128 52.4854 10.6271 52.4854 9.25569C52.4854 7.88426 52.4854 8.79854 52.9425 8.79854C53.2854 8.79854 53.3997 8.91283 53.3997 9.25569C53.3997 10.5128 53.3997 11.6557 53.3997 12.9128C53.3997 13.4843 53.6282 13.9414 54.0854 13.9414C54.8854 13.9414 55.2282 13.9414 55.5711 13.37C55.7997 12.7985 56.0282 12.2271 56.3711 11.77C56.714 11.0843 57.2854 10.6271 58.0854 10.6271C58.6568 10.6271 58.9997 10.8557 59.2282 11.4271C59.4568 11.8843 59.4568 12.4557 59.4568 12.9128C59.4568 13.5985 59.7997 13.9414 60.4854 13.9414C60.8282 13.9414 61.2854 13.9414 61.6282 13.9414C61.9711 13.9414 62.0854 13.8271 62.0854 13.4843C62.0854 11.9985 62.0854 10.6271 62.0854 9.1414C62.0854 9.02711 62.0854 8.79854 62.0854 8.79854C62.314 8.79854 62.5425 8.79854 62.7711 8.79854C62.7711 8.79854 62.7711 8.91283 62.7711 9.02711C62.7711 10.7414 62.7711 12.57 62.7711 14.2843C62.7711 14.5128 62.7711 14.6271 62.4282 14.6271C61.8568 14.6271 61.1711 14.6271 60.5997 14.6271C60.1425 14.6271 59.6854 14.5128 59.3425 13.9414" fill="#736159"/>
<path d="M49.6284 22.7404C49.6284 22.2833 49.5141 21.7118 49.1713 21.2547C48.9427 20.9118 48.7141 20.7975 48.3713 21.0261C48.1427 21.1404 48.0284 21.4833 48.257 21.8261C48.4855 22.2833 48.9427 22.6261 49.3998 22.969C49.6284 23.0833 49.6284 22.969 49.6284 22.7404ZM37.5141 23.0833C37.6284 23.0833 37.9713 23.1975 37.9713 22.8547C37.9713 22.2833 37.9713 21.7118 37.6284 21.1404C37.5141 20.9118 37.2855 20.7975 37.057 20.9118C36.5998 21.1404 36.1427 21.8261 36.257 22.3975C36.257 22.8547 36.7141 23.0833 37.3998 23.0833M48.7141 23.0833C48.7141 22.8547 48.5998 22.8547 48.4855 22.7404C48.1427 22.5118 47.9141 22.2833 47.7998 21.9404C47.457 21.369 47.6855 20.7975 48.1427 20.4547C48.7141 20.1118 49.3998 20.1118 49.857 20.6833C50.1998 21.1404 50.3141 21.5975 50.4284 22.0547C50.5427 22.8547 50.8855 23.0833 51.6855 23.0833C52.0284 23.0833 52.3713 23.0833 52.8284 23.0833C53.1713 23.0833 53.2855 23.0833 53.1713 22.7404C53.1713 22.2833 53.1713 21.9404 53.1713 21.4833C53.1713 21.0261 53.3998 21.1404 53.7427 21.1404C53.9713 21.1404 54.1998 21.1404 54.0855 21.4833C54.0855 21.7118 54.0855 21.9404 54.0855 22.169C54.0855 22.7404 54.4284 23.1975 55.1141 23.1975C55.5713 23.1975 55.9141 23.1975 56.3713 23.1975C56.5998 23.1975 56.7141 23.1975 56.7141 22.8547C56.7141 21.369 56.7141 19.9975 56.7141 18.5118C56.7141 18.3975 56.7141 18.169 56.7141 18.0547C56.9427 18.0547 57.1713 18.0547 57.3998 18.0547C57.5141 18.0547 57.3998 18.169 57.3998 18.2833C57.3998 19.9975 57.3998 21.8261 57.3998 23.5404C57.3998 23.769 57.3998 23.769 57.1713 23.769C56.4855 23.769 55.7998 23.769 55.1141 23.769C54.657 23.769 54.3141 23.5404 54.0855 23.1975C54.0094 23.5785 53.7427 23.769 53.2855 23.769H51.7998C51.1141 23.769 50.8855 23.769 50.4284 23.0833C50.3141 23.6547 49.857 23.769 49.3998 23.769C48.5998 23.769 47.9141 23.769 47.1141 23.769C46.4284 23.769 45.857 23.769 45.3998 23.1975C45.3998 23.769 45.3998 23.769 44.8284 23.769C44.257 23.769 43.7998 23.769 43.3427 23.769C42.7713 23.769 42.3141 23.769 41.9713 23.1975C41.9713 23.5785 41.7427 23.769 41.2855 23.769C39.7998 23.769 38.4284 23.769 36.9427 23.769C36.257 23.769 35.9141 23.5404 35.6855 22.969C35.6855 22.7404 35.6855 22.6261 35.6855 22.3975C35.9141 21.5975 36.4855 20.9118 37.1713 20.569C37.7427 20.3404 38.3141 20.569 38.657 21.0261C38.9998 21.4833 39.1141 21.9404 39.1141 22.5118C39.1141 23.0833 39.1141 23.0833 39.6855 23.0833C40.257 23.0833 40.257 23.0833 40.5998 23.0833C40.9427 23.0833 41.057 22.969 41.057 22.6261C41.057 22.169 41.057 21.8261 41.057 21.369C41.057 20.9118 41.2855 21.0261 41.5141 21.0261C41.7427 21.0261 41.9713 21.0261 41.857 21.369C41.857 21.5975 41.857 21.8261 41.857 22.0547C41.857 22.6261 42.3141 22.969 42.8855 22.969C43.3427 22.969 43.7998 22.969 44.257 22.969C44.4855 22.969 44.5998 22.969 44.5998 22.6261C44.5998 22.169 44.5998 21.7118 44.5998 21.2547C44.5998 20.9118 44.8284 21.0261 45.057 21.0261C45.2855 21.0261 45.5141 21.0261 45.5141 21.369C45.5141 21.7118 45.5141 21.9404 45.5141 22.2833C45.5141 22.7404 45.857 22.969 46.3141 23.0833C47.2284 23.0833 48.0284 23.0833 48.9427 23.0833" fill="#736159"/>
<path d="M76.4858 13.2564C76.8287 13.0278 76.943 12.6849 76.943 12.2278C76.943 11.7706 76.7144 11.5421 76.143 11.4278C75.9144 11.4278 75.5715 11.6564 75.4573 11.9992C75.4573 11.9992 75.4573 12.1135 75.4573 12.2278C75.9144 12.4564 76.0287 12.9135 76.2572 13.3706M71.4573 13.8278C71.5715 13.8278 71.9144 13.9421 71.9144 13.7135C71.9144 13.1421 71.9144 12.5706 71.6858 11.9992C71.5715 11.6564 71.2287 11.6564 71.0001 11.8849C70.6572 12.1135 70.4287 12.4564 70.3144 12.9135C70.2001 13.4849 70.543 13.9421 71.1144 13.9421C71.1144 13.9421 71.343 13.9421 71.4573 13.9421M82.6572 12.6849C82.6572 12.2278 82.6572 11.7706 82.543 11.3135C82.543 11.0849 82.3144 10.8564 81.9715 10.8564C81.6287 10.8564 81.5144 10.9706 81.2858 11.1992C81.0572 11.4278 80.943 11.7706 80.943 12.1135C80.6001 13.0278 80.7144 13.1421 81.6287 13.4849C81.6287 13.4849 81.743 13.4849 81.8572 13.4849C82.3906 13.6373 82.6572 13.4468 82.6572 12.9135V12.6849ZM80.4858 13.4849C80.2573 14.3992 79.5715 14.6278 78.7715 14.5135C78.7715 14.5135 78.6572 14.5135 78.543 14.5135C77.8572 14.5135 77.0572 14.6278 76.3715 14.2849C75.8001 14.6278 75.2287 14.5135 74.6572 14.5135C73.4001 14.5135 72.0287 14.5135 70.7715 14.5135C69.743 14.5135 69.2858 13.8278 69.6287 12.7992C69.8572 12.2278 70.3144 11.7706 70.8858 11.4278C71.5715 11.0849 72.2573 11.1992 72.6001 11.8849C72.8287 12.3421 72.943 12.7992 72.943 13.3706C72.943 13.7135 73.0572 13.8278 73.4001 13.8278C74.2001 13.8278 75.0001 13.8278 75.8001 13.8278C76.143 13.8278 76.143 13.7135 76.0287 13.4849C75.8001 12.9135 75.4573 12.5706 74.8858 12.2278C74.6573 12.1135 74.6573 11.9992 74.8858 11.7706C75.1144 11.4278 75.343 11.0849 75.5715 10.8564C75.5715 10.8564 75.6858 10.6278 75.8001 10.7421C76.3715 10.7421 76.8287 10.7421 77.2858 11.0849C77.743 11.3135 77.9715 11.7706 77.8572 12.2278C77.743 12.7992 77.4001 13.3706 76.943 13.8278C77.743 13.8278 78.4287 13.8278 79.1144 13.8278C79.343 13.8278 79.4572 13.5992 79.5715 13.3706C79.8001 12.9135 80.0287 12.4564 80.143 11.9992C80.2572 11.6564 80.4858 11.3135 80.7144 11.0849C81.1715 10.6278 81.743 10.3992 82.4287 10.5135C83.0001 10.6278 83.2287 11.0849 83.343 11.6564C83.4573 12.4564 83.343 13.2564 83.343 13.9421C83.343 14.2849 83.1144 14.5135 82.7715 14.5135C82.0858 14.5135 81.4001 14.3992 80.8287 14.0564C80.6001 14.0564 80.4858 13.7135 80.2572 13.4849" fill="#736159"/>
<path d="M12.9427 13.0265C12.9427 12.7979 12.9427 12.3407 12.7142 11.9979C12.5999 11.7693 12.3713 11.655 12.1427 11.655C11.6856 11.7693 11.2285 12.5693 11.3427 13.0265C11.3427 13.4836 11.7999 13.7122 12.4856 13.7122C12.8665 13.7122 13.057 13.4455 13.057 12.9122M16.4856 13.8265C16.4094 14.2836 16.1427 14.5122 15.6856 14.5122C14.3142 14.5122 13.057 14.5122 11.6856 14.5122C10.657 14.5122 10.1999 13.8265 10.5427 12.7979C10.7713 12.2265 11.2285 11.7693 11.7999 11.4265C12.4856 11.0836 13.057 11.1979 13.3999 11.8836C13.7427 12.3407 13.857 12.7979 13.7427 13.3693C13.7427 13.7122 13.7427 13.8265 14.1999 13.8265C14.5427 13.8265 15.1142 13.9407 15.3427 13.8265C15.5713 13.5979 15.3427 13.1407 15.3427 12.6836C15.3427 11.4265 15.3427 10.2836 15.3427 9.02645C15.3427 8.68359 15.457 8.68359 15.7999 8.68359C16.0285 8.68359 16.257 8.68359 16.257 9.02645C16.257 10.1693 16.257 11.3122 16.257 12.455C16.257 12.6836 16.257 12.7979 16.257 13.0265C16.257 13.5979 16.7142 13.8265 17.1713 13.8265C17.6285 13.8265 18.0856 13.8265 18.5427 13.8265C18.8856 13.8265 18.8856 13.8265 18.8856 13.4836C18.8856 11.9979 18.8856 10.6265 18.8856 9.14074C18.8856 8.79788 18.8856 8.68359 19.3427 8.68359C19.6856 8.68359 19.7999 8.68359 19.7999 9.14074C19.7999 10.855 19.7999 12.455 19.7999 14.1693C19.7999 14.5122 19.7999 14.6265 19.3427 14.5122C18.7713 14.5122 18.1999 14.5122 17.7427 14.5122C17.1713 14.5122 16.7142 14.5122 16.3713 13.8265" fill="#736159"/>
<path d="M31.9144 13.9403C31.8382 14.3212 31.6096 14.5117 31.2286 14.5117C30.6572 14.5117 29.9715 14.5117 29.4001 14.5117C28.8286 14.5117 28.3715 14.5117 28.0286 13.9403C28.0286 14.3212 27.8001 14.5117 27.3429 14.5117C26.6572 14.5117 25.9715 14.5117 25.2858 14.5117C24.9429 14.5117 24.7144 14.5117 24.6001 14.1689C24.4858 13.826 24.6001 13.5974 24.7144 13.3689C24.7144 13.3689 24.7144 13.2546 24.9429 13.2546C25.0572 13.2546 25.0572 13.3689 24.9429 13.4831C24.9429 13.826 24.9429 13.826 25.2858 13.826C25.7429 13.826 26.3144 13.826 26.7715 13.826C27.0001 13.826 27.1144 13.826 27.1144 13.4831C27.1144 12.6831 27.1144 11.7689 27.1144 10.9689C27.1144 10.5117 27.3429 10.626 27.5715 10.5117C27.9144 10.5117 28.0286 10.5117 28.0286 10.9689C28.0286 11.5403 28.0286 12.1117 28.0286 12.6831C28.0286 13.3689 28.3715 13.826 29.1715 13.826C29.7429 13.826 30.3144 13.826 30.8858 13.826C31.1144 13.826 31.2286 13.826 31.2286 13.4831C31.2286 13.026 31.2286 12.5689 31.2286 12.1117C31.2286 11.6546 31.4572 11.7689 31.6858 11.7689C31.9144 11.7689 32.1429 11.7689 32.0286 12.1117C32.0286 12.3403 32.0286 12.5689 32.0286 12.9117C32.0286 13.3689 32.3715 13.7117 32.7144 13.826C32.9429 13.826 34.7715 13.826 35.0001 13.826C34.5429 13.3689 34.3144 12.7974 34.3144 12.226C34.3144 11.426 34.7715 10.8546 35.6858 10.626C36.3715 10.626 37.0572 10.626 37.6286 10.9689C37.6286 10.9689 37.8572 10.9689 37.7429 11.0831C37.7429 11.1974 37.6286 11.0831 37.5144 11.0831C37.0572 11.0831 36.6001 10.8546 36.1429 11.0831C35.5715 11.1974 35.2286 11.5403 35.2286 12.226C35.2286 13.2546 35.9144 13.826 36.9429 13.826C37.1715 13.826 37.5144 13.826 37.7429 13.826C37.9715 13.826 37.9715 13.9403 37.9715 14.1689C37.9715 14.3974 37.9715 14.5117 37.7429 14.5117C36.1429 14.5117 34.5429 14.5117 32.9429 14.5117C32.4858 14.5117 32.2572 14.2831 31.9144 13.9403Z" fill="#736159"/>
<path d="M91.5711 13.7112C90.9997 13.254 90.6568 12.6826 90.4282 11.9969C90.1997 11.4254 89.8568 11.0826 89.2854 10.9683C89.1711 10.9683 88.9425 10.9683 89.0568 10.7397C89.0568 10.5112 89.2854 10.7397 89.3996 10.7397C90.1996 10.7397 90.7711 11.3112 91.2282 11.9969C91.3425 12.2254 91.4568 12.454 91.5711 12.6826C91.9139 13.254 92.3711 13.5969 93.0568 13.8254C93.3997 13.8254 93.3996 14.1683 93.3996 14.3969C93.3996 14.7397 93.1711 14.6254 92.9425 14.6254C90.7711 14.6254 88.7139 14.6254 86.5425 14.6254C84.3711 14.6254 85.5139 14.2826 85.5139 13.5969C85.5139 12.1112 85.5139 10.5112 85.5139 9.02545C85.5139 8.79688 85.5139 8.79688 85.7425 8.79688C86.3139 8.79688 86.3139 8.79688 86.3139 9.3683C86.3139 10.7397 86.3139 12.1112 86.3139 13.4826C86.3139 13.8254 86.3139 13.9397 86.6568 13.9397C88.1425 13.9397 89.6282 13.9397 91.1139 13.9397C91.1139 13.9397 91.3425 13.9397 91.4568 13.9397" fill="#736159"/>
<path d="M73.0571 22.0552C73.0571 21.5981 73.0571 21.141 73.0571 20.7981C73.0571 20.4552 72.8285 20.2267 72.4856 20.1124C72.1428 20.1124 71.9142 20.341 71.7999 20.5695C71.5713 21.0267 71.4571 21.4838 71.3428 21.941C71.2285 22.2838 71.2285 22.3981 71.6856 22.5124C71.9142 22.5124 72.1428 22.6267 72.3713 22.741C72.7142 22.741 73.0571 23.1981 73.2856 22.9695C73.5142 22.8552 73.2856 22.3981 73.2856 22.0552M69.3999 25.5981C69.3999 25.0267 69.3999 24.341 69.3999 23.541C69.3999 23.1981 69.6285 22.8552 69.8571 22.6267C70.0856 22.5124 70.1999 22.2838 70.3142 22.0552C70.5428 21.4838 70.7713 21.0267 71.1142 20.5695C71.4571 20.1124 71.9142 19.8838 72.4856 19.7695C73.0571 19.7695 73.5142 19.9981 73.7428 20.5695C74.0856 21.4838 73.9713 22.5124 73.8571 23.541C73.8571 23.8838 73.5142 23.9981 73.0571 23.8838C72.5999 23.7695 72.2571 23.541 71.7999 23.4267C71.5713 23.4267 71.2285 23.1981 70.9999 23.1981C70.5428 23.1981 70.1999 23.4267 70.1999 23.8838C70.1999 24.6838 70.1999 25.4838 70.1999 26.2838C70.1999 26.5124 70.1999 26.741 70.1999 26.9695C70.1999 27.1981 70.0856 27.4267 69.8571 27.541C69.7428 27.541 69.6285 27.7695 69.3999 27.6552C69.2856 27.6552 69.3999 27.4267 69.3999 27.3124C69.3999 26.8552 69.3999 26.2838 69.3999 25.7124" fill="#736159"/>
<path d="M63.9144 22.512C63.9144 22.0548 63.9144 21.712 63.6858 21.3691C63.5715 21.1406 63.3429 21.0263 63.1144 21.0263C62.6572 21.1406 62.2001 21.9406 62.3144 22.3977C62.3144 22.8548 62.7715 23.0834 63.3429 23.0834C64.0287 23.0834 63.9144 23.0834 63.9144 22.512ZM64.8287 22.8548C64.8287 23.5406 64.8287 24.2263 64.4858 24.7977C64.0287 26.0548 63.1144 26.7406 61.8572 27.1977H61.6287C61.6287 27.0834 61.6287 26.9691 61.8572 26.9691C62.8858 26.3977 63.5715 25.4834 63.6858 24.3406C63.6858 23.8834 63.6858 23.8834 63.3429 23.8834C63.0001 23.8834 62.6572 23.8834 62.3144 23.8834C61.5144 23.8834 61.1715 23.312 61.4001 22.512C61.6287 21.712 62.2001 21.0263 63.0001 20.6834C63.5715 20.4548 64.0287 20.6834 64.4858 21.1406C64.8287 21.5977 64.9429 22.2834 64.8287 22.8548Z" fill="#736159"/>
<path d="M11.2287 32.5689C11.6858 31.9974 12.0287 31.426 12.4858 30.9689C12.7144 30.6641 13.0573 30.5117 13.5144 30.5117C13.5144 30.626 13.5144 30.7403 13.4001 30.8546C12.943 31.426 12.4858 31.9974 12.143 32.5689C12.0287 32.7974 12.0287 32.9117 12.143 33.026C12.6001 33.7117 13.1715 34.3974 13.6287 35.0831C13.6287 35.0831 13.8573 35.3117 13.743 35.426C13.743 35.426 13.5144 35.426 13.4001 35.426C13.0573 35.426 12.8287 35.426 12.7144 35.0831C12.2573 34.3974 11.8001 33.826 11.343 33.1403C11.2287 33.1403 11.343 33.3689 11.343 33.4831C11.343 34.0546 11.343 34.626 11.343 35.1974C11.343 35.5403 11.1144 35.426 10.8858 35.426C10.6573 35.426 10.543 35.426 10.543 35.1974C10.543 33.7117 10.543 32.226 10.543 30.8546C10.543 30.5117 10.7715 30.626 10.8858 30.626C11.0001 30.626 11.343 30.626 11.2287 30.8546C11.2287 31.426 11.2287 31.9974 11.2287 32.6831" fill="#736159"/>
<path d="M59.1141 32.5699C59.1141 33.1413 59.1141 33.7127 59.1141 34.2842C59.1141 34.9699 58.6569 35.427 57.8569 35.5413C56.2569 35.6556 55.7998 35.1984 55.7998 33.7127C55.7998 32.7984 55.7998 31.8842 55.7998 30.9699C55.7998 30.7413 55.7998 30.5127 56.1427 30.5127C56.4855 30.5127 56.4855 30.7413 56.4855 30.9699C56.4855 31.9984 56.4855 33.1413 56.4855 34.1699C56.4855 34.9699 56.8284 35.3127 57.5141 35.1984C57.8569 35.1984 58.0855 34.9699 58.1998 34.627C58.1998 34.3984 58.1998 34.1699 58.1998 33.9413C58.1998 32.9127 58.1998 31.8842 58.1998 30.8556C58.1998 30.5127 58.1998 30.3984 58.5427 30.3984C58.8855 30.3984 58.8855 30.5127 58.8855 30.8556C58.8855 31.427 58.8855 31.8842 58.8855 32.4556L59.1141 32.5699Z" fill="#736159"/>
<path d="M88.9429 42.4C88.9429 42.0572 88.9429 41.7143 88.8286 41.4858C88.8286 41.2572 88.6 41.0286 88.2572 41.0286C87.9143 41.0286 87.8 41.1429 87.6857 41.4858C87.4572 42.0572 87.4572 42.7429 87.6857 43.3143C87.6857 43.5429 87.9143 43.7715 88.2572 43.7715C88.6 43.7715 88.7143 43.6572 88.8286 43.3143C88.8286 43.0858 88.9429 42.7429 88.9429 42.5143M88.9429 43.6572C88.2572 44.3429 87 44.1143 86.8857 42.9715C86.8857 42.5143 86.8857 42.0572 86.8857 41.7143C86.8857 41.2572 87.1143 40.8 87.6857 40.6858C88.1429 40.5715 88.7143 40.6858 88.9429 41.1429C89.0572 41.0286 88.9429 40.6858 89.2857 40.6858C89.7429 40.6858 89.7429 40.6858 89.7429 41.1429C89.7429 42.1715 89.7429 43.0858 89.7429 44.1143C89.7429 45.0286 89.4 45.6 88.6 45.7143C88.1429 45.7143 87.6857 45.7143 87.3429 45.7143C87.1143 45.7143 87 45.3715 87.1143 45.1429C87.1143 45.0286 87.2286 45.1429 87.3429 45.1429C87.5715 45.2572 87.8 45.3715 88.0286 45.3715C88.6 45.3715 88.9429 45.2572 89.0572 44.6858C89.0572 44.3429 89.0572 44 89.0572 43.6572" fill="#736159"/>
<path d="M22.314 33.7131C22.314 33.4845 22.314 33.1417 22.1997 32.9131C22.1997 32.6845 21.9711 32.456 21.6283 32.456C21.2854 32.456 21.1711 32.5702 21.0569 32.9131C20.8283 33.4845 20.8283 34.1702 21.0569 34.7417C21.0569 34.9702 21.3997 35.1988 21.6283 35.1988C21.9711 35.1988 22.0854 35.0845 22.1997 34.7417C22.314 34.3988 22.314 34.1702 22.314 33.7131ZM22.314 34.9703C21.8569 35.4274 21.3997 35.5417 20.8283 35.3131C20.3711 35.0845 20.1426 34.6274 20.1426 34.1702C20.1426 33.8274 20.1426 33.5988 20.1426 33.256C20.1426 32.6845 20.3712 32.2274 20.9426 32.1131C21.514 31.8845 21.9711 32.1131 22.314 32.5702C22.4283 32.456 22.314 32.1131 22.6569 32.1131C22.9997 32.1131 23.114 32.1131 23.114 32.5702C23.114 33.5988 23.114 34.6274 23.114 35.656C23.114 36.7988 22.6569 37.256 21.514 37.256C21.2854 37.256 20.9426 37.256 20.714 37.256C20.5997 37.256 20.4854 37.256 20.4854 37.0274C20.4854 36.9131 20.4854 36.7988 20.4854 36.6845C20.4854 36.6845 20.714 36.6845 20.8283 36.6845C20.9426 36.6845 21.1711 36.7988 21.2854 36.7988C21.8569 36.9131 22.1997 36.7988 22.314 36.1131C22.314 35.7703 22.314 35.5417 22.314 35.0845" fill="#736159"/>
<path d="M27.9141 31.3116C27.9141 31.3116 27.9141 31.3116 27.7998 31.3116C27.5713 31.9973 27.3427 32.683 27.1141 33.3688C27.1141 33.483 27.1141 33.5973 27.3427 33.5973C27.6856 33.5973 28.0284 33.5973 28.3713 33.5973C28.4856 33.5973 28.5998 33.5973 28.5998 33.3688C28.3713 32.683 28.1427 31.9973 28.0284 31.3116M27.9141 30.5116C28.257 30.5116 28.3713 30.5116 28.3713 30.8545C28.8284 32.2259 29.2856 33.7116 29.7427 35.083C29.7427 35.083 29.9713 35.4259 29.7427 35.4259C29.5141 35.4259 29.1713 35.6545 29.057 35.3116C28.9427 34.9687 28.8284 34.6259 28.7141 34.283C28.7141 34.0545 28.5998 33.9402 28.257 33.9402C27.9141 33.9402 27.457 33.9402 27.1141 33.9402C26.8856 33.9402 26.7713 33.9402 26.657 34.283C26.657 34.6259 26.4284 34.9687 26.3141 35.1973C26.3141 35.5402 25.9713 35.4259 25.7427 35.4259C25.5141 35.4259 25.7427 35.1973 25.7427 35.083C26.1998 33.7116 26.657 32.3402 27.1141 30.8545C27.1141 30.5116 27.3427 30.3973 27.6856 30.5116" fill="#736159"/>
<path d="M36.3711 33.7117C36.3711 33.3689 36.3711 33.026 36.2568 32.6831C36.2568 32.4546 36.0282 32.226 35.6854 32.226C35.3425 32.226 35.2282 32.3403 35.1139 32.6831C34.8854 33.3689 34.8854 34.0546 35.1139 34.626C35.1139 34.8546 35.4568 35.0831 35.6854 34.9689C35.9139 34.9689 36.1425 34.7403 36.2568 34.5117C36.3711 34.1689 36.3711 33.826 36.3711 33.5974M36.4854 32.4546C36.4854 31.8831 36.4854 31.426 36.4854 30.8546C36.4854 30.626 36.4854 30.5117 36.8282 30.5117C37.1711 30.5117 37.1711 30.626 37.1711 30.8546C37.1711 32.226 37.1711 33.5974 37.1711 34.9689C37.1711 35.0831 37.1711 35.426 36.9425 35.426C36.714 35.426 36.4854 35.426 36.4854 35.0831C36.2568 35.3117 36.1425 35.5403 35.7997 35.5403C35.114 35.5403 34.6568 35.3117 34.4282 34.626C34.4282 34.1689 34.3139 33.7117 34.4282 33.2546C34.4282 32.7974 34.6568 32.3403 35.2282 32.1117C35.6854 31.9974 36.0282 32.1117 36.5997 32.5689" fill="#736159"/>
<path d="M56.1429 42.4002C56.1429 42.0574 56.1429 41.7145 56.0286 41.4859C56.0286 41.2574 55.8 41.0288 55.4571 41.0288C55.2286 41.0288 55 41.1431 54.8857 41.4859C54.6571 42.1716 54.6571 42.7431 54.8857 43.4288C54.8857 43.6574 55.2286 43.8859 55.4571 43.8859C55.6857 43.8859 55.9143 43.7717 56.0286 43.4288C56.1429 43.0859 56.1429 42.7431 56.1429 42.4002ZM56.1429 41.0288C56.1429 40.5717 56.1429 40.0002 56.1429 39.5431C56.1429 39.2002 56.2571 39.0859 56.6 39.0859C56.8286 39.0859 56.8286 39.0859 56.8286 39.3145C56.8286 40.8002 56.8286 42.2859 56.8286 43.7716C56.8286 44.0002 56.8286 44.1145 56.6 44.0002C56.3714 44.0002 56.1429 44.0002 56.1429 43.7716C56.1429 43.7716 56.1429 43.7716 56.1429 43.5431C55.9143 43.7716 55.6857 44.0002 55.4571 44.1145C54.7714 44.1145 54.3143 43.8859 54.0857 43.2002C53.9714 42.7431 53.9714 42.1717 54.0857 41.7145C54.0857 41.2574 54.4286 40.8002 54.8857 40.6859C55.3429 40.5716 55.8 40.5717 56.1429 41.1431" fill="#736159"/>
<path d="M70.4284 41.3706C70.657 41.2564 70.7712 41.0278 70.9998 40.7992C71.3427 40.5706 71.6855 40.4564 72.0284 40.6849C72.3712 40.7992 72.4855 41.1421 72.4855 41.5992C72.4855 42.3992 72.4855 43.0849 72.4855 43.8849C72.4855 44.2278 72.257 44.1135 72.1427 44.1135C71.9141 44.1135 71.7998 44.1135 71.7998 43.7706C71.7998 43.0849 71.7998 42.5135 71.7998 41.8278C71.7998 41.4849 71.7998 41.1421 71.457 41.1421C71.1141 41.1421 70.8855 41.2564 70.657 41.5992C70.5427 41.9421 70.4284 42.2849 70.4284 42.6278C70.4284 42.9706 70.4284 43.3135 70.4284 43.7706C70.4284 43.9992 70.4284 44.2278 70.0855 44.2278C69.7427 44.2278 69.7427 44.1135 69.7427 43.7706C69.7427 42.3992 69.7427 40.9135 69.7427 39.5421C69.7427 39.1992 69.857 39.1992 70.0855 39.1992C70.3141 39.1992 70.4284 39.1992 70.4284 39.5421C70.4284 40.2278 70.4284 40.7992 70.4284 41.4849" fill="#736159"/>
<path d="M50.5427 32.7974C50.657 32.6831 50.7713 32.4546 50.8856 32.3403C51.2284 31.9974 51.5713 31.9974 52.0284 32.1117C52.3713 32.226 52.4856 32.6831 52.4856 33.026C52.4856 33.826 52.4856 34.5117 52.4856 35.3117C52.4856 35.6546 52.257 35.5403 52.1427 35.5403C51.9141 35.5403 51.7998 35.5403 51.7998 35.3117C51.7998 34.626 51.7998 33.9403 51.7998 33.3689C51.7998 33.1403 51.7998 32.7974 51.457 32.6831C51.1141 32.6831 50.8856 32.6831 50.657 33.026C50.4284 33.3689 50.3141 33.7117 50.3141 34.0546C50.3141 34.3974 50.3141 34.8546 50.3141 35.1974C50.3141 35.426 50.3141 35.5403 49.9713 35.5403C49.6284 35.5403 49.6284 35.426 49.6284 35.1974C49.6284 33.9403 49.6284 32.6831 49.6284 31.3117C49.6284 29.9403 49.6284 30.9689 49.6284 30.8546C49.6284 30.5117 49.857 30.626 49.9713 30.5117C50.1998 30.5117 50.3141 30.5117 50.3141 30.8546C50.3141 31.426 50.3141 31.8831 50.3141 32.4546C50.3141 32.5689 50.3141 32.6831 50.3141 32.7974" fill="#736159"/>
<path d="M21.6286 43.3116C21.9715 43.4259 22.3143 43.6545 22.6572 43.6545C22.8857 43.6545 23.1143 43.6545 23.3429 43.6545C23.9143 43.5402 24.1429 42.8545 23.6857 42.3973C23.5715 42.1687 23.3429 42.0545 23.1143 41.9402C22.7715 41.7116 22.5429 41.5973 22.2 41.3688C21.6286 41.0259 21.4 40.4545 21.6286 39.7688C21.7429 39.3116 22.3143 38.9688 22.8857 38.9688C23.2286 38.9688 23.6857 38.9688 24.0286 38.9688C24.3715 38.9688 24.2572 39.3116 24.2572 39.4259C24.2572 39.6545 24.0286 39.4259 23.9143 39.4259C23.5715 39.4259 23.3429 39.1973 23 39.1973C22.6572 39.1973 22.4286 39.3116 22.2 39.6545C22.0857 39.9973 22.2 40.2259 22.5429 40.4545C22.7715 40.5688 23 40.7973 23.2286 40.9116C23.4572 41.0259 23.6857 41.1402 23.9143 41.3688C24.4857 41.7116 24.6 42.283 24.4857 42.8545C24.3715 43.4259 23.9143 43.6545 23.3429 43.7688C22.8857 43.7688 22.4286 43.7688 21.9715 43.7688C21.4 43.7688 21.4 43.6545 21.5143 42.9687" fill="#736159"/>
<path d="M32.8287 33.827C32.8287 33.4842 32.8287 33.1413 32.7144 32.9127C32.7144 32.5699 32.3715 32.4556 32.143 32.4556C31.8001 32.4556 31.5715 32.6842 31.5715 33.027C31.343 33.7127 31.343 34.2842 31.5715 34.9699C31.5715 35.3127 31.9144 35.427 32.143 35.427C32.4858 35.427 32.6001 35.1984 32.7144 34.9699C32.8287 34.627 32.943 34.2842 32.8287 33.9413M31.2287 32.4556C31.5715 32.227 31.6858 31.9984 32.0287 31.9984C32.7144 31.9984 33.1715 32.227 33.4001 32.9127C33.5144 33.4842 33.5144 34.0556 33.4001 34.627C33.1715 35.3127 32.6001 35.6556 31.5715 35.5413C30.8858 35.5413 30.543 35.0842 30.543 34.2842C30.543 33.1413 30.543 31.9984 30.543 30.7413C30.543 30.5127 30.6573 30.3984 30.8858 30.3984C31.1144 30.3984 31.2287 30.3984 31.2287 30.7413C31.2287 31.3127 31.2287 31.7699 31.2287 32.4556Z" fill="#736159"/>
<path d="M64.4858 11.9979C64.4858 10.9693 64.4858 10.055 64.4858 9.02645C64.4858 8.79788 64.4858 8.68359 64.8287 8.68359C64.943 8.68359 65.0573 8.68359 65.1716 8.68359C65.2858 8.68359 65.4001 8.68359 65.4001 8.91217C65.4001 10.7407 65.4001 12.5693 65.4001 14.3979C65.4001 14.7407 65.1716 14.9693 64.943 15.1979C64.6001 15.3122 64.6001 15.1979 64.6001 14.9693C64.6001 13.9407 64.6001 13.0265 64.6001 11.9979" fill="#736159"/>
<path d="M59.1143 21.2557C59.1143 20.2271 59.1143 19.3128 59.1143 18.2843C59.1143 17.9414 59.1143 17.9414 59.4571 17.9414C59.6857 17.9414 60.0285 17.9414 60.0285 18.2843C60.0285 19.9985 60.0285 21.8271 60.0285 23.5414C60.0285 23.9985 59.9143 24.3414 59.4571 24.4557C59.2285 24.4557 59.1143 24.4557 59.1143 24.2271C59.1143 23.1985 59.1143 22.17 59.1143 21.2557Z" fill="#736159"/>
<path d="M21.5142 11.9969C21.5142 11.0826 21.5142 10.054 21.5142 9.13973C21.5142 8.79688 21.7427 8.79688 21.9713 8.79688C22.1999 8.79688 22.4284 8.79688 22.4284 9.13973C22.4284 10.854 22.4284 12.454 22.4284 14.1683C22.4284 14.6254 22.4284 14.9683 21.9713 15.1969C21.9713 15.1969 21.7427 15.3112 21.6284 15.1969C21.5142 15.1969 21.6284 14.9683 21.6284 14.854C21.6284 13.8254 21.6284 12.9112 21.6284 11.8826" fill="#736159"/>
<path d="M34.6569 41.4855C34.8855 41.2569 34.9998 41.0283 35.114 40.914C35.4569 40.6855 35.7998 40.5712 36.1426 40.6855C36.4855 40.6855 36.5998 41.1426 36.714 41.4855C36.714 42.2855 36.714 43.0855 36.714 43.8855C36.714 44.2283 36.4855 44.114 36.3712 44.114C36.1426 44.114 36.0283 44.114 36.0283 43.8855C36.0283 43.1997 36.0283 42.6283 36.0283 41.9426C36.0283 41.5997 36.0283 41.2569 35.6855 41.1426C35.3426 41.1426 35.114 41.2569 34.8855 41.714C34.7712 42.0569 34.6569 42.2855 34.6569 42.6283C34.6569 42.9712 34.6569 43.314 34.6569 43.7712C34.6569 43.9997 34.6569 44.2283 34.314 44.2283C33.9712 44.2283 33.9712 44.114 33.9712 43.7712C33.9712 42.8569 33.9712 42.0569 33.9712 41.1426C33.9712 40.7997 33.9712 40.7997 34.314 40.7997C34.5426 40.7997 34.6569 40.7997 34.6569 41.1426C34.6569 41.1426 34.6569 41.3712 34.6569 41.5997" fill="#736159"/>
<path d="M40.3711 34.74C40.0282 35.1971 39.6854 35.54 39.114 35.54C38.6568 35.54 38.4283 35.3114 38.314 34.8542C38.314 34.6257 38.314 34.5114 38.314 34.2828C38.314 33.7114 38.314 33.0257 38.314 32.4542C38.314 32.1114 38.314 31.9971 38.7711 31.9971C38.9997 31.9971 38.9997 31.9971 38.9997 32.34C38.9997 33.0257 38.9997 33.5971 38.9997 34.2828C38.9997 34.6257 38.9997 34.8542 39.3425 34.9685C39.5711 34.9685 39.914 34.9685 40.1425 34.5114C40.2568 34.1685 40.3711 33.8257 40.3711 33.4828C40.3711 33.14 40.3711 32.7971 40.3711 32.34C40.3711 31.8828 40.3711 31.8828 40.8282 31.8828C40.9425 31.8828 41.0568 31.8828 41.0568 32.1114C41.0568 33.14 41.0568 34.0542 41.0568 35.0828C41.0568 35.4257 40.8282 35.3114 40.714 35.3114C40.5997 35.3114 40.3711 35.3114 40.3711 35.0828C40.3711 34.9685 40.3711 34.74 40.3711 34.6257" fill="#736159"/>
<path d="M17.1715 32.7973C17.2858 32.7973 17.4001 32.5687 17.5144 32.4544C17.8572 32.1115 18.3144 31.883 18.7715 32.1115C19.1144 32.2258 19.343 32.5687 19.343 33.1401C19.343 33.8258 19.343 34.5115 19.343 35.1973C19.343 35.4258 19.343 35.5401 19.0001 35.5401C18.6572 35.5401 18.6572 35.4258 18.6572 35.1973C18.6572 34.6258 18.6572 33.9401 18.6572 33.3687C18.6572 33.0258 18.6572 32.7973 18.3144 32.5687C17.9715 32.5687 17.743 32.5687 17.5144 33.0258C17.2858 33.483 17.2858 33.9401 17.2858 34.3973C17.2858 34.6258 17.2858 34.8544 17.2858 35.083C17.2858 35.3115 17.2858 35.4258 16.943 35.4258C16.6001 35.4258 16.6001 35.3115 16.6001 35.083C16.6001 34.1687 16.6001 33.3687 16.6001 32.4544C16.6001 32.2258 16.6001 32.1115 16.943 32.1115C17.1715 32.1115 17.2858 32.1115 17.2858 32.4544C17.2858 32.4544 17.2858 32.683 17.2858 32.7973" fill="#736159"/>
<path d="M50.9997 41.3703C51.3426 40.9132 51.5711 40.5703 52.1426 40.5703C52.714 40.5703 53.0568 40.7989 53.0568 41.3703C53.0568 42.1703 53.0568 42.9703 53.0568 43.7703C53.0568 43.9989 52.9426 43.9989 52.714 43.9989C52.4854 43.9989 52.3711 43.9989 52.3711 43.7703C52.3711 43.0846 52.3711 42.3989 52.3711 41.7132C52.3711 41.4846 52.3711 41.256 52.0283 41.1417C51.7997 41.1417 51.5711 41.1417 51.3426 41.3703C50.9997 41.7132 50.9997 42.1703 50.8854 42.6275C50.8854 42.9703 50.8854 43.4275 50.8854 43.7703C50.8854 43.9989 50.8854 43.9989 50.5426 43.9989C50.314 43.9989 50.1997 43.9989 50.1997 43.7703C50.1997 42.856 50.1997 41.8275 50.1997 40.9132C50.1997 40.6846 50.4283 40.6846 50.5426 40.6846C50.7711 40.6846 50.8854 40.6846 50.8854 40.9132C50.8854 41.0275 50.8854 41.1417 50.8854 41.3703" fill="#736159"/>
<path d="M74.4284 41.3692C74.4284 41.2549 74.657 41.1406 74.7712 41.0263C75.1141 40.6835 75.5712 40.5692 75.9141 40.6835C76.3712 40.7978 76.4855 41.2549 76.4855 41.5978C76.4855 42.2835 76.4855 42.9692 76.4855 43.6549C76.4855 43.8835 76.4855 43.9978 76.1427 43.9978C75.7998 43.9978 75.7998 43.8835 75.7998 43.6549C75.7998 43.0835 75.7998 42.3978 75.7998 41.8263C75.7998 41.4835 75.7998 41.1406 75.457 41.0263C75.1141 41.0263 74.8855 41.1406 74.657 41.5978C74.4284 42.0549 74.4284 42.5121 74.4284 43.0835C74.4284 43.6549 74.4284 43.4263 74.4284 43.6549C74.4284 43.8835 74.4284 44.1121 74.0855 44.1121C73.7427 44.1121 73.7427 43.9978 73.7427 43.7692C73.7427 42.8549 73.7427 41.9406 73.7427 41.1406C73.7427 40.9121 73.7427 40.7978 74.0855 40.7978C74.3141 40.7978 74.4284 40.7978 74.4284 41.1406C74.4284 41.1406 74.4284 41.3692 74.4284 41.4835" fill="#736159"/>
<path d="M61.0568 32.7999C61.1711 32.6856 61.2854 32.457 61.3997 32.3427C61.7426 31.9999 62.0854 31.8856 62.5426 31.9999C62.9997 32.1142 62.9997 32.5713 62.9997 32.9142C62.9997 33.5999 62.9997 34.2856 62.9997 34.9713C62.9997 35.1999 62.9997 35.3142 62.6568 35.3142C62.314 35.3142 62.314 35.0856 62.314 34.857C62.314 34.2856 62.314 33.8285 62.314 33.257C62.314 33.1427 62.314 33.0285 62.314 32.9142C62.314 32.6856 62.314 32.3427 61.9711 32.3427C61.6283 32.3427 61.3997 32.457 61.2854 32.6856C61.0568 33.0285 60.9426 33.4856 60.9426 33.9427C60.9426 34.2856 60.9426 34.6285 60.9426 35.0856C60.9426 35.3142 60.9426 35.3142 60.5997 35.3142C60.3711 35.3142 60.2568 35.3142 60.2568 35.0856V32.2285C60.2568 31.9999 60.4854 31.9999 60.5997 31.9999C60.8283 31.9999 60.9426 31.9999 60.9426 32.2285C60.9426 32.3427 60.9426 32.457 60.9426 32.6856" fill="#736159"/>
<path d="M83.8 42.3979C83.8 42.7407 83.8 43.0836 83.9143 43.4265C83.9143 43.7693 84.2571 43.8836 84.4857 43.8836C84.8286 43.8836 85.0571 43.655 85.0571 43.4265C85.2857 42.7407 85.2857 42.055 85.0571 41.255C85.0571 41.0265 84.7143 40.7979 84.4857 40.7979C84.1429 40.7979 84.0286 41.0265 83.9143 41.255C83.8 41.5979 83.8 41.9407 83.8 42.2836M83 42.3979C83 42.1693 83 41.9407 83 41.8265C83.2286 41.0265 83.6857 40.6836 84.7143 40.6836C85.4 40.6836 85.8571 41.255 85.9714 42.055C85.9714 42.3979 85.9714 42.7407 85.9714 43.0836C85.7429 43.8836 85.2857 44.2265 84.3714 44.2265C83.5714 44.2265 83.1143 43.7693 83 42.9693C83 42.7407 83 42.6265 83 42.3979Z" fill="#736159"/>
<path d="M78.1999 42.3979C78.1999 42.7407 78.1999 43.0836 78.3142 43.4265C78.3142 43.7693 78.657 43.8836 78.8856 43.8836C79.2285 43.8836 79.457 43.655 79.457 43.4265C79.6856 42.7407 79.6856 42.055 79.457 41.3693C79.457 41.0265 79.1142 40.9122 78.7713 40.9122C78.4285 40.9122 78.3142 41.1407 78.1999 41.3693C78.0856 41.7122 78.0856 42.055 78.0856 42.3979M77.3999 42.3979C77.3999 42.1693 77.3999 41.9407 77.3999 41.8265C77.6285 41.0265 78.0856 40.6836 79.1142 40.6836C79.7999 40.6836 80.257 41.255 80.3713 42.1693C80.3713 42.3979 80.3713 42.6265 80.3713 42.7407C80.257 44.1122 79.457 44.3407 78.3142 44.1122C77.7428 43.9979 77.5142 43.5407 77.3999 42.9693C77.3999 42.7407 77.3999 42.6265 77.3999 42.3979Z" fill="#736159"/>
<path d="M88.0285 33.7123C88.0285 34.0551 88.0285 34.5123 88.1428 34.8551C88.1428 35.0837 88.4857 35.3123 88.7142 35.3123C89.0571 35.3123 89.2857 35.198 89.2857 34.8551C89.5142 34.1694 89.5142 33.3694 89.2857 32.6837C89.2857 32.4551 88.9428 32.2265 88.7142 32.2265C88.3714 32.2265 88.2571 32.3408 88.1428 32.6837C88.0285 33.0265 88.0285 33.3694 88.0285 33.7123ZM87.2285 33.7123C87.2285 33.4837 87.2285 33.2551 87.2285 33.0265C87.3428 32.3408 87.9142 31.8837 88.7142 31.998C89.5142 31.998 89.9714 32.3408 90.0857 33.1408C90.0857 33.598 90.0857 34.0551 90.0857 34.5123C89.8571 35.198 89.4 35.5408 88.4857 35.5408C87.8 35.5408 87.3428 35.0837 87.2285 34.398C87.2285 34.1694 87.2285 34.0551 87.2285 33.8265" fill="#736159"/>
<path d="M92.0287 43.0846C92.2572 42.3989 92.4858 41.7131 92.7144 41.0274C92.7144 40.9131 92.7144 40.6846 92.9429 40.6846C93.0572 40.6846 93.2858 40.6846 93.4001 40.6846C93.4001 40.6846 93.4001 40.9131 93.4001 41.0274C92.9429 42.3989 92.3715 43.7703 91.9144 45.1417C91.9144 45.1417 91.9144 45.256 91.9144 45.3703C91.9144 45.5989 91.5715 45.4846 91.4572 45.3703C91.2287 45.3703 91.4572 45.1417 91.4572 45.0274C91.9144 44.2274 91.8001 43.4274 91.4572 42.6274C91.2287 42.056 91.0001 41.4846 90.7715 40.7989C90.7715 40.6846 90.5429 40.456 90.7715 40.3417C91.0001 40.2274 91.3429 40.3417 91.4572 40.5703C91.6858 41.1417 91.9144 41.7131 92.1429 42.2846C92.1429 42.3989 92.1429 42.5131 92.3715 42.6274" fill="#736159"/>
<path d="M84.0287 34.3975C84.143 34.169 84.2573 33.9404 84.2573 33.7118C84.3715 33.2547 84.6001 32.7975 84.7144 32.3404C84.7144 32.2261 84.7144 32.1118 84.943 32.1118C85.4001 32.1118 85.4001 32.1118 85.2858 32.569C84.8287 33.9404 84.2573 35.3118 83.8001 36.6833C83.8001 36.6833 83.8001 36.7975 83.8001 36.9118C83.8001 37.1404 83.4573 37.0261 83.343 36.9118C83.2287 36.9118 83.343 36.6833 83.343 36.6833C83.8001 35.8833 83.6858 35.0833 83.343 34.2833C83.1144 33.7118 82.8858 33.1404 82.6573 32.4547C82.6573 32.4547 82.4287 32.1118 82.6573 32.1118C82.8858 32.1118 83.1144 31.8833 83.343 32.3404C83.5715 32.9118 83.8001 33.4833 84.0287 34.169C84.0287 34.2833 84.0287 34.3975 84.2573 34.5118" fill="#736159"/>
<path d="M48.3715 42.8538C48.3715 42.7395 48.3715 42.5109 48.2572 42.5109C48.0286 42.5109 47.3429 42.7395 47.2286 42.9681C47.2286 43.1966 47.2286 43.4252 47.3429 43.6538C47.5715 43.8824 47.8 43.6538 48.0286 43.6538C48.2572 43.4252 48.3715 43.1967 48.3715 42.8538ZM48.3715 43.6538C48.0286 43.9967 47.6857 44.1109 47.2286 44.1109C46.8857 44.1109 46.5429 43.8824 46.4286 43.5395C46.3143 43.1966 46.4286 42.8538 46.7715 42.6252C47.1143 42.3967 47.5715 42.2824 48.0286 42.2824C48.3715 42.2824 48.3715 42.1681 48.3715 41.8252C48.3715 41.5966 48.3715 41.4824 48.3715 41.2538C48.3715 41.0252 48.1429 40.7967 47.9143 40.7967C47.5715 40.7967 47.4572 40.9109 47.3429 41.2538C47.3429 41.3681 47.3429 41.5967 47.1143 41.5967C47 41.5967 46.7715 41.5967 46.6572 41.5967C46.6572 41.4824 46.6572 41.2538 46.7715 41.1395C46.7715 41.0252 47 40.9109 47.2286 40.7967C47.6857 40.6824 48.0286 40.6824 48.4857 40.7967C48.8286 40.7967 49.0572 41.1395 49.0572 41.5967C49.0572 42.3967 49.0572 43.1967 49.0572 43.9967C49.0572 44.2252 49.0572 44.2252 48.8286 44.2252C48.6 44.2252 48.3715 44.2252 48.3715 43.7681" fill="#736159"/>
<path d="M47.914 34.1694C47.914 34.0551 47.914 33.8266 47.6855 33.8266C47.3426 33.8266 47.1141 33.8266 46.8855 34.1694C46.6569 34.398 46.6569 34.7408 46.8855 34.9694C47.1141 35.198 47.3426 35.0837 47.5712 34.9694C47.7998 34.7408 47.914 34.5123 47.914 34.1694ZM47.7998 35.0837C47.5712 35.4266 47.2283 35.5408 46.7712 35.5408C46.314 35.5408 46.0855 35.3123 45.9712 34.9694C45.9712 34.6266 45.9712 34.1694 46.3141 33.9408C46.6569 33.7123 47.1141 33.598 47.5712 33.598C47.7998 33.598 47.914 33.4837 47.914 33.2551C47.914 33.0266 47.914 32.9123 47.914 32.6837C47.914 32.4551 47.7998 32.2266 47.4569 32.2266C47.1141 32.2266 46.9998 32.3408 46.8855 32.6837C46.8855 32.798 46.8855 33.0266 46.6569 33.0266C46.5426 33.0266 46.314 33.0266 46.1998 33.0266C46.1998 32.9123 46.1998 32.6837 46.1998 32.5694C46.314 32.3408 46.5426 32.2266 46.7712 32.2266C47.114 32.2266 47.5712 32.2266 47.914 32.2266C48.2569 32.2266 48.4855 32.5694 48.5998 33.0266C48.5998 33.8266 48.5998 34.6266 48.5998 35.3123C48.5998 35.4266 48.5998 35.5408 48.3712 35.5408C48.2569 35.5408 48.0283 35.5408 47.914 35.4266C47.914 35.4266 47.9141 35.3123 47.7998 35.198" fill="#736159"/>
<path d="M60.8284 41.8288C60.8284 41.1431 60.8284 40.5717 60.8284 39.8859C60.8284 39.6574 60.8284 39.5431 60.4856 39.5431C60.257 39.5431 60.0284 39.5431 59.7999 39.5431C59.6856 39.5431 59.5713 39.5431 59.5713 39.3145C59.5713 39.2002 59.5713 39.0859 59.7999 39.0859C60.7141 39.0859 61.6284 39.0859 62.5427 39.0859C62.657 39.0859 62.7713 39.0859 62.7713 39.3145C62.7713 39.5431 62.7713 39.5431 62.5427 39.5431C62.3141 39.5431 62.0856 39.5431 61.857 39.5431C61.6284 39.5431 61.5141 39.5431 61.5141 39.8859C61.5141 41.1431 61.5141 42.4002 61.5141 43.6574C61.5141 43.8859 61.5141 44.0002 61.1713 44.0002C60.8284 44.0002 60.7141 44.0002 60.8284 43.6574C60.8284 42.9717 60.8284 42.4002 60.8284 41.7145" fill="#736159"/>
<path d="M91.4572 33.9427C91.4572 33.5999 91.4572 33.1427 91.4572 32.7999C91.4572 32.5713 91.4572 32.457 91.1143 32.457C91 32.457 90.8857 32.457 90.8857 32.3427C90.8857 32.2285 91 32.2285 91.1143 32.2285C91.3429 32.2285 91.4572 32.2285 91.4572 31.8856C91.4572 30.7427 92.1429 30.2856 93.2857 30.5142C93.4 30.5142 93.5143 30.6285 93.5143 30.857C93.5143 31.0856 93.4 30.857 93.2857 30.857C92.4857 30.7427 92.1429 31.0856 92.2572 31.8856C92.2572 31.9999 92.2572 32.1142 92.4857 32.1142C92.6 32.1142 92.8286 32.1142 92.9429 32.1142C92.9429 32.1142 93.1715 32.1142 93.1715 32.2285C93.1715 32.3427 93.0572 32.3427 92.9429 32.3427C92.8286 32.3427 92.7143 32.3427 92.4857 32.3427C92.2572 32.3427 92.1429 32.3427 92.1429 32.6856C92.1429 33.4856 92.1429 34.2856 92.1429 35.0856C92.1429 35.3142 92.1429 35.4285 91.8 35.4285C91.5715 35.4285 91.4572 35.4285 91.4572 35.0856C91.4572 34.7427 91.4572 34.2856 91.4572 33.9427Z" fill="#736159"/>
<path d="M70.6573 33.0288C70.6573 33.0288 70.8858 33.0288 71.0001 33.0288C71.343 33.0288 71.4573 33.0288 71.2287 32.6859C71.2287 32.4574 71.0001 32.3431 70.6573 32.2288C70.3144 32.2288 70.2001 32.2288 69.9716 32.5717C69.743 32.9145 69.8573 33.0288 70.2001 33.0288H70.543M71.0001 33.3717C70.7716 33.3717 70.4287 33.3717 70.2001 33.3717C70.0858 33.3717 69.9716 33.3717 69.9716 33.4859C69.9716 34.0574 70.4287 34.9717 71.0001 35.2002C71.2287 35.2002 71.5716 35.2002 71.8001 35.2002C71.8001 35.2002 71.9144 35.2002 72.0287 35.2002C72.0287 35.2002 72.0287 35.3145 72.0287 35.4288C71.4573 35.8859 70.0858 35.4288 69.743 34.8574C69.4001 34.1717 69.4001 33.4859 69.743 32.8002C69.9716 32.2288 70.543 32.0002 71.4573 32.1145C72.0287 32.1145 72.2573 32.5717 72.3716 33.1431C72.3716 33.3717 72.3716 33.3717 72.143 33.3717C71.9144 33.3717 71.5716 33.3717 71.343 33.3717H71.0001Z" fill="#736159"/>
<path d="M42.3143 41.7135C42.3143 41.7135 42.5429 41.7135 42.6572 41.7135C43 41.7135 43.1143 41.7135 42.8857 41.2564C42.8857 41.0278 42.6572 40.9135 42.3143 40.9135C42.0857 40.9135 41.8572 40.9135 41.7429 41.2564C41.7429 41.3707 41.6286 41.485 41.7429 41.7135C41.7429 41.8278 41.9714 41.7135 42.0857 41.7135C42.0857 41.7135 42.3143 41.7135 42.4286 41.7135M40.9429 42.285C40.9429 41.9421 40.9429 41.7135 41.0572 41.485C41.4 40.685 42.7714 40.3421 43.3429 41.0278C43.5714 41.2564 43.6857 41.5992 43.6857 41.8278C43.6857 42.0564 43.5714 41.9421 43.4572 41.9421C43 41.9421 42.4286 41.9421 41.9714 41.9421C41.6286 41.9421 41.6286 41.9421 41.6286 42.3992C41.7429 43.085 41.9714 43.6564 42.7714 43.885C43 43.885 43.2286 43.885 43.4572 43.885H43.6857C43.6857 43.885 43.6857 44.1135 43.5714 44.1135C42.5429 44.685 41.2857 43.9992 41.0572 42.8564C41.0572 42.6278 41.0572 42.5135 41.0572 42.285" fill="#736159"/>
<path d="M31.6856 41.7142C31.7999 41.7142 31.9142 41.7142 32.0284 41.7142C32.3713 41.7142 32.3713 41.5999 32.257 41.3713C32.257 41.1427 32.0284 40.9142 31.6856 40.9142C31.457 40.9142 31.2284 40.9142 31.1142 41.257C31.1142 41.3713 30.9999 41.4856 31.1142 41.7142C31.1142 41.8285 31.3427 41.7142 31.457 41.7142H31.6856ZM32.0284 41.9427C31.7999 41.9427 31.5713 41.9427 31.457 41.9427C30.9999 41.9427 30.9999 41.9427 31.1142 42.3999C31.2284 43.0856 31.457 43.657 32.257 43.7713C32.4856 43.7713 32.7142 43.7713 32.9427 43.7713C32.9427 43.7713 33.057 43.7713 33.1713 43.7713C33.1713 43.7713 33.1713 43.8856 33.1713 43.9999C32.4856 44.457 31.2284 43.9999 30.7713 43.3142C30.4284 42.6285 30.4284 41.9427 30.7713 41.257C30.9999 40.6856 31.457 40.457 32.3713 40.457C32.8284 40.457 33.1713 40.7999 33.3999 41.257C33.5142 41.7142 33.3999 41.8285 33.057 41.8285H32.4856" fill="#736159"/>
<path d="M64.2569 41.7145C64.3712 41.7145 64.4855 41.7145 64.5998 41.7145C64.9426 41.7145 64.9426 41.6002 64.8283 41.3717C64.8283 41.1431 64.5998 41.0288 64.3712 40.9145C64.1426 40.9145 63.9141 40.9145 63.6855 41.2574C63.6855 41.3717 63.4569 41.6002 63.6855 41.7145C63.6855 41.8288 63.9141 41.7145 64.0283 41.7145H64.2569ZM64.5998 41.9431H63.7998C63.6855 41.9431 63.5712 41.9431 63.5712 42.1717C63.5712 42.8574 64.1426 43.7717 64.8283 43.886C65.0569 43.886 65.1712 43.886 65.3998 43.886C65.3998 43.886 65.5141 43.7717 65.6283 43.886C65.6283 44.0002 65.6283 44.1145 65.5141 44.1145C64.5998 44.5717 63.3426 44.1145 62.9998 43.086C62.8855 42.5145 62.8855 42.0574 62.9998 41.486C63.2283 40.9145 63.7998 40.5717 64.7141 40.686C65.1712 40.686 65.5141 41.1431 65.6283 41.6002C65.6283 41.8288 65.6283 41.9431 65.2855 41.9431C65.0569 41.9431 64.8284 41.9431 64.5998 41.9431Z" fill="#736159"/>
<path d="M67.3426 34.5143C67.5712 34.1714 67.6855 33.7143 67.7998 33.3714C67.9141 33.0286 68.0284 32.6857 68.1426 32.3429C68.1426 32 68.4855 32 68.7141 32C68.8284 32 68.8284 32 68.8284 32.2286C68.4855 33.2571 68.1426 34.1714 67.7998 35.2C67.7998 35.4286 67.5712 35.4286 67.4569 35.4286C67.3426 35.4286 67.1141 35.4286 66.9998 35.3143C66.6569 34.2857 66.1998 33.2571 65.8569 32.3429C65.8569 32.3429 65.8569 32.2286 65.8569 32.1143C66.1998 32.1143 66.4284 32.1143 66.5426 32.4571C66.7712 33.1429 66.9998 33.8286 67.3426 34.5143Z" fill="#736159"/>
<path d="M81.1712 30.8565C81.1712 31.1993 81.1712 31.4279 81.1712 31.7708C81.1712 31.9993 81.1712 32.1136 81.5141 32.1136C81.5141 32.1136 81.7426 32.1136 81.8569 32.1136C81.8569 32.1136 82.0855 32.1136 82.0855 32.2279C82.0855 32.3422 81.9712 32.3422 81.8569 32.3422C81.7426 32.3422 81.6283 32.3422 81.3998 32.3422C81.1712 32.3422 81.1712 32.3422 81.1712 32.5708C81.1712 33.2565 81.1712 33.9422 81.1712 34.5136C81.1712 34.8565 81.2855 35.085 81.7426 35.085C82.1998 35.085 82.0855 35.085 82.0855 35.1993C82.0855 35.4279 81.9712 35.4279 81.7426 35.4279C81.6283 35.4279 81.5141 35.4279 81.3998 35.4279C80.8283 35.4279 80.5998 35.1993 80.4855 34.5136C80.4855 33.8279 80.4855 33.2565 80.4855 32.5708C80.4855 32.3422 80.4855 32.2279 80.1426 32.2279C80.1426 32.2279 79.9141 32.2279 79.9141 32.1136C79.9141 31.885 80.0283 31.9993 80.1426 31.9993C80.3712 31.9993 80.4855 31.9993 80.3712 31.6565C80.2569 31.085 80.5998 30.8565 81.0569 30.7422" fill="#736159"/>
<path d="M66.314 42.2847C66.314 42.0561 66.314 41.9418 66.314 41.7133C66.5426 40.5704 67.6854 40.4561 68.3712 40.799C69.0569 41.1418 68.8283 41.2561 68.8283 41.599C68.8283 41.7133 68.8283 41.8275 68.5997 41.8275C68.3712 41.8275 68.1426 41.9418 68.0283 41.7133C68.0283 41.599 68.0283 41.4847 68.0283 41.3704C67.914 41.0275 67.4569 40.9133 67.2283 41.2561C66.7712 41.7133 66.8854 42.399 66.9997 42.9704C67.114 43.5418 67.3426 43.8847 67.914 44.1133C68.1426 44.1133 68.2569 44.1133 68.4854 44.1133H68.714C68.714 44.2275 68.714 44.3418 68.4854 44.3418C67.114 44.6847 66.1997 44.2275 66.0854 42.7418C66.0854 42.7418 66.0854 42.7418 66.0854 42.5133" fill="#736159"/>
<path d="M25.2856 42.2841C25.2856 42.0555 25.2856 41.7127 25.2856 41.4841C25.6285 40.6841 26.7714 40.3412 27.4571 40.9127C27.5714 41.0269 27.6856 41.1412 27.7999 41.3698C27.7999 41.4841 27.9142 41.8269 27.6856 41.8269C27.4571 41.8269 27.1142 41.9412 27.1142 41.4841C27.1142 41.2555 26.9999 40.9127 26.6571 40.9127C26.3142 40.9127 26.0856 41.1412 26.0856 41.3698C25.8571 42.0555 25.9714 42.7412 26.3142 43.4269C26.5428 43.7698 26.9999 43.9984 27.4571 43.8841C27.4571 43.8841 27.6856 43.7698 27.7999 43.8841C27.7999 44.1127 27.6856 44.1127 27.5714 44.1127C26.1999 44.3412 25.2856 43.8841 25.2856 42.2841Z" fill="#736159"/>
<path d="M37.7427 42.284C37.7427 42.0554 37.7427 41.8269 37.7427 41.484C38.0855 40.684 39.2284 40.2269 39.9141 40.7983C40.0284 40.7983 40.1427 41.0269 40.257 41.2554C40.257 41.484 40.4855 41.7126 40.1427 41.7126C39.9141 41.7126 39.5712 41.7126 39.5712 41.3697C39.5712 41.1411 39.457 40.7983 39.1141 40.7983C38.7712 40.7983 38.657 41.0269 38.5427 41.2554C38.3141 41.9411 38.4284 42.6269 38.7712 43.3126C38.9998 43.6554 39.457 43.884 39.9141 43.7697C39.9141 43.7697 40.1427 43.6554 40.257 43.7697C40.257 43.9983 40.1427 43.9983 40.0284 43.9983C38.7712 44.2269 37.7427 43.884 37.7427 42.1697" fill="#736159"/>
<path d="M77.1713 32.5714C76.9427 32.5714 76.7141 32.3429 76.4855 32.3429C76.257 32.3429 76.0284 32.3429 75.9141 32.5714C75.7998 32.8 75.9141 33.0286 76.1427 33.1429C76.3713 33.2571 76.5998 33.3714 76.8284 33.6C77.2855 33.9429 77.5141 34.4 77.3998 34.8571C77.2855 35.3143 76.9427 35.5429 76.257 35.5429C76.0284 35.5429 75.7998 35.5429 75.457 35.5429C75.3427 35.5429 75.1141 35.5429 75.1141 35.2C75.1141 34.9714 75.1141 34.8571 75.457 34.9714C75.6855 35.0857 76.0284 35.2 76.257 35.0857C76.4855 35.0857 76.5998 34.9714 76.5998 34.7429C76.5998 34.5143 76.5998 34.4 76.3713 34.2857C76.1427 34.0571 75.7998 33.9429 75.5713 33.8286C75.1141 33.4857 74.8855 33.1429 74.9998 32.5714C75.1141 32.2286 75.457 32 76.0284 32C76.1427 32 76.3713 32 76.4855 32C76.9427 32 76.9427 32 76.8284 32.5714" fill="#736159"/>
<path d="M82.0856 41.6002C82.0856 42.2859 82.0856 42.9716 82.0856 43.7716C82.0856 44.0002 82.0856 44.1145 81.7428 44.1145C81.5142 44.1145 81.3999 44.1145 81.3999 43.7716C81.3999 42.2859 81.3999 40.9145 81.3999 39.4288C81.3999 39.2002 81.5142 39.0859 81.7428 39.0859C81.9713 39.0859 82.0856 39.0859 82.0856 39.4288C82.0856 40.1145 82.0856 40.9145 82.0856 41.6002Z" fill="#736159"/>
<path d="M44.9426 32.9127C44.9426 33.5984 44.9426 34.3984 44.9426 35.0842C44.9426 35.3127 44.9426 35.427 44.5997 35.427C44.3711 35.427 44.2568 35.427 44.2568 35.0842C44.2568 33.5984 44.2568 32.227 44.2568 30.7413C44.2568 30.5127 44.3711 30.5127 44.5997 30.3984C44.8283 30.3984 44.9426 30.3984 44.9426 30.7413C44.9426 31.427 44.9426 32.1127 44.9426 32.9127Z" fill="#736159"/>
<path d="M42.9997 33.026C42.9997 33.7117 42.9997 34.3974 42.9997 35.0831C42.9997 35.3117 42.9997 35.426 42.6568 35.426C42.4282 35.426 42.314 35.3117 42.314 35.0831C42.314 33.7117 42.314 32.226 42.314 30.8546C42.314 30.626 42.4282 30.5117 42.6568 30.5117C42.8854 30.5117 42.9997 30.5117 42.9997 30.8546C42.9997 31.5403 42.9997 32.3403 42.9997 33.026Z" fill="#736159"/>
<path d="M73.6286 32.7988C73.8572 32.5702 74.0858 32.2273 74.3143 32.113C74.3143 32.113 74.5429 31.9988 74.6572 32.113C74.7715 32.2273 74.6572 32.4559 74.6572 32.5702C74.6572 32.6845 74.6572 32.7988 74.4286 32.7988C73.7429 33.0273 73.5143 33.2559 73.5143 33.9416C73.5143 34.3988 73.5143 34.8559 73.5143 35.313C73.5143 35.5416 73.4 35.5416 73.1715 35.5416C72.9429 35.5416 72.8286 35.5416 72.8286 35.313C72.8286 34.3988 72.8286 33.3702 72.8286 32.4559C72.8286 31.5416 73.0572 32.2273 73.1715 32.2273C73.2858 32.2273 73.5143 32.2273 73.5143 32.4559C73.5143 32.5702 73.5143 32.7988 73.5143 32.913" fill="#736159"/>
<path d="M29.4001 42.3979C29.4001 42.855 29.4001 43.3122 29.4001 43.7693C29.4001 44.1122 29.1715 43.9979 29.0572 43.9979C28.9429 43.9979 28.7144 43.9979 28.7144 43.7693C28.7144 42.855 28.7144 41.8265 28.7144 40.9122C28.7144 40.6836 28.8286 40.6836 29.0572 40.6836C29.2858 40.6836 29.4001 40.6836 29.4001 40.9122C29.4001 41.3693 29.4001 41.9407 29.4001 42.3979Z" fill="#736159"/>
<path d="M46.1997 8.79688C46.1997 8.79688 46.314 8.79688 46.4283 8.79688C46.5426 8.79688 46.8854 8.79688 46.8854 9.02545C46.8854 9.13973 46.6568 9.3683 46.5426 9.48259C46.5426 9.48259 46.5426 9.48259 46.4283 9.48259C46.4283 9.48259 46.314 9.48259 46.1997 9.48259C45.7426 9.25402 45.514 9.3683 45.2854 9.59687C45.1711 9.93973 45.2854 10.1683 45.7426 10.3969C45.9711 10.3969 46.0854 10.5112 46.314 10.5112C46.314 10.5112 46.5426 10.5112 46.4283 10.6254C46.4283 10.854 46.0854 11.0826 45.8568 11.0826C45.3997 11.0826 44.9426 11.0826 44.5997 11.0826C44.4854 11.0826 44.3711 11.0826 44.2568 11.0826C44.2568 10.9683 44.2568 10.854 44.3711 10.854C44.8283 10.7397 44.9426 10.5112 44.8283 9.93973C44.714 9.3683 45.3997 8.79688 46.0854 8.79688" fill="#736159"/>
<path d="M64.9426 33.7114C64.9426 34.1685 64.9426 34.6257 64.9426 35.0828C64.9426 35.3114 64.8283 35.3114 64.5997 35.3114C64.3711 35.3114 64.2568 35.3114 64.2568 34.9685C64.2568 34.0542 64.2568 33.0257 64.2568 32.1114C64.2568 31.8828 64.4854 31.8828 64.5997 31.8828C64.8283 31.8828 64.9426 31.8828 64.9426 32.1114C64.9426 32.5685 64.9426 33.0257 64.9426 33.4828" fill="#736159"/>
<path d="M78.314 33.7143C78.314 33.2571 78.314 32.8 78.314 32.3429C78.314 32.1143 78.314 32 78.6568 32C78.8854 32 78.9997 32 78.9997 32.3429C78.9997 33.2571 78.9997 34.1714 78.9997 35.0857C78.9997 35.3143 78.8854 35.4286 78.6568 35.4286C78.4282 35.4286 78.314 35.4286 78.314 35.0857C78.314 34.6286 78.314 34.1714 78.314 33.7143Z" fill="#736159"/>
<path d="M15.1139 33.7143C15.1139 34.1714 15.1139 34.6286 15.1139 35.0857C15.1139 35.3143 15.1139 35.4286 14.7711 35.4286C14.5425 35.4286 14.4282 35.4286 14.4282 35.0857C14.4282 34.1714 14.4282 33.2571 14.4282 32.3429C14.4282 32.1143 14.4282 32 14.7711 32C14.9997 32 15.1139 32 15.1139 32.3429C15.1139 32.8 15.1139 33.2571 15.1139 33.7143Z" fill="#736159"/>
<path d="M52.714 19.4267C53.0568 19.4267 53.1711 19.4267 53.1711 19.7695C53.1711 20.1124 52.9426 20.1124 52.714 20.1124C52.3711 20.1124 52.2568 20.1124 52.2568 19.6552C52.2568 19.3124 52.3711 19.1981 52.714 19.3124" fill="#736159"/>
<path d="M36.714 19.4289C36.3711 19.4289 36.2568 19.4289 36.2568 19.0861C36.2568 18.7432 36.3711 18.7432 36.714 18.6289C37.0568 18.6289 37.1711 18.6289 37.1711 19.0861C37.1711 19.4289 37.0568 19.5432 36.714 19.4289Z" fill="#736159"/>
<path d="M38.0856 19.4289C37.7427 19.4289 37.6284 19.4289 37.6284 19.0861C37.6284 18.6289 37.857 18.7432 38.0856 18.6289C38.4284 18.6289 38.5427 18.6289 38.5427 19.0861C38.5427 19.4289 38.4284 19.5432 38.0856 19.4289Z" fill="#736159"/>
<path d="M41.9713 25.5997C41.6284 25.5997 41.5142 25.5997 41.5142 25.2568C41.5142 24.914 41.6284 24.7997 41.9713 24.914C42.1999 24.914 42.4284 24.914 42.4284 25.2568C42.4284 25.5997 42.4284 25.714 41.9713 25.5997Z" fill="#736159"/>
<path d="M48.0284 19.4289C47.6856 19.4289 47.5713 19.4289 47.5713 19.0861C47.5713 18.7432 47.6856 18.6289 48.0284 18.6289C48.3713 18.6289 48.4856 18.6289 48.4856 19.0861C48.4856 19.5432 48.3713 19.5432 48.0284 19.4289Z" fill="#736159"/>
<path d="M90.5426 16.2258C90.1997 16.2258 90.0854 16.2258 90.0854 15.8829C90.0854 15.5401 90.1997 15.5401 90.5426 15.4258C90.8855 15.4258 90.9997 15.4258 90.9997 15.8829C90.9997 16.2258 90.8855 16.3401 90.5426 16.2258Z" fill="#736159"/>
<path d="M31.2286 15.4257C31.5715 15.4257 31.6858 15.4257 31.6858 15.7685C31.6858 16.1114 31.5715 16.2257 31.2286 16.2257C30.8858 16.2257 30.7715 16.2257 30.7715 15.7685C30.7715 15.4257 30.8858 15.3114 31.2286 15.4257Z" fill="#736159"/>
<path d="M44.8282 20.2258C44.4854 20.2258 44.4854 20.2258 44.3711 19.8829C44.3711 19.4258 44.5997 19.54 44.8282 19.54C45.1711 19.54 45.1711 19.6543 45.2854 19.9972C45.2854 20.34 45.0568 20.34 44.8282 20.34" fill="#736159"/>
<path d="M40.4855 24.7968C40.8283 24.7968 40.9426 24.7968 40.9426 25.1396C40.9426 25.4825 40.8283 25.5968 40.4855 25.5968C40.1426 25.5968 40.0283 25.5968 40.0283 25.1396C40.0283 24.7968 40.1426 24.6825 40.4855 24.7968Z" fill="#736159"/>
<path d="M54.1998 20.2258C53.857 20.2258 53.7427 20.2258 53.7427 19.8829C53.7427 19.5401 53.857 19.4258 54.1998 19.4258C54.4284 19.4258 54.657 19.4258 54.657 19.7686C54.657 20.1115 54.5427 20.2258 54.1998 20.2258Z" fill="#736159"/>
<path d="M72.0284 9.2548C72.3713 9.2548 72.4856 9.2548 72.4856 9.59766C72.4856 9.94051 72.3713 9.94051 72.0284 9.94051C71.6856 9.94051 71.5713 9.94051 71.5713 9.48337C71.5713 9.14051 71.6856 9.02623 72.0284 9.14051" fill="#736159"/>
<path d="M70.5426 10.0539C70.1997 10.0539 70.0854 10.0539 70.0854 9.71105C70.0854 9.36819 70.1997 9.25391 70.5426 9.25391C70.8854 9.25391 70.9997 9.25391 70.9997 9.71105C70.9997 10.0539 70.8854 10.1682 70.5426 10.0539Z" fill="#736159"/>
<path d="M49.4 19.4279C49.0572 19.4279 48.9429 19.4279 48.9429 19.085C48.9429 18.7422 49.0572 18.7422 49.4 18.7422C49.7429 18.7422 49.8572 18.7422 49.8572 19.085C49.8572 19.4279 49.8572 19.5422 49.4 19.4279Z" fill="#736159"/>
<path d="M14.7711 31.0842C14.5425 31.0842 14.4282 31.0842 14.4282 30.7413C14.4282 30.3984 14.4282 30.3984 14.7711 30.3984C14.9997 30.3984 15.1139 30.3984 15.1139 30.7413C15.1139 30.9699 15.1139 31.0842 14.7711 31.0842Z" fill="#736159"/>
<path d="M64.714 30.5117C64.9425 30.5117 65.0568 30.5117 65.0568 30.8546C65.0568 31.1974 64.9425 31.1974 64.714 31.1974C64.4854 31.1974 64.3711 31.1974 64.3711 30.8546C64.3711 30.5117 64.4854 30.5117 64.8282 30.5117" fill="#736159"/>
<path d="M78.6568 30.5117C78.8854 30.5117 78.9997 30.5117 78.9997 30.8546C78.9997 31.1974 78.8854 31.1974 78.6568 31.1974C78.4282 31.1974 78.314 31.1974 78.314 30.8546C78.314 30.5117 78.4282 30.5117 78.6568 30.5117Z" fill="#736159"/>
<path d="M28.943 39.1992C29.1715 39.1992 29.2858 39.1992 29.2858 39.5421C29.2858 39.7706 29.2858 39.8849 28.943 39.8849C28.7144 39.8849 28.6001 39.8849 28.6001 39.5421C28.6001 39.3135 28.6001 39.1992 28.943 39.1992Z" fill="#736159"/>
</svg>
