<svg width="145" height="56" viewBox="0 0 145 56" fill="none" xmlns="http://www.w3.org/2000/svg">
<path d="M71.9998 15.375H71.6704V44.5828H71.9998V15.375Z" fill="#488873"/>
<mask id="mask0_4041_13949" style="mask-type:luminance" maskUnits="userSpaceOnUse" x="14" y="12" width="125" height="36">
<path d="M138.212 12.8477H14.2432V47.4359H138.212V12.8477Z" fill="white"/>
</mask>
<g mask="url(#mask0_4041_13949)">
<path fill-rule="evenodd" clip-rule="evenodd" d="M80.2355 21.4117C80.7845 21.4117 80.8943 21.4117 80.8943 21.1921V18.2274H80.6747C80.1257 18.2274 80.0159 18.5568 79.7963 19.2157H79.5767V18.0078H82.6512V19.2157H82.5414C82.3218 18.5568 82.212 18.2274 81.6629 18.2274H81.4433V21.1921C81.4433 21.4117 81.5531 21.4117 82.1022 21.4117V21.6313H80.3453V21.4117H80.2355Z" fill="#488873"/>
<path fill-rule="evenodd" clip-rule="evenodd" d="M83.0903 21.413C83.4197 21.413 83.5295 21.413 83.5295 21.1934V18.2287C83.5295 18.0091 83.5295 18.0091 83.0903 17.8993V17.6797H83.9688V19.3267C84.2982 19.1071 84.6276 18.8875 84.957 18.8875C85.2864 18.8875 85.6158 19.2169 85.6158 19.6562V21.0836C85.6158 21.1934 85.6158 21.3032 86.055 21.3032V21.5228H84.8472V21.3032C85.1766 21.3032 85.1766 21.3032 85.1766 21.0836V19.8758C85.1766 19.4366 84.957 19.2169 84.6276 19.2169C84.2982 19.2169 84.1884 19.3267 83.9688 19.4366V21.0836C83.9688 21.1934 83.9688 21.3032 84.2982 21.3032V21.5228H83.0903V21.3032V21.413Z" fill="#488873"/>
<path fill-rule="evenodd" clip-rule="evenodd" d="M86.2744 20.3137C86.2744 19.5451 86.7136 18.9961 87.4822 18.9961C88.2508 18.9961 88.5802 19.6549 88.4704 20.3137H86.7136C86.7136 20.9726 87.043 21.4118 87.592 21.4118C88.141 21.4118 88.141 21.1922 88.3606 20.9726H88.4704C88.2508 21.4118 87.9214 21.7412 87.3724 21.7412C86.8234 21.7412 86.1646 21.1922 86.1646 20.4235M86.8234 20.0941H88.0312C88.0312 19.5451 87.9214 19.2157 87.4822 19.2157C87.043 19.2157 86.9332 19.4353 86.8234 20.0941Z" fill="#488873"/>
<path fill-rule="evenodd" clip-rule="evenodd" d="M92.094 20.2047H90.8861L90.6665 20.7538C90.4469 21.193 90.4469 21.3028 90.9959 21.4126V21.6322H89.7881V21.4126C90.1175 21.4126 90.2273 21.0832 90.4469 20.644L91.5449 17.7891H91.8744L92.9724 20.8636C92.9724 21.193 93.192 21.3028 93.6312 21.3028V21.5224H91.9842V21.3028C92.4234 21.3028 92.5332 21.193 92.4234 20.8636L92.2038 20.0949L92.094 20.2047ZM91.9842 19.9851L91.5449 18.5577L90.9959 19.9851H92.094H91.9842Z" fill="#488873"/>
<path fill-rule="evenodd" clip-rule="evenodd" d="M93.851 20.7534H94.0706C94.2902 21.1926 94.6196 21.4122 94.9491 21.4122C95.2785 21.4122 95.3883 21.1926 95.3883 20.973C95.3883 20.7534 95.2785 20.6436 94.7294 20.424C94.1804 20.3142 93.9608 20.0946 93.9608 19.6553C93.9608 19.2161 94.2902 18.8867 94.8393 18.8867C95.3883 18.8867 95.2785 18.8867 95.3883 18.9965C95.3883 18.8867 95.4981 18.8867 95.4981 18.8867V19.6553H95.2785C95.0589 19.3259 94.9491 19.1063 94.6196 19.1063C94.2902 19.1063 94.1804 19.2161 94.1804 19.5455C94.1804 19.875 94.4 19.875 94.8393 19.9848C95.3883 20.0946 95.6079 20.3142 95.6079 20.7534C95.6079 21.1926 95.2785 21.6318 94.7294 21.6318C94.1804 21.6318 94.2902 21.6318 94.0706 21.4122V21.6318H93.7412V20.7534H93.851Z" fill="#488873"/>
<path fill-rule="evenodd" clip-rule="evenodd" d="M96.1567 20.7534H96.3763C96.5959 21.1926 96.9253 21.4122 97.2547 21.4122C97.5841 21.4122 97.6939 21.1926 97.6939 20.973C97.6939 20.7534 97.5841 20.6436 97.0351 20.424C96.4861 20.3142 96.2665 20.0946 96.2665 19.6553C96.2665 19.2161 96.5959 18.8867 97.1449 18.8867C97.6939 18.8867 97.5841 18.8867 97.6939 18.9965C97.6939 18.8867 97.8037 18.8867 97.8037 18.8867V19.6553H97.5841C97.3645 19.3259 97.2547 19.1063 96.9253 19.1063C96.5959 19.1063 96.4861 19.2161 96.4861 19.5455C96.4861 19.875 96.7057 19.875 97.1449 19.9848C97.6939 20.0946 97.9135 20.3142 97.9135 20.7534C97.9135 21.1926 97.5841 21.6318 97.0351 21.6318C96.4861 21.6318 96.5959 21.6318 96.3763 21.4122V21.6318H96.0469V20.7534H96.1567Z" fill="#488873"/>
<path fill-rule="evenodd" clip-rule="evenodd" d="M98.353 20.3137C98.353 19.5451 98.9021 18.9961 99.5609 18.9961C100.22 18.9961 100.769 19.5451 100.769 20.3137C100.769 21.0824 100.22 21.6314 99.5609 21.6314C98.9021 21.6314 98.353 21.0824 98.353 20.3137ZM100.33 20.3137C100.33 19.5451 100 19.2157 99.5609 19.2157C99.1217 19.2157 98.902 19.5451 98.902 20.3137C98.902 21.0824 99.2315 21.4118 99.6707 21.4118C100.11 21.4118 100.33 21.0824 100.33 20.3137Z" fill="#488873"/>
<path fill-rule="evenodd" clip-rule="evenodd" d="M101.318 20.3137C101.318 19.5451 101.867 18.9961 102.526 18.9961C103.185 18.9961 103.404 19.3255 103.404 19.6549C103.404 19.9843 103.294 19.9843 103.075 19.9843C102.855 19.9843 102.745 19.8745 102.745 19.6549C102.745 19.4353 102.745 19.4353 102.965 19.3255C102.965 19.3255 102.745 19.1059 102.526 19.1059C102.086 19.1059 101.757 19.4353 101.757 20.0941C101.757 20.753 102.086 21.1922 102.636 21.1922C103.185 21.1922 103.185 20.9726 103.404 20.753H103.514C103.294 21.1922 102.965 21.5216 102.526 21.5216C102.086 21.5216 101.318 20.9726 101.318 20.2039" fill="#488873"/>
<path fill-rule="evenodd" clip-rule="evenodd" d="M103.733 21.413C104.063 21.413 104.173 21.413 104.173 21.1934V19.5464C104.173 19.3267 104.173 19.3267 103.733 19.2169V18.9973H104.612V21.1934C104.612 21.3032 104.612 21.413 105.051 21.413V21.6326H103.733V21.413ZM104.063 18.0091C104.063 17.7895 104.173 17.6797 104.392 17.6797C104.612 17.6797 104.722 17.7895 104.722 18.0091C104.722 18.2287 104.612 18.3385 104.392 18.3385C104.173 18.3385 104.063 18.2287 104.063 18.0091Z" fill="#488873"/>
<path fill-rule="evenodd" clip-rule="evenodd" d="M105.38 21.0828C105.38 20.8632 105.38 20.6436 105.71 20.5338C106.149 20.3142 106.808 20.2044 106.918 20.0946C106.918 19.4357 106.808 19.2161 106.368 19.2161C105.929 19.2161 106.039 19.2161 106.039 19.3259V19.5455C106.039 19.7651 106.039 19.875 105.71 19.875C105.38 19.875 105.38 19.7651 105.38 19.5455C105.38 19.2161 105.819 18.8867 106.368 18.8867C106.918 18.8867 107.247 19.1063 107.247 19.6553V20.8632C107.247 21.1926 107.247 21.1926 107.686 21.1926C107.467 21.4122 107.357 21.4122 107.137 21.4122C106.808 21.4122 106.808 21.3024 106.698 20.973C106.478 21.1926 106.149 21.4122 105.819 21.4122C105.38 21.4122 105.161 21.0828 105.161 20.8632M106.918 20.973V20.3142C106.149 20.5338 105.929 20.6436 105.929 20.973C105.929 21.3024 106.039 21.4122 106.368 21.4122C106.698 21.4122 106.808 21.1926 106.918 21.0828" fill="#488873"/>
<path fill-rule="evenodd" clip-rule="evenodd" d="M108.345 20.9725V19.3255H107.906V19.1059H108.345V18.2274L108.784 18.0078V18.996H109.553V19.2157H108.784V20.8627C108.784 21.1921 108.784 21.3019 109.114 21.3019C109.443 21.3019 109.443 21.1921 109.553 20.9725H109.663C109.443 21.4117 109.223 21.6313 108.894 21.6313C108.565 21.6313 108.235 21.4117 108.235 20.9725" fill="#488873"/>
<path fill-rule="evenodd" clip-rule="evenodd" d="M109.992 21.413C110.322 21.413 110.431 21.413 110.431 21.1934V19.5464C110.431 19.3267 110.431 19.3267 109.992 19.2169V18.9973H110.871V21.1934C110.871 21.3032 110.871 21.413 111.31 21.413V21.6326H109.992V21.413ZM110.322 18.0091C110.322 17.7895 110.431 17.6797 110.651 17.6797C110.871 17.6797 110.98 17.7895 110.98 18.0091C110.98 18.2287 110.871 18.3385 110.651 18.3385C110.431 18.3385 110.322 18.2287 110.322 18.0091Z" fill="#488873"/>
<path fill-rule="evenodd" clip-rule="evenodd" d="M111.529 20.3137C111.529 19.5451 112.078 18.9961 112.847 18.9961C113.616 18.9961 114.055 19.5451 114.055 20.3137C114.055 21.0824 113.506 21.6314 112.847 21.6314C112.188 21.6314 111.529 21.0824 111.529 20.3137ZM113.506 20.3137C113.506 19.5451 113.176 19.2157 112.737 19.2157C112.298 19.2157 112.078 19.5451 112.078 20.3137C112.078 21.0824 112.408 21.4118 112.847 21.4118C113.286 21.4118 113.506 21.0824 113.506 20.3137Z" fill="#488873"/>
<path fill-rule="evenodd" clip-rule="evenodd" d="M114.274 21.4122C114.604 21.4122 114.714 21.4122 114.714 21.1926V19.5455C114.714 19.3259 114.714 19.3259 114.274 19.2161V18.9965H115.153V19.3259C115.482 19.1063 115.812 18.8867 116.141 18.8867C116.47 18.8867 116.8 19.2161 116.8 19.6553V21.0828C116.8 21.1926 116.8 21.3024 117.239 21.3024V21.522H116.031V21.3024C116.361 21.3024 116.361 21.3024 116.361 21.0828V19.875C116.361 19.4357 116.141 19.2161 115.812 19.2161C115.482 19.2161 115.372 19.3259 115.153 19.4357V21.0828C115.153 21.1926 115.153 21.3024 115.482 21.3024V21.522H114.274V21.3024V21.4122Z" fill="#488873"/>
<path fill-rule="evenodd" clip-rule="evenodd" d="M81.553 27.0133H80.3451L80.1255 27.5624C79.9059 28.0016 79.9059 28.1114 80.4549 28.2212V28.4408H79.2471V28.2212C79.5765 28.2212 79.6863 27.8918 79.9059 27.4526L81.0039 24.5977H81.3333L82.4314 27.6722C82.4314 28.0016 82.651 28.1114 83.0902 28.1114V28.331H81.4431V28.1114C81.8824 28.1114 81.9922 28.0016 81.8824 27.6722L81.6628 26.9035L81.553 27.0133ZM81.553 26.7937L81.1137 25.3663L80.5647 26.7937H81.6628H81.553Z" fill="#488873"/>
<path fill-rule="evenodd" clip-rule="evenodd" d="M83.0903 27.1223C83.0903 26.3537 83.6393 25.8047 84.2982 25.8047C84.957 25.8047 85.1766 26.1341 85.1766 26.4635C85.1766 26.7929 85.0668 26.7929 84.8472 26.7929C84.6276 26.7929 84.5178 26.6831 84.5178 26.4635C84.5178 26.2439 84.5178 26.2439 84.7374 26.1341C84.7374 26.1341 84.5178 25.9145 84.2982 25.9145C83.859 25.9145 83.5295 26.2439 83.5295 26.9027C83.5295 27.5616 83.859 28.0008 84.408 28.0008C84.957 28.0008 84.957 27.7812 85.1766 27.5616H85.2864C85.0668 28.0008 84.7374 28.3302 84.2982 28.3302C83.859 28.3302 83.0903 27.7812 83.0903 27.0125" fill="#488873"/>
<path fill-rule="evenodd" clip-rule="evenodd" d="M85.6157 27.1223C85.6157 26.3537 86.1647 25.8047 86.8236 25.8047C87.4824 25.8047 87.702 26.1341 87.702 26.4635C87.702 26.7929 87.5922 26.7929 87.3726 26.7929C87.153 26.7929 87.0432 26.6831 87.0432 26.4635C87.0432 26.2439 87.0432 26.2439 87.2628 26.1341C87.2628 26.1341 87.0432 25.9145 86.8236 25.9145C86.3843 25.9145 86.0549 26.2439 86.0549 26.9027C86.0549 27.5616 86.3844 28.0008 86.9334 28.0008C87.4824 28.0008 87.4824 27.7812 87.702 27.5616H87.8118C87.5922 28.0008 87.2628 28.3302 86.8236 28.3302C86.3843 28.3302 85.6157 27.7812 85.6157 27.0125" fill="#488873"/>
<path fill-rule="evenodd" clip-rule="evenodd" d="M88.1411 27.1223C88.1411 26.3537 88.6901 25.8047 89.349 25.8047C90.0078 25.8047 90.5568 26.3537 90.5568 27.1223C90.5568 27.891 90.0078 28.44 89.349 28.44C88.6901 28.44 88.1411 27.891 88.1411 27.1223ZM90.1176 27.1223C90.1176 26.3537 89.7882 26.0243 89.349 26.0243C88.9097 26.0243 88.6901 26.3537 88.6901 27.1223C88.6901 27.891 89.0195 28.2204 89.4588 28.2204C89.898 28.2204 90.1176 27.891 90.1176 27.1223Z" fill="#488873"/>
<path fill-rule="evenodd" clip-rule="evenodd" d="M91.3254 27.6714V26.2439C91.3254 26.0243 91.3254 26.0243 90.8862 26.0243V25.8047H91.7647V27.4517C91.7647 27.891 91.9843 28.1106 92.3137 28.1106C92.6431 28.1106 92.7529 28.1106 92.8627 27.891V26.2439C92.8627 26.0243 92.8627 26.0243 92.4235 26.0243V25.8047H93.3019V28.0008C93.3019 28.1106 93.3019 28.2204 93.7411 28.2204V28.44H92.8627V28.1106C92.5333 28.3302 92.3137 28.44 91.8745 28.44C91.4353 28.44 91.2156 28.1106 91.2156 27.6714" fill="#488873"/>
<path fill-rule="evenodd" clip-rule="evenodd" d="M94.1802 28.1114C94.5096 28.1114 94.6194 28.1114 94.6194 27.8918V26.2448C94.6194 26.0252 94.6194 26.0252 94.1802 25.9154V25.6957H95.0586V26.0252C95.388 25.8055 95.7174 25.5859 96.0468 25.5859C96.3763 25.5859 96.7057 25.9154 96.7057 26.3546V27.782C96.7057 27.8918 96.7057 28.0016 97.1449 28.0016V28.2212H95.937V28.0016C96.2664 28.0016 96.2665 28.0016 96.2665 27.782V26.5742C96.2665 26.135 96.0468 25.9154 95.7174 25.9154C95.388 25.9154 95.2782 26.0252 95.0586 26.135V27.782C95.0586 27.8918 95.0586 28.0016 95.388 28.0016V28.2212H94.1802V28.0016V28.1114Z" fill="#488873"/>
<path fill-rule="evenodd" clip-rule="evenodd" d="M97.6941 27.6717V26.0247H97.2549V25.8051H97.6941V24.9266L98.1333 24.707V25.6953H98.9019V25.9149H98.1333V27.5619C98.1333 27.8913 98.1333 28.0011 98.4627 28.0011C98.7921 28.0011 98.6823 27.8913 98.9019 27.6717H99.0118C98.7921 28.111 98.5725 28.3306 98.2431 28.3306C97.9137 28.3306 97.5843 28.111 97.5843 27.6717" fill="#488873"/>
<path fill-rule="evenodd" clip-rule="evenodd" d="M99.3412 27.782C99.3412 27.5624 99.3412 27.3428 99.6706 27.233C100.11 27.0134 100.769 26.9036 100.878 26.7938C100.878 26.135 100.769 25.9154 100.329 25.9154C99.8902 25.9154 100 25.9154 100 26.0252V26.2448C100 26.4644 100 26.5742 99.6706 26.5742C99.3412 26.5742 99.3412 26.4644 99.3412 26.2448C99.3412 25.9153 99.7804 25.5859 100.329 25.5859C100.878 25.5859 101.208 25.8055 101.208 26.3546V27.5624C101.208 27.8918 101.208 27.8918 101.647 27.8918C101.427 28.1114 101.318 28.1114 101.098 28.1114C100.769 28.1114 100.769 28.0016 100.659 27.6722C100.439 27.8918 100.11 28.1114 99.7804 28.1114C99.3412 28.1114 99.1216 27.782 99.1216 27.5624M100.878 27.782V27.1232C100.11 27.3428 99.8902 27.4526 99.8902 27.782C99.8902 28.1114 100 28.2212 100.329 28.2212C100.659 28.2212 100.769 28.0016 100.878 27.8918" fill="#488873"/>
<path fill-rule="evenodd" clip-rule="evenodd" d="M102.086 28.1114C102.416 28.1114 102.526 28.1114 102.526 27.8918V26.2448C102.526 26.0252 102.526 26.0252 102.086 25.9154V25.6957H102.965V26.0252C103.294 25.8055 103.624 25.5859 103.953 25.5859C104.283 25.5859 104.612 25.9154 104.612 26.3546V27.782C104.612 27.8918 104.612 28.0016 105.051 28.0016V28.2212H103.843V28.0016C104.173 28.0016 104.173 28.0016 104.173 27.782V26.5742C104.173 26.135 103.953 25.9154 103.624 25.9154C103.294 25.9154 103.184 26.0252 102.965 26.135V27.782C102.965 27.8918 102.965 28.0016 103.294 28.0016V28.2212H102.086V28.0016V28.1114Z" fill="#488873"/>
<path fill-rule="evenodd" clip-rule="evenodd" d="M105.6 27.6717V26.0247H105.161V25.8051H105.6V24.9266L106.039 24.707V25.6953H106.808V25.9149H106.039V27.5619C106.039 27.8913 106.039 28.0011 106.368 28.0011C106.698 28.0011 106.588 27.8913 106.808 27.6717H106.918C106.698 28.111 106.478 28.3306 106.149 28.3306C105.819 28.3306 105.49 28.111 105.49 27.6717" fill="#488873"/>
<path fill-rule="evenodd" clip-rule="evenodd" d="M107.357 27.562H107.576C107.796 28.0012 108.126 28.2208 108.455 28.2208C108.784 28.2208 108.894 28.0012 108.894 27.7816C108.894 27.562 108.784 27.4522 108.235 27.2326C107.686 27.1228 107.467 26.9032 107.467 26.4639C107.467 26.0247 107.796 25.6953 108.345 25.6953C108.894 25.6953 108.784 25.6953 108.894 25.8051C108.894 25.6953 109.004 25.6953 109.004 25.6953V26.4639H108.784C108.565 26.1345 108.455 25.9149 108.125 25.9149C107.796 25.9149 107.686 26.0247 107.686 26.3541C107.686 26.6835 107.906 26.6835 108.345 26.7934C108.894 26.9032 109.114 27.1228 109.114 27.562C109.114 28.0012 108.784 28.4404 108.235 28.4404C107.686 28.4404 107.796 28.4404 107.576 28.2208V28.4404H107.247V27.562H107.357Z" fill="#488873"/>
<path fill-rule="evenodd" clip-rule="evenodd" d="M110.651 27.782C110.651 27.5624 110.651 27.3428 110.98 27.233C111.419 27.0134 112.078 26.9036 112.188 26.7938C112.188 26.135 112.078 25.9154 111.639 25.9154C111.2 25.9154 111.31 25.9154 111.31 26.0252V26.2448C111.31 26.4644 111.31 26.5742 110.98 26.5742C110.651 26.5742 110.651 26.4644 110.651 26.2448C110.651 25.9153 111.09 25.5859 111.639 25.5859C112.188 25.5859 112.517 25.8055 112.517 26.3546V27.5624C112.517 27.8918 112.517 27.8918 112.957 27.8918C112.737 28.1114 112.627 28.1114 112.408 28.1114C112.078 28.1114 112.078 28.0016 111.968 27.6722C111.749 27.8918 111.419 28.1114 111.09 28.1114C110.651 28.1114 110.431 27.782 110.431 27.5624M112.188 27.782V27.1232C111.419 27.3428 111.2 27.4526 111.2 27.782C111.2 28.1114 111.31 28.2212 111.639 28.2212C111.968 28.2212 112.078 28.0016 112.188 27.8918" fill="#488873"/>
<path fill-rule="evenodd" clip-rule="evenodd" d="M113.396 28.1114C113.725 28.1114 113.835 28.1114 113.835 27.8918V26.2448C113.835 26.0252 113.835 26.0252 113.396 25.9154V25.6957H114.274V26.0252C114.604 25.8055 114.933 25.5859 115.263 25.5859C115.592 25.5859 115.921 25.9154 115.921 26.3546V27.782C115.921 27.8918 115.921 28.0016 116.361 28.0016V28.2212H115.153V28.0016C115.482 28.0016 115.482 28.0016 115.482 27.782V26.5742C115.482 26.135 115.263 25.9154 114.933 25.9154C114.604 25.9154 114.494 26.0252 114.274 26.135V27.782C114.274 27.8918 114.274 28.0016 114.604 28.0016V28.2212H113.396V28.0016V28.1114Z" fill="#488873"/>
<path fill-rule="evenodd" clip-rule="evenodd" d="M116.581 27.1244C116.581 26.3558 117.13 25.697 117.788 25.697C118.447 25.697 118.228 25.697 118.337 25.8068V24.8186C118.337 24.5989 118.337 24.5989 117.898 24.4891V24.2695H118.777V27.7833C118.777 27.8931 118.777 28.0029 119.216 28.0029V28.2225H118.337V27.8931C118.118 28.1127 117.898 28.2225 117.569 28.2225C116.91 28.2225 116.471 27.6735 116.471 26.9048M118.447 27.8931V26.246C118.337 26.0264 118.118 25.9166 117.898 25.9166C117.459 25.9166 117.13 26.3558 117.13 27.0146C117.13 27.6735 117.459 28.0029 117.898 28.0029C118.337 28.0029 118.228 28.0029 118.447 27.7833" fill="#488873"/>
<path fill-rule="evenodd" clip-rule="evenodd" d="M79.4668 34.9195C79.906 34.9195 80.0158 34.9195 80.0158 34.6999V31.9548C80.0158 31.7352 79.906 31.7352 79.4668 31.7352V31.5156H82.4315V32.6137H82.3217C82.1021 31.9548 81.9923 31.7352 81.3335 31.7352H80.5648V33.1627H80.8943C81.3335 33.1627 81.4433 33.1627 81.5531 32.5039H81.7727V34.0411H81.5531C81.4433 33.4921 81.3335 33.3823 80.8943 33.3823H80.5648V34.6999C80.5648 34.9195 80.6746 34.9195 81.2237 34.9195V35.1392H79.4668V34.9195Z" fill="#488873"/>
<path fill-rule="evenodd" clip-rule="evenodd" d="M82.9805 34.9208C83.3099 34.9208 83.4197 34.9208 83.4197 34.7012V33.0542C83.4197 32.8346 83.4197 32.8346 82.9805 32.7248V32.5051H83.8589V34.7012C83.8589 34.811 83.8589 34.9208 84.2981 34.9208V35.1404H82.9805V34.9208ZM83.3099 31.5169C83.3099 31.2973 83.4197 31.1875 83.6393 31.1875C83.8589 31.1875 83.9687 31.2973 83.9687 31.5169C83.9687 31.7365 83.8589 31.8463 83.6393 31.8463C83.4197 31.8463 83.3099 31.7365 83.3099 31.5169Z" fill="#488873"/>
<path fill-rule="evenodd" clip-rule="evenodd" d="M84.6274 34.92C84.9569 34.92 85.0667 34.92 85.0667 34.7004V33.0534C85.0667 32.8337 85.0667 32.8337 84.6274 32.7239V32.5043H85.5059V32.8337C85.8353 32.6141 86.1647 32.3945 86.4941 32.3945C86.8235 32.3945 87.1529 32.7239 87.1529 33.1632V34.5906C87.1529 34.7004 87.1529 34.8102 87.5922 34.8102V35.0298H86.3843V34.8102C86.7137 34.8102 86.7137 34.8102 86.7137 34.5906V33.3828C86.7137 32.9436 86.4941 32.7239 86.1647 32.7239C85.8353 32.7239 85.7255 32.8337 85.5059 32.9436V34.5906C85.5059 34.7004 85.5059 34.8102 85.8353 34.8102V35.0298H84.6274V34.8102V34.92Z" fill="#488873"/>
<path fill-rule="evenodd" clip-rule="evenodd" d="M87.9218 34.5902C87.9218 34.3706 87.9218 34.151 88.2512 34.0412C88.6904 33.8216 89.3492 33.7117 89.459 33.6019C89.459 32.9431 89.3492 32.7235 88.91 32.7235C88.4708 32.7235 88.5806 32.7235 88.5806 32.8333V33.0529C88.5806 33.2725 88.5806 33.3823 88.2512 33.3823C87.9218 33.3823 87.9218 33.2725 87.9218 33.0529C87.9218 32.7235 88.361 32.5039 88.91 32.5039C89.459 32.5039 89.7884 32.7235 89.7884 33.2725V34.4804C89.7884 34.8098 89.7884 34.8098 90.2276 34.8098C90.008 35.0294 89.8982 35.0294 89.6786 35.0294C89.3492 35.0294 89.3492 34.9196 89.2394 34.5902C89.0198 34.8098 88.6904 35.0294 88.361 35.0294C87.9218 35.0294 87.7021 34.7 87.7021 34.4804M89.459 34.4804V33.8216C88.6904 34.0412 88.4708 34.151 88.4708 34.4804C88.4708 34.8098 88.5806 34.9196 88.91 34.9196C89.2394 34.9196 89.3492 34.7 89.459 34.5902" fill="#488873"/>
<path fill-rule="evenodd" clip-rule="evenodd" d="M90.6665 34.92C90.9959 34.92 91.1057 34.92 91.1057 34.7004V33.0534C91.1057 32.8337 91.1057 32.8337 90.6665 32.7239V32.5043H91.5449V32.8337C91.8744 32.6141 92.2038 32.3945 92.5332 32.3945C92.8626 32.3945 93.192 32.7239 93.192 33.1632V34.5906C93.192 34.7004 93.192 34.8102 93.6312 34.8102V35.0298H92.4234V34.8102C92.7528 34.8102 92.7528 34.8102 92.7528 34.5906V33.3828C92.7528 32.9436 92.5332 32.7239 92.2038 32.7239C91.8743 32.7239 91.7645 32.8337 91.5449 32.9436V34.5906C91.5449 34.7004 91.5449 34.8102 91.8744 34.8102V35.0298H90.6665V34.8102V34.92Z" fill="#488873"/>
<path fill-rule="evenodd" clip-rule="evenodd" d="M93.8511 33.8216C93.8511 33.0529 94.4001 32.5039 95.0589 32.5039C95.7177 32.5039 95.9374 32.8333 95.9374 33.1627C95.9374 33.4921 95.8275 33.4921 95.6079 33.4921C95.3883 33.4921 95.2785 33.3823 95.2785 33.1627C95.2785 32.9431 95.2785 32.9431 95.4981 32.8333C95.4981 32.8333 95.2785 32.6137 95.0589 32.6137C94.6197 32.6137 94.2903 32.9431 94.2903 33.6019C94.2903 34.2608 94.6197 34.7 95.1687 34.7C95.7177 34.7 95.7177 34.4804 95.9374 34.2608H96.0472C95.8275 34.7 95.4981 35.0294 95.0589 35.0294C94.6197 35.0294 93.8511 34.4804 93.8511 33.7117" fill="#488873"/>
<path fill-rule="evenodd" clip-rule="evenodd" d="M96.3765 34.9208C96.7059 34.9208 96.8157 34.9208 96.8157 34.7012V33.0542C96.8157 32.8346 96.8157 32.8346 96.3765 32.7248V32.5051H97.2549V34.7012C97.2549 34.811 97.2549 34.9208 97.6941 34.9208V35.1404H96.3765V34.9208ZM96.5961 31.5169C96.5961 31.2973 96.7059 31.1875 96.9255 31.1875C97.1451 31.1875 97.2549 31.2973 97.2549 31.5169C97.2549 31.7365 97.1451 31.8463 96.9255 31.8463C96.7059 31.8463 96.5961 31.7365 96.5961 31.5169Z" fill="#488873"/>
<path fill-rule="evenodd" clip-rule="evenodd" d="M97.9139 34.5902C97.9139 34.3706 97.9139 34.151 98.2434 34.0412C98.6826 33.8216 99.3414 33.7117 99.4512 33.6019C99.4512 32.9431 99.3414 32.7235 98.9022 32.7235C98.463 32.7235 98.5728 32.7235 98.5728 32.8333V33.0529C98.5728 33.2725 98.5728 33.3823 98.2434 33.3823C97.9139 33.3823 97.9139 33.2725 97.9139 33.0529C97.9139 32.7235 98.3532 32.5039 98.9022 32.5039C99.4512 32.5039 99.7806 32.7235 99.7806 33.2725V34.4804C99.7806 34.8098 99.7806 34.8098 100.22 34.8098C100 35.0294 99.8904 35.0294 99.6708 35.0294C99.3414 35.0294 99.3414 34.9196 99.2316 34.5902C99.012 34.8098 98.6826 35.0294 98.3532 35.0294C97.9139 35.0294 97.6943 34.7 97.6943 34.4804M99.4512 34.4804V33.8216C98.6826 34.0412 98.463 34.151 98.463 34.4804C98.463 34.8098 98.5728 34.9196 98.9022 34.9196C99.2316 34.9196 99.3414 34.7 99.4512 34.5902" fill="#488873"/>
<path fill-rule="evenodd" clip-rule="evenodd" d="M100.659 34.9208C100.988 34.9208 101.098 34.9208 101.098 34.7012V31.7365C101.098 31.5169 101.098 31.5169 100.659 31.4071V31.1875H101.537V34.7012C101.537 34.811 101.537 34.9208 101.976 34.9208V35.1404H100.659V34.9208Z" fill="#488873"/>
<path fill-rule="evenodd" clip-rule="evenodd" d="M103.404 34.9195C103.843 34.9195 103.953 34.9195 103.953 34.6999V31.9548C103.953 31.7352 103.843 31.7352 103.404 31.7352V31.5156H104.941C106.039 31.5156 106.369 31.9548 106.369 32.5039C106.369 33.0529 106.039 33.6019 104.831 33.6019H104.502V34.6999C104.502 34.9195 104.612 34.9195 105.161 34.9195V35.1392H103.404V34.9195ZM104.941 33.2725C105.71 33.2725 105.819 32.9431 105.819 32.3941C105.819 31.845 105.6 31.6254 104.941 31.6254H104.502V33.2725H104.941Z" fill="#488873"/>
<path fill-rule="evenodd" clip-rule="evenodd" d="M106.808 34.9196C107.137 34.9196 107.247 34.9196 107.247 34.7V33.0529C107.247 32.8333 107.247 32.8333 106.808 32.7235V32.5039H107.686V32.9431C107.906 32.7235 108.125 32.5039 108.455 32.5039C108.784 32.5039 108.894 32.7235 108.894 32.9431C108.894 33.1627 108.784 33.2725 108.564 33.2725C108.345 33.2725 108.235 33.2725 108.235 32.9431C108.015 32.9431 107.796 33.0529 107.686 33.2725V34.8098C107.686 34.9196 107.686 35.0294 108.125 35.0294V35.249H106.808V35.0294V34.9196Z" fill="#488873"/>
<path fill-rule="evenodd" clip-rule="evenodd" d="M109.004 33.8216C109.004 33.0529 109.553 32.5039 110.212 32.5039C110.871 32.5039 111.42 33.0529 111.42 33.8216C111.42 34.5902 110.871 35.1392 110.212 35.1392C109.553 35.1392 109.004 34.5902 109.004 33.8216ZM110.98 33.8216C110.98 33.0529 110.651 32.7235 110.212 32.7235C109.773 32.7235 109.553 33.0529 109.553 33.8216C109.553 34.5902 109.882 34.9196 110.322 34.9196C110.761 34.9196 110.98 34.5902 110.98 33.8216Z" fill="#488873"/>
<path fill-rule="evenodd" clip-rule="evenodd" d="M111.859 34.9208C112.188 34.9208 112.298 34.9208 112.298 34.7012V32.8346H111.859V32.615H112.298V32.3953C112.298 31.9561 112.408 31.6267 112.628 31.4071C112.847 31.1875 113.067 31.1875 113.286 31.1875C113.726 31.1875 113.945 31.4071 113.945 31.6267C113.945 31.8463 113.945 31.9561 113.726 31.9561C113.506 31.9561 113.396 31.9561 113.396 31.6267C113.396 31.2973 113.396 31.6267 113.396 31.5169C113.396 31.5169 113.396 31.5169 113.286 31.5169H113.067C113.067 31.5169 112.957 31.7365 112.957 32.1757V32.5051H113.616V32.7248H112.957V34.5914C112.957 34.7012 113.067 34.811 113.506 34.811V35.0306H112.078V34.811L111.859 34.9208Z" fill="#488873"/>
<path fill-rule="evenodd" clip-rule="evenodd" d="M113.616 33.8216C113.616 33.0529 114.055 32.5039 114.824 32.5039C115.592 32.5039 115.922 33.1627 115.812 33.8216H114.055C114.055 34.4804 114.384 34.9196 114.933 34.9196C115.482 34.9196 115.482 34.7 115.702 34.4804H115.812C115.592 34.9196 115.263 35.249 114.714 35.249C114.165 35.249 113.506 34.7 113.506 33.9314M114.165 33.6019H115.373C115.373 33.0529 115.263 32.7235 114.824 32.7235C114.384 32.7235 114.274 32.9431 114.165 33.6019Z" fill="#488873"/>
<path fill-rule="evenodd" clip-rule="evenodd" d="M116.361 34.2612H116.58C116.8 34.7004 117.129 34.92 117.459 34.92C117.788 34.92 117.898 34.7004 117.898 34.4808C117.898 34.2612 117.788 34.1514 117.239 33.9318C116.69 33.822 116.471 33.6024 116.471 33.1632C116.471 32.7239 116.8 32.3945 117.349 32.3945C117.898 32.3945 117.788 32.3945 117.898 32.5043C117.898 32.3945 118.008 32.3945 118.008 32.3945V33.1632H117.788C117.569 32.8337 117.459 32.6141 117.129 32.6141C116.8 32.6141 116.69 32.7239 116.69 33.0534C116.69 33.3828 116.91 33.3828 117.349 33.4926C117.898 33.6024 118.118 33.822 118.118 34.2612C118.118 34.7004 117.788 35.1396 117.239 35.1396C116.69 35.1396 116.8 35.1396 116.58 34.92V35.1396H116.251V34.2612H116.361Z" fill="#488873"/>
<path fill-rule="evenodd" clip-rule="evenodd" d="M118.666 34.2612H118.886C119.106 34.7004 119.435 34.92 119.764 34.92C120.094 34.92 120.204 34.7004 120.204 34.4808C120.204 34.2612 120.094 34.1514 119.545 33.9318C118.996 33.822 118.776 33.6024 118.776 33.1632C118.776 32.7239 119.106 32.3945 119.655 32.3945C120.204 32.3945 120.094 32.3945 120.204 32.5043C120.204 32.3945 120.314 32.3945 120.314 32.3945V33.1632H120.094C119.874 32.8337 119.764 32.6141 119.435 32.6141C119.106 32.6141 118.996 32.7239 118.996 33.0534C118.996 33.3828 119.215 33.3828 119.655 33.4926C120.204 33.6024 120.423 33.822 120.423 34.2612C120.423 34.7004 120.094 35.1396 119.545 35.1396C118.996 35.1396 119.106 35.1396 118.886 34.92V35.1396H118.557V34.2612H118.666Z" fill="#488873"/>
<path fill-rule="evenodd" clip-rule="evenodd" d="M120.863 34.9208C121.192 34.9208 121.302 34.9208 121.302 34.7012V33.0542C121.302 32.8346 121.302 32.8346 120.863 32.7248V32.5051H121.741V34.7012C121.741 34.811 121.741 34.9208 122.18 34.9208V35.1404H120.863V34.9208ZM121.082 31.5169C121.082 31.2973 121.192 31.1875 121.412 31.1875C121.631 31.1875 121.741 31.2973 121.741 31.5169C121.741 31.7365 121.631 31.8463 121.412 31.8463C121.192 31.8463 121.082 31.7365 121.082 31.5169Z" fill="#488873"/>
<path fill-rule="evenodd" clip-rule="evenodd" d="M122.29 33.8216C122.29 33.0529 122.839 32.5039 123.498 32.5039C124.157 32.5039 124.706 33.0529 124.706 33.8216C124.706 34.5902 124.157 35.1392 123.498 35.1392C122.839 35.1392 122.29 34.5902 122.29 33.8216ZM124.267 33.8216C124.267 33.0529 123.937 32.7235 123.498 32.7235C123.059 32.7235 122.839 33.0529 122.839 33.8216C122.839 34.5902 123.168 34.9196 123.608 34.9196C124.047 34.9196 124.267 34.5902 124.267 33.8216Z" fill="#488873"/>
<path fill-rule="evenodd" clip-rule="evenodd" d="M125.145 34.92C125.474 34.92 125.584 34.92 125.584 34.7004V33.0534C125.584 32.8337 125.584 32.8337 125.145 32.7239V32.5043H126.023V32.8337C126.353 32.6141 126.682 32.3945 127.012 32.3945C127.341 32.3945 127.671 32.7239 127.671 33.1632V34.5906C127.671 34.7004 127.671 34.8102 128.11 34.8102V35.0298H126.902V34.8102C127.231 34.8102 127.231 34.8102 127.231 34.5906V33.3828C127.231 32.9436 127.012 32.7239 126.682 32.7239C126.353 32.7239 126.243 32.8337 126.023 32.9436V34.5906C126.023 34.7004 126.023 34.8102 126.353 34.8102V35.0298H125.145V34.8102V34.92Z" fill="#488873"/>
<path fill-rule="evenodd" clip-rule="evenodd" d="M128.439 34.5902C128.439 34.3706 128.439 34.151 128.769 34.0412C129.208 33.8216 129.867 33.7117 129.977 33.6019C129.977 32.9431 129.867 32.7235 129.428 32.7235C128.988 32.7235 129.098 32.7235 129.098 32.8333V33.0529C129.098 33.2725 129.098 33.3823 128.769 33.3823C128.439 33.3823 128.439 33.2725 128.439 33.0529C128.439 32.7235 128.879 32.5039 129.428 32.5039C129.977 32.5039 130.306 32.7235 130.306 33.2725V34.4804C130.306 34.8098 130.306 34.8098 130.745 34.8098C130.526 35.0294 130.416 35.0294 130.196 35.0294C129.867 35.0294 129.867 34.9196 129.757 34.5902C129.537 34.8098 129.208 35.0294 128.879 35.0294C128.439 35.0294 128.22 34.7 128.22 34.4804M129.977 34.4804V33.8216C129.208 34.0412 128.988 34.151 128.988 34.4804C128.988 34.8098 129.098 34.9196 129.428 34.9196C129.757 34.9196 129.867 34.7 129.977 34.5902" fill="#488873"/>
<path fill-rule="evenodd" clip-rule="evenodd" d="M131.184 34.9208C131.513 34.9208 131.623 34.9208 131.623 34.7012V31.7365C131.623 31.5169 131.623 31.5169 131.184 31.4071V31.1875H132.063V34.7012C132.063 34.811 132.063 34.9208 132.502 34.9208V35.1404H131.184V34.9208Z" fill="#488873"/>
<path fill-rule="evenodd" clip-rule="evenodd" d="M132.831 34.2612H133.051C133.271 34.7004 133.6 34.92 133.93 34.92C134.259 34.92 134.369 34.7004 134.369 34.4808C134.369 34.2612 134.259 34.1514 133.71 33.9318C133.161 33.822 132.941 33.6024 132.941 33.1632C132.941 32.7239 133.271 32.3945 133.82 32.3945C134.369 32.3945 134.259 32.3945 134.369 32.5043C134.369 32.3945 134.479 32.3945 134.479 32.3945V33.1632H134.259C134.039 32.8337 133.93 32.6141 133.6 32.6141C133.271 32.6141 133.161 32.7239 133.161 33.0534C133.161 33.3828 133.381 33.3828 133.82 33.4926C134.369 33.6024 134.588 33.822 134.588 34.2612C134.588 34.7004 134.259 35.1396 133.71 35.1396C133.161 35.1396 133.271 35.1396 133.051 34.92V35.1396H132.722V34.2612H132.831Z" fill="#488873"/>
<path fill-rule="evenodd" clip-rule="evenodd" d="M79.4668 41.7255C79.7962 41.7255 79.906 41.7255 79.906 41.5059V39.8589C79.906 39.6392 79.906 39.6392 79.4668 39.5294V39.3098H80.3452V41.5059C80.3452 41.6157 80.3452 41.7255 80.7844 41.7255V41.9451H79.4668V41.7255ZM79.7962 38.3216C79.7962 38.102 79.906 37.9922 80.1256 37.9922C80.3452 37.9922 80.455 38.102 80.455 38.3216C80.455 38.5412 80.3452 38.651 80.1256 38.651C79.906 38.651 79.7962 38.5412 79.7962 38.3216Z" fill="#488873"/>
<path fill-rule="evenodd" clip-rule="evenodd" d="M81.2236 41.7286C81.553 41.7286 81.6629 41.7286 81.6629 41.509V39.8619C81.6629 39.6423 81.6628 39.6423 81.2236 39.5325V39.3129H82.1021V39.6423C82.4315 39.4227 82.7609 39.2031 83.0903 39.2031C83.4197 39.2031 83.7491 39.5325 83.7491 39.9718V41.3992C83.7491 41.509 83.7491 41.6188 84.1883 41.6188V41.8384H82.9805V41.6188C83.3099 41.6188 83.3099 41.6188 83.3099 41.3992V40.1914C83.3099 39.7521 83.0903 39.5325 82.7609 39.5325C82.4315 39.5325 82.3217 39.6423 82.1021 39.7521V41.3992C82.1021 41.509 82.1021 41.6188 82.4315 41.6188V41.8384H81.2236V41.6188V41.7286Z" fill="#488873"/>
<path fill-rule="evenodd" clip-rule="evenodd" d="M85.5059 41.6188C85.9451 41.6188 86.0549 41.6188 86.0549 41.3992V38.6541C86.0549 38.4345 85.9451 38.4345 85.5059 38.4345V38.2148H87.0431C88.1412 38.2148 88.4706 38.6541 88.4706 39.0933C88.4706 39.5325 88.251 39.7521 87.5921 39.9717C88.3608 39.9717 88.6902 40.5207 88.6902 40.8501C88.6902 41.3992 88.251 41.9482 87.1529 41.9482H85.6157V41.7286L85.5059 41.6188ZM86.9333 39.8619C87.5921 39.8619 87.8117 39.6423 87.8117 39.2031C87.8117 38.7639 87.5921 38.5443 86.9333 38.5443H86.4941V39.9717H86.9333V39.8619ZM87.0431 41.6188C87.9215 41.6188 88.0314 41.2894 88.0314 40.8501C88.0314 40.4109 87.7019 40.0815 86.9333 40.0815H86.4941V41.6188H86.9333H87.0431Z" fill="#488873"/>
<path fill-rule="evenodd" clip-rule="evenodd" d="M89.3489 41.1792V39.7517C89.3489 39.5321 89.3489 39.5321 88.9097 39.5321V39.3125H89.7881V40.9596C89.7881 41.3988 90.0077 41.6184 90.3371 41.6184C90.6665 41.6184 90.7763 41.6184 90.8861 41.3988V39.7517C90.8861 39.5321 90.8861 39.5321 90.4469 39.5321V39.3125H91.3254V41.5086C91.3254 41.6184 91.3254 41.7282 91.7646 41.7282V41.9478H90.8861V41.6184C90.5567 41.838 90.3371 41.9478 89.8979 41.9478C89.4587 41.9478 89.2391 41.6184 89.2391 41.1792" fill="#488873"/>
<path fill-rule="evenodd" clip-rule="evenodd" d="M92.204 41.0698H92.4237C92.6433 41.509 92.9727 41.7286 93.3021 41.7286C93.6315 41.7286 93.7413 41.509 93.7413 41.2894C93.7413 41.0698 93.6315 40.96 93.0825 40.7404C92.5335 40.6306 92.3138 40.411 92.3138 39.9718C92.3138 39.5325 92.6433 39.2031 93.1923 39.2031C93.7413 39.2031 93.6315 39.2031 93.7413 39.3129C93.7413 39.2031 93.8511 39.2031 93.8511 39.2031V39.9718H93.6315C93.4119 39.6423 93.3021 39.4227 92.9727 39.4227C92.6433 39.4227 92.5335 39.5325 92.5335 39.8619C92.5335 40.1914 92.7531 40.1914 93.1923 40.3012C93.7413 40.411 93.9609 40.6306 93.9609 41.0698C93.9609 41.509 93.6315 41.9482 93.0825 41.9482C92.5335 41.9482 92.6433 41.9482 92.4237 41.7286V41.9482H92.0942V41.0698H92.204Z" fill="#488873"/>
<path fill-rule="evenodd" clip-rule="evenodd" d="M94.3999 41.7255C94.7293 41.7255 94.8391 41.7255 94.8391 41.5059V39.8589C94.8391 39.6392 94.8391 39.6392 94.3999 39.5294V39.3098H95.2783V41.5059C95.2783 41.6157 95.2783 41.7255 95.7176 41.7255V41.9451H94.3999V41.7255ZM94.7293 38.3216C94.7293 38.102 94.8391 37.9922 95.0587 37.9922C95.2783 37.9922 95.3881 38.102 95.3881 38.3216C95.3881 38.5412 95.2783 38.651 95.0587 38.651C94.8391 38.651 94.7293 38.5412 94.7293 38.3216Z" fill="#488873"/>
<path fill-rule="evenodd" clip-rule="evenodd" d="M96.0469 41.7286C96.3763 41.7286 96.4861 41.7286 96.4861 41.509V39.8619C96.4861 39.6423 96.4861 39.6423 96.0469 39.5325V39.3129H96.9253V39.6423C97.2547 39.4227 97.5841 39.2031 97.9135 39.2031C98.243 39.2031 98.5724 39.5325 98.5724 39.9718V41.3992C98.5724 41.509 98.5724 41.6188 99.0116 41.6188V41.8384H97.8037V41.6188C98.1331 41.6188 98.1332 41.6188 98.1332 41.3992V40.1914C98.1332 39.7521 97.9135 39.5325 97.5841 39.5325C97.2547 39.5325 97.1449 39.6423 96.9253 39.7521V41.3992C96.9253 41.509 96.9253 41.6188 97.2547 41.6188V41.8384H96.0469V41.6188V41.7286Z" fill="#488873"/>
<path fill-rule="evenodd" clip-rule="evenodd" d="M99.2314 40.6301C99.2314 39.8615 99.6706 39.3125 100.439 39.3125C101.208 39.3125 101.537 39.9713 101.427 40.6301H99.6706C99.6706 41.289 100 41.7282 100.549 41.7282C101.098 41.7282 101.098 41.5086 101.318 41.289H101.427C101.208 41.7282 100.878 42.0576 100.329 42.0576C99.7804 42.0576 99.1216 41.5086 99.1216 40.74M99.7804 40.3007H100.988C100.988 39.7517 100.878 39.4223 100.439 39.4223C100 39.4223 99.8902 39.6419 99.7804 40.3007Z" fill="#488873"/>
<path fill-rule="evenodd" clip-rule="evenodd" d="M101.867 41.0698H102.086C102.306 41.509 102.635 41.7286 102.965 41.7286C103.294 41.7286 103.404 41.509 103.404 41.2894C103.404 41.0698 103.294 40.96 102.745 40.7404C102.196 40.6306 101.976 40.411 101.976 39.9718C101.976 39.5325 102.306 39.2031 102.855 39.2031C103.404 39.2031 103.294 39.2031 103.404 39.3129C103.404 39.2031 103.514 39.2031 103.514 39.2031V39.9718H103.294C103.074 39.6423 102.965 39.4227 102.635 39.4227C102.306 39.4227 102.196 39.5325 102.196 39.8619C102.196 40.1914 102.416 40.1914 102.855 40.3012C103.404 40.411 103.623 40.6306 103.623 41.0698C103.623 41.509 103.294 41.9482 102.745 41.9482C102.196 41.9482 102.306 41.9482 102.086 41.7286V41.9482H101.757V41.0698H101.867Z" fill="#488873"/>
<path fill-rule="evenodd" clip-rule="evenodd" d="M104.173 41.0698H104.392C104.612 41.509 104.941 41.7286 105.271 41.7286C105.6 41.7286 105.71 41.509 105.71 41.2894C105.71 41.0698 105.6 40.96 105.051 40.7404C104.502 40.6306 104.283 40.411 104.283 39.9718C104.283 39.5325 104.612 39.2031 105.161 39.2031C105.71 39.2031 105.6 39.2031 105.71 39.3129C105.71 39.2031 105.82 39.2031 105.82 39.2031V39.9718H105.6C105.381 39.6423 105.271 39.4227 104.941 39.4227C104.612 39.4227 104.502 39.5325 104.502 39.8619C104.502 40.1914 104.722 40.1914 105.161 40.3012C105.71 40.411 105.93 40.6306 105.93 41.0698C105.93 41.509 105.6 41.9482 105.051 41.9482C104.502 41.9482 104.612 41.9482 104.392 41.7286V41.9482H104.063V41.0698H104.173Z" fill="#488873"/>
<path fill-rule="evenodd" clip-rule="evenodd" d="M118.228 20.3137C118.228 19.5451 118.667 18.9961 119.435 18.9961C120.204 18.9961 120.643 19.5451 120.643 20.3137C120.643 21.0824 120.204 21.6314 119.435 21.6314C118.667 21.6314 118.228 21.0824 118.228 20.3137ZM120.094 20.3137C120.094 19.5451 119.765 19.2157 119.326 19.2157C118.886 19.2157 118.667 19.5451 118.667 20.3137C118.667 21.0824 118.996 21.4118 119.435 21.4118C119.875 21.4118 120.094 21.0824 120.094 20.3137Z" fill="#488873"/>
<path fill-rule="evenodd" clip-rule="evenodd" d="M120.973 21.4126C121.302 21.4126 121.412 21.4126 121.412 21.193V19.3263H120.973C120.973 19.2165 121.412 19.1067 121.412 19.1067C121.412 18.5577 121.522 18.2283 121.741 18.0087C121.961 17.7891 122.071 17.7891 122.29 17.7891C122.73 17.7891 122.839 18.0087 122.839 18.2283C122.839 18.4479 122.839 18.5577 122.62 18.5577C122.4 18.5577 122.29 18.5577 122.29 18.2283C122.29 17.8989 122.29 18.2283 122.29 18.1185C122.29 18.1185 122.29 18.1185 122.18 18.1185C122.18 18.1185 122.071 18.1185 121.961 18.1185C121.851 18.1185 121.851 18.4479 121.851 18.7773V19.1067H122.51V19.3263H121.851V21.193C121.851 21.3028 121.961 21.4126 122.4 21.4126V21.6322H120.973V21.4126Z" fill="#488873"/>
</g>
<path d="M60.6902 15.375H14.2432V44.8025H60.6902V15.375Z" fill="#003160"/>
<mask id="mask1_4041_13949" style="mask-type:luminance" maskUnits="userSpaceOnUse" x="14" y="12" width="125" height="36">
<path d="M138.212 12.8477H14.2432V47.4359H138.212V12.8477Z" fill="white"/>
</mask>
<g mask="url(#mask1_4041_13949)">
<path fill-rule="evenodd" clip-rule="evenodd" d="M20.3921 37.554C21.7097 37.554 22.0391 37.4442 22.0391 36.6756V28.9893C22.0391 28.3305 21.7097 27.8913 20.3921 27.8913V27.6716H23.9058V36.7854C23.9058 37.554 24.2352 37.6638 25.5529 37.6638V37.8834H20.3921V37.6638V37.554ZM21.5999 24.0481C21.5999 23.2795 22.0391 22.7305 22.8078 22.7305C23.5764 22.7305 24.0156 23.2795 24.0156 24.0481C24.0156 24.8167 23.5764 25.3658 22.8078 25.3658C22.0391 25.3658 21.5999 24.8167 21.5999 24.1579" fill="#B7D99B"/>
<path fill-rule="evenodd" clip-rule="evenodd" d="M33.0195 37.5555C34.1175 37.5555 34.447 37.4457 34.447 36.6771V31.0771C34.447 29.3202 33.8979 28.332 32.5803 28.332C31.2626 28.332 30.6038 29.2104 30.0548 30.5281V36.5673C30.0548 37.3359 30.1646 37.4457 31.3724 37.4457V37.6653H26.6509V37.4457C27.9685 37.4457 28.2979 37.3359 28.2979 36.5673V28.881C28.2979 28.2222 27.9685 27.783 26.6509 27.783V27.5634H30.0548V29.979C31.043 28.2222 32.2509 27.3438 33.7881 27.3438C35.3254 27.3438 36.2038 28.1124 36.3136 29.6496C37.3019 28.1124 38.6195 27.3438 40.047 27.3438C41.4744 27.3438 42.6823 28.332 42.6823 30.4183V36.6771C42.6823 37.4457 43.0117 37.5555 44.3293 37.5555V37.7751H39.4979V37.5555C40.596 37.5555 40.8156 37.4457 40.8156 36.6771V31.0771C40.8156 29.3202 40.2666 28.332 38.9489 28.332C37.6313 28.332 37.0823 28.9908 36.4234 30.1987V36.5673C36.4234 37.3359 36.7528 37.4457 38.0705 37.4457V37.6653H33.1293V37.4457L33.0195 37.5555Z" fill="#B7D99B"/>
<path fill-rule="evenodd" clip-rule="evenodd" d="M44.8784 35.5786C44.8784 34.7002 45.2078 33.8218 46.1961 33.3825C47.8431 32.3943 50.5882 32.1747 50.9176 31.8453V30.4178C50.9176 28.661 50.3686 27.7825 49.051 27.7825C47.7333 27.7825 47.5137 28.0021 47.0745 28.5512C47.4039 28.8806 47.6235 29.3198 47.6235 29.759C47.6235 30.4178 47.1843 30.9669 46.4157 30.9669C45.647 30.9669 45.3176 30.4178 45.3176 29.759C45.3176 28.4414 47.0745 27.4531 49.1608 27.4531C51.247 27.4531 52.7843 28.4414 52.7843 30.5276V35.908C52.7843 37.0061 53.1137 37.5551 54.5412 37.0061V37.2257C53.8823 37.6649 53.3333 37.8845 52.6745 37.8845C51.5765 37.8845 51.1372 37.3355 51.0274 36.1276C50.149 37.1159 49.051 37.8845 47.7333 37.8845C45.8667 37.8845 44.9882 36.7865 44.9882 35.4688M50.9176 35.5786V32.1747C47.6235 32.9433 46.9647 33.6021 46.9647 35.0296C46.9647 36.457 47.4039 36.8963 48.7216 36.8963C50.0392 36.8963 50.3686 36.1276 50.9176 35.4688" fill="#FEFEFE"/>
<path fill-rule="evenodd" clip-rule="evenodd" d="M55.4196 27.4531C56.1882 27.4531 56.9568 28.1119 56.9568 28.9904C56.9568 29.8688 56.298 30.5276 55.4196 30.5276C54.5411 30.5276 53.8823 29.8688 53.8823 28.9904C53.8823 28.1119 54.5411 27.4531 55.4196 27.4531ZM55.4196 30.1982C56.0784 30.1982 56.6274 29.6492 56.6274 28.8806C56.6274 28.1119 56.0784 27.5629 55.4196 27.5629C54.7608 27.5629 54.2117 28.1119 54.2117 28.8806C54.2117 29.6492 54.7608 30.1982 55.4196 30.1982ZM54.7608 28.1119H55.4196C55.8588 28.1119 56.0784 28.3316 56.0784 28.661C56.0784 28.9904 55.8588 29.1002 55.6392 29.1002L56.1882 29.8688H55.8588L55.4196 29.1002H55.0902V29.8688H54.8706V28.1119H54.7608ZM55.0902 28.8806H55.4196C55.6392 28.8806 55.8588 28.8806 55.8588 28.5512C55.8588 28.2218 55.6392 28.3316 55.4196 28.3316H55.0902V28.8806Z" fill="#FEFEFE"/>
</g>
</svg>
