<svg width="61" height="56" viewBox="0 0 61 56" fill="none" xmlns="http://www.w3.org/2000/svg">
<path d="M23.8416 42.4732C24.2642 42.4732 24.5812 42.6845 24.5812 43.1072C24.5812 43.6355 24.2642 44.1638 23.7359 44.1638C23.2076 44.1638 23.1019 43.8468 22.9963 43.4242C22.9963 42.8959 23.4189 42.3676 23.8416 42.3676M27.9623 43.5298C27.5397 43.5298 27.3284 45.0091 27.3284 46.4883C27.3284 47.4393 27.5397 47.6506 27.6453 47.6506C27.8567 47.6506 28.4906 45.8544 28.4906 44.4808C28.4906 43.8468 28.2793 43.5298 27.9623 43.5298ZM41.2755 47.1223C40.3246 47.1223 40.4302 48.6015 40.5359 48.9185C41.1699 48.8129 41.6982 48.3902 41.8038 48.0732C41.8038 47.7562 41.8038 47.1223 41.2755 47.1223ZM31.4491 47.2279C31.2378 47.2279 30.7095 47.4393 30.7095 48.1789C30.7095 48.9185 30.9208 49.0242 31.0265 49.1298C31.7661 48.9185 31.8717 48.3902 31.8717 47.8619C31.8717 47.4393 31.6604 47.1223 31.4491 47.1223M14.3321 42.8959C14.7548 42.7902 14.9661 42.8959 15.0717 43.4242C15.2831 44.1638 15.2831 45.1147 15.1774 46.4883C15.0717 48.3902 14.1208 50.7147 11.6906 50.6091C9.57741 50.6091 8.62646 49.2355 8.62646 47.2279C8.62646 46.277 8.62646 45.3261 9.04911 43.9525C9.26043 43.2129 9.47175 43.0015 10.1057 42.8959C10.634 42.7902 10.5284 43.3185 10.4227 43.9525C10.1057 45.3261 10 45.96 10.1057 47.5449C10.2114 49.2355 10.951 49.8695 11.7963 49.8695C13.0642 49.8695 13.6982 48.9185 13.9095 47.3336C14.1208 46.1713 13.9095 45.5374 13.9095 45.2204C13.9095 45.0091 13.5925 44.5864 13.5925 44.1638C13.4868 43.4242 13.9095 42.8959 14.2265 42.7902M27.8567 42.1562C28.5963 42.1562 29.1246 42.7902 29.2302 43.8468C29.3359 46.6996 28.385 47.7562 27.9623 48.8129C28.068 49.2355 28.7019 49.8695 29.3359 49.8695C29.9699 49.8695 29.8642 49.8695 29.9699 49.6581C29.9699 49.4468 29.9699 49.3412 29.9699 49.0242C29.9699 47.4393 31.0265 46.0657 31.9774 46.0657C32.9284 46.0657 33.1397 47.0166 33.1397 47.6506C33.1397 48.2845 32.5057 49.0242 31.5548 49.5525C31.7661 49.7638 32.0831 49.8695 32.2944 49.8695C33.668 49.8695 34.4076 48.2845 34.9359 46.8053C34.9359 46.4883 35.2529 46.1713 35.5699 46.1713C36.0982 46.1713 36.3095 49.8695 37.2604 49.8695C38.2114 49.8695 38 49.0242 38 48.3902C38 47.8619 37.8944 47.8619 37.8944 47.2279C37.8944 46.594 38.317 45.8544 38.8453 45.8544C39.3736 45.8544 39.268 46.1713 39.268 46.594C39.268 48.0732 38.1057 50.8204 36.5208 50.8204C34.9359 50.8204 35.4642 48.8129 35.0416 48.8129C34.6189 48.8129 33.8793 50.8204 31.5548 50.8204C29.2302 50.8204 30.7095 50.6091 30.3925 50.2921C29.8642 50.7147 29.3359 50.8204 28.8076 50.8204C27.9623 50.8204 27.5397 49.9751 27.2227 49.9751C26.9057 49.9751 26.2717 50.8204 24.8982 50.8204C23.5246 50.8204 23.5246 49.3412 23.2076 49.3412C22.8906 49.3412 22.2567 50.8204 21.7284 50.8204C21.2 50.8204 20.9887 50.1864 20.6717 49.5525V49.3412C20.3548 48.7072 20.0378 48.1789 19.6151 48.1789C19.1925 48.1789 18.6642 48.8129 17.9246 49.3412L17.7133 49.5525C17.0793 50.1864 16.3397 50.7147 16.1284 50.7147C15.917 50.7147 15.8114 50.5034 15.8114 50.2921C15.8114 49.9751 16.1284 49.1298 16.234 48.7072C16.4453 47.9676 16.6567 47.2279 16.7623 47.0166C16.7623 46.8053 17.0793 46.594 17.2906 46.594C17.3963 46.594 17.3963 46.8053 17.5019 46.911C17.5019 47.4393 17.8189 48.0732 17.9246 48.0732C18.2416 48.0732 19.4038 46.0657 20.0378 46.0657C20.6717 46.0657 20.8831 49.3412 21.9397 49.3412C22.9963 49.3412 22.5736 48.9185 22.785 48.3902C22.785 47.5449 23.1019 46.277 23.7359 46.277C24.3699 46.277 24.4755 47.3336 24.0529 48.2846C24.0529 49.4468 24.7925 49.6581 25.3208 49.6581C25.8491 49.6581 26.2717 49.5525 26.8001 48.8129C26.4831 48.1789 26.3774 47.0166 26.2717 46.594C26.1661 44.3751 27.0114 42.2619 28.068 42.1562M48.7774 45.7487C49.517 45.7487 50.0453 46.1713 50.0453 46.6996C50.0453 47.1223 49.7284 47.4393 49.3057 47.4393C48.4604 47.4393 48.6717 46.8053 48.3548 46.8053C47.6151 46.8053 46.9812 47.9676 46.3472 49.3412V49.5525L46.1359 49.8695V50.1864C45.7133 50.8204 45.5019 50.9261 45.2906 50.9261C44.6567 50.9261 44.551 49.3412 44.3397 48.6015C43.8114 49.6581 42.8604 50.9261 41.2755 50.9261C40.3246 50.9261 39.4793 50.3978 39.4793 49.0242C39.4793 47.6506 40.5359 46.277 41.5925 46.277C42.6491 46.277 42.9661 47.1223 42.9661 47.6506C42.9661 49.2355 40.8529 49.2355 40.8529 49.5525C40.8529 49.8695 41.3812 49.9751 41.6982 49.9751C43.0717 49.9751 43.917 48.2845 44.234 47.0166C44.234 46.8053 44.4453 46.3827 44.868 46.3827C45.2906 46.3827 45.0793 49.0242 45.7133 49.0242C46.3472 49.0242 46.5585 45.7487 48.7774 45.7487Z" fill="#1F36C7"/>
<path d="M31.0262 36.1337C30.7092 36.1337 30.4979 35.9224 30.4979 35.6054C30.4979 35.2884 30.7092 35.0771 31.0262 35.0771C31.3432 35.0771 31.5545 35.2884 31.5545 35.6054C31.5545 35.9224 31.3432 36.1337 31.0262 36.1337ZM32.8225 34.7601C32.7168 34.5488 32.8225 34.1261 32.3998 34.1261C31.9772 34.1261 32.0828 34.3375 32.0828 34.5488C31.5545 34.3375 31.1319 34.3375 30.7092 34.3375C30.2866 34.3375 30.1809 34.3375 29.9696 34.4431C29.864 34.2318 29.23 33.7035 28.7017 33.4922C28.4904 34.6545 27.4338 35.4997 25.9545 35.7111C25.9545 36.4507 25.3206 36.662 24.7923 36.662C24.264 36.662 23.947 36.5563 23.947 36.4507C23.7357 35.3941 22.996 34.7601 22.5734 34.6545C22.5734 34.7601 22.5734 34.8658 22.5734 34.9714C22.5734 35.9224 21.9394 36.4507 20.7772 36.4507C19.6149 36.4507 20.3545 36.4507 20.1432 36.4507C21.5168 37.9299 22.4677 37.4016 22.996 37.7186C23.8413 38.0356 24.4753 39.1978 27.1168 39.1978C29.7583 39.1978 29.0187 38.7752 29.6526 38.4582C29.7583 38.8809 30.1809 39.1978 30.8149 39.1978C31.8715 39.1978 32.5055 38.8809 32.5055 38.5639C32.5055 38.2469 32.5055 38.3526 32.2942 38.3526C32.0828 38.3526 32.0828 38.3526 31.5545 38.3526C31.0262 38.3526 29.7583 38.0356 29.23 36.8733C29.1243 36.662 29.0187 36.662 28.913 36.662C28.596 36.662 27.9621 37.9299 25.7432 37.9299C23.5243 37.9299 24.3696 37.6129 24.3696 37.5073C24.3696 37.5073 24.7923 37.5073 25.2149 37.5073C26.5885 37.5073 27.7508 36.8733 28.4904 36.1337C28.7017 35.8167 28.8074 35.8167 29.0187 35.8167C29.23 35.8167 29.3357 35.9224 29.4413 36.2394C29.7583 37.0846 30.4979 37.7186 31.2375 37.7186C31.9772 37.7186 32.2942 35.9224 32.6111 35.8167C32.6111 35.8167 32.6111 35.8167 32.7168 35.8167C32.8225 35.8167 33.0338 35.7111 33.0338 35.4997C33.0338 35.1828 32.7168 35.1828 32.7168 34.9714" fill="#1F36C7"/>
<path d="M27.4339 31.2734C27.6453 31.2734 27.7509 31.4848 27.8566 31.6961C27.8566 31.6961 28.0679 31.5904 28.1736 31.5904C28.3849 31.5904 28.5962 31.8017 28.5962 32.0131C28.5962 32.2244 28.5962 32.2244 28.3849 32.33C28.4905 32.33 28.5962 32.5414 28.5962 32.647C28.5962 32.7527 28.4905 32.964 28.2792 32.964C28.0679 32.964 27.9622 32.7527 27.7509 32.7527C27.5396 32.7527 27.5396 32.7527 27.4339 32.8583C27.4339 33.0697 27.5396 33.1753 27.5396 33.3866C27.5396 34.3376 26.2717 35.0772 25.0037 35.0772C23.7358 35.0772 23.2075 34.3376 23.2075 34.0206C23.2075 33.7036 23.2075 33.9149 23.3132 33.9149C23.5245 33.9149 23.5245 33.9149 24.1585 33.9149C25.532 33.9149 25.0037 32.1187 26.3773 32.1187C27.7509 32.1187 26.9056 32.1187 27.117 32.4357C27.2226 32.4357 27.2226 32.2244 27.2226 32.1187C27.2226 31.9074 27.117 31.8017 27.117 31.5904C27.117 31.3791 27.2226 31.2734 27.4339 31.2734Z" fill="#1F36C7"/>
<path d="M19.1923 30.3242C20.7772 30.3242 21.9394 31.5921 21.9394 33.494C21.9394 35.3959 21.5168 35.6072 19.6149 35.6072C17.713 35.6072 16.0225 33.7053 16.0225 32.5431C16.0225 31.3808 16.6564 30.8525 17.0791 30.7469C16.6564 32.5431 17.6074 34.3393 19.7206 34.3393C21.8338 34.3393 21.1998 33.811 21.1998 32.9657C21.1998 32.1204 20.5659 31.0638 19.4036 31.0638C18.2413 31.0638 18.4526 31.3808 18.4526 31.8035C18.4526 32.5431 19.0866 32.9657 19.7206 32.9657C20.3545 32.9657 20.4602 32.7544 20.4602 32.5431C20.4602 32.3318 20.4602 32.4374 20.4602 32.4374C20.4602 32.4374 20.3545 32.4374 20.1432 32.4374C19.6149 32.4374 19.1923 32.1204 19.1923 31.8035C19.1923 31.4865 19.4036 31.3808 19.6149 31.3808C20.3545 31.3808 20.8828 32.1204 20.8828 32.7544C20.8828 33.3884 20.4602 33.811 19.7206 33.811C18.2413 33.811 17.5017 32.5431 17.5017 31.8035C17.5017 30.9582 18.2413 30.3242 19.0866 30.3242" fill="#1F36C7"/>
<path d="M36.5208 36.7696L35.1472 37.1923C35.2529 36.8753 35.3585 36.5583 35.3585 36.2413C35.3585 35.9244 35.3585 36.03 35.3585 35.9244H35.5698C36.6264 35.9244 37.0491 35.5017 37.0491 35.5017C37.0491 35.5017 37.1547 35.5017 37.1547 35.713C37.1547 35.9244 37.0491 36.347 36.5208 36.664M37.7887 34.5508C37.4717 34.7621 36.7321 35.3961 35.3585 35.3961C33.9849 35.3961 34.4076 35.1847 34.3019 35.1847C34.1963 35.1847 33.9849 35.2904 33.8793 35.5017C33.5623 35.8187 33.1396 36.4527 33.1396 37.1923C33.1396 37.9319 33.5623 38.1432 34.3019 38.1432C36.7321 38.1432 38.4227 36.664 38.4227 35.5017C38.4227 34.8678 38 34.5508 37.7887 34.5508Z" fill="#1F36C7"/>
<path d="M35.7811 34.7607C36.3094 34.7607 36.8377 34.655 37.1547 34.338C37.2604 34.338 37.2604 34.1267 37.2604 34.0211V33.7041C37.2604 33.3871 36.7321 33.1758 35.8868 33.1758C35.0415 33.1758 34.5132 33.5984 34.5132 33.8097V34.338C34.5132 34.5494 35.0415 34.7607 35.7811 34.7607Z" fill="#1F36C7"/>
<path d="M40.8528 30.5343C40.7471 30.5343 40.5358 30.5343 40.5358 30.4287C40.3245 30.4287 40.1131 30.1117 40.1131 29.7947C40.1131 29.4777 40.3245 29.3721 40.4301 29.3721C40.9584 29.3721 41.5924 29.7947 41.5924 30.2173C41.5924 30.64 41.2754 30.64 40.9584 30.64M40.0075 28.8438C38.1056 28.8438 38.6339 30.4287 36.415 30.957C35.9924 30.957 35.8867 31.1683 35.8867 31.3796C35.8867 31.6966 36.098 32.1192 36.3094 32.1192C37.2603 32.1192 38.7396 30.2173 38.9509 30.2173C39.1622 30.2173 39.1622 30.2173 39.1622 30.5343C39.1622 31.2739 37.1546 32.1192 37.1546 32.6475C37.1546 33.1758 37.8943 33.5985 38.6339 33.5985C39.3735 33.5985 40.5358 31.5909 40.7471 31.5909C40.9584 31.5909 40.9584 31.6966 40.9584 31.8022C40.9584 32.3305 40.2188 33.4928 39.0565 33.9154C38.8452 34.0211 38.7395 34.1268 38.7395 34.2324C38.7395 34.5494 39.0565 34.8664 39.3735 34.8664C39.6905 34.8664 42.1207 32.8588 42.1207 31.1683C42.1207 29.689 41.0641 28.9494 40.0075 28.9494" fill="#1F36C7"/>
<path d="M23.947 32.7534C23.5244 32.7534 22.9961 32.3307 22.9961 32.1194C22.9961 31.9081 23.2074 31.8024 23.3131 31.8024C23.63 31.8024 24.1583 32.2251 24.1583 32.5421C24.1583 32.859 24.1583 32.7534 23.947 32.7534ZM23.3131 31.3798H22.9961C22.8904 31.3798 22.6791 31.3798 22.5734 31.2741C22.3621 31.0628 22.2564 30.1119 21.9395 29.5836C21.5168 28.9496 21.0942 28.7383 20.4602 28.7383C19.8263 28.7383 19.5093 28.9496 19.5093 29.3722C19.5093 29.7949 19.5093 29.6892 20.4602 29.9005C21.5168 30.1119 21.9395 30.7458 22.0451 31.3798C22.0451 32.0138 22.2564 32.5421 22.4678 32.7534C22.7847 33.0704 23.4187 33.3873 23.947 33.3873C24.4753 33.3873 24.7923 33.2817 24.7923 32.859C24.7923 32.4364 24.1583 31.3798 23.2074 31.3798" fill="#1F36C7"/>
<path d="M30.9206 30.1122C30.7093 30.1122 30.7093 30.5348 30.7093 30.6405C30.7093 30.7461 30.7093 30.8518 30.6036 30.8518C30.498 30.8518 30.3923 30.8518 30.2867 30.8518C30.181 30.8518 30.181 30.8518 30.181 31.0631C30.181 31.5914 30.815 32.0141 31.5546 32.0141C32.2942 32.0141 32.8225 31.5914 33.1395 31.5914C33.4565 31.5914 33.2451 31.6971 33.2451 31.8027C33.2451 31.9084 33.1395 32.1197 33.1395 32.2254C33.1395 32.4367 33.5621 32.2254 33.5621 32.5424C33.5621 32.8593 33.0338 33.0707 32.1885 33.0707C30.6036 33.0707 29.547 32.0141 29.547 30.9575C29.547 29.0556 31.5546 29.6895 31.5546 28.9499C31.5546 28.2103 31.3433 28.5273 31.1319 28.5273C31.3433 28.2103 31.6602 28.2103 31.8716 28.2103C32.0829 28.2103 32.2942 28.2103 32.5055 28.2103C32.7168 28.2103 33.0338 28.1046 33.0338 27.7876C33.0338 27.4707 32.9282 27.365 32.2942 27.365C32.2942 26.9424 33.1395 27.1537 33.1395 26.8367C33.1395 26.5197 32.7168 26.4141 32.0829 26.4141C29.864 26.4141 28.3848 28.2103 28.3848 30.1122C28.3848 32.0141 29.6527 33.8103 31.9772 33.8103C34.3017 33.8103 35.3583 31.9084 35.3583 30.5348C34.9357 30.9575 33.7734 31.0631 33.2451 31.0631C31.5546 31.0631 31.1319 30.2178 30.9206 30.2178" fill="#1F36C7"/>
<path d="M34.7245 28.6325C34.5132 28.6325 34.4075 28.5269 34.4075 28.3156C34.4075 28.1042 34.4075 28.1042 34.4075 27.8929C34.4075 27.6816 34.4075 27.5759 34.4075 27.5759C34.6189 27.5759 34.8302 27.9986 34.8302 28.2099C34.8302 28.4212 34.7245 28.6325 34.5132 28.6325M33.7736 26.625C33.9849 26.8363 33.9849 27.0476 33.9849 27.259C33.9849 27.7873 33.5623 28.4212 33.5623 28.9495C33.5623 29.4778 33.9849 30.1118 34.7245 30.1118C35.4641 30.1118 35.8868 29.4778 35.8868 28.8439C35.8868 27.8929 35.1472 26.8363 33.7736 26.625ZM36.3094 27.9986C36.3094 28.1042 36.4151 28.3156 36.4151 28.4212C36.4151 28.7382 36.2038 29.1608 36.2038 29.4778C36.2038 29.7948 36.5207 30.2175 37.049 30.2175C37.5773 30.2175 37.8943 29.7948 37.8943 29.2665C37.8943 28.5269 37.2604 27.9986 36.3094 27.8929M32.717 30.3231C33.0339 30.3231 33.3509 30.0061 33.3509 29.6892C33.3509 29.1608 32.8226 28.7382 32.083 28.7382C32.1887 28.8439 32.2943 28.9495 32.2943 29.1608C32.2943 29.3722 32.1887 29.5835 32.1887 29.7948C32.1887 30.1118 32.4 30.3231 32.717 30.3231Z" fill="#1F36C7"/>
<path d="M26.0603 30.5356C25.849 30.5356 25.849 30.5356 25.849 30.3243C25.849 30.1129 25.849 30.0073 25.849 29.796C25.849 29.3733 26.0603 29.3733 26.483 29.162C26.7999 29.0563 26.9056 28.845 27.0113 28.845C27.1169 28.845 27.2226 28.845 27.2226 29.0563C27.2226 29.6903 26.483 30.4299 26.0603 30.4299M26.5886 27.1545C26.0603 26.9431 25.7433 26.6261 25.6377 25.9922C25.3207 26.4148 25.215 26.7318 25.215 26.9431C25.215 27.7884 26.3773 27.7884 26.3773 28.3167C26.3773 28.845 25.7433 28.9507 25.0037 28.9507C24.2641 28.9507 23.5245 28.845 22.8905 28.2111C22.7848 28.1054 22.6792 27.8941 22.4679 27.8941C22.2565 27.8941 22.1509 28.2111 22.1509 28.6337C22.1509 29.796 23.3131 31.2752 24.898 31.2752C26.483 31.2752 27.7509 29.9016 27.7509 28.7394C27.7509 28.1054 27.6452 27.4714 26.483 27.0488" fill="#1F36C7"/>
<path d="M24.0527 25.0404C23.8414 25.0404 23.5244 24.8291 23.1017 24.5121C22.6791 24.9348 22.4678 25.4631 22.4678 25.9914C22.4678 27.2593 23.7357 28.2103 25.0036 28.2103C26.2715 28.2103 25.4263 28.2103 25.6376 28.2103C24.898 28.2103 24.4753 27.5763 24.4753 26.9423C24.4753 26.3084 25.4263 25.3574 25.4263 24.7235C25.4263 24.0895 24.4753 23.8782 24.4753 23.2442C24.4753 22.6103 25.4263 22.2933 25.3206 21.448C25.3206 20.9197 24.7923 20.3914 24.1583 19.9688C24.264 20.1801 24.3697 20.4971 24.3697 20.6027C24.3697 21.5537 22.4678 21.9763 22.4678 22.8216C22.4678 23.6669 24.264 24.1952 24.264 24.6178C24.264 25.0404 24.264 24.8291 23.947 24.8291" fill="#1F36C7"/>
<path d="M43.283 25.6721C43.917 25.6721 44.4453 26.5173 44.4453 27.4683C44.4453 28.4192 43.917 29.5815 43.0717 30.3211C43.0717 28.6306 40.9585 29.1589 40.9585 27.8909C40.9585 26.623 41.3811 27.0457 41.8038 27.0457C42.2264 27.0457 42.5434 27.1513 42.7547 27.3626C42.5434 27.1513 42.4377 26.8343 42.4377 26.5173C42.4377 26.0947 42.7547 25.5664 43.283 25.5664" fill="#1F36C7"/>
<path d="M17.3965 29.161C17.0795 29.161 16.8682 28.9497 16.8682 28.7384C16.8682 28.4214 16.9739 28.2101 17.2909 28.2101C17.6078 28.2101 17.8192 28.4214 17.8192 28.6327C17.8192 28.9497 17.7135 29.161 17.3965 29.161ZM18.3475 27.4705C18.1361 27.4705 18.0305 27.4705 17.9248 27.6818C17.8192 27.2591 17.5022 26.9422 16.9739 27.0478C16.5512 27.0478 16.2343 27.4705 16.3399 27.9988V28.2101C16.3399 28.2101 16.3399 28.2101 16.2343 28.2101C15.9173 28.2101 15.4946 28.6327 15.4946 29.161C15.4946 29.5837 15.9173 29.9007 16.4456 29.9007C16.6569 29.9007 16.7626 29.9007 16.8682 29.795C16.9739 30.2176 17.2909 30.429 17.8192 30.429C18.2418 30.429 18.5588 30.0063 18.5588 29.478C18.5588 29.3723 18.5588 29.2667 18.5588 29.161C18.9814 29.0554 19.2984 28.7384 19.2984 28.2101C19.1927 27.6818 18.7701 27.2591 18.3475 27.3648" fill="#1F36C7"/>
<path d="M41.1699 25.3568C41.1699 25.1455 41.5926 24.7229 41.5926 24.6172C41.3812 24.6172 40.8529 25.0398 39.902 25.0398C38.9511 25.0398 39.268 25.0398 39.268 24.7229C39.268 24.4059 39.4794 24.3002 39.7963 24.0889C40.219 23.8776 40.9586 23.8776 40.9586 23.7719C40.9586 23.6663 40.219 23.6663 40.219 23.4549C40.219 23.2436 40.536 22.821 40.536 22.7153C40.4303 22.7153 40.0077 23.138 39.7963 23.138C39.585 23.138 39.3737 22.6097 39.268 22.6097C39.1624 22.6097 39.1624 22.6097 39.1624 22.7153C39.1624 22.9266 39.268 23.3493 39.268 23.8776C39.268 24.4059 39.0567 24.7229 38.7397 24.7229C38.4228 24.7229 38.3171 24.3002 38.3171 23.9832C38.3171 23.5606 38.5284 23.0323 38.5284 22.504C38.5284 21.9757 38.5284 22.3983 38.4228 22.3983C38.2114 22.3983 38.0001 22.9266 37.7888 22.9266C37.5775 22.9266 37.3662 22.2927 37.1548 22.2927C36.9435 22.2927 37.1548 22.2927 37.1548 22.504C37.1548 22.7153 37.1548 22.9266 37.1548 23.0323C37.1548 23.138 36.9435 23.2436 36.7322 23.2436C36.5209 23.2436 36.3096 23.2436 36.3096 23.3493C36.3096 23.4549 36.6265 23.5606 36.8379 23.7719C37.2605 24.0889 38.0001 24.4059 38.0001 25.1455C38.0001 25.8851 37.0492 26.3078 36.4152 26.4134C36.0982 26.4134 35.7812 26.5191 35.7812 26.6248C35.7812 26.7304 36.6265 26.8361 36.6265 26.9417C36.6265 27.0474 36.2039 27.5757 36.2039 27.6814C36.3095 27.6814 36.7322 27.3644 36.9435 27.3644C37.1548 27.3644 37.1548 28.104 37.3662 28.104C37.5775 28.104 37.4718 27.0474 37.5775 26.7304C37.6831 26.2021 38.1058 25.7795 38.4228 25.7795C38.7397 25.7795 38.8454 26.4134 38.8454 26.7304C38.8454 27.3644 38.4228 27.9983 38.4228 28.3153C38.5284 28.3153 38.8454 27.8927 39.0567 27.8927C39.268 27.8927 39.585 28.6323 39.7963 28.6323C40.0077 28.6323 39.902 28.6323 39.902 28.5266C39.902 28.3153 39.7963 27.9983 39.7963 27.787C39.7963 27.5757 40.6416 27.6814 40.6416 27.47C40.6416 27.2587 40.3246 27.2587 40.1133 27.1531C39.6907 26.8361 39.1624 26.3078 39.1624 25.7795C39.1624 25.2512 39.268 25.4625 39.3737 25.4625C40.3246 25.4625 40.7473 26.9417 40.9586 26.9417C41.1699 26.9417 40.9586 26.3078 41.0643 26.2021C41.0643 26.2021 41.1699 26.2021 41.2756 26.2021C41.4869 26.2021 41.6982 26.2021 41.8039 26.2021C41.9096 26.2021 41.9096 26.2021 41.9096 26.2021C41.9096 25.9908 41.0643 25.7795 41.0643 25.5681" fill="#1F36C7"/>
<path d="M37.2604 24.9346C37.2604 24.6176 35.8868 23.561 35.5699 23.561C35.2529 23.561 35.4642 23.561 35.4642 23.561C35.4642 23.6667 35.4642 23.7723 35.4642 23.878C35.4642 24.0893 35.3585 24.195 35.1472 24.195C34.9359 24.195 34.4076 24.0893 34.4076 23.6667C34.4076 22.8214 36.0982 23.0327 36.3095 22.1874C35.5699 22.1874 35.2529 21.6591 34.7246 21.6591C34.1963 21.6591 34.1963 21.6591 34.1963 22.1874C34.1963 22.7157 34.1963 22.6101 34.1963 22.8214C34.1963 23.0327 34.1963 23.1384 33.8793 23.1384C33.5623 23.1384 33.668 22.927 33.668 22.6101C33.668 22.2931 33.668 22.0818 33.668 21.8704C33.668 20.6025 32.1887 21.1308 32.0831 20.0742C31.7661 20.7082 31.6604 21.1308 31.6604 21.5535C31.6604 22.927 33.5623 22.8214 33.5623 23.7723C33.5623 24.7233 33.351 24.195 33.2453 24.195C32.9284 24.195 32.717 23.561 32.1887 23.561C31.6604 23.561 31.7661 23.7723 31.7661 24.0893C31.7661 24.4063 31.7661 24.6176 31.7661 24.8289C31.7661 25.3572 31.5548 25.6742 31.2378 25.8855C32.9284 25.7799 33.034 24.512 33.5623 24.512C34.0906 24.512 33.7736 24.6176 33.7736 24.7233C33.7736 24.9346 33.4567 25.2516 33.4567 25.6742C33.4567 26.0969 33.985 26.4138 34.3019 26.4138C34.6189 26.4138 34.8302 26.3082 34.8302 25.9912C34.8302 25.6742 34.3019 25.2516 34.3019 24.9346C34.3019 24.6176 34.5133 24.7233 34.7246 24.7233C35.2529 24.7233 35.4642 24.7233 35.4642 24.9346C35.4642 25.1459 35.2529 25.3572 35.2529 25.4629C35.2529 25.5686 35.2529 25.5686 35.3585 25.5686C35.7812 25.5686 37.1548 25.3572 37.1548 25.0403" fill="#1F36C7"/>
<path d="M19.4036 20.1797C19.1923 20.6023 19.0866 21.2363 19.0866 21.5533C19.0866 23.6665 21.6225 25.674 21.6225 27.0476C21.6225 28.4212 21.1998 28.2099 20.5659 28.2099C19.9319 28.2099 19.6149 27.6816 19.6149 27.2589C19.6149 26.8363 19.8262 26.625 19.9319 26.625C20.0376 26.625 19.9319 26.625 19.9319 26.7306C19.9319 26.942 20.0376 27.1533 20.3545 27.1533C20.6715 27.1533 20.7772 26.942 20.7772 26.7306C20.7772 25.674 18.664 23.8778 18.664 21.342C18.5583 21.6589 18.4526 21.9759 18.4526 22.5042C18.4526 23.6665 19.2979 24.9344 19.2979 26.0967C19.2979 27.2589 18.981 26.942 18.4526 26.942C17.9243 26.942 17.713 26.5193 17.713 26.308C17.713 26.0967 17.713 25.991 17.8187 25.991C17.9243 25.991 17.8187 26.308 18.1357 26.308C18.4526 26.308 18.5583 26.0967 18.5583 25.674C18.5583 24.6174 17.9243 23.8778 17.9243 22.8212C17.9243 21.7646 17.9243 22.5042 17.9243 22.2929C17.6074 22.7155 17.6074 23.2438 17.6074 23.7721V25.0401C17.6074 25.8853 17.1847 26.308 16.6564 26.308C16.1281 26.308 16.0225 25.991 16.0225 25.5684C16.0225 25.1457 16.0225 25.2514 16.1281 25.2514C16.1281 25.2514 16.3394 25.5684 16.5508 25.5684C17.0791 25.5684 17.1847 25.0401 17.1847 23.9835C17.1847 22.6099 17.6074 21.2363 19.2979 20.1797" fill="#1F36C7"/>
<path d="M15.9169 19.5469C16.1282 19.5469 16.1282 19.7582 16.1282 19.8639C16.1282 20.4978 15.3886 22.1884 15.3886 22.7167C15.3886 23.245 15.3886 22.8223 15.4942 22.8223C15.8112 22.8223 16.4452 21.4488 16.6565 20.8148C16.7621 20.4978 16.9735 20.2865 17.0791 20.2865C17.1848 20.2865 17.2904 20.3922 17.2904 20.7091C17.2904 21.3431 16.6565 23.0337 16.1282 24.0903C15.7055 24.9356 14.9659 26.0978 14.9659 26.8374C14.9659 27.5771 14.9659 27.5771 15.4942 27.9997C14.6489 27.9997 14.332 27.894 14.015 27.2601C12.6414 29.9016 16.5508 29.6903 15.1772 32.1205C14.9659 31.6978 12.9584 31.2752 12.9584 28.7393C12.9584 26.2035 14.8603 25.3582 14.8603 24.4073C14.8603 23.4563 14.8603 24.0903 14.6489 23.9846C14.2263 23.6676 14.2263 23.3506 13.9093 23.3506C13.5923 23.3506 13.381 23.879 13.698 24.4073C13.8037 24.6186 13.9093 24.7242 13.9093 24.8299C13.9093 25.1469 13.381 26.0978 12.9584 26.0978C12.5357 26.0978 12.2188 25.1469 12.2188 23.562C12.2188 21.9771 12.5357 20.8148 12.9584 20.8148C13.381 20.8148 13.064 20.8148 13.064 21.0261C13.064 21.2374 13.064 21.5544 13.064 22.0827C13.064 22.611 13.1697 22.7167 13.2754 22.7167C13.698 22.7167 13.5923 20.0752 14.332 20.0752C15.0716 20.0752 14.5433 20.2865 14.5433 20.3922C14.5433 21.0261 14.2263 21.8714 14.2263 22.294C14.2263 22.7167 14.2263 22.611 14.4376 22.611C14.7546 22.611 15.2829 19.6525 15.8112 19.6525" fill="#1F36C7"/>
<path d="M42.2266 17.9622C42.1209 17.9622 41.9096 17.9622 41.6983 17.9622C41.2756 17.9622 40.9587 18.5962 40.7473 18.5962C40.536 18.5962 40.7473 18.5962 40.7473 18.4905C40.7473 18.2792 41.17 17.9622 41.17 17.7509C41.17 17.5396 40.9587 17.6452 40.9587 17.6452C40.536 17.6452 39.9021 18.2792 39.5851 18.2792C39.2681 18.2792 39.4794 18.2792 39.4794 18.1735C39.4794 17.9622 39.9021 17.7509 39.9021 17.6452C39.9021 17.5396 39.6907 17.4339 39.5851 17.4339C39.3738 17.4339 38.9511 17.5396 38.7398 17.5396C38.5285 17.5396 38.5285 17.5396 38.5285 17.4339C38.5285 17.2226 39.3738 17.3282 39.3738 17.0113C39.3738 16.6943 39.1624 16.5886 39.1624 16.483C39.1624 16.3773 39.1624 16.483 39.2681 16.483C39.5851 16.483 39.9021 17.3282 40.219 17.3282C40.536 17.3282 40.4304 17.2226 40.4304 17.0113C40.4304 16.7999 40.4304 16.7999 40.4304 16.5886C40.4304 16.3773 40.4304 16.3773 40.536 16.3773C40.7473 16.3773 40.9587 17.5396 41.487 17.5396C42.0153 17.5396 41.487 16.7999 41.8039 16.7999C42.1209 16.7999 42.0153 17.0113 42.0153 17.1169C42.0153 17.8565 42.7549 17.8565 42.7549 18.1735C42.7549 18.1735 42.7549 18.1735 42.5436 18.1735M44.5511 22.9282C43.9172 22.9282 43.6002 23.9848 43.0719 23.9848C43.3888 22.5056 44.9738 21.6603 44.9738 20.2867C44.9738 18.9131 43.6002 18.0679 43.0719 17.7509C42.1209 16.3773 41.487 15.3207 40.0077 15.3207C38.5285 15.3207 38.9511 15.4264 38.5285 15.4264C37.6832 15.4264 37.3662 15.1094 37.3662 15.1094C37.3662 16.2716 38.0002 19.0188 40.6417 19.0188C43.2832 19.0188 42.6492 18.4905 43.0719 18.4905C43.4945 18.4905 44.5511 18.9131 44.5511 20.2867C44.5511 21.6603 43.9172 21.766 43.7058 21.766C43.4945 21.766 43.2832 21.449 43.2832 21.0264C43.2832 20.6037 43.4945 19.8641 43.4945 19.4415C43.4945 19.0188 43.4945 19.2301 43.3889 19.2301C43.1775 19.2301 42.1209 19.9698 42.1209 20.815C42.1209 21.6603 43.1775 21.9773 43.6002 22.1886C43.1775 22.8226 42.9662 23.3509 42.7549 23.9848C42.7549 23.4565 42.3322 22.5056 42.1209 22.083C41.487 20.1811 41.17 19.8641 39.7964 19.6528C40.0077 20.3924 42.4379 22.2943 42.4379 24.0905C42.4379 25.8867 42.4379 24.4075 42.4379 24.4075C41.6983 22.1886 40.4304 21.6603 40.0077 21.132C39.2681 20.2867 39.6907 19.4415 38.5285 19.0188C38.5285 19.1245 38.5285 19.2301 38.5285 19.3358C38.5285 19.7584 38.3172 20.2867 38.3172 20.6037C38.3172 21.9773 39.7964 21.5547 40.7473 22.2943C41.5926 23.0339 42.1209 24.1962 42.4379 25.4641C42.7549 24.9358 42.9662 24.1962 43.6002 24.1962C44.2341 24.1962 44.1285 24.7245 44.1285 25.0415V25.2528C44.7624 24.7245 45.0794 23.8792 45.0794 23.3509C45.0794 23.0339 44.8681 22.8226 44.6568 22.8226" fill="#1F36C7"/>
<path d="M36.0984 16.0601C36.4154 16.0601 36.6267 15.8488 36.6267 15.6375C36.6267 15.4262 36.4154 15.2148 36.0984 15.2148C35.7814 15.2148 35.5701 15.4262 35.5701 15.6375C35.5701 15.9545 35.7814 16.0601 36.0984 16.0601ZM35.4644 17.962C35.8871 17.962 36.3097 17.645 36.3097 17.2224C36.3097 16.7997 35.9927 16.4828 35.4644 16.4828C34.9361 16.4828 34.6191 16.7997 34.6191 17.2224C34.6191 17.645 34.9361 17.962 35.4644 17.962ZM32.6116 17.962C32.9286 17.962 33.1399 17.7507 33.1399 17.4337C33.1399 17.1167 32.9286 16.9054 32.6116 16.9054C32.2946 16.9054 32.0833 17.1167 32.0833 17.4337C32.0833 17.7507 32.2946 17.962 32.6116 17.962ZM36.838 18.7016C37.155 18.7016 37.3663 18.4903 37.3663 18.1733C37.3663 17.8564 37.155 17.645 36.838 17.645C36.521 17.645 36.3097 17.8564 36.3097 18.1733C36.3097 18.4903 36.521 18.7016 36.838 18.7016ZM33.9852 19.1243C34.4078 19.1243 34.7248 18.8073 34.7248 18.3847C34.7248 17.962 34.4078 17.645 33.9852 17.645C33.5625 17.645 33.2456 17.962 33.2456 18.3847C33.2456 18.8073 33.5625 19.1243 33.9852 19.1243ZM35.0418 19.0186C35.0418 19.3356 35.2531 19.5469 35.5701 19.5469C35.8871 19.5469 36.0984 19.3356 36.0984 19.0186C36.0984 18.7016 35.8871 18.4903 35.5701 18.4903C35.2531 18.4903 35.0418 18.7016 35.0418 19.0186ZM32.4003 18.4903C31.9776 18.4903 31.6606 18.8073 31.6606 19.2299C31.6606 19.6526 31.9776 19.9696 32.4003 19.9696C32.8229 19.9696 33.1399 19.6526 33.1399 19.2299C33.1399 18.8073 32.8229 18.4903 32.4003 18.4903ZM36.9437 20.2865C37.2606 20.2865 37.5776 20.0752 37.5776 19.7582C37.5776 19.4413 37.2606 19.2299 36.9437 19.2299C36.6267 19.2299 36.3097 19.4413 36.3097 19.7582C36.3097 20.0752 36.6267 20.2865 36.9437 20.2865ZM33.8795 19.5469C33.5625 19.5469 33.3512 19.7582 33.3512 20.0752C33.3512 20.3922 33.5625 20.6035 33.8795 20.6035C34.1965 20.6035 34.4078 20.3922 34.4078 20.0752C34.4078 19.7582 34.1965 19.5469 33.8795 19.5469ZM35.3588 19.8639C34.8305 19.8639 34.5135 20.2865 34.5135 20.7092C34.5135 21.1318 34.9361 21.5545 35.3588 21.5545C35.7814 21.5545 36.204 21.1318 36.204 20.7092C36.204 20.2865 35.7814 19.8639 35.3588 19.8639ZM37.0493 20.8148C36.838 20.8148 36.521 21.0262 36.521 21.2375C36.521 21.4488 36.7323 21.6601 37.0493 21.6601C37.3663 21.6601 37.5776 21.4488 37.5776 21.1318C37.5776 20.8148 37.3663 20.7092 37.0493 20.7092M33.7739 16.3771C34.0908 16.3771 34.3022 16.5884 34.3022 16.7997C34.3022 17.0111 34.0908 17.2224 33.7739 17.2224C33.4569 17.2224 33.2456 17.0111 33.2456 16.7997C33.2456 16.5884 33.4569 16.3771 33.7739 16.3771Z" fill="#1F36C7"/>
<path d="M21.8339 16.6914C22.1509 16.6914 22.6792 17.2197 22.8905 17.748C22.8905 17.748 22.7849 17.748 22.6792 17.748C22.2566 17.748 22.0453 18.1707 21.7283 18.8046C22.4679 18.2763 23.1019 17.9593 23.9471 17.9593C24.7924 17.9593 25.1094 18.382 25.1094 18.9103C25.1094 19.4386 25.0038 19.4386 24.7924 19.7556C24.7924 19.2273 24.2641 18.9103 23.4188 18.9103C22.5736 18.9103 22.3622 18.9103 21.9396 19.1216C23.4188 19.3329 23.6302 19.8612 23.6302 20.2839C23.6302 21.0235 22.7849 21.4461 22.2566 21.6574C22.2566 21.4461 22.3622 21.2348 22.3622 20.9178C22.3622 20.4952 22.1509 19.8612 21.4113 19.4386C21.4113 19.9669 20.883 20.2839 20.883 20.6008C20.883 20.9178 20.883 20.8122 21.0943 20.8122C21.0943 21.0235 20.9887 21.6574 20.9887 21.8688C20.9887 22.1857 20.9887 22.2914 21.2 22.2914C21.3056 22.6084 21.3056 23.031 21.4113 23.348C21.4113 23.4537 21.517 23.5593 21.6226 23.5593C21.6226 23.7707 21.8339 24.1933 22.0453 24.299C22.0453 24.299 22.1509 24.4046 22.1509 24.5103C22.1509 24.7216 21.8339 24.9329 21.6226 24.9329C21.4113 24.9329 21.4113 24.9329 21.3056 24.6159C21.3056 24.4046 20.566 24.0876 20.566 23.8763C20.566 23.8763 20.566 23.8763 20.566 23.665C20.566 23.348 20.0377 22.9254 20.0377 22.3971C20.0377 22.3971 20.1434 22.2914 20.1434 22.1857C20.1434 21.8688 19.8264 21.2348 19.8264 20.8122C19.9321 20.8122 20.0377 20.8122 20.0377 20.6008C20.0377 20.1782 20.0377 19.5442 20.566 19.2273C20.4604 19.2273 20.3547 19.2273 20.249 19.2273C19.5094 19.2273 18.3471 19.6499 17.8188 20.6008C17.8188 20.4952 17.8188 20.2839 17.8188 20.1782C17.8188 19.3329 18.3471 18.8046 18.6641 18.699C18.8755 18.699 19.0868 18.5933 19.2981 18.5933C19.7207 18.5933 20.1434 18.5933 20.6717 18.8046C20.249 18.2763 19.6151 17.8537 18.9811 17.8537C18.3471 17.8537 18.5585 17.8537 18.4528 18.1707C18.4528 18.065 18.4528 17.8537 18.4528 17.748C18.4528 17.114 18.6641 16.7971 19.1924 16.7971C19.9321 16.7971 20.6717 17.748 21.0943 18.5933C21.0943 17.3254 21.0943 16.6914 21.6226 16.6914H21.8339Z" fill="#1F36C7"/>
<path d="M15.3889 13.7345C15.3889 13.5232 15.3889 13.3119 15.3889 12.9949C15.3889 12.3609 15.072 11.5156 14.2267 11.5156C13.3814 11.5156 13.3814 11.9383 13.3814 12.3609C13.3814 13.4175 14.438 13.7345 15.3889 13.7345ZM13.0644 14.2628C13.4871 14.2628 13.9097 13.9458 13.9097 13.9458C13.1701 13.7345 12.7474 13.2062 12.7474 12.4666V12.2552C12.2191 12.4666 12.0078 12.8892 12.0078 13.2062C12.0078 13.8402 12.5361 14.1571 13.0644 14.1571M16.6569 14.4741C16.9739 14.4741 17.1852 14.2628 17.1852 13.9458C17.1852 13.6288 16.9739 13.4175 16.6569 13.4175C16.3399 13.4175 16.1286 13.6288 16.1286 13.9458C16.1286 14.1571 16.3399 14.4741 16.6569 14.4741ZM16.8682 15.1081C16.8682 15.4251 17.0795 15.6364 17.3965 15.6364C17.7135 15.6364 17.9248 15.4251 17.9248 15.1081C17.9248 14.7911 17.7135 14.5798 17.3965 14.5798C17.0795 14.5798 16.8682 14.7911 16.8682 15.1081ZM15.9172 15.742C15.9172 15.9534 15.8116 16.1647 15.6003 16.1647C15.1776 16.1647 14.755 15.5307 14.755 15.1081C14.755 14.8968 14.8606 14.8968 15.072 14.8968C15.2833 14.8968 15.1776 14.8968 15.2833 14.8968C15.3889 14.8968 15.3889 15.2137 15.4946 15.4251C15.6003 15.5307 15.8116 15.742 15.8116 15.8477M14.3323 16.9043C13.9097 16.9043 13.3814 16.376 13.3814 15.9534C13.3814 15.5307 13.5927 15.4251 13.6984 15.4251C13.804 15.4251 13.6984 15.4251 13.804 15.5307C13.804 16.1647 14.3323 16.4817 14.6493 16.693C14.6493 16.7986 14.3323 16.9043 14.121 16.9043M15.072 14.3685C14.6493 14.3685 14.121 14.3685 13.5927 14.7911C12.4305 15.5307 12.6418 16.5873 12.4305 16.9043C12.4305 16.9043 12.4305 16.9043 12.4305 17.01C12.4305 17.01 12.5361 17.2213 12.6418 17.2213C12.7474 17.2213 12.8531 17.2213 12.8531 17.2213C13.1701 17.2213 13.4871 17.4326 14.0154 17.4326C14.5437 17.4326 14.6493 17.4326 15.072 17.1156C16.0229 16.693 16.3399 15.5307 16.3399 15.3194C16.3399 15.1081 16.1286 15.1081 16.0229 14.8968C15.8116 14.6854 15.9172 14.4741 15.8116 14.3685C15.8116 14.3685 15.6003 14.3685 15.2833 14.3685H14.9663H15.072ZM12.4305 17.6439V17.8552C12.4305 18.4892 12.7474 18.8062 13.1701 18.8062C13.5927 18.8062 13.9097 18.5949 14.2267 18.1722C14.121 18.1722 13.9097 18.1722 13.804 18.1722C13.2757 18.1722 12.7474 18.1722 12.4305 17.6439ZM16.7625 16.376C16.4455 16.693 16.1286 17.2213 16.1286 17.8552C16.1286 18.4892 16.5512 19.1232 17.1852 19.1232C17.8191 19.1232 18.1361 18.5949 18.1361 18.0666C18.1361 17.2213 17.3965 16.5873 16.6569 16.4817M15.7059 17.4326C15.3889 17.4326 14.755 17.8552 14.755 18.4892C14.755 19.1232 15.072 19.2288 15.6003 19.2288C16.1286 19.2288 16.0229 19.2288 16.1286 19.1232C15.8116 18.8062 15.6003 18.3836 15.6003 18.0666C15.6003 17.7496 15.6003 17.6439 15.6003 17.5383M12.0078 18.7005C12.0078 19.6515 12.3248 20.0741 12.8531 20.0741C13.3814 20.0741 13.804 19.7571 14.5437 19.2288C14.0154 19.3345 13.5927 19.4402 13.2757 19.4402C12.9588 19.4402 12.4305 19.2288 12.0078 18.7005Z" fill="#1F36C7"/>
<path d="M44.4451 12.2554C44.4451 11.8328 44.2338 11.5158 43.8112 11.4102C43.8112 11.5158 43.8112 11.6215 43.8112 11.8328C43.8112 12.4668 42.8602 13.2064 41.6979 13.2064C40.5357 13.2064 41.1696 13.5234 41.1696 13.629C41.1696 13.946 41.4866 14.1573 41.9093 14.1573C43.1772 14.1573 44.2338 13.1007 44.2338 12.2554M44.3395 13.4177C43.8112 14.58 42.3319 14.7913 41.9093 14.6856C42.0149 15.8479 43.8112 17.4328 44.2338 17.3271C44.5508 17.3271 44.6564 15.8479 44.6564 14.6856C44.6564 13.5234 44.6564 13.5234 44.3395 13.4177Z" fill="#1F36C7"/>
<path d="M41.8038 12.7823C42.3321 12.7823 43.3887 12.3597 43.3887 11.8314C43.3887 11.3031 43.3887 11.5144 43.0717 11.5144C42.7547 11.5144 42.1208 11.937 41.5925 11.937C41.0642 11.937 41.1698 11.937 40.9585 11.937C41.1698 12.0427 41.1698 12.4653 41.2755 12.6767C41.4868 12.9936 41.6981 12.9936 41.8038 12.9936" fill="#1F36C7"/>
<path d="M35.1474 13.1016C35.1474 14.2638 34.4078 14.6865 33.6682 14.6865C32.9286 14.6865 33.3512 14.6865 33.2456 14.5808C33.3512 14.4751 33.5625 14.2638 33.5625 14.0525C33.5625 13.8412 33.5625 13.9468 33.3512 13.9468C33.1399 13.9468 33.1399 13.9468 32.9286 13.9468C32.6116 13.9468 32.2946 13.8412 31.9776 13.5242C31.7663 13.8412 31.6606 14.2638 31.6606 14.6865C31.6606 15.3204 31.872 16.0601 32.1889 16.0601C32.2946 16.0601 32.2946 15.6374 32.6116 15.6374C32.9286 15.6374 32.9286 15.8487 33.5625 15.8487C34.4078 15.8487 35.4644 15.3204 35.4644 13.9468C35.4644 13.7355 35.3588 13.3129 35.2531 13.1016" fill="#1F36C7"/>
<path d="M33.1398 12.3609C33.3511 12.3609 33.6681 12.3609 33.7738 12.5722C33.6681 12.5722 33.4568 12.7836 33.4568 12.9949C33.4568 13.2062 33.4568 13.1005 33.4568 13.2062C33.7738 13.3119 33.9851 13.6288 34.0907 13.8402C34.619 13.5232 34.8304 12.6779 34.8304 12.1496C34.8304 11.6213 34.8304 11.8326 34.7247 11.8326C34.619 11.8326 34.5134 11.9383 34.4077 11.9383C34.3021 11.9383 33.9851 11.5156 33.2455 11.5156C32.5058 11.5156 31.9775 12.1496 31.9775 12.7836C31.9775 13.4175 31.9775 13.1005 31.9775 13.2062C32.1889 12.8892 32.5058 12.4666 33.0341 12.4666" fill="#1F36C7"/>
<path d="M23.6301 16.1635C23.6301 16.1635 23.5244 16.0579 23.5244 15.7409C23.5244 15.1069 23.9471 13.839 24.1584 13.839C24.3697 13.839 24.2641 14.0503 24.2641 14.156C24.2641 14.8956 23.9471 16.0579 23.6301 16.0579M22.9961 15.4239C22.9961 15.4239 22.7848 15.2126 22.7848 14.7899C22.9961 14.473 23.1018 14.2616 23.2075 14.2616C23.3131 14.2616 23.3131 14.2616 23.3131 14.473C23.3131 14.8956 23.1018 15.3182 22.9961 15.3182M22.2565 14.5786C21.9395 14.8956 21.7282 15.1069 21.6226 15.1069C21.5169 15.1069 21.5169 15.0013 21.5169 14.7899C21.5169 14.5786 21.7282 13.522 22.0452 13.522C22.3622 13.522 22.2565 13.839 22.2565 14.0503C22.2565 14.2616 22.2565 14.3673 22.2565 14.5786ZM20.5659 15.5296C20.5659 15.5296 20.4603 15.4239 20.4603 15.3182C20.4603 14.7899 20.9886 12.6767 21.4112 12.6767C21.8339 12.6767 21.5169 12.6767 21.5169 12.8881C21.5169 13.3107 21.0943 15.5296 20.6716 15.5296M24.2641 13.0994C23.6301 13.0994 23.1018 13.6277 22.6792 14.3673C22.6792 14.2616 22.6792 14.0503 22.6792 13.9447C22.6792 12.9937 22.1509 12.1484 21.1999 12.1484C20.249 12.1484 19.7207 12.5711 19.4037 13.522C19.4037 13.522 19.7207 13.3107 19.932 13.3107C20.1433 13.3107 20.249 13.522 20.249 13.839C20.249 14.156 20.249 14.3673 20.1433 14.5786C20.0376 15.0013 19.7207 15.1069 19.615 15.1069C18.981 15.1069 19.298 14.0503 18.981 14.0503C18.6641 14.0503 18.6641 14.5786 18.6641 14.7899C18.6641 15.5296 19.0867 16.2692 20.1433 16.2692C21.1999 16.2692 21.8339 15.7409 22.4678 15.1069C22.5735 15.8466 22.9961 17.1145 24.0527 17.1145C25.1093 17.1145 25.1093 16.5862 25.1093 16.0579C25.1093 16.0579 24.898 16.1635 24.7924 16.1635C24.581 16.1635 24.4754 15.8466 24.4754 15.5296C24.4754 15.1069 24.581 14.5786 24.7924 14.5786C25.0037 14.5786 25.0037 14.5786 25.0037 15.0013C25.0037 15.2126 25.0037 15.5296 25.215 15.5296C25.4263 15.5296 25.4263 15.0013 25.4263 14.6843C25.4263 13.7333 25.0037 12.9937 24.1584 13.0994" fill="#1F36C7"/>
<path d="M38.7397 13.6288C37.7887 13.6288 37.2604 13.1005 37.2604 12.7836C37.3661 12.7836 37.7887 12.9949 38.317 13.1005C38.951 13.1005 39.268 13.1005 39.3736 13.1005C39.4793 13.1005 39.5849 13.1005 39.5849 13.2062C39.5849 13.4175 39.1623 13.6288 38.634 13.6288M39.7963 11.7269C39.5849 11.7269 39.1623 12.0439 38.8453 12.0439C38.5283 12.0439 38.5283 11.5156 38.1057 11.5156C37.6831 11.5156 37.8944 11.5156 37.7887 11.6213C36.9434 12.0439 36.2038 11.9383 36.0981 12.0439C36.0981 12.0439 36.0981 12.0439 36.0981 12.1496C36.0981 13.1005 37.0491 14.5798 38.7397 14.5798C40.4302 14.5798 40.7472 14.1571 40.7472 13.5232C40.7472 12.9949 40.2189 11.7269 39.7963 11.7269Z" fill="#1F36C7"/>
<path d="M43.5999 6.65426C43.3886 6.65426 43.2829 6.5486 43.2829 6.33728C43.2829 6.12596 43.3886 6.0203 43.5999 6.0203C43.8112 6.0203 43.9169 6.12596 43.9169 6.33728C43.9169 6.5486 43.8112 6.65426 43.5999 6.65426ZM41.5924 10.0354H41.1697C42.649 9.82407 43.3886 8.97879 43.3886 7.81652C43.7056 7.81652 43.9169 8.23917 43.9169 8.55615C43.9169 9.19011 43.2829 10.0354 41.5924 10.0354ZM44.6565 5.80898C44.0226 5.80898 43.9169 5.59766 43.4943 5.59766C43.0716 5.59766 42.649 5.91464 42.649 6.44294C42.649 6.97124 42.649 6.86558 42.649 7.28822C42.649 7.71086 42.649 8.1335 42.2263 8.1335C41.8037 8.1335 41.698 7.92218 41.698 7.6052C41.698 7.0769 41.9093 6.75992 41.9093 6.44294C41.9093 5.80898 41.1697 5.70332 40.4301 5.70332C39.6905 5.70332 38.5282 5.91464 38.5282 6.12596C38.5282 6.33728 39.7961 6.12596 40.7471 7.39388C40.1131 7.39388 38.9509 7.71086 38.9509 7.81652C38.9509 7.92218 41.0641 8.23917 41.0641 9.08445C41.0641 9.92973 40.6414 9.71841 40.4301 9.71841C39.6905 9.71841 39.3735 8.97879 39.1622 8.97879C38.9509 8.97879 39.0565 8.97879 39.0565 9.08445C39.0565 9.19011 39.1622 9.50709 39.1622 9.82407C39.1622 10.6694 38.3169 10.6694 38.3169 10.8807C38.3169 11.092 38.3169 10.8807 38.4226 10.9863C39.0565 11.092 39.6905 11.092 40.3244 11.092C42.5433 11.092 44.3395 10.3524 44.3395 8.45049C44.3395 6.5486 44.0226 6.97124 44.0226 6.44294C44.0226 6.23162 44.0226 5.91464 44.4452 5.70332" fill="#1F36C7"/>
<path d="M35.9925 10.4588C35.1472 10.4588 34.5133 10.0362 34.5133 9.82484C34.5133 9.61352 34.5133 9.61352 34.7246 9.61352C35.0416 9.61352 35.5699 10.0362 35.7812 10.0362C35.9925 10.0362 35.8869 10.0362 35.8869 9.9305C35.8869 9.71918 35.6755 9.29654 35.6755 9.19088C35.6755 9.08521 35.6755 9.19088 35.7812 9.19088C36.0982 9.19088 36.6265 9.29654 36.9435 9.29654C37.2605 9.29654 37.0491 9.29654 37.0491 9.19088C37.0491 8.87389 36.2038 8.34559 36.2038 8.23993C36.2038 8.13427 37.2605 7.81729 37.2605 7.60597C37.2605 7.39465 35.8869 7.60597 35.8869 7.28899C35.8869 6.97201 36.2038 6.86635 36.2038 6.65503C36.2038 6.44371 36.2038 6.65503 36.0982 6.65503C35.9925 6.65503 35.3586 6.86635 35.1472 6.86635C34.9359 6.86635 34.8303 6.86635 34.8303 6.65503C34.8303 6.33805 35.3586 6.02106 36.0982 6.02106C37.3661 6.02106 38.1057 6.86635 38.1057 8.23993C38.1057 10.0362 36.8378 10.4588 36.2038 10.4588M33.7737 9.4022C33.7737 9.4022 33.7737 9.4022 33.7737 9.29654V8.76823C33.7737 8.76823 33.7737 8.76823 33.668 8.76823H33.1397C33.1397 8.66257 33.668 8.34559 33.668 8.23993C33.668 8.13427 33.1397 7.81729 33.1397 7.71163C33.2454 7.71163 33.5623 7.71163 33.668 7.71163C33.7737 7.71163 33.8793 6.97201 33.985 6.97201C34.0906 6.97201 34.1963 7.60597 34.4076 7.60597C34.6189 7.60597 34.8303 7.39465 35.0416 7.39465C35.0416 7.39465 34.7246 7.81729 34.7246 7.92295C34.7246 8.02861 35.4642 8.13427 35.4642 8.23993C35.4642 8.34559 34.7246 8.23993 34.7246 8.45125C34.7246 8.66257 35.0416 8.87389 35.0416 8.97955C35.0416 8.97955 34.5133 8.76823 34.4076 8.76823C34.302 8.76823 34.0906 9.29654 33.985 9.29654M35.8869 5.3871C35.0416 5.3871 34.4076 5.80974 34.0906 5.80974C33.7737 5.80974 33.5623 5.28144 33.4567 5.28144C33.351 5.28144 33.351 5.3871 33.351 5.59842C33.351 5.80974 33.351 6.12672 33.2454 6.12672C32.9284 6.12672 31.7661 5.28144 31.7661 5.59842C31.7661 5.9154 32.6114 6.76069 32.6114 6.97201C32.6114 7.18333 31.8718 7.39465 31.8718 7.60597C31.8718 7.92295 32.7171 7.92295 32.7171 8.23993C32.7171 8.55691 31.8718 8.87389 31.8718 9.08522C31.8718 9.29654 32.7171 9.08521 32.7171 9.4022C32.7171 9.71918 32.0831 10.5645 32.0831 10.7758C32.2944 10.7758 33.034 9.9305 33.2454 9.9305C33.4567 9.9305 33.4567 10.4588 33.5623 10.6701C33.5623 10.7758 33.5623 10.8814 33.668 10.8814C33.7737 10.8814 34.0906 10.3531 34.1963 10.3531C34.302 10.3531 35.0416 10.9871 36.2038 10.9871C37.7888 10.9871 39.1623 9.9305 39.1623 8.02861C39.1623 6.23238 37.8944 5.17578 36.0982 5.17578" fill="#1F36C7"/>
<path d="M22.5736 8.97955C23.1019 8.97955 24.5811 9.61352 25.2151 9.61352C25.849 9.61352 25.6377 9.50786 25.6377 9.29654C25.6377 8.55691 23.5245 7.18333 23.5245 6.54937C23.5245 6.54937 23.5245 6.54937 23.5245 6.44371C23.8415 6.02106 25.3207 5.80974 25.3207 5.49276C25.3207 5.17578 25.0038 5.28144 24.8981 5.28144C23.7358 5.28144 21.9396 5.70408 21.9396 6.12672C21.9396 6.54937 23.5245 7.60597 23.5245 8.13427C23.5245 8.66257 23.4189 8.34559 23.3132 8.34559C22.8906 8.34559 21.9396 7.81729 21.517 7.81729C21.0943 7.81729 21.2 7.92295 21.2 8.13427C21.2 8.76823 21.9396 9.9305 21.9396 10.2475C21.9396 10.5645 21.9396 10.3531 21.9396 10.3531C21.7283 10.3531 20.6717 9.08522 20.249 9.08522C19.8264 9.08522 20.1434 9.29654 20.1434 9.50786V9.9305C20.1434 10.2475 20.1434 10.3531 20.0377 10.3531C19.7207 10.3531 19.5094 9.4022 19.1924 9.4022C18.8755 9.4022 18.7698 11.0928 18.4528 11.0928C18.1358 11.0928 18.4528 9.29654 18.0302 9.29654C17.6075 9.29654 17.1849 10.4588 16.8679 10.4588C16.5509 10.4588 16.7623 10.4588 16.7623 10.2475C16.7623 9.9305 16.9736 9.29654 16.9736 8.97955C16.9736 8.66257 16.9736 8.66257 16.7623 8.66257C16.3396 8.66257 15.4943 9.29654 15.1773 9.29654C14.8604 9.29654 15.0717 9.29654 15.0717 9.29654C15.0717 8.97955 16.4453 8.02861 16.4453 7.60597C16.4453 7.18333 14.5434 7.50031 14.5434 6.97201C14.5434 6.44371 15.917 6.12672 15.917 5.70408C15.917 5.28144 14.3321 5.17578 13.6981 5.17578C13.0641 5.17578 12.5358 5.28144 12.5358 5.49276C12.5358 5.80974 14.2264 5.9154 14.2264 6.23239C14.2264 6.54937 12.4302 7.28899 12.4302 7.71163C12.4302 8.13427 14.966 7.71163 14.966 8.13427C14.966 8.55691 12.7472 10.4588 12.7472 11.0928C12.7472 11.7267 12.7472 11.3041 12.9585 11.3041C13.5924 11.3041 15.3887 10.0362 15.8113 10.0362C16.2339 10.0362 16.0226 10.2475 16.0226 10.4588C16.0226 10.7758 15.917 11.3041 15.917 11.6211C15.917 11.938 15.917 12.1494 16.2339 12.1494C16.6566 12.1494 17.1849 11.3041 17.5019 11.3041C17.8189 11.3041 17.7132 13.6286 18.2415 13.6286C18.7698 13.6286 18.9811 11.0928 19.2981 11.0928C19.6151 11.0928 19.9321 11.8324 20.249 11.8324C20.566 11.8324 20.4604 10.5645 20.883 10.5645C21.3056 10.5645 22.5736 12.0437 23.2075 12.0437C23.8415 12.0437 23.4189 11.938 23.4189 11.7267C23.4189 11.0928 22.4679 9.50786 22.4679 9.08522C22.4679 8.87389 22.4679 8.87389 22.6792 8.87389" fill="#1F36C7"/>
<path d="M24.2641 6.86577C24.2641 7.07709 25.1094 7.6054 25.4264 7.6054C25.7434 7.6054 25.7434 7.28841 25.7434 6.97143C25.7434 6.65445 25.5321 6.54879 25.2151 6.54879C24.8981 6.54879 24.2641 6.65445 24.2641 6.86577ZM16.2339 6.97143C16.5509 6.97143 16.9736 6.86577 17.2906 6.86577C17.6075 6.86577 17.6075 6.86577 17.6075 7.07709C17.6075 7.39407 16.8679 7.92238 16.8679 8.23936C16.8679 8.55634 16.8679 8.23936 16.9736 8.23936C17.1849 8.23936 17.7132 7.6054 18.0302 7.6054C18.6641 7.6054 18.2415 9.08464 18.6641 9.08464C19.0868 9.08464 18.8755 7.71106 19.4038 7.71106C19.9321 7.71106 20.1434 8.662 20.4604 8.662C20.7773 8.662 20.566 8.662 20.566 8.55634C20.566 8.23936 20.1434 7.71106 20.1434 7.39407C20.1434 7.07709 20.249 7.07709 20.4604 7.07709C20.6717 7.07709 21.2 7.28841 21.4113 7.28841C21.6226 7.28841 21.517 7.28841 21.517 7.28841C21.517 6.97143 20.3547 6.65445 20.3547 6.23181C20.3547 5.80917 20.9887 5.80917 20.9887 5.70351C20.9887 5.59785 20.566 5.59785 20.0377 5.59785C19.1924 5.59785 19.2981 6.23181 18.6641 6.23181C18.0302 6.23181 18.1358 5.49219 17.2906 5.49219C16.4453 5.49219 16.3396 5.59785 16.3396 5.70351C16.3396 5.80917 16.9736 5.70351 16.9736 6.23181C16.9736 6.76011 15.7056 6.76011 15.7056 7.07709C15.7056 7.39407 15.7056 7.07709 15.917 7.07709M13.9094 8.55634C13.9094 8.45068 13.6981 8.45068 13.4868 8.45068C13.1698 8.45068 12.8528 8.45068 12.6415 8.662C12.5358 8.76766 12.4302 9.08464 12.4302 9.40162C12.4302 9.7186 12.4302 9.7186 12.6415 9.7186C12.9585 9.7186 13.9094 8.87332 13.9094 8.662M23.4189 9.82426C23.4189 10.2469 25.0038 12.4658 25.3207 12.4658C25.6377 12.4658 25.7434 12.0431 25.7434 11.6205C25.7434 11.1978 25.7434 11.4092 25.7434 11.3035C25.5321 10.9865 23.8415 9.7186 23.5245 9.7186" fill="#1F36C7"/>
</svg>
