<svg width="110" height="154" viewBox="0 0 110 154" fill="none" xmlns="http://www.w3.org/2000/svg">
<path d="M67.6128 7.24014C70.9719 10.5992 75.5168 12.4433 80.1932 12.4433C90.007 12.4433 98.0422 20.4131 98.0422 30.2927C98.0422 35.035 99.9526 39.5797 103.246 42.8729C110.227 49.8545 110.227 61.1173 103.246 68.0989C99.8867 71.458 98.0422 76.0027 98.0422 80.6791C98.0422 90.4929 90.0729 98.5283 80.1932 98.5283C75.451 98.5283 70.9061 100.373 67.6128 103.732C60.6312 110.713 49.3687 110.713 42.387 103.732C39.0279 100.373 34.483 98.5283 29.8067 98.5283C19.9928 98.5283 11.9572 90.5588 11.9572 80.6791C11.9572 75.9368 10.1131 71.3922 6.75405 68.0989C-0.227589 61.1173 -0.227589 49.8545 6.75405 42.8729C10.1131 39.5138 11.9572 34.9691 11.9572 30.2927C11.9572 20.4789 19.927 12.4433 29.8067 12.4433C34.5489 12.4433 39.0938 10.5992 42.387 7.24014C49.3687 0.258495 60.6312 0.258495 67.6128 7.24014Z" stroke="#397FB5" stroke-width="2.63458" stroke-miterlimit="10" stroke-linecap="round"/>
<path d="M36.9868 102.014L16.1733 139.952L33.2324 135.539L38.8967 151.939L61.093 109.588M77.3618 100.828L98.8333 140.018L81.7746 135.604L76.1103 152.005L57.1413 117.162" stroke="#397FB5" stroke-width="2.63458" stroke-linecap="round" stroke-linejoin="round"/>
<path d="M70.4019 64.9685H65.343V71.5547H57.6591V64.9685H41.0981L41.0504 62.8208L56.0841 37.9078H65.343V58.955H70.4019V64.9685ZM49.832 58.955H57.7545V45.2576L49.832 58.955Z" fill="#397FB5"/>
</svg>
