<svg width="110" height="154" viewBox="0 0 110 154" fill="none" xmlns="http://www.w3.org/2000/svg">
<path d="M67.6128 7.24014C70.9719 10.5992 75.5168 12.4433 80.1932 12.4433C90.007 12.4433 98.0422 20.4131 98.0422 30.2927C98.0422 35.035 99.9526 39.5797 103.246 42.8729C110.227 49.8545 110.227 61.1173 103.246 68.0989C99.8867 71.458 98.0422 76.0027 98.0422 80.6791C98.0422 90.4929 90.0729 98.5283 80.1932 98.5283C75.451 98.5283 70.9061 100.373 67.6128 103.732C60.6312 110.713 49.3687 110.713 42.387 103.732C39.0279 100.373 34.483 98.5283 29.8067 98.5283C19.9928 98.5283 11.9572 90.5588 11.9572 80.6791C11.9572 75.9368 10.1131 71.3922 6.75405 68.0989C-0.227589 61.1173 -0.227589 49.8545 6.75405 42.8729C10.1131 39.5138 11.9572 34.9691 11.9572 30.2927C11.9572 20.4789 19.927 12.4433 29.8067 12.4433C34.5489 12.4433 39.0938 10.5992 42.387 7.24014C49.3687 0.258495 60.6312 0.258495 67.6128 7.24014Z" stroke="#397FB5" stroke-width="2.63458" stroke-miterlimit="10" stroke-linecap="round"/>
<path d="M36.9868 102.014L16.1733 139.952L33.2324 135.539L38.8967 151.939L61.093 109.588M77.3618 100.828L98.8333 140.018L81.7746 135.604L76.1103 152.005L57.1413 117.162" stroke="#397FB5" stroke-width="2.63458" stroke-linecap="round" stroke-linejoin="round"/>
<path d="M52.9573 60.8163C52.9573 68.023 47.1824 72.1274 39.4985 72.1274C35.9668 72.1274 32.0055 71.1252 29.142 69.7888V62.964C33.0078 64.7298 35.8713 65.4935 38.8304 65.4935C42.3144 65.4935 44.7007 63.6321 44.7007 60.7209C44.7007 57.6664 42.3621 56.0437 38.2099 56.0437C35.8236 56.0437 33.4373 56.4732 30.4306 57.4277L29.9056 57.1414L31.0987 38.1464H52.6709L50.2369 45.0667H36.969L36.4918 50.8893C37.8281 50.5552 39.2599 50.412 40.7394 50.412C48.5188 50.412 52.9573 54.2301 52.9573 60.8163ZM81.1316 60.8163C81.1316 68.023 75.3567 72.1274 67.6728 72.1274C64.1411 72.1274 60.1798 71.1252 57.3162 69.7888V62.964C61.182 64.7298 64.0456 65.4935 67.0046 65.4935C70.4886 65.4935 72.875 63.6321 72.875 60.7209C72.875 57.6664 70.5364 56.0437 66.3842 56.0437C63.9979 56.0437 61.6116 56.4732 58.6048 57.4277L58.0799 57.1414L59.273 38.1464H80.8452L78.4112 45.0667H65.1433L64.6661 50.8893C66.0024 50.5552 67.4342 50.412 68.9137 50.412C76.693 50.412 81.1316 54.2301 81.1316 60.8163Z" fill="#397FB5"/>
</svg>
