<svg width="110" height="154" viewBox="0 0 110 154" fill="none" xmlns="http://www.w3.org/2000/svg">
<path d="M67.6128 7.24014C70.9719 10.5992 75.5168 12.4433 80.1932 12.4433C90.007 12.4433 98.0422 20.4131 98.0422 30.2927C98.0422 35.035 99.9526 39.5797 103.246 42.8729C110.227 49.8545 110.227 61.1173 103.246 68.0989C99.8867 71.458 98.0422 76.0027 98.0422 80.6791C98.0422 90.4929 90.0729 98.5283 80.1932 98.5283C75.451 98.5283 70.9061 100.373 67.6128 103.732C60.6312 110.713 49.3687 110.713 42.387 103.732C39.0279 100.373 34.483 98.5283 29.8067 98.5283C19.9928 98.5283 11.9572 90.5588 11.9572 80.6791C11.9572 75.9368 10.1131 71.3922 6.75405 68.0989C-0.227589 61.1173 -0.227589 49.8545 6.75405 42.8729C10.1131 39.5138 11.9572 34.9691 11.9572 30.2927C11.9572 20.4789 19.927 12.4433 29.8067 12.4433C34.5489 12.4433 39.0938 10.5992 42.387 7.24014C49.3687 0.258495 60.6312 0.258495 67.6128 7.24014Z" stroke="#397FB5" stroke-width="2.63458" stroke-miterlimit="10" stroke-linecap="round"/>
<path d="M36.9868 102.014L16.1733 139.952L33.2324 135.539L38.8967 151.939L61.093 109.588M77.3618 100.828L98.8333 140.018L81.7746 135.604L76.1103 152.005L57.1413 117.162" stroke="#397FB5" stroke-width="2.63458" stroke-linecap="round" stroke-linejoin="round"/>
<path d="M68.6361 59.8141C68.6361 63.4412 67.3952 66.3525 64.9134 68.6911C62.384 71.0297 59.1863 72.2229 55.2728 72.2229C51.2638 72.2229 48.1138 71.0774 45.7753 68.7866C43.3889 66.5434 42.2435 63.5844 42.2435 59.8618C42.2435 57.7141 42.6731 55.5187 43.6276 53.3233C44.5344 51.1279 46.2525 48.3121 48.8297 44.7326L53.5546 38.1464H63.0044C59.5204 42.6326 56.8477 45.9735 54.1751 49.5052C55.4159 49.2189 56.5136 49.1234 57.6113 49.1234C60.8567 49.1234 63.5294 50.0779 65.5816 51.987C67.6338 53.9437 68.6361 56.5687 68.6361 59.8141ZM50.2138 59.8141C50.2138 63.2503 52.266 65.5412 55.4159 65.5412C58.4704 65.5412 60.7135 63.2981 60.7135 60.2436C60.7135 57.0459 58.4704 55.1369 54.7478 55.1369C53.6023 55.1369 52.3615 55.2801 51.2638 55.5187C50.5956 57.0459 50.2138 58.4777 50.2138 59.8141Z" fill="#397FB5"/>
</svg>
