<svg width="52" height="75" viewBox="0 0 52 75" fill="none" xmlns="http://www.w3.org/2000/svg">
<path d="M31.6319 3.6129C33.1632 5.2252 35.2352 6.11032 37.3671 6.11032C41.8411 6.11032 45.5042 9.93565 45.5042 14.6777C45.5042 16.9539 46.3751 19.1353 47.8765 20.716C51.0593 24.067 51.0593 29.4729 47.8765 32.824C46.3451 34.4363 45.5042 36.6176 45.5042 38.8622C45.5042 43.5727 41.8711 47.4295 37.3671 47.4295C35.2051 47.4295 33.1332 48.3147 31.6319 49.927C28.449 53.2781 23.3146 53.2781 20.1317 49.927C18.6004 48.3147 16.5284 47.4295 14.3965 47.4295C9.92252 47.4295 6.25918 43.6043 6.25918 38.8622C6.25918 36.586 5.4185 34.4047 3.88713 32.824C0.70429 29.4729 0.70429 24.067 3.88713 20.716C5.4185 19.1036 6.25918 16.9223 6.25918 14.6777C6.25918 9.96727 9.89249 6.11032 14.3965 6.11032C16.5584 6.11032 18.6304 5.2252 20.1317 3.6129C23.3146 0.261845 28.449 0.261845 31.6319 3.6129Z" stroke="#397FB5" stroke-width="2" stroke-miterlimit="10" stroke-linecap="round"/>
<path d="M17.6698 49.1016L8.18127 67.3112L15.9583 65.1931L18.5406 73.0649L28.6596 52.7373M36.0763 48.5326L45.8649 67.3428L38.088 65.2246L35.5058 73.0965L26.858 56.3727" stroke="#397FB5" stroke-width="2" stroke-linecap="round" stroke-linejoin="round"/>
</svg>
