<svg width="80" height="80" viewBox="0 0 80 80" fill="none" xmlns="http://www.w3.org/2000/svg">
<path fill-rule="evenodd" clip-rule="evenodd" d="M39.4534 5.83301C37.2682 5.8329 35.3875 5.83281 33.8438 6.03842C32.1725 6.26104 30.6512 6.7497 29.2979 7.88771C27.9774 8.99809 27.1645 10.4359 26.507 12.0848C25.9321 13.5265 25.401 15.3337 24.7809 17.4997H15.4937C10.6636 17.4997 7.79665 21.0761 6.60632 24.6957C5.42548 28.2864 5.55993 32.7058 7.27829 35.9735C7.35542 36.1201 7.43371 36.2657 7.51313 36.4102C7.50015 36.5376 7.49682 36.6677 7.50386 36.7997L8.01292 46.334L8.02079 46.5071C8.28745 52.3748 8.4989 57.0276 9.14794 60.6632C9.81641 64.4076 11.0025 67.4231 13.4693 69.7803C15.9361 72.1375 19.0024 73.1855 22.7732 73.6832C26.4345 74.1665 31.0921 74.1665 36.9657 74.1664H43.0348C48.9084 74.1665 53.5661 74.1665 57.2274 73.6832C60.9982 73.1855 64.0645 72.1375 66.5313 69.7803C68.9981 67.4231 70.1842 64.4076 70.8527 60.6632C71.5017 57.0276 71.7132 52.3747 71.9798 46.507L71.9872 46.3439L71.9881 46.3241L72.4967 36.7997C72.5038 36.6678 72.5005 36.5378 72.4875 36.4104C72.567 36.2659 72.6453 36.1202 72.7225 35.9735C74.4408 32.7058 74.5753 28.2864 73.3944 24.6957C72.2041 21.0761 69.3371 17.4997 64.507 17.4997H55.2188C54.5987 15.3337 54.0677 13.5265 53.4928 12.0848C52.8353 10.4359 52.0223 8.99809 50.7019 7.88771C49.3485 6.7497 47.8273 6.26104 46.156 6.03842C44.6123 5.83281 42.7317 5.8329 40.5465 5.83301H39.4534ZM50.0141 17.4997C49.5761 16.0035 49.2159 14.8584 48.8484 13.9368C48.336 12.6519 47.9093 12.0723 47.4839 11.7146C47.0913 11.3845 46.5801 11.1391 45.4958 10.9947C44.3208 10.8381 42.7758 10.833 40.3898 10.833H39.61C37.224 10.833 35.679 10.8381 34.5039 10.9947C33.4197 11.1391 32.9084 11.3845 32.5158 11.7146C32.0904 12.0723 31.6637 12.6519 31.1514 13.9368C30.7839 14.8584 30.4236 16.0035 29.9857 17.4997H50.0141ZM11.3561 26.2577C10.5244 28.7866 10.7182 31.7722 11.7037 33.6463C16.7434 43.2297 28.3563 47.4997 40.0004 47.4997C51.6444 47.4997 63.2574 43.2297 68.2971 33.6463C69.2826 31.7722 69.4764 28.7866 68.6447 26.2577C67.8225 23.7575 66.3362 22.4997 64.507 22.4997H15.4937C13.6646 22.4997 12.1783 23.7575 11.3561 26.2577ZM42.5004 52.4387C51.3403 52.007 60.5913 49.2521 67.1474 43.2093L66.9942 46.0773L66.9933 46.0971C66.7164 52.1889 66.5148 56.5115 65.9305 59.7844C65.3589 62.9863 64.4755 64.829 63.077 66.1654C61.6785 67.5018 59.7976 68.3006 56.573 68.7262C53.2769 69.1613 48.9496 69.1664 42.8516 69.1664H37.1491C31.051 69.1664 26.7237 69.1613 23.4276 68.7262C20.203 68.3006 18.3221 67.5018 16.9236 66.1654C15.5251 64.829 14.6417 62.9863 14.0701 59.7844C13.4858 56.5115 13.2843 52.1889 13.0074 46.0971L12.8532 43.2091C19.4093 49.2521 28.6604 52.007 37.5004 52.4387V54.9997C37.5004 56.3804 38.6197 57.4997 40.0004 57.4997C41.3812 57.4997 42.5004 56.3804 42.5004 54.9997V52.4387Z" fill="#3980B3"/>
</svg>
