<svg width="48" height="48" viewBox="0 0 48 48" fill="none" xmlns="http://www.w3.org/2000/svg">
<g clip-path="url(#clip0_3751_10263)">
<path d="M16.002 15.4925C15.918 15.4925 16.086 15.5025 16.002 15.4925V15.4925ZM8.048 11.9885C7.802 13.0645 8.476 14.1365 9.552 14.3825C11.576 14.8445 13.914 15.2285 16 15.4925C16.994 15.4925 17.854 14.7545 17.982 13.7425C18.12 12.6465 17.344 11.6465 16.248 11.5085C14.29 11.2625 12.338 10.9185 10.444 10.4845C9.37 10.2325 8.294 10.9125 8.048 11.9885ZM16.002 31.5405C15.918 31.5405 16.086 31.5505 16.002 31.5405V31.5405ZM16.248 27.5565C14.298 27.3125 12.346 26.9685 10.446 26.5345C9.372 26.2865 8.296 26.9605 8.05 28.0385C7.804 29.1145 8.478 30.1865 9.554 30.4325C11.584 30.8965 13.92 31.2805 16.002 31.5405C16.996 31.5405 17.858 30.8005 17.984 29.7885C18.12 28.6925 17.344 27.6925 16.248 27.5565ZM16.002 23.4925C15.918 23.4925 16.086 23.5025 16.002 23.4925V23.4925ZM16.25 19.5085C14.292 19.2625 12.34 18.9185 10.446 18.4845C9.372 18.2305 8.296 18.9125 8.05 19.9885C7.804 21.0645 8.478 22.1365 9.554 22.3825C11.578 22.8445 13.916 23.2285 16.002 23.4925C16.996 23.4925 17.856 22.7545 17.984 21.7425C18.122 20.6465 17.346 19.6465 16.25 19.5085ZM31.998 31.5425C31.914 31.5525 32.08 31.5425 31.998 31.5425V31.5425ZM40.47 40.8925C38.458 41.4265 36.396 41.8585 34.296 42.1905C37.786 43.0585 41.91 43.8205 46.088 44.0045C47.192 44.0525 48.046 44.9865 47.998 46.0905C47.952 47.1645 47.066 48.0025 46.002 48.0025C45.972 48.0025 45.942 48.0025 45.912 48.0025C36.014 47.5685 26.71 44.2165 24 43.1605C21.29 44.2165 11.988 47.5685 2.088 48.0025C2.058 48.0025 2.028 48.0025 1.998 48.0025C0.934 48.0025 0.048 47.1645 0.002 46.0905C-0.046 44.9865 0.808 44.0525 1.912 44.0045C6.09 43.8205 10.214 43.0585 13.704 42.1905C11.602 41.8585 9.54 41.4265 7.528 40.8925C3.096 39.7165 0 35.7265 0 31.1885V9.00047C0 6.19647 1.27 3.59647 3.486 1.87247C5.674 0.168469 8.464 -0.419531 11.132 0.256469C16.284 1.56247 20.254 2.14847 24.006 2.16047C27.744 2.14847 31.714 1.56247 36.868 0.256469C39.534 -0.417531 42.328 0.168469 44.514 1.87247C46.728 3.59647 48 6.19647 48 9.00047V31.1885C48 35.7265 44.904 39.7165 40.47 40.8925ZM22 6.10647C18.49 5.92647 14.746 5.30047 10.152 4.13647C9.754 4.03447 9.352 3.98647 8.954 3.98647C7.878 3.98647 6.824 4.34647 5.944 5.02847C4.708 5.99047 4 7.43847 4 9.00047V31.1885C4 33.9125 5.872 36.3125 8.552 37.0245C12.828 38.1585 17.342 38.8085 22 38.9645V6.10647ZM39.446 37.0245C42.128 36.3145 44 33.9125 44 31.1885V9.00047C44 7.43847 43.292 5.99047 42.056 5.02847C40.848 4.09047 39.322 3.75847 37.848 4.13647C33.25 5.30247 29.504 5.92847 26 6.10847V38.9665C30.652 38.8125 35.17 38.1605 39.446 37.0265V37.0245ZM31.998 15.4925C31.912 15.5025 32.08 15.4925 31.998 15.4925V15.4925ZM37.554 10.4845C35.658 10.9185 33.704 11.2625 31.75 11.5085C30.654 11.6465 29.876 12.6465 30.016 13.7425C30.142 14.7545 31.004 15.4925 31.998 15.4925C34.084 15.2305 36.42 14.8465 38.446 14.3825C39.522 14.1365 40.196 13.0645 39.95 11.9885C39.704 10.9105 38.626 10.2305 37.554 10.4845ZM31.998 23.4925C31.912 23.5025 32.08 23.4925 31.998 23.4925V23.4925ZM37.554 18.4845C35.658 18.9185 33.704 19.2625 31.75 19.5085C30.654 19.6465 29.876 20.6465 30.016 21.7425C30.142 22.7545 31.004 23.4925 31.998 23.4925C34.084 23.2305 36.42 22.8465 38.446 22.3825C39.522 22.1365 40.196 21.0645 39.95 19.9885C39.704 18.9085 38.626 18.2325 37.554 18.4845ZM37.554 26.5345C35.652 26.9685 33.7 27.3125 31.752 27.5565C30.656 27.6925 29.878 28.6925 30.016 29.7885C30.142 30.8005 31.004 31.5425 31.998 31.5425C34.078 31.2825 36.414 30.8985 38.446 30.4325C39.522 30.1865 40.196 29.1145 39.95 28.0385C39.704 26.9585 38.626 26.2845 37.554 26.5345Z" fill="#517632"/>
</g>
<defs>
<clipPath id="clip0_3751_10263">
<rect width="48" height="48" fill="white"/>
</clipPath>
</defs>
</svg>
