<svg width="80" height="80" viewBox="0 0 80 80" fill="none" xmlns="http://www.w3.org/2000/svg">
<path fill-rule="evenodd" clip-rule="evenodd" d="M12.2767 6.23017C16.4955 4.93208 22.1715 4.16699 28.3326 4.16699C34.4936 4.16699 40.1696 4.93208 44.3886 6.23017C46.4826 6.87449 48.3592 7.69276 49.7672 8.71703C51.1206 9.70153 52.4992 11.2301 52.4992 13.3337V20.0003C52.4992 21.381 51.3799 22.5003 49.9992 22.5003C48.6186 22.5003 47.4992 21.381 47.4992 20.0003V19.2605C46.5485 19.7048 45.4991 20.0955 44.3886 20.4372C40.1696 21.7352 34.4936 22.5003 28.3326 22.5003C22.1715 22.5003 16.4955 21.7352 12.2767 20.4372C11.1661 20.0954 10.1167 19.7048 9.16589 19.2605V29.5495C9.56803 30.431 10.5563 31.3757 12.4605 32.2369C14.5309 33.1732 17.2791 33.8182 20.3013 34.186C21.6719 34.3528 22.6478 35.5991 22.481 36.9697C22.3142 38.3403 21.0679 39.316 19.6973 39.1493C16.4135 38.7497 13.1115 38.019 10.4 36.7927C9.98356 36.6043 9.5703 36.3992 9.16589 36.1759V46.2162C9.56803 47.0977 10.5563 48.0424 12.4605 48.9037C14.5309 49.84 17.2791 50.485 20.3013 50.8527C21.6719 51.0193 22.6478 52.2657 22.481 53.6363C22.3142 55.007 21.0679 55.9827 19.6973 55.816C16.4135 55.4163 13.1115 54.6857 10.4 53.4593C9.98356 53.271 9.5703 53.0659 9.16589 52.8426V62.8823C9.56806 63.7637 10.5564 64.7083 12.4604 65.5697C14.5308 66.506 17.279 67.151 20.3012 67.5187C21.6718 67.6853 22.6477 68.9317 22.4809 70.3023C22.3141 71.673 21.0678 72.6487 19.6972 72.482C16.4134 72.0823 13.1115 71.3517 10.4 70.1253C7.73983 68.922 5.21079 67.0357 4.28136 64.0847L4.16589 63.718V46.722C4.16508 46.6852 4.16508 46.6485 4.16589 46.6119V30.0553C4.16508 30.0186 4.16508 29.9819 4.16589 29.9453V13.3337C4.16589 11.2301 5.54459 9.70153 6.89789 8.71703C8.30593 7.69276 10.1826 6.87449 12.2767 6.23017ZM9.21553 13.3337C9.29543 13.2229 9.47013 13.0289 9.83926 12.7604C10.624 12.1895 11.9203 11.5712 13.7471 11.0091C17.3702 9.89429 22.5274 9.16699 28.3326 9.16699C34.1377 9.16699 39.2949 9.89429 42.9179 11.0091C44.7449 11.5712 46.0412 12.1895 46.8259 12.7604C47.1949 13.0289 47.3696 13.2229 47.4496 13.3337C47.3696 13.4444 47.1949 13.6385 46.8259 13.907C46.0412 14.4779 44.7449 15.0962 42.9179 15.6583C39.2949 16.773 34.1377 17.5003 28.3326 17.5003C22.5274 17.5003 17.3702 16.773 13.7471 15.6583C11.9203 15.0962 10.624 14.4779 9.83926 13.907C9.47013 13.6385 9.29543 13.4444 9.21553 13.3337Z" fill="#3980B3"/>
<path fill-rule="evenodd" clip-rule="evenodd" d="M35.6099 29.5635C39.8289 28.2654 45.5049 27.5003 51.6659 27.5003C57.8269 27.5003 63.5029 28.2654 67.7219 29.5635C69.8159 30.2078 71.6926 31.0261 73.1006 32.0504C74.4539 33.0349 75.8326 34.5634 75.8326 36.667V66.0003C75.8326 68.0907 74.5772 69.698 73.1919 70.8067C71.7822 71.9347 69.8966 72.8403 67.7879 73.5537C63.5462 74.9897 57.8462 75.8337 51.6659 75.8337C45.4856 75.8337 39.7856 74.9897 35.5439 73.5537C33.4354 72.8403 31.5494 71.9347 30.1399 70.8067C28.7545 69.698 27.4992 68.0907 27.4992 66.0003V36.667C27.4992 34.5634 28.8779 33.0349 30.2312 32.0504C31.6393 31.0261 33.5159 30.2078 35.6099 29.5635ZM32.5489 36.667C32.6288 36.5562 32.8035 36.3622 33.1726 36.0937C33.9573 35.5228 35.2536 34.9045 37.0806 34.3424C40.7036 33.2276 45.8609 32.5003 51.6659 32.5003C57.4709 32.5003 62.6282 33.2276 66.2512 34.3424C68.0782 34.9045 69.3746 35.5228 70.1592 36.0937C70.5282 36.3622 70.7029 36.5562 70.7829 36.667C70.7029 36.7777 70.5282 36.9717 70.1592 37.2403C69.3746 37.8113 68.0782 38.4297 66.2512 38.9917C62.6282 40.1063 57.4709 40.8337 51.6659 40.8337C45.8609 40.8337 40.7036 40.1063 37.0806 38.9917C35.2536 38.4297 33.9573 37.8113 33.1726 37.2403C32.8035 36.9717 32.6288 36.7777 32.5489 36.667ZM32.4992 42.5938V51.5895C32.5398 51.6664 32.6902 51.8899 33.1726 52.2409C33.9573 52.8119 35.2536 53.4302 37.0806 53.9922C40.7036 55.1069 45.8609 55.8342 51.6659 55.8342C57.4709 55.8342 62.6282 55.1069 66.2512 53.9922C68.0782 53.4302 69.3746 52.8119 70.1592 52.2409C70.6413 51.8903 70.7918 51.6666 70.8326 51.5896V42.5938C69.8818 43.0381 68.8324 43.4286 67.7219 43.7703C63.5029 45.0687 57.8269 45.8337 51.6659 45.8337C45.5049 45.8337 39.8289 45.0687 35.6099 43.7703C34.4994 43.4286 33.45 43.0381 32.4992 42.5938ZM70.8326 57.5945C69.8818 58.0389 68.8324 58.4295 67.7219 58.7712C63.5029 60.0692 57.8269 60.8342 51.6659 60.8342C45.5049 60.8342 39.8289 60.0692 35.6099 58.7712C34.4994 58.4295 33.45 58.0389 32.4992 57.5945V66.0003C32.4992 66.0003 32.4991 66.0034 32.5005 66.011C32.5014 66.0159 32.5029 66.0226 32.5056 66.0317C32.5131 66.0563 32.532 66.1073 32.5788 66.1847C32.677 66.3473 32.8797 66.5953 33.2639 66.9027C34.0472 67.5297 35.3342 68.2043 37.1469 68.8177C40.7466 70.036 45.8799 70.8337 51.6659 70.8337C57.4519 70.8337 62.5852 70.036 66.1849 68.8177C67.9976 68.2043 69.2846 67.5297 70.0679 66.9027C70.4522 66.5953 70.6549 66.3473 70.7529 66.1847C70.7999 66.1073 70.8189 66.0563 70.8262 66.0317C70.8329 66.0087 70.8326 66.0003 70.8326 66.0003V57.5945Z" fill="#3980B3"/>
</svg>
