<svg width="80" height="81" viewBox="0 0 80 81" fill="none" xmlns="http://www.w3.org/2000/svg">
<g opacity="0.8">
<path d="M33.2086 4.66699H36.6763C38.057 4.66699 39.1763 5.78628 39.1763 7.16699C39.1763 8.54771 38.057 9.66699 36.6763 9.66699H33.3539C27.8302 9.66699 23.8825 9.67024 20.8244 9.99233C17.8107 10.3098 15.9502 10.9142 14.501 11.9281C13.3055 12.7646 12.2657 13.8036 11.4287 14.998C10.4144 16.4455 9.80966 18.3038 9.49206 21.3145C9.16976 24.3699 9.1665 28.3142 9.1665 33.8337C9.1665 39.3531 9.16976 43.2974 9.49206 46.3528C9.80966 49.3635 10.4144 51.2218 11.4287 52.6693C12.2657 53.8637 13.3055 54.9027 14.501 55.7392C15.9502 56.7531 17.8107 57.3576 20.8244 57.675C23.8825 57.9971 27.8302 58.0003 33.3538 58.0003H46.6975C52.2212 58.0003 56.1688 57.9971 59.227 57.675C62.2407 57.3576 64.1012 56.7531 65.5504 55.7392C66.7459 54.9027 67.7857 53.8637 68.6227 52.6693C70.228 50.3785 70.7249 47.3138 70.8344 43.7567C70.8768 42.3767 72.03 41.2924 73.4101 41.3348C74.7901 41.3773 75.8745 42.5305 75.832 43.9106C75.717 47.6477 75.2087 51.9834 72.7174 55.5387C71.5456 57.2109 70.0901 58.6652 68.4168 59.836C65.9887 61.5348 63.1759 62.2867 59.7507 62.6475C56.4002 63.0004 52.1893 63.0004 46.8428 63.0003H42.4998V71.3337H53.3332C54.7139 71.3337 55.8332 72.4529 55.8332 73.8337C55.8332 75.2144 54.7139 76.3337 53.3332 76.3337H26.6665C25.2858 76.3337 24.1665 75.2144 24.1665 73.8337C24.1665 72.4529 25.2858 71.3337 26.6665 71.3337H37.4998V63.0003H33.2085C27.862 63.0004 23.6512 63.0004 20.3007 62.6475C16.8755 62.2867 14.0626 61.5348 11.6346 59.836C9.9613 58.6652 8.50578 57.2109 7.33397 55.5387C5.63346 53.112 4.88076 50.3005 4.51965 46.8773C4.16645 43.5291 4.16648 39.3212 4.1665 33.9791V33.6882C4.16648 28.3461 4.16645 24.1382 4.51965 20.79C4.88076 17.3668 5.63346 14.5554 7.33397 12.1287C8.50578 10.4564 9.9613 9.00208 11.6346 7.83131C14.0626 6.13251 16.8755 5.3806 20.3007 5.01984C23.6512 4.66694 27.8621 4.66696 33.2086 4.66699Z" fill="#3980B3"/>
<path fill-rule="evenodd" clip-rule="evenodd" d="M60.0001 4.66699C61.3809 4.66699 62.5001 5.78628 62.5001 7.16699V9.17541C65.3044 9.68125 67.8155 11.023 69.7386 12.9346L71.9815 11.4926C73.1429 10.746 74.6897 11.0822 75.4364 12.2436C76.183 13.405 75.8468 14.9518 74.6854 15.6985L72.5593 17.0654C73.2359 18.6341 73.6113 20.3584 73.6113 22.167C73.6113 23.9759 73.2358 25.7004 72.559 27.2693L74.684 28.6355C75.8454 29.3822 76.1816 30.929 75.435 32.0904C74.6883 33.2518 73.1415 33.588 71.9801 32.8413L69.7381 31.3999C67.815 33.3112 65.3042 34.6528 62.5001 35.1586V37.167C62.5001 38.5477 61.3809 39.667 60.0001 39.667C58.6194 39.667 57.5001 38.5477 57.5001 37.167V35.1586C54.6961 34.6528 52.1853 33.3112 50.2622 31.3999L48.0202 32.8413C46.8588 33.588 45.312 33.2518 44.5653 32.0904C43.8186 30.929 44.1549 29.3822 45.3163 28.6355L47.4413 27.2693C46.7645 25.7004 46.389 23.9759 46.389 22.167C46.389 20.3584 46.7644 18.6341 47.441 17.0654L45.3149 15.6985C44.1535 14.9518 43.8172 13.405 44.5639 12.2436C45.3106 11.0822 46.8573 10.746 48.0188 11.4926L50.2617 12.9346C52.1848 11.023 54.6959 9.68125 57.5001 9.17541V7.16699C57.5001 5.78628 58.6194 4.66699 60.0001 4.66699ZM60.0001 13.9527C56.9739 13.9527 54.3403 15.4366 52.8092 17.6468C51.908 18.9477 51.389 20.4987 51.389 22.167C51.389 23.8354 51.9081 25.3866 52.8095 26.6876C54.3406 28.8976 56.9741 30.3813 60.0001 30.3813C63.0261 30.3813 65.6596 28.8976 67.1908 26.6876C68.0921 25.3866 68.6113 23.8354 68.6113 22.167C68.6113 20.4987 68.0923 18.9477 67.1911 17.6468C65.66 15.4366 63.0264 13.9527 60.0001 13.9527Z" fill="#3980B3"/>
<path d="M36.6665 48.0003C35.2858 48.0003 34.1665 49.1196 34.1665 50.5003C34.1665 51.881 35.2858 53.0003 36.6665 53.0003H43.3332C44.7139 53.0003 45.8332 51.881 45.8332 50.5003C45.8332 49.1196 44.7139 48.0003 43.3332 48.0003H36.6665Z" fill="#3980B3"/>
</g>
</svg>
