<svg width="40" height="40" viewBox="0 0 40 40" fill="none" xmlns="http://www.w3.org/2000/svg">
<g clip-path="url(#clip0_3710_9281)">
<path d="M33.3333 25.085V22.5C33.3333 21.12 32.2133 20 30.8333 20H29.1667C27.7867 20 26.6667 21.12 26.6667 22.5V25H23.3333V22.5C23.3333 21.12 22.2133 20 20.8333 20H19.1667C17.7867 20 16.6667 21.12 16.6667 22.5V25H13.3333V22.5C13.3333 21.12 12.2133 20 10.8333 20H9.16667C7.78667 20 6.66667 21.12 6.66667 22.5V25.085C2.92667 25.505 0 28.65 0 32.5C0 36.635 3.365 40 7.5 40H32.5C36.635 40 40 36.635 40 32.5C40 28.65 37.0733 25.505 33.3333 25.085ZM7.5 35C6.12 35 5 33.88 5 32.5C5 31.12 6.12 30 7.5 30C8.88 30 10 31.12 10 32.5C10 33.88 8.88 35 7.5 35ZM20 35C18.62 35 17.5 33.88 17.5 32.5C17.5 31.12 18.62 30 20 30C21.38 30 22.5 31.12 22.5 32.5C22.5 33.88 21.38 35 20 35ZM32.5 35C31.12 35 30 33.88 30 32.5C30 31.12 31.12 30 32.5 30C33.88 30 35 31.12 35 32.5C35 33.88 33.88 35 32.5 35ZM0 1.66667C0 0.746667 0.746667 0 1.66667 0H38.3333C39.2533 0 40 0.746667 40 1.66667C40 2.58667 39.2533 3.33333 38.3333 3.33333H10.1267C10.3833 4.145 11.0333 4.79167 11.8933 5.005L25.345 8.36833C27.9383 8.55 30 10.695 30 13.3333V15C30 15.92 29.2533 16.6667 28.3333 16.6667C27.4133 16.6667 26.6667 15.92 26.6667 15V13.3333C26.6667 12.415 25.9183 11.6667 25 11.6667C24.0817 11.6667 23.3333 12.415 23.3333 13.3333V15C23.3333 15.92 22.5867 16.6667 21.6667 16.6667C20.7467 16.6667 20 15.92 20 15V13.3333C20 12.35 20.295 11.4383 20.7867 10.665L11.085 8.24C8.73333 7.65167 7.035 5.68667 6.73 3.33333H1.66667C0.746667 3.33333 0 2.58667 0 1.66667Z" fill="white"/>
</g>
<defs>
<clipPath id="clip0_3710_9281">
<rect width="40" height="40" fill="white"/>
</clipPath>
</defs>
</svg>
