<svg width="40" height="40" viewBox="0 0 40 40" fill="none" xmlns="http://www.w3.org/2000/svg">
<g clip-path="url(#clip0_3710_9307)">
<path d="M33.1417 6.66667V15C33.1417 18.6767 30.1517 21.6667 26.475 21.6667H13.1417C9.465 21.6667 6.475 18.6767 6.475 15V6.66667C6.475 2.99 9.465 0 13.1417 0H15V8.33333C15 10.1717 16.495 11.6667 18.3333 11.6667H21.6667C23.505 11.6667 25 10.1717 25 8.33333V0H26.475C30.1517 0 33.1417 2.99 33.1417 6.66667ZM21.6667 0H18.3333V8.33333H21.6667V0ZM40 32.5C40 36.635 36.635 40 32.5 40H7.5C3.365 40 0 36.635 0 32.5C0 28.365 3.365 25 7.5 25H32.5C36.635 25 40 28.365 40 32.5ZM10 32.5C10 31.12 8.88 30 7.5 30C6.12 30 5 31.12 5 32.5C5 33.88 6.12 35 7.5 35C8.88 35 10 33.88 10 32.5ZM22.5 32.5C22.5 31.12 21.38 30 20 30C18.62 30 17.5 31.12 17.5 32.5C17.5 33.88 18.62 35 20 35C21.38 35 22.5 33.88 22.5 32.5ZM35 32.5C35 31.12 33.88 30 32.5 30C31.12 30 30 31.12 30 32.5C30 33.88 31.12 35 32.5 35C33.88 35 35 33.88 35 32.5Z" fill="white"/>
</g>
<defs>
<clipPath id="clip0_3710_9307">
<rect width="40" height="40" fill="white"/>
</clipPath>
</defs>
</svg>
