<svg width="80" height="81" viewBox="0 0 80 81" fill="none" xmlns="http://www.w3.org/2000/svg">
<g opacity="0.8">
<path d="M49.1665 40.5003C49.1665 39.1196 50.2858 38.0003 51.6665 38.0003H61.6665C63.0472 38.0003 64.1665 39.1196 64.1665 40.5003C64.1665 41.881 63.0472 43.0003 61.6665 43.0003H51.6665C50.2858 43.0003 49.1665 41.881 49.1665 40.5003Z" fill="#3980B3"/>
<path d="M49.1665 53.8337C49.1665 52.453 50.2858 51.3337 51.6665 51.3337H61.6665C63.0472 51.3337 64.1665 52.453 64.1665 53.8337C64.1665 55.2144 63.0472 56.3337 61.6665 56.3337H51.6665C50.2858 56.3337 49.1665 55.2144 49.1665 53.8337Z" fill="#3980B3"/>
<path d="M18.3332 18.0003C16.9525 18.0003 15.8332 19.1196 15.8332 20.5003C15.8332 21.881 16.9525 23.0003 18.3332 23.0003H28.3332C29.7139 23.0003 30.8332 21.881 30.8332 20.5003C30.8332 19.1196 29.7139 18.0003 28.3332 18.0003H18.3332Z" fill="#3980B3"/>
<path d="M18.3332 31.3337C16.9525 31.3337 15.8332 32.453 15.8332 33.8337C15.8332 35.2144 16.9525 36.3337 18.3332 36.3337H28.3332C29.7139 36.3337 30.8332 35.2144 30.8332 33.8337C30.8332 32.453 29.7139 31.3337 28.3332 31.3337H18.3332Z" fill="#3980B3"/>
<path d="M18.3332 44.667C16.9525 44.667 15.8332 45.7863 15.8332 47.167C15.8332 48.5477 16.9525 49.667 18.3332 49.667H28.3332C29.7139 49.667 30.8332 48.5477 30.8332 47.167C30.8332 45.7863 29.7139 44.667 28.3332 44.667H18.3332Z" fill="#3980B3"/>
<path fill-rule="evenodd" clip-rule="evenodd" d="M26.8398 4.667H19.8265C16.8316 4.6669 14.3342 4.66682 12.3516 4.93337C10.2589 5.21472 8.3696 5.83362 6.85137 7.35186C5.33314 8.87009 4.71423 10.7594 4.43289 12.8521C4.16633 14.8347 4.16641 17.332 4.16651 20.3269V60.6737C4.16641 63.6686 4.16633 66.166 4.43289 68.1486C4.71423 70.2413 5.33314 72.1306 6.85137 73.6488C8.3696 75.1671 10.2589 75.786 12.3516 76.0673C14.3342 76.3339 16.8316 76.3338 19.8265 76.3337L60.1732 76.3337C63.1679 76.3338 65.6656 76.3339 67.6481 76.0673C69.7408 75.786 71.6301 75.1671 73.1483 73.6488C74.6666 72.1306 75.2855 70.2413 75.5668 68.1486C75.8334 66.1661 75.8333 63.6688 75.8332 60.674V40.327C75.8333 37.3322 75.8334 34.8346 75.5668 32.8521C75.2855 30.7594 74.6666 28.8701 73.1483 27.3519C71.6301 25.8336 69.7408 25.2147 67.6481 24.9334C65.6655 24.6668 63.1681 24.6669 60.1732 24.667L42.4999 24.667V20.327C42.5 17.3321 42.5 14.8347 42.2335 12.8521C41.9521 10.7594 41.3332 8.87009 39.815 7.35186C38.2968 5.83362 36.4074 5.21472 34.3148 4.93337C32.3322 4.66682 29.8347 4.6669 26.8398 4.667ZM42.4999 29.667L42.4998 71.3337H59.9998C63.2132 71.3337 65.3718 71.3284 66.9819 71.1119C68.5201 70.9051 69.1784 70.5477 69.6128 70.1133C70.0472 69.6789 70.4046 69.0206 70.6114 67.4824C70.8279 65.8722 70.8332 63.7137 70.8332 60.5003V40.5003C70.8332 37.287 70.8279 35.1284 70.6114 33.5183C70.4046 31.9801 70.0472 31.3218 69.6128 30.8874C69.1784 30.453 68.5201 30.0956 66.9819 29.8888C65.3718 29.6723 63.2132 29.667 59.9998 29.667H42.4999ZM10.3869 10.8874C10.8213 10.453 11.4796 10.0956 13.0178 9.88879C14.6279 9.67231 16.7865 9.667 19.9998 9.667H26.6665C29.8799 9.667 32.0384 9.67231 33.6485 9.88879C35.1867 10.0956 35.8451 10.453 36.2795 10.8874C36.7138 11.3218 37.0713 11.9801 37.2781 13.5183C37.4945 15.1284 37.4998 17.287 37.4998 20.5003V71.3337H19.9998C16.7865 71.3337 14.6279 71.3284 13.0178 71.1119C11.4796 70.9051 10.8213 70.5477 10.3869 70.1133C9.95252 69.6789 9.59511 69.0206 9.3883 67.4824C9.17182 65.8722 9.16652 63.7137 9.16652 60.5003V20.5003C9.16652 17.287 9.17182 15.1284 9.3883 13.5183C9.59511 11.9801 9.95252 11.3218 10.3869 10.8874Z" fill="#3980B3"/>
</g>
</svg>
