<svg width="24" height="24" viewBox="0 0 24 24" fill="none" xmlns="http://www.w3.org/2000/svg">
<path d="M12.0058 1.99996C12.558 1.99996 13.0058 2.44768 13.0058 2.99996V10.5L13.5883 10.5C13.7639 10.4999 13.9796 10.4997 14.156 10.5218L14.1594 10.5222C14.2858 10.538 14.8619 10.6098 15.1362 11.1754C15.4112 11.7422 15.1092 12.2424 15.0439 12.3506L15.0415 12.3546C14.9493 12.5076 14.8151 12.6785 14.7048 12.8191L14.681 12.8493C14.3864 13.2251 14.0044 13.7093 13.624 14.1003C13.4342 14.2954 13.2169 14.4967 12.986 14.6555C12.7808 14.7967 12.4306 15 11.9999 15C11.5692 15 11.219 14.7967 11.0138 14.6555C10.7829 14.4967 10.5656 14.2954 10.3758 14.1003C9.99534 13.7093 9.61337 13.2251 9.31874 12.8493L9.29501 12.819C9.18466 12.6785 9.05052 12.5076 8.9583 12.3546L8.95587 12.3506C8.89054 12.2424 8.58861 11.7422 8.86357 11.1754C9.13793 10.6098 9.71397 10.538 9.84042 10.5222L9.84377 10.5218C10.0202 10.4997 10.2359 10.4999 10.4115 10.5L11.0058 10.5V2.99996C11.0058 2.44768 11.4535 1.99996 12.0058 1.99996Z" fill="#6D6E71"/>
<path d="M5.7857 9.99934C6.33763 9.97959 6.76906 9.51616 6.74932 8.96423C6.72957 8.4123 6.26614 7.98087 5.71421 8.00061C3.21683 8.08994 0.927725 9.99241 1.00164 12.7115C1.01858 13.3348 1.24435 14.054 1.56626 15.0796L1.61908 15.2479C2.55678 18.2399 4.24982 21.1815 8.17996 21.8752C8.88779 22.0001 9.66763 22.0001 10.9587 22H13.0412C14.3323 22.0001 15.1121 22.0001 15.8199 21.8752C19.7501 21.1815 21.4431 18.2399 22.3808 15.2479L22.4336 15.0796C22.7555 14.0541 22.9813 13.3348 22.9983 12.7115C23.0722 9.9924 20.783 8.08994 18.2857 8.00061C17.7337 7.98087 17.2703 8.4123 17.2506 8.96423C17.2308 9.51616 17.6623 9.97959 18.2142 9.99934C19.8322 10.0572 21.0375 11.2414 20.999 12.6572C20.9907 12.9623 20.8678 13.3879 20.4724 14.6498C19.6164 17.3809 18.295 19.4074 15.4723 19.9056C14.9588 19.9963 14.3661 20 12.9302 20H11.0697C9.63383 20 9.04105 19.9963 8.52762 19.9056C5.70486 19.4074 4.38348 17.3809 3.52754 14.6498C3.13206 13.3879 3.00919 12.9623 3.0009 12.6572C2.96241 11.2414 4.16766 10.0572 5.7857 9.99934Z" fill="#6D6E71"/>
</svg>
