<svg width="20" height="20" viewBox="0 0 20 20" fill="none" xmlns="http://www.w3.org/2000/svg">
<path d="M10.6249 3.75C10.6249 3.40482 10.3451 3.125 9.99992 3.125C9.65474 3.125 9.37492 3.40482 9.37492 3.75V10.8016L9.36987 10.7957C9.1943 10.5885 9.02239 10.3695 8.86164 10.1647L8.82436 10.1172C8.66417 9.9133 8.49565 9.69904 8.36476 9.56438C8.12418 9.31686 7.72849 9.31124 7.48097 9.55182C7.23345 9.79241 7.22782 10.1881 7.46841 10.4356C7.54233 10.5117 7.66368 10.6632 7.84134 10.8894L7.88056 10.9393C8.03894 11.1411 8.22477 11.3778 8.4162 11.6037C8.62137 11.8459 8.85101 12.0974 9.08057 12.2929C9.19561 12.3909 9.32528 12.4875 9.46477 12.5622C9.5993 12.6341 9.78468 12.7083 9.99992 12.7083C10.2152 12.7083 10.4005 12.6341 10.5351 12.5622C10.6746 12.4875 10.8042 12.3909 10.9193 12.2929C11.1488 12.0974 11.3785 11.8459 11.5836 11.6037C11.7751 11.3778 11.9609 11.1411 12.1192 10.9394L12.1585 10.8894C12.3362 10.6632 12.4575 10.5117 12.5314 10.4356C12.772 10.1881 12.7664 9.79241 12.5189 9.55182C12.2713 9.31124 11.8757 9.31686 11.6351 9.56438C11.5042 9.69904 11.3357 9.9133 11.1755 10.1172L11.1382 10.1647C10.9775 10.3695 10.8055 10.5885 10.63 10.7957L10.6249 10.8016V3.75Z" fill="#60A734"/>
<path d="M3.95825 13.75C3.95825 13.4048 3.67843 13.125 3.33325 13.125C2.98807 13.125 2.70825 13.4048 2.70825 13.75C2.70825 14.2806 2.73511 14.7492 2.82257 15.1473C2.91159 15.5525 3.07168 15.9236 3.36569 16.2176C3.65969 16.5116 4.03074 16.6717 4.43595 16.7607C4.83407 16.8481 5.30264 16.875 5.83325 16.875H14.1666C14.6972 16.875 15.1658 16.8481 15.5639 16.7607C15.9691 16.6717 16.3401 16.5116 16.6342 16.2176C16.9282 15.9236 17.0882 15.5525 17.1773 15.1473C17.2647 14.7492 17.2916 14.2806 17.2916 13.75C17.2916 13.4048 17.0118 13.125 16.6666 13.125C16.3214 13.125 16.0416 13.4048 16.0416 13.75C16.0416 14.2536 16.0145 14.6146 15.9564 14.8791C15.8998 15.1366 15.8227 15.2612 15.7503 15.3337C15.6778 15.4061 15.5531 15.4832 15.2957 15.5398C15.0312 15.5979 14.6701 15.625 14.1666 15.625H5.83325C5.32969 15.625 4.96868 15.5979 4.70415 15.5398C4.4467 15.4832 4.32202 15.4061 4.24957 15.3337C4.17711 15.2612 4.10002 15.1366 4.04346 14.8791C3.98535 14.6146 3.95825 14.2536 3.95825 13.75Z" fill="#60A734"/>
</svg>
