<svg width="80" height="80" viewBox="0 0 80 80" fill="none" xmlns="http://www.w3.org/2000/svg">
<path d="M37.5001 50C37.5001 48.6193 38.6194 47.5 40.0001 47.5L46.6667 47.5C48.0475 47.5 49.1667 48.6193 49.1667 50C49.1667 51.3807 48.0475 52.5 46.6667 52.5H40.0001C38.6194 52.5 37.5001 51.3807 37.5001 50Z" fill="#3980B3"/>
<path d="M56.6667 47.5C55.286 47.5 54.1667 48.6193 54.1667 50C54.1667 51.3807 55.286 52.5 56.6667 52.5H63.3334C64.7141 52.5 65.8334 51.3807 65.8334 50C65.8334 48.6193 64.7141 47.5 63.3334 47.5H56.6667Z" fill="#3980B3"/>
<path fill-rule="evenodd" clip-rule="evenodd" d="M74.3938 21.0694C75.2723 21.4808 75.8334 22.3633 75.8334 23.3334L75.8334 66.7815C75.8337 67.4652 75.834 68.2046 75.7501 68.8286C75.6518 69.5597 75.399 70.4936 74.613 71.2796C73.827 72.0657 72.8931 72.3184 72.162 72.4167C71.5379 72.5006 70.7987 72.5003 70.115 72.5001L33.8458 72.5C33.7589 72.5 33.6731 72.4956 33.5885 72.487C33.5042 72.4956 33.419 72.5 33.3334 72.5L10.0743 72.5C9.29412 72.5003 8.47176 72.5006 7.78788 72.4056C7.00009 72.2962 5.9698 72.0113 5.15628 71.0979C4.33839 70.1796 4.17797 69.1192 4.16731 68.3183C4.15814 67.6293 4.26273 66.8171 4.36103 66.0536L10.87 15.3504C11.1652 13.0506 11.6663 10.7371 13.4013 9.2194C15.1303 7.70694 17.4973 7.5 19.8542 7.5C22.2111 7.5 24.578 7.70694 26.307 9.2194C28.042 10.7371 28.5431 13.0506 28.8383 15.3504L31.2537 34.1659C33.0815 34.1603 33.6288 34.1224 34.1207 33.9625C34.662 33.7865 35.1704 33.4516 37.0362 32.0947L51.863 21.3115C52.6234 20.7585 53.6299 20.6789 54.4679 21.1056C55.3058 21.5323 55.8334 22.3931 55.8334 23.3334V32.8832C55.8334 33.5903 55.8346 34.1665 55.8432 34.6414C56.2136 34.344 56.657 33.9761 57.2002 33.5234L71.7329 21.4128C72.4781 20.7918 73.5153 20.6579 74.3938 21.0694ZM31.8955 39.1653L35.533 67.5L70.0001 67.5C70.3303 67.5 70.598 67.4999 70.8296 67.4962C70.8333 67.2647 70.8334 66.997 70.8334 66.6667L70.8334 28.671L60.2701 37.4737C59.2015 38.3645 58.1958 39.203 57.3276 39.7358C56.4604 40.2681 54.9219 41.0061 53.2328 40.2149C51.5437 39.4238 51.1256 37.7694 50.9793 36.7624C50.8329 35.7545 50.8331 34.4451 50.8334 33.0539L50.8334 28.2428L39.7216 36.3243C38.2333 37.4084 37.057 38.2654 35.6669 38.7174C34.5154 39.0918 33.319 39.1553 31.8955 39.1653ZM16.6933 12.9827C16.5092 13.1439 16.1274 13.6647 15.8293 15.9871L15.6351 17.5L24.0733 17.5L23.879 15.9871C23.5809 13.6647 23.1992 13.1438 23.015 12.9827C22.8248 12.8164 22.2362 12.5 19.8542 12.5C17.4722 12.5 16.8835 12.8164 16.6933 12.9827ZM30.4919 67.5L24.7151 22.5L14.9932 22.5L9.33644 66.5651C9.28913 66.9336 9.25066 67.2342 9.22168 67.4949C9.49462 67.4999 9.81045 67.5 10.1997 67.5H30.4919Z" fill="#3980B3"/>
</svg>
