<svg width="80" height="80" viewBox="0 0 80 80" fill="none" xmlns="http://www.w3.org/2000/svg">
<path d="M53.3334 45.8327C54.7141 45.8327 55.8334 44.7134 55.8334 43.3327C55.8334 41.952 54.7141 40.8327 53.3334 40.8327H43.3334C41.9527 40.8327 40.8334 41.952 40.8334 43.3327C40.8334 44.7134 41.9527 45.8327 43.3334 45.8327H53.3334Z" fill="#3980B3"/>
<path d="M53.3334 59.166C54.7141 59.166 55.8334 58.0467 55.8334 56.666C55.8334 55.2853 54.7141 54.166 53.3334 54.166L30.0001 54.166C28.6194 54.166 27.5001 55.2853 27.5001 56.666C27.5001 58.0467 28.6194 59.166 30.0001 59.166H53.3334Z" fill="#3980B3"/>
<path fill-rule="evenodd" clip-rule="evenodd" d="M40.1791 75.8328H37.2798C31.9669 75.8329 27.783 75.8329 24.4638 75.4869C21.0747 75.1337 18.2878 74.3968 15.9037 72.7171C14.6311 71.8204 13.4961 70.7534 12.5358 69.5461C10.7196 67.2625 9.91838 64.5773 9.53709 61.3368C9.16667 58.1887 9.16671 54.2304 9.16675 49.2507V40.5146C9.16675 35.6533 9.16675 31.8806 9.36756 28.8361C9.57111 25.7501 9.98856 23.2386 10.9057 20.9243C13.6994 13.8747 19.5822 8.37067 26.9666 5.77846C31.5628 4.165 37.2026 4.16541 47.0871 4.16614L48.2962 4.16609C53.7467 4.16496 57.1433 4.16425 59.9456 5.14796C64.4424 6.72655 68.0476 10.0869 69.7644 14.4189C70.3466 15.8881 70.5965 17.4477 70.7163 19.2642C70.8334 21.0394 70.8334 23.2245 70.8334 25.9723V46.8645C70.8335 52.9816 70.8335 57.8425 70.2896 61.65C69.7272 65.5868 68.54 68.761 65.8975 71.2481C63.2764 73.715 59.9671 74.805 55.8586 75.3249C51.8439 75.8329 46.7056 75.8329 40.1791 75.8328ZM55.2309 70.3645C58.838 69.908 60.9425 69.0454 62.4707 67.6071C63.9775 66.1889 64.8649 64.2678 65.3399 60.9429C65.8274 57.5298 65.8334 53.0265 65.8334 46.6662V26.0601C65.8334 23.2051 65.8321 21.1847 65.7272 19.5932C65.6237 18.0241 65.4271 17.0458 65.116 16.261C63.9609 13.3461 61.4924 10.9901 58.2894 9.86572C56.3983 9.20186 53.9358 9.16617 47.7274 9.16617C46.6589 9.16617 45.6502 9.16652 44.6963 9.16845C40.0824 9.32981 36.3916 13.121 36.3916 17.7742C36.3916 18.2646 36.4131 18.7919 36.4406 19.3839L36.4509 19.6033C36.4751 20.1196 36.5015 20.6817 36.5132 21.2421C36.5395 22.5091 36.4995 23.9875 36.1171 25.4147C35.3722 28.1946 33.2008 30.366 30.4209 31.1108C28.9938 31.4932 27.5153 31.5333 26.2483 31.5069C25.6879 31.4953 25.1261 31.4689 24.6098 31.4446L24.3901 31.4344C23.7982 31.4069 23.2709 31.3853 22.7804 31.3853C18.0247 31.3853 14.1693 35.2406 14.1693 39.9964C14.1693 40.0348 14.1685 40.073 14.1668 40.1109C14.1668 40.2743 14.1668 40.4392 14.1668 40.6056V49.0904C14.1668 54.2665 14.1708 57.9305 14.5028 60.7525C14.828 63.5157 15.4396 65.1646 16.449 66.4337C17.1079 67.2621 17.8932 68.0024 18.7835 68.6297C20.1741 69.6094 21.9923 70.2022 24.9821 70.5139C28.0119 70.8297 31.9353 70.8328 37.4243 70.8328H40.0001C46.7449 70.8328 51.5667 70.8281 55.2309 70.3645ZM14.3472 29.3119C16.666 27.4793 19.5955 26.3853 22.7804 26.3853C23.3997 26.3853 24.0317 26.4124 24.6219 26.4397L24.8481 26.4503C25.3704 26.4748 25.862 26.4978 26.3521 26.508C27.4876 26.5316 28.3962 26.477 29.1268 26.2812C30.1813 25.9987 31.0049 25.1751 31.2874 24.1206C31.4832 23.39 31.5378 22.4814 31.5143 21.3459C31.5041 20.8558 31.481 20.3643 31.4566 19.8421L31.446 19.6156C31.4186 19.0254 31.3916 18.3934 31.3916 17.7742C31.3916 14.6323 32.4561 11.739 34.2442 9.43539C31.9337 9.62486 30.1861 9.9474 28.6227 10.4962C22.5322 12.6342 17.7862 17.1338 15.554 22.7664C14.9081 24.3964 14.544 26.3265 14.3567 29.1652C14.3535 29.2139 14.3504 29.2628 14.3472 29.3119Z" fill="#3980B3"/>
</svg>
