<svg width="17" height="17" viewBox="0 0 17 17" fill="none" xmlns="http://www.w3.org/2000/svg">
<g clip-path="url(#clip0_143_10775)">
<path d="M8.5 0.5C6.91775 0.5 5.37104 0.969192 4.05544 1.84824C2.73985 2.72729 1.71447 3.97672 1.10897 5.43853C0.503466 6.90034 0.34504 8.50887 0.653721 10.0607C0.962403 11.6126 1.72433 13.038 2.84315 14.1569C3.96197 15.2757 5.38743 16.0376 6.93928 16.3463C8.49113 16.655 10.0997 16.4965 11.5615 15.891C13.0233 15.2855 14.2727 14.2602 15.1518 12.9446C16.0308 11.629 16.5 10.0823 16.5 8.5C16.4977 6.37897 15.6541 4.34547 14.1543 2.84568C12.6545 1.34589 10.621 0.502294 8.5 0.5ZM14.2647 5.16667H12.1173C11.6366 4.05266 11.0037 3.01072 10.2367 2.07067C11.9343 2.53262 13.3815 3.64498 14.2647 5.16667ZM11.5 8.5C11.4945 9.17876 11.3876 9.85288 11.1827 10.5H5.81734C5.61244 9.85288 5.50548 9.17876 5.5 8.5C5.50548 7.82124 5.61244 7.14712 5.81734 6.5H11.1827C11.3876 7.14712 11.4945 7.82124 11.5 8.5ZM6.352 11.8333H10.648C10.0822 12.9505 9.35877 13.9806 8.5 14.892C7.64092 13.9808 6.9175 12.9507 6.352 11.8333ZM6.352 5.16667C6.91785 4.04952 7.64123 3.01944 8.5 2.108C9.35909 3.01918 10.0825 4.04931 10.648 5.16667H6.352ZM6.76667 2.07067C5.99844 3.01052 5.36439 4.05247 4.88267 5.16667H2.73534C3.61924 3.64429 5.06778 2.53184 6.76667 2.07067ZM2.14067 6.5H4.43334C4.26051 7.15276 4.17091 7.82476 4.16667 8.5C4.17091 9.17524 4.26051 9.84724 4.43334 10.5H2.14067C1.7309 9.19815 1.7309 7.80185 2.14067 6.5ZM2.73534 11.8333H4.88267C5.36439 12.9475 5.99844 13.9895 6.76667 14.9293C5.06778 14.4682 3.61924 13.3557 2.73534 11.8333ZM10.2367 14.9293C11.0037 13.9893 11.6366 12.9473 12.1173 11.8333H14.2647C13.3815 13.355 11.9343 14.4674 10.2367 14.9293ZM14.8593 10.5H12.5667C12.7395 9.84724 12.8291 9.17524 12.8333 8.5C12.8291 7.82476 12.7395 7.15276 12.5667 6.5H14.858C15.2678 7.80185 15.2678 9.19815 14.858 10.5H14.8593Z" fill="#604D39"/>
</g>
<defs>
<clipPath id="clip0_143_10775">
<rect width="16" height="16" fill="white" transform="translate(0.5 0.5)"/>
</clipPath>
</defs>
</svg>
