<svg width="48" height="48" viewBox="0 0 48 48" fill="none" xmlns="http://www.w3.org/2000/svg">
<g clip-path="url(#clip0_3751_10275)">
<path d="M46 30.0001H44.666C44.166 30.0001 43.67 30.0381 43.176 30.1141L29.0841 19.546L32.46 16.314C33.258 15.55 33.286 14.282 32.522 13.486C31.756 12.688 30.4881 12.662 29.6941 13.424L21.348 21.414C20.932 21.83 20.366 22.0441 19.772 21.994C19.1761 21.946 18.6521 21.644 18.2941 21.144C17.746 20.384 17.914 19.194 18.63 18.476L28.0361 9.61805C29.8181 7.94405 32.604 7.53405 34.784 8.62805L39.416 10.944C40.7961 11.634 42.3441 11.998 43.8861 11.998H45.9981C47.1041 11.998 47.9981 11.104 47.9981 9.99805C47.9981 8.89205 47.1041 7.99805 45.9981 7.99805H43.8861C42.9601 7.99805 42.0301 7.78005 41.202 7.36605L36.5741 5.05005C32.9261 3.22405 28.2681 3.90205 25.2921 6.70605L24.0561 7.87005L22.656 6.59405C20.8181 4.92005 18.438 3.99805 15.876 3.99805C14.334 3.99805 12.796 4.36205 11.422 5.04805L6.79405 7.36405C5.96405 7.77805 5.03405 7.99605 4.10805 7.99605H2.00005C0.894047 7.99605 4.68753e-05 8.89005 4.68753e-05 9.99605C4.68753e-05 11.102 0.894047 11.996 2.00005 11.996H4.11205C5.65405 11.996 7.20205 11.63 8.58405 10.942L13.216 8.62605C15.26 7.59805 18.1321 7.87605 19.9641 9.55005L21.1381 10.62L15.846 15.604C13.7 17.748 13.358 21.1381 15.05 23.48C16.09 24.9261 18.156 25.998 19.938 25.998C21.524 25.998 23.0461 25.3741 24.1461 24.272L26.1581 22.3461L38.85 31.8641C38.788 31.9081 26.4541 41.156 26.4541 41.156C25.0081 42.28 22.99 42.28 21.514 41.134L9.33205 31.9981C7.61405 30.708 5.48205 29.9981 3.33205 29.9981H1.99805C0.892047 29.9981 -0.00195312 30.892 -0.00195312 31.9981C-0.00195312 33.104 0.892047 33.9981 1.99805 33.9981H3.33205C4.62205 33.9981 5.90005 34.4241 6.93205 35.1981L19.0861 44.314C20.5361 45.4421 22.274 46.0061 24.0081 46.0061C25.732 46.0061 27.4541 45.448 28.8821 44.336L41.0681 35.2001C42.0981 34.4261 43.3761 34.0001 44.666 34.0001H46C47.1061 34.0001 48.0001 33.1061 48.0001 32.0001C48.0001 30.8941 47.1061 30.0001 46 30.0001Z" fill="#517632"/>
</g>
<defs>
<clipPath id="clip0_3751_10275">
<rect width="48" height="48" fill="white"/>
</clipPath>
</defs>
</svg>
