<svg width="48" height="48" viewBox="0 0 48 48" fill="none" xmlns="http://www.w3.org/2000/svg">
<g clip-path="url(#clip0_3751_10281)">
<path d="M30 20.838V20.854C29.032 21.276 28.112 21.858 27.28 22.602L25.152 24.56C24.5 25.16 23.498 25.16 22.846 24.56L20.66 22.548C19.848 21.82 18.948 21.252 18 20.838C18 18.166 20.166 16 22.838 16H25.16C27.832 16 29.998 18.166 29.998 20.838H30ZM16 8C18.21 8 20 6.21 20 4C20 1.79 18.21 0 16 0C13.79 0 12 1.79 12 4C12 6.21 13.79 8 16 8ZM24 14C26.21 14 28 12.21 28 10C28 7.79 26.21 6 24 6C21.79 6 20 7.79 20 10C20 12.21 21.79 14 24 14ZM32 8C34.21 8 36 6.21 36 4C36 1.79 34.21 0 32 0C29.79 0 28 1.79 28 4C28 6.21 29.79 8 32 8ZM42 8C39.612 8 37.562 9.412 36.598 11.436C35.722 10.55 34.506 10 33.162 10H32C32 11.236 31.706 12.396 31.198 13.434C32.72 14.586 33.74 16.334 33.932 18.334V20.018C34.626 20.012 35.318 20.078 36 20.214V24.372C34 23.67 31.69 24.024 29.99 25.546L23.974 31.082C23.81 30.914 23.654 30.738 23.48 30.578L17.992 25.528C16.306 24.016 14 23.666 12 24.37V20.204C12.68 20.066 13.372 20 14.064 20.004V18.374C14.246 16.356 15.27 14.592 16.802 13.432C16.296 12.394 16 11.234 16 9.998H14.838C13.494 9.998 12.278 10.548 11.402 11.434C10.436 9.41 8.388 7.998 6 7.998C2.692 7.998 0 10.69 0 13.998V34.2C0 38.474 1.664 42.492 4.686 45.514L6.586 47.414C6.976 47.804 7.488 48 8 48C8.512 48 9.024 47.804 9.414 47.414C10.196 46.632 10.196 45.368 9.414 44.586L7.514 42.686C5.248 40.42 4 37.406 4 34.2V14C4 12.898 4.898 12 6 12C7.102 12 8 12.898 8 14C8 14 7.99 30.154 8 30.236C8.06 31.544 8.572 32.852 9.494 33.944L14.726 39.386C15.494 40.184 16.758 40.208 17.554 39.442C18.35 38.676 18.376 37.41 17.61 36.614L12.47 31.272C11.836 30.518 11.854 29.396 12.512 28.662C13.246 27.842 14.51 27.776 15.306 28.49L20.774 33.522C22.826 35.41 24.004 38.092 24.004 40.882V46C24.004 47.104 24.9 48 26.004 48C27.108 48 28.004 47.104 28.004 46V40.882C28.004 38.578 27.416 36.332 26.356 34.33L32.682 28.508C33.5 27.776 34.762 27.844 35.494 28.662C35.814 29.02 36.442 30.358 35.626 31.172C34.81 31.986 30.56 36.44 30.56 36.44C29.794 37.236 29.818 38.502 30.616 39.268C31.004 39.642 31.502 39.826 32.002 39.826C32.526 39.826 33.05 39.62 33.444 39.212L38.6 33.844C39.498 32.774 40.002 32.102 40.002 30V14C40.002 12.898 40.9 12 42.002 12C43.104 12 44.002 12.898 44.002 14V34.202C44.002 37.408 42.754 40.42 40.488 42.688L38.588 44.588C37.806 45.37 37.806 46.634 38.588 47.416C38.978 47.806 39.49 48.002 40.002 48.002C40.514 48.002 41.026 47.806 41.416 47.416L43.316 45.516C46.338 42.494 48.002 38.476 48.002 34.202V14C48.002 10.692 45.308 8 42 8Z" fill="#517632"/>
</g>
<defs>
<clipPath id="clip0_3751_10281">
<rect width="48" height="48" fill="white"/>
</clipPath>
</defs>
</svg>
