<svg width="40" height="40" viewBox="0 0 40 40" fill="none" xmlns="http://www.w3.org/2000/svg">
<g clip-path="url(#clip0_3710_9299)">
<path d="M38.2833 10.4183C37.2217 9.82833 35.925 9.86667 34.7833 10.5867L28.55 17.5V13.3333C28.55 12.1217 27.8917 11.005 26.8333 10.4183C25.7717 9.82833 24.4733 9.86667 23.3333 10.5867L16.6667 17.5033V30.0017C16.6667 30.9217 15.9217 31.6683 15 31.6683C14.0783 31.6683 13.3333 30.9217 13.3333 30.0017V3.33333C14.255 3.33333 15 2.58667 15 1.66667C15 0.746667 14.255 0 13.3333 0H1.66667C0.745 0 0 0.746667 0 1.66667C0 2.58667 0.745 3.33333 1.66667 3.33333V31.6667C1.66667 36.2617 5.405 40 10 40H31.6667C36.2617 40 40 36.2617 40 31.6667V13.3333C40 12.1217 39.3417 11.005 38.2833 10.4183ZM26.6667 30C26.6667 30.92 25.92 31.6667 25 31.6667H23.3333C22.4133 31.6667 21.6667 30.92 21.6667 30V28.3333C21.6667 27.4133 22.4133 26.6667 23.3333 26.6667H25C25.92 26.6667 26.6667 27.4133 26.6667 28.3333V30ZM35 30C35 30.92 34.2533 31.6667 33.3333 31.6667H31.6667C30.7467 31.6667 30 30.92 30 30V28.3333C30 27.4133 30.7467 26.6667 31.6667 26.6667H33.3333C34.2533 26.6667 35 27.4133 35 28.3333V30Z" fill="white"/>
</g>
<defs>
<clipPath id="clip0_3710_9299">
<rect width="40" height="40" fill="white"/>
</clipPath>
</defs>
</svg>
