<svg width="50" height="40" viewBox="0 0 50 40" fill="none" xmlns="http://www.w3.org/2000/svg">
<g clip-path="url(#clip0_3831_10307)">
<path d="M49.2501 15.7644C48.7817 14.5347 47.8197 13.4369 46.6489 12.6452C43.269 10.4991 38.118 10.3463 34.6354 12.2865C32.736 13.2548 31.4877 15.1712 31.0992 17.1446C30.3945 20.3869 30.5765 24.2446 33.0744 26.6748C35.987 29.2281 40.2263 29.7922 43.9959 28.7434C44.175 28.709 44.7426 28.566 45.134 28.3584L45.2442 28.3111C46.415 27.8246 47.5316 27.0324 48.3652 25.9596C50.289 23.1467 50.4209 18.932 49.2501 15.7644ZM43.1127 23.0452C42.9797 23.6601 42.5661 24.2971 41.9139 24.5281C40.8755 24.9849 39.4708 24.8583 38.5089 24.3239C37.7021 23.7598 37.5983 22.8154 37.4944 21.9217C37.4157 20.16 37.2885 18.2944 37.782 16.6838C38.1688 15.6863 39.2357 15.4296 40.2006 15.3543C41.2139 15.3543 42.2003 15.5089 42.8263 16.3262C43.2159 16.9125 43.192 17.6796 43.269 18.3702C43.2416 19.8257 43.3723 21.5618 43.1127 23.0452ZM12.296 24.6319C11.4373 24.5794 10.4754 24.6547 9.64412 24.5526L9.66979 15.5818L9.72229 15.5072L12.296 15.4821C12.3229 14.026 12.3485 12.4644 12.2692 11.1373L2.46716 11.1099L0.853029 11.1379C0.827361 12.4912 0.827361 14.0739 0.853029 15.4552C1.73797 15.4827 2.56866 15.4552 3.42735 15.5352V24.223L3.40227 24.58L0.827361 24.6325C0.773692 26.0375 0.773692 27.444 0.827361 28.849H12.2954L12.296 24.6319ZM41.1602 30.7635C40.0693 32.324 38.6909 33.8314 37.1858 35.0039C37.131 35.0838 36.9752 35.0535 36.9257 34.98C36.2735 34.5722 35.5717 34.2385 34.9464 33.8314C35.7794 32.8356 36.5862 31.8392 37.2103 30.7361H36.4012C35.7549 31.6852 35.077 32.681 34.2195 33.5216C33.0744 33.0625 32.0349 32.6542 30.8646 32.345L30.7346 32.2476C30.9166 31.7313 31.2537 31.2465 31.357 30.7349H30.6552L29.9535 32.1157C28.421 31.7838 26.7299 31.603 25.1694 31.502C25.0907 31.2728 25.1939 30.9403 25.0906 30.7349H24.4145C24.3609 31.0424 24.4927 31.274 24.3364 31.5289C22.724 31.603 21.1641 31.7838 19.6573 32.0936L18.9526 30.7349C18.6954 30.7349 18.406 30.6859 18.2264 30.7624L18.8751 32.2703L18.7975 32.345C17.632 32.6822 16.4861 33.0838 15.365 33.5479L15.2618 33.4954C14.532 32.7032 13.8297 31.8381 13.2568 30.9689C13.1279 30.5319 12.6075 30.7874 12.3211 30.7361C12.943 31.862 13.7777 32.8572 14.6084 33.8809C13.9067 34.291 13.2072 34.7484 12.4757 35.0838C10.885 33.8723 9.49837 32.4142 8.36833 30.7647C8.05566 30.7145 7.84973 30.7373 7.53531 30.7647C9.40786 33.6779 12.3211 36.2324 15.3639 37.7404C15.3639 37.7404 15.3639 37.7176 15.3919 37.7176C15.414 37.7176 15.466 37.7649 15.414 37.7917C17.4698 38.7887 19.6556 39.5039 21.968 39.8119C29.9523 40.8584 37.5726 37.4616 41.9909 30.7647C41.7147 30.7363 41.4364 30.7359 41.1602 30.7635ZM30.3186 33.0631L30.3951 33.0118C31.5163 33.2673 32.5803 33.6254 33.5691 34.1096C32.736 35.0529 31.6697 35.8725 30.6826 36.562C30.0853 36.9185 29.485 37.3058 28.8603 37.6103L27.7443 37.125L27.8207 36.9482C28.7588 35.6969 29.5912 34.4176 30.3186 33.0631ZM25.1939 32.296C26.6774 32.324 28.1602 32.4768 29.5364 32.8076L29.5638 32.8852C28.8369 34.2636 27.9246 35.5954 26.9381 36.845C26.4936 36.8975 26.0794 36.7207 25.6378 36.6933L25.1933 36.6408C25.1426 35.1328 25.1152 33.8039 25.1939 32.296ZM20.1771 32.7557C21.5293 32.5002 22.9328 32.296 24.3883 32.296L24.4151 36.6192C23.8679 36.7429 23.27 36.7429 22.7497 36.8741C21.6833 35.6187 20.8001 34.2636 20.047 32.8572L20.1771 32.7557ZM15.9881 34.137C17.0048 33.6499 18.0694 33.29 19.1603 33.0112L19.2659 33.038C20.0178 34.4439 20.9553 35.7716 21.891 37.1005C21.5299 37.3064 21.0854 37.4295 20.7225 37.6371C18.9639 36.7684 17.3637 35.6105 15.9886 34.2117V34.137H15.9881ZM19.3441 38.5063C17.1594 37.9422 15.1294 36.9715 13.2574 35.645V35.5657C13.8816 35.1859 14.5081 34.7758 15.1819 34.4917C16.6653 35.9524 18.1984 37.0515 19.8627 38.0968C19.7332 38.2502 19.5255 38.4043 19.3441 38.5063ZM28.9909 38.8365C26.2352 39.428 23.165 39.4508 20.4098 38.7875C20.3573 38.6603 20.5399 38.6329 20.6175 38.5583C23.0361 36.9978 26.8051 36.9978 29.1741 38.6825C29.2511 38.8365 29.0434 38.7875 28.9909 38.8365ZM31.4883 38.1237L30.2661 38.5058C30.0573 38.4037 29.8765 38.2502 29.6927 38.0962L29.7452 38.0181C31.4101 37.0509 32.9175 35.8719 34.3484 34.4666C35.0508 34.7472 35.7275 35.1328 36.3534 35.5651C34.8956 36.7207 33.2045 37.4837 31.4883 38.1237ZM8.31758 9.16848C8.96082 8.27832 9.66444 7.43339 10.4235 6.63966C11.0972 6.00089 11.7238 5.38779 12.4529 4.92577C13.1296 5.35979 13.8827 5.72146 14.5326 6.12864C13.727 7.12034 12.8945 8.12137 12.2966 9.19181C12.4775 9.27173 12.817 9.24665 13.0777 9.19181C13.727 8.24795 14.427 7.30293 15.2624 6.45882C16.3777 6.86891 17.4715 7.30176 18.6172 7.60977L18.7181 7.71127L18.0706 9.19181C18.3576 9.24665 18.5396 9.21981 18.8237 9.19181C19.0571 8.76013 19.2379 8.27595 19.4981 7.83903C21.0084 8.1727 22.5951 8.35062 24.2075 8.40021C24.414 8.58163 24.2588 8.96314 24.337 9.19181H25.0387C25.1151 8.94097 25.0125 8.6563 25.1151 8.42879C26.6249 8.34946 28.2104 8.19604 29.6717 7.83786L29.7983 7.86469L30.5006 9.19065C30.7351 9.19065 31.0467 9.24548 31.2287 9.13815L30.5771 7.65994L30.6313 7.6086C31.8254 7.30176 32.9455 6.84208 34.0894 6.38298C34.8979 7.22592 35.6499 8.22229 36.3283 9.19006C36.613 9.19006 36.8994 9.21807 37.1077 9.13756C36.7865 8.56705 36.4119 8.02833 35.9888 7.52868C35.6453 7.03929 35.2621 6.57902 34.8431 6.15256V6.02014L36.6637 4.97419L36.9262 4.87211C38.5095 6.07053 39.8951 7.50983 41.0324 9.13756C41.3445 9.13756 41.6053 9.2449 41.8661 9.11598C38.3776 3.90724 32.6316 0.555896 26.4195 0.0734656L26.3921 0.12305L26.339 0.0734656C25.6378 -0.00178657 24.7762 -0.0315374 24.0231 0.0437148C23.7379 0.0215474 23.4007 0.0437147 23.0618 0.0734656C16.8217 0.555896 11.0751 3.75207 7.48455 9.19298C7.74473 9.16848 8.05682 9.27232 8.31758 9.16848ZM19.1113 6.92316L19.0075 6.94533C17.9399 6.66707 16.8987 6.33165 15.9105 5.8988L15.9606 5.74538C17.391 4.39142 18.899 3.26614 20.5633 2.39928C20.9553 2.5527 21.345 2.67929 21.7346 2.86071L21.6582 3.06022C20.6683 4.28992 19.8901 5.61588 19.1113 6.92316ZM24.2845 7.61093C23.5582 7.71302 22.9078 7.58818 22.1768 7.5316C21.478 7.42893 20.5919 7.35484 19.8901 7.1215C20.6444 5.72263 21.5299 4.36576 22.5951 3.1168L24.26 3.34373C24.337 4.67027 24.2845 6.20448 24.2845 7.61093ZM25.0901 7.63835C25.0387 6.27973 25.0656 4.7741 25.0901 3.36823C25.6122 3.29356 26.1815 3.21422 26.703 3.13897C27.7169 4.41476 28.7074 5.72263 29.3841 7.1215C27.978 7.4617 26.5367 7.63518 25.0901 7.63835ZM33.3882 5.84688C32.372 6.27915 31.3307 6.68866 30.2142 6.92316C29.4086 5.56863 28.5248 4.21467 27.5337 2.90621C27.8983 2.70613 28.3428 2.5527 28.7319 2.34912C30.4254 3.19147 32.0617 4.39142 33.4384 5.76696L33.3882 5.84688ZM30.0573 1.47759C32.2419 2.04111 34.2965 3.01063 36.1691 4.33951L36.1171 4.44159L34.3245 5.43679H34.1921C32.816 4.06183 31.2042 2.86071 29.5638 1.91277C29.6157 1.73368 29.877 1.60476 30.0573 1.47759ZM29.0183 1.22092V1.27517C26.7544 2.90621 23.0886 3.06022 20.6974 1.55226C20.5633 1.45017 20.3066 1.40059 20.2786 1.2215C23.0367 0.585647 26.2854 0.534312 29.0183 1.22092ZM13.1541 4.39142C14.7939 3.19147 16.6134 2.2972 18.5385 1.68351C18.6172 1.60359 18.6674 1.52834 18.7701 1.52834V1.58084C18.9777 1.63101 19.1346 1.39942 19.3161 1.55109C19.473 1.68351 19.6567 1.78443 19.7851 1.9116C18.1739 2.90621 16.5866 4.084 15.1299 5.51204C14.4276 5.2612 13.7801 4.87561 13.1536 4.44159L13.1541 4.39142ZM24.3113 24.8314C21.8671 25.497 19.2128 24.9895 17.4453 23.1467C17.2382 22.8912 17.1069 22.5867 16.8981 22.3324L13.3886 22.3569C13.3332 24.426 13.3087 26.8032 13.3886 28.8484L17.2878 28.8233L17.3397 27.5959C17.7836 27.8001 18.2264 28.055 18.6674 28.2843C21.3718 29.4102 24.8532 29.6657 27.5326 28.2843C29.4844 27.2138 30.5251 25.1447 30.2381 22.9169C29.9535 20.7474 27.8721 18.7786 25.7673 18.2437L19.4724 16.4277L19.0069 16.1967C18.7986 16.0193 18.668 15.7907 18.7187 15.5072C19.2128 14.666 20.3585 14.9215 21.2166 14.9442C23.0367 15.2003 24.9086 15.8134 25.9756 17.4754C27.1184 17.4754 28.4443 17.4976 29.6915 17.4486C29.7446 15.3537 29.6711 13.515 29.6402 11.3934C28.47 11.3665 27.039 11.3665 25.8706 11.4202C25.8181 11.7241 25.9208 12.157 25.7907 12.465L24.5954 11.8256C21.7335 10.6251 17.7282 10.4997 15.1288 12.3652C13.4376 13.5897 12.919 15.7895 13.3612 17.7309C13.6978 19.5679 15.466 20.9236 17.1571 21.5606C19.4712 22.3773 21.8886 22.9688 24.2331 23.7598C24.4653 23.8637 24.7768 24.0952 24.7266 24.3758C24.7278 24.6028 24.4921 24.734 24.3113 24.8314Z" fill="#4D4E50"/>
</g>
<defs>
<clipPath id="clip0_3831_10307">
<rect width="49.2126" height="40" fill="white" transform="translate(0.787109)"/>
</clipPath>
</defs>
</svg>
