<svg width="80" height="81" viewBox="0 0 80 81" fill="none" xmlns="http://www.w3.org/2000/svg">
<g opacity="0.8">
<path d="M36.6674 18.833C36.6674 16.9921 38.1598 15.4997 40.0008 15.4997H40.0307C41.8716 15.4997 43.364 16.9921 43.364 18.833C43.364 20.674 41.8716 22.1663 40.0307 22.1663H40.0008C38.1598 22.1663 36.6674 20.674 36.6674 18.833Z" fill="#3980B3"/>
<path fill-rule="evenodd" clip-rule="evenodd" d="M26.4941 6.33301H53.5074C56.5023 6.33292 58.9998 6.33284 60.9824 6.59939C63.075 6.88074 64.9643 7.49964 66.4826 9.01787C68.0008 10.5361 68.6197 12.4254 68.901 14.5181C69.1676 16.5007 69.1675 18.9981 69.1674 21.993V48.4961L70.5392 51.0263C72.9597 55.4913 74.5895 59.0454 75.3425 61.9951C76.1161 65.0251 76.0251 67.6646 74.7109 70.0516C73.2417 72.72 70.6168 73.7604 67.6725 74.2212C64.827 74.6666 61.0325 74.6665 56.3776 74.6663H23.6233C18.9684 74.6665 15.1737 74.6666 12.3283 74.2212C9.38398 73.7604 6.75907 72.72 5.28993 70.0516C3.97576 67.6647 3.8846 65.0252 4.65805 61.9952C5.40967 59.0508 7.0348 55.5042 9.44813 51.0506L10.8341 48.3541L10.8341 21.993C10.834 18.9981 10.8339 16.5007 11.1005 14.5181C11.3818 12.4254 12.0007 10.5361 13.5189 9.01787C15.0372 7.49964 16.9265 6.88074 19.0192 6.59939C21.0017 6.33284 23.4992 6.33292 26.4941 6.33301ZM15.8341 46.333H64.1674V22.1664C64.1674 18.953 64.1621 16.7944 63.9456 15.1843C63.7388 13.6461 63.3814 12.9878 62.947 12.5534C62.5127 12.119 61.8543 11.7616 60.3161 11.5548C58.706 11.3383 56.5475 11.333 53.3341 11.333H26.6674C23.4541 11.333 21.2955 11.3383 19.6854 11.5548C18.1472 11.7616 17.4889 12.119 17.0545 12.5534C16.6201 12.9878 16.2627 13.6461 16.0559 15.1843C15.8394 16.7944 15.8341 18.953 15.8341 22.1664V46.333ZM13.8826 53.3606L14.9248 51.333H65.0179L66.1435 53.4093C68.5325 57.816 69.9066 60.9157 70.4979 63.2319C71.0688 65.468 70.8448 66.7066 70.3308 67.6401C69.9718 68.2922 69.2592 68.912 66.8994 69.2813C64.4867 69.659 61.0875 69.6663 56.1517 69.6663H23.8491C18.9133 69.6663 15.5141 69.6589 13.1014 69.2813C10.7416 68.912 10.029 68.2922 9.66996 67.6401C9.15598 66.7066 8.93193 65.4679 9.5027 63.2319C10.0939 60.9157 11.4679 57.816 13.8569 53.4093L13.8826 53.3606Z" fill="#3980B3"/>
</g>
</svg>
