<svg width="80" height="80" viewBox="0 0 80 80" fill="none" xmlns="http://www.w3.org/2000/svg">
<g opacity="0.8" clip-path="url(#clip0_3627_21115)">
<path d="M6.66667 8.33333C6.66667 3.73 10.3967 0 15 0C19.6033 0 23.3333 3.73 23.3333 8.33333C23.3333 12.9367 19.6033 16.6667 15 16.6667C10.3967 16.6667 6.66667 12.9367 6.66667 8.33333ZM23.3333 33.3333C21.49 33.3333 20 34.8267 20 36.6667V50H13.3333C9.65667 50 6.66667 47.01 6.66667 43.3333V33.3333C6.66667 29.6567 9.65667 26.6667 13.3333 26.6667H46.6667C48.51 26.6667 50 25.1733 50 23.3333C50 21.4933 48.51 20 46.6667 20H13.3333C5.98 20 0 25.98 0 33.3333V43.3333C0 48.2467 2.7 52.5 6.66667 54.8133V76.6667C6.66667 78.51 8.15667 80 10 80C11.8433 80 13.3333 78.51 13.3333 76.6667V56.6667H20V76.6667C20 78.51 21.49 80 23.3333 80C25.1767 80 26.6667 78.51 26.6667 76.6667V36.6667C26.6667 34.8267 25.1767 33.3333 23.3333 33.3333ZM65 0H33.3333C31.49 0 30 1.49333 30 3.33333C30 5.17333 31.49 6.66667 33.3333 6.66667H65C69.5967 6.66667 73.3333 10.4067 73.3333 15V35C73.3333 39.5933 69.5967 43.3333 65 43.3333H63.3333V40C63.3333 38.16 61.8433 36.6667 60 36.6667H53.3333C51.49 36.6667 50 38.16 50 40V43.3333H36.6667C34.8233 43.3333 33.3333 44.8233 33.3333 46.6667C33.3333 48.51 34.8233 50 36.6667 50H65C73.27 50 80 43.27 80 35V15C80 6.73 73.27 0 65 0Z" fill="#3980B3"/>
</g>
<defs>
<clipPath id="clip0_3627_21115">
<rect width="80" height="80" fill="white"/>
</clipPath>
</defs>
</svg>
