<svg width="66" height="61" viewBox="0 0 66 61" fill="none" xmlns="http://www.w3.org/2000/svg">
<g clip-path="url(#clip0_3792_21645)">
<path d="M61.3386 2.8925L55.0658 15.603C50.5586 10.7878 44.5058 7.463 37.6886 6.39875L40.2873 1.1325C42.1546 -2.6515 45.9331 -5 50.1516 -5H56.4298C58.3328 -5 60.0708 -4.03475 61.0746 -2.41775C62.0811 -0.80075 62.1801 1.18475 61.3386 2.8925ZM28.3111 6.39875L25.7123 1.1325C23.8451 -2.6515 20.0666 -5 15.8481 -5H9.63306C7.73006 -5 5.99206 -4.03475 4.98831 -2.4205C3.98181 -0.80075 3.88556 1.18475 4.72706 2.8925L10.9751 15.5618C15.4768 10.7685 21.5158 7.46025 28.3111 6.39875ZM57.7526 36.25C57.7526 49.8983 46.6481 61 33.0026 61C19.3571 61 8.24981 49.8983 8.24981 36.25C8.24981 22.6018 19.3543 11.5 32.9998 11.5C46.6453 11.5 57.7526 22.6018 57.7526 36.25ZM44.4343 34.6275C44.4343 33.786 43.7028 32.8565 42.5203 32.8565H36.6353L35.0761 26.8752C34.8286 25.9265 33.9788 25.2665 32.9998 25.25C32.0236 25.2693 31.1711 25.9265 30.9236 26.8752L29.3643 32.8565H23.4793C22.2968 32.8565 21.5653 33.7832 21.5653 34.6275C21.5653 35.6203 22.2556 36.4562 23.0476 36.8962L27.1451 39.1732L25.3273 44.1315C24.9753 45.0912 25.2943 46.1692 26.1111 46.7852C26.9471 47.415 28.0993 47.4067 28.9243 46.766L32.9998 43.6145L37.0753 46.766C37.9031 47.404 39.0553 47.4122 39.8886 46.7852C40.7053 46.1692 41.0243 45.094 40.6723 44.1315L38.8546 39.1732L42.9521 36.8962C43.7441 36.4562 44.4343 35.6203 44.4343 34.6275Z" fill="white"/>
</g>
<defs>
<clipPath id="clip0_3792_21645">
<rect width="66" height="66" fill="white" transform="translate(0 -5)"/>
</clipPath>
</defs>
</svg>
