<svg width="48" height="48" viewBox="0 0 48 48" fill="none" xmlns="http://www.w3.org/2000/svg">
<path d="M15 25.5024C14.172 25.5024 13.5 24.8304 13.5 24.0024C13.5 23.1744 14.172 22.5024 15 22.5024H27C27.828 22.5024 28.5 23.1744 28.5 24.0024C28.5 24.8304 27.828 25.5024 27 25.5024H15Z" fill="#517632"/>
<path d="M21 17.5024H15C14.172 17.5024 13.5 16.8304 13.5 16.0024C13.5 15.1744 14.172 14.5024 15 14.5024H21C21.828 14.5024 22.5 15.1744 22.5 16.0024C22.5 16.8304 21.828 17.5024 21 17.5024Z" fill="#517632"/>
<path fill-rule="evenodd" clip-rule="evenodd" d="M7.60657 37.5044H7.60987C9.71387 37.5044 11.4218 36.9705 12.9538 35.8405L13.0778 35.7505L13.121 35.7195C13.236 35.6368 13.3547 35.5514 13.456 35.4804C13.676 35.5644 13.9679 35.6864 14.2099 35.7884C15.1099 36.1584 16.1679 36.4024 17.2019 36.4784C19.7219 36.6424 22.278 36.6424 24.798 36.4784H24.8019C32.6179 35.9504 38.91 29.6225 39.438 21.7485C39.522 20.3145 39.522 18.7884 39.438 17.3204C38.91 9.4484 32.6159 3.1305 24.7999 2.6245C22.2779 2.4585 19.7238 2.4585 17.2038 2.6245C9.38782 3.1325 3.09398 9.45041 2.56398 17.3364C2.47998 18.7884 2.47998 20.3143 2.56398 21.7643C2.73798 24.2743 3.68989 26.8045 5.47589 29.4985C5.94389 30.3985 5.42396 31.7705 4.89796 32.7745C4.17196 34.1045 3.60192 35.1565 4.25792 36.3065C4.26078 36.3137 4.26466 36.3197 4.26883 36.3263C4.2705 36.3289 4.27222 36.3316 4.27394 36.3345C4.94629 37.4557 6.12023 37.4783 7.36285 37.5023L7.37198 37.5024C7.45219 37.5044 7.52841 37.5044 7.60657 37.5044ZM7.42784 34.5024H7.37394C7.42994 34.4004 7.48385 34.2984 7.53585 34.2024C7.53785 34.1964 7.54201 34.1885 7.54601 34.1825C8.83001 31.7405 9.00593 29.6564 8.06593 27.9884C8.04852 27.9574 8.02924 27.9266 8.00991 27.8956L8.00792 27.8925C6.49592 25.6245 5.69392 23.5524 5.55792 21.5784C5.48192 20.2584 5.48192 18.8525 5.55792 17.5265C5.98792 11.1505 11.0779 6.03235 17.3999 5.62235C19.7879 5.46435 22.2118 5.46635 24.6038 5.62235C30.9258 6.03235 36.0159 11.1484 36.4439 17.5104C36.5199 18.8504 36.5199 20.2563 36.4439 21.5643C36.0159 27.9343 30.9239 33.0604 24.5999 33.4884C22.2099 33.6444 19.7879 33.6444 17.4099 33.4884C16.7059 33.4364 15.9559 33.2644 15.3599 33.0204C14.2659 32.5604 13.6979 32.3225 13.0599 32.4165C12.4799 32.4885 12.0398 32.8045 11.3278 33.3165L11.19 33.4143C10.13 34.1943 8.96984 34.5264 7.42784 34.5024Z" fill="#517632"/>
<path d="M40.6046 45.5045C38.6566 45.5045 36.9947 44.9927 35.5287 43.9407C35.3707 43.8247 35.2147 43.7106 35.0847 43.6186C34.8487 43.7086 34.5587 43.8285 34.4167 43.8885C33.5947 44.2305 32.5928 44.4625 31.5968 44.5385H31.5748C29.2488 44.6805 26.7788 44.6805 24.4308 44.5385C21.3128 44.3225 18.4947 43.1867 16.0447 41.1567C15.4067 40.6287 15.3188 39.6826 15.8468 39.0446C16.3748 38.4066 17.3207 38.3185 17.9587 38.8465C19.9147 40.4665 22.1568 41.3746 24.6248 41.5446C26.8348 41.6806 29.1747 41.6806 31.3787 41.5446C32.0507 41.4926 32.7388 41.3366 33.2648 41.1166C34.3208 40.6786 34.8548 40.4726 35.4308 40.5286C35.4708 40.5326 35.5127 40.5385 35.5527 40.5465C36.1107 40.6485 36.5308 40.9545 37.2888 41.5125C38.2268 42.1845 39.2867 42.5045 40.6027 42.5045H40.6908L40.6606 42.4476C40.6455 42.4189 40.6305 42.3903 40.6148 42.3625L40.5947 42.3246C39.0387 39.4546 39.4667 37.5366 40.1007 36.4346C40.1167 36.4066 40.1347 36.3786 40.1527 36.3506C41.5747 34.2186 42.3247 32.2925 42.4447 30.4645C42.5207 29.2425 42.5207 27.9327 42.4447 26.6827C42.3367 25.2327 41.9967 23.8646 41.4347 22.6186C41.0947 21.8626 41.4307 20.9746 42.1867 20.6346C42.9407 20.2946 43.8307 20.6306 44.1707 21.3866C44.8787 22.9566 45.3048 24.6685 45.4388 26.4725V26.4926C45.5228 27.8646 45.5228 29.3025 45.4388 30.6545C45.2848 33.0125 44.3828 35.4005 42.6828 37.9645C42.2368 38.8045 42.8368 40.1646 43.2408 40.9086L43.2687 40.9606C43.9427 42.2346 44.4748 43.2406 43.8408 44.3346C43.1908 45.4566 41.9928 45.4806 40.8328 45.5026C40.7948 45.5026 40.7567 45.5031 40.7187 45.5036C40.6807 45.504 40.6426 45.5045 40.6046 45.5045Z" fill="#517632"/>
</svg>
