<svg width="80" height="80" viewBox="0 0 80 80" fill="none" xmlns="http://www.w3.org/2000/svg">
<path d="M56.6662 12.5C50.5807 12.5 45.117 13.7024 41.0575 15.5985C36.2334 17.8515 30.0279 19.1667 23.3329 19.1667C19.6001 19.1667 16.0312 18.7581 12.7747 18.0122C10.7964 17.5591 9.16622 19.0383 9.16622 20.3799V56.2868C9.16622 59.095 9.2156 59.7808 9.57063 60.5267C9.77522 60.9566 10.3741 61.7081 10.7474 62.0035C11.4241 62.5389 11.8624 62.6738 13.891 63.1385C16.7658 63.7969 19.9595 64.1667 23.3329 64.1667C29.4184 64.1667 34.8821 62.9642 38.9416 61.0682C40.1926 60.4839 41.6804 61.0244 42.2647 62.2754C42.849 63.5264 42.3085 65.0142 41.0575 65.5985C36.2334 67.8515 30.0279 69.1667 23.3329 69.1667C19.6001 69.1667 16.0312 68.7581 12.7747 68.0122L12.5802 67.9678C10.7572 67.5513 9.27213 67.2121 7.64491 65.9245C6.67142 65.1543 5.5894 63.7964 5.05592 62.6755C4.16195 60.7973 4.16376 58.9392 4.16599 56.6385L4.16622 20.3799C4.16622 15.1559 9.46956 12.1257 13.891 13.1384C16.7658 13.7969 19.9595 14.1667 23.3329 14.1667C29.4184 14.1667 34.8821 12.9642 38.9416 11.0682C43.7657 8.81514 49.9712 7.5 56.6662 7.5C60.399 7.5 63.9679 7.90856 67.2244 8.65443L67.4189 8.6989C69.2419 9.11532 70.727 9.45455 72.3542 10.7421C73.3277 11.5124 74.4097 12.8703 74.9432 13.9911C75.8371 15.8694 75.8354 17.7275 75.8331 20.0281L75.8329 40C75.8329 41.3807 74.7136 42.5 73.3329 42.5C71.9522 42.5 70.8329 41.3807 70.8329 40V20.3799C70.8329 17.5716 70.7835 16.8859 70.4285 16.14C70.2239 15.7101 69.625 14.9585 69.2517 14.6631C68.575 14.1277 68.1367 13.9929 66.1081 13.5282C63.2333 12.8698 60.0396 12.5 56.6662 12.5Z" fill="#3980B3"/>
<path d="M47.4996 60C47.4996 58.6193 48.6188 57.5 49.9996 57.5H73.3329C74.7136 57.5 75.8329 58.6193 75.8329 60C75.8329 61.3807 74.7136 62.5 73.3329 62.5H49.9996C48.6188 62.5 47.4996 61.3807 47.4996 60Z" fill="#3980B3"/>
<path fill-rule="evenodd" clip-rule="evenodd" d="M39.9995 29.1667C34.0165 29.1667 29.1662 34.0169 29.1662 40C29.1662 45.9831 34.0165 50.8333 39.9995 50.8333C45.9826 50.8333 50.8329 45.9831 50.8329 40C50.8329 34.0169 45.9826 29.1667 39.9995 29.1667ZM34.1662 40C34.1662 36.7783 36.7779 34.1667 39.9995 34.1667C43.2212 34.1667 45.8329 36.7783 45.8329 40C45.8329 43.2217 43.2212 45.8333 39.9995 45.8333C36.7779 45.8333 34.1662 43.2217 34.1662 40Z" fill="#3980B3"/>
<path d="M18.3329 40C20.1738 40 21.6662 41.4924 21.6662 43.3333V43.3633C21.6662 45.2042 20.1738 46.6966 18.3329 46.6966C16.4919 46.6966 14.9996 45.2042 14.9996 43.3633V43.3333C14.9996 41.4924 16.4919 40 18.3329 40Z" fill="#3980B3"/>
<path d="M64.9996 36.6406C64.9996 34.7997 63.5072 33.3073 61.6662 33.3073C59.8253 33.3073 58.3329 34.7997 58.3329 36.6406V36.6706C58.3329 38.5115 59.8253 40.0039 61.6662 40.0039C63.5072 40.0039 64.9996 38.5115 64.9996 36.6706V36.6406Z" fill="#3980B3"/>
</svg>
