<svg width="80" height="80" viewBox="0 0 80 80" fill="none" xmlns="http://www.w3.org/2000/svg">
<path d="M41.0575 15.5985C45.117 13.7024 50.5807 12.5 56.6662 12.5C60.0396 12.5 63.2333 12.8698 66.1081 13.5282C68.1367 13.9929 68.575 14.1277 69.2517 14.6631C69.625 14.9585 70.2239 15.7101 70.4285 16.14C70.7835 16.8859 70.8329 17.5716 70.8329 20.3799V38.3333C70.8329 39.714 71.9522 40.8333 73.3329 40.8333C74.7136 40.8333 75.8329 39.714 75.8329 38.3333L75.8331 20.0282C75.8354 17.7276 75.8371 15.8694 74.9432 13.9911C74.4097 12.8703 73.3277 11.5124 72.3542 10.7421C70.727 9.45455 69.2419 9.11532 67.4189 8.6989L67.2244 8.65443C63.9679 7.90856 60.399 7.5 56.6662 7.5C49.9712 7.5 43.7657 8.81514 38.9416 11.0682C34.8821 12.9642 29.4184 14.1667 23.3329 14.1667C19.9595 14.1667 16.7658 13.7969 13.891 13.1384C9.46956 12.1257 4.16622 15.1559 4.16622 20.3799L4.16599 56.6385C4.16376 58.9392 4.16195 60.7973 5.05592 62.6755C5.5894 63.7964 6.67142 65.1543 7.64491 65.9245C9.27213 67.2121 10.7572 67.5513 12.5802 67.9678L12.7747 68.0122C16.0312 68.7581 19.6001 69.1667 23.3329 69.1667C30.0279 69.1667 36.2334 67.8515 41.0575 65.5985C42.3085 65.0142 42.849 63.5264 42.2647 62.2754C41.6804 61.0244 40.1926 60.4839 38.9416 61.0682C34.8821 62.9642 29.4184 64.1667 23.3329 64.1667C19.9595 64.1667 16.7658 63.7969 13.891 63.1385C11.8624 62.6738 11.4241 62.539 10.7474 62.0035C10.3741 61.7082 9.77522 60.9566 9.57063 60.5267C9.2156 59.7808 9.16622 59.095 9.16622 56.2868V20.3799C9.16622 19.0383 10.7964 17.5591 12.7747 18.0122C16.0312 18.7581 19.6001 19.1667 23.3329 19.1667C30.0279 19.1667 36.2334 17.8515 41.0575 15.5985Z" fill="#3980B3"/>
<path d="M64.1662 46.6667C64.1662 45.286 63.0469 44.1667 61.6662 44.1667C60.2855 44.1667 59.1662 45.286 59.1662 46.6667V55.8333H49.9996C48.6188 55.8333 47.4996 56.9526 47.4996 58.3333C47.4996 59.714 48.6188 60.8333 49.9996 60.8333H59.1662V70C59.1662 71.3807 60.2855 72.5 61.6662 72.5C63.0469 72.5 64.1662 71.3807 64.1662 70V60.8333H73.3329C74.7136 60.8333 75.8329 59.714 75.8329 58.3333C75.8329 56.9526 74.7136 55.8333 73.3329 55.8333H64.1662V46.6667Z" fill="#3980B3"/>
<path fill-rule="evenodd" clip-rule="evenodd" d="M29.1662 38.3333C29.1662 32.3502 34.0165 27.5 39.9995 27.5C45.9826 27.5 50.8329 32.3502 50.8329 38.3333C50.8329 44.3164 45.9826 49.1667 39.9995 49.1667C34.0165 49.1667 29.1662 44.3164 29.1662 38.3333ZM39.9995 32.5C36.7779 32.5 34.1662 35.1117 34.1662 38.3333C34.1662 41.555 36.7779 44.1667 39.9995 44.1667C43.2212 44.1667 45.8329 41.555 45.8329 38.3333C45.8329 35.1117 43.2212 32.5 39.9995 32.5Z" fill="#3980B3"/>
<path d="M21.6662 41.6667C21.6662 39.8257 20.1738 38.3333 18.3329 38.3333C16.4919 38.3333 14.9996 39.8257 14.9996 41.6667V41.6966C14.9996 43.5376 16.4919 45.0299 18.3329 45.0299C20.1738 45.0299 21.6662 43.5376 21.6662 41.6966V41.6667Z" fill="#3980B3"/>
</svg>
