<svg width="45" height="50" viewBox="0 0 45 50" fill="none" xmlns="http://www.w3.org/2000/svg">
<path d="M21.2096 44.1498H23.0701M21.2096 40.7328H23.0701M21.2096 37.3157H23.0701M1.26172 49.9821V42.2713C1.26172 36.8684 5.07244 32.3779 10.1533 31.3224C12.0676 30.9288 13.9281 30.2848 15.6635 29.3723H15.6993C18.7228 34.006 25.5211 34.006 28.5625 29.3545H28.5983C30.3337 30.3026 32.1763 30.9467 34.1085 31.3403C39.1894 32.3779 43.0001 36.8863 43.0001 42.2892V50M9.93853 6.41894H34.3411M33.8402 13.432C33.2677 8.38688 30.9956 2 22.1398 2C13.2841 2 11.012 8.38688 10.4395 13.432M36.0586 31.1077C37.0963 26.3489 37.9371 14.5412 30.4589 10.3906M8.20321 31.1077C7.16557 26.3489 6.32474 14.5412 13.8208 10.3906M16.2181 24.8282L15.6993 29.3545M28.5625 29.3366L28.0437 24.8103M30.4589 10.4085C25.1276 12.6627 19.1343 12.6627 13.8029 10.4085V19.1032C13.8029 24.3451 20.494 27.2255 22.122 27.2255C23.75 27.2255 30.441 24.3272 30.441 19.1032V10.4085C25.1096 12.6627 19.1164 12.6627 13.785 10.4085" stroke="#517632" stroke-width="2.25" stroke-miterlimit="10"/>
</svg>
