<svg width="22" height="22" viewBox="0 0 22 22" fill="none" xmlns="http://www.w3.org/2000/svg">
<path d="M16.1188 14.6178C15.4748 14.6178 14.8985 14.872 14.4578 15.2703L8.41546 11.7533C8.45783 11.5584 8.49173 11.3635 8.49173 11.1601C8.49173 10.9567 8.45783 10.7618 8.41546 10.5669L14.39 7.08385C14.8477 7.50758 15.4494 7.77029 16.1188 7.77029C17.5256 7.77029 18.6612 6.6347 18.6612 5.22792C18.6612 3.82114 17.5256 2.68555 16.1188 2.68555C14.7121 2.68555 13.5765 3.82114 13.5765 5.22792C13.5765 5.43131 13.6104 5.62622 13.6527 5.82114L7.67817 9.30419C7.22054 8.88046 6.61885 8.61775 5.94936 8.61775C4.54258 8.61775 3.40698 9.75334 3.40698 11.1601C3.40698 12.5669 4.54258 13.7025 5.94936 13.7025C6.61885 13.7025 7.22054 13.4398 7.67817 13.0161L13.7121 16.5415C13.6697 16.7194 13.6443 16.9059 13.6443 17.0923C13.6443 18.4567 14.7544 19.5669 16.1188 19.5669C17.4833 19.5669 18.5934 18.4567 18.5934 17.0923C18.5934 15.7279 17.4833 14.6178 16.1188 14.6178ZM16.1188 4.38046C16.5849 4.38046 16.9663 4.76182 16.9663 5.22792C16.9663 5.69402 16.5849 6.07538 16.1188 6.07538C15.6527 6.07538 15.2714 5.69402 15.2714 5.22792C15.2714 4.76182 15.6527 4.38046 16.1188 4.38046ZM5.94936 12.0076C5.48325 12.0076 5.1019 11.6262 5.1019 11.1601C5.1019 10.694 5.48325 10.3127 5.94936 10.3127C6.41546 10.3127 6.79681 10.694 6.79681 11.1601C6.79681 11.6262 6.41546 12.0076 5.94936 12.0076ZM16.1188 17.9567C15.6527 17.9567 15.2714 17.5754 15.2714 17.1093C15.2714 16.6432 15.6527 16.2618 16.1188 16.2618C16.5849 16.2618 16.9663 16.6432 16.9663 17.1093C16.9663 17.5754 16.5849 17.9567 16.1188 17.9567Z" fill="#3C81B3"/>
</svg>
