<svg width="40" height="40" viewBox="0 0 40 40" fill="none" xmlns="http://www.w3.org/2000/svg">
<g clip-path="url(#clip0_3710_9290)">
<path d="M29.9998 38.3333C29.9998 39.255 29.2531 40 28.3331 40H11.6665C10.7465 40 9.99981 39.255 9.99981 38.3333C9.99981 37.4117 10.7465 36.6667 11.6665 36.6667H18.3331V30H13.9648L14.7981 16.6667H25.2015L26.0348 30H21.6665V36.6667H28.3331C29.2531 36.6667 29.9998 37.4117 29.9998 38.3333ZM24.1665 0.103333C24.1648 0.0683333 24.1631 0.0333333 24.1631 0H15.8365C15.8365 0.035 15.8365 0.07 15.8331 0.103333L15.0065 13.3333H24.9931L24.1665 0.103333ZM39.0398 13.3333L38.2665 7.27667C37.7365 3.12833 34.1831 0 29.9998 0H27.4998L28.3331 13.3333H39.0398ZM39.9681 20.61L39.4648 16.6667H28.5415C28.5415 16.6667 29.3715 29.965 29.3715 30H31.7031C34.0965 30 36.3765 28.97 37.9565 27.1733C39.5381 25.3783 40.2715 22.985 39.9681 20.61ZM12.4998 0H10.0365C5.85481 0 2.30147 3.12833 1.77147 7.27667L0.99814 13.3333H11.6665L12.4998 0ZM11.4581 16.6667H0.571474L0.0681405 20.61C-0.235193 22.985 0.49814 25.3767 2.08147 27.1733C3.66314 28.97 5.94147 30 8.33481 30H10.6298C10.6298 29.965 11.4581 16.6667 11.4581 16.6667Z" fill="white"/>
</g>
<defs>
<clipPath id="clip0_3710_9290">
<rect width="40" height="40" fill="white"/>
</clipPath>
</defs>
</svg>
