<svg width="80" height="80" viewBox="0 0 80 80" fill="none" xmlns="http://www.w3.org/2000/svg">
<g clip-path="url(#clip0_4309_9452)">
<path d="M79.6633 54.1069L76.79 43.2536C75.2433 37.4102 69.94 33.3302 63.9 33.3302H16.1C10.0567 33.3302 4.75666 37.4102 3.20999 43.2536L0.33666 54.1069C-0.46334 57.1302 0.169993 60.2869 2.07999 62.7669C3.98666 65.2436 6.87333 66.6669 10.0033 66.6669H36.6667V73.3336H23.3333C21.4933 73.3336 20 74.8236 20 76.6669C20 78.5102 21.4933 80.0002 23.3333 80.0002H56.6667C58.51 80.0002 60 78.5102 60 76.6669C60 74.8236 58.51 73.3336 56.6667 73.3336H43.3333V66.6669H69.9967C73.1233 66.6669 76.0133 65.2436 77.9233 62.7669C79.83 60.2869 80.4667 57.1336 79.6633 54.1069ZM70.3433 44.9602L70.7933 46.6669H55.6L55.1233 40.0002H63.8967C66.9167 40.0002 69.5667 42.0402 70.3433 44.9602ZM30.1267 60.0002L30.6033 53.3336H49.3967L49.8733 60.0002H30.1267ZM31.08 46.6669L31.5567 40.0002H48.4467L48.9233 46.6669H31.08ZM16.0967 40.0002H24.87L24.3933 46.6669H9.20333L9.65333 44.9602C10.4233 42.0402 13.0767 40.0002 16.0967 40.0002ZM7.35999 58.7002C6.72333 57.8736 6.51333 56.8236 6.77999 55.8136L7.43666 53.3336H23.9167L23.44 60.0002H10.0033C8.96333 60.0002 7.99666 59.5236 7.36333 58.7002H7.35999ZM72.6367 58.7002C72 59.5269 71.0367 60.0036 69.9933 60.0036H56.55L56.0733 53.3369H72.5567L73.2133 55.8169C73.48 56.8269 73.2733 57.8769 72.6367 58.7002ZM13.3333 23.3336C13.3333 21.4902 14.8267 20.0002 16.6667 20.0002H23.67C24.2967 16.9236 25.8033 14.1836 27.8733 11.9736L23.37 5.17358C22.3533 3.64025 22.7733 1.57358 24.3067 0.553581C25.8367 -0.463086 27.9067 -0.0464193 28.9267 1.49358L33.32 8.12691C35.3733 7.22025 37.6167 6.66691 40 6.66691C42.3833 6.66691 44.63 7.22025 46.6867 8.13025L51.1133 1.48691C52.1333 -0.0430859 54.1967 -0.456419 55.7367 0.563581C57.2667 1.58358 57.6833 3.65358 56.66 5.18691L52.13 11.9836C54.1967 14.1902 55.7033 16.9302 56.33 20.0036H63.3333C65.1767 20.0036 66.6667 21.4936 66.6667 23.3369C66.6667 25.1802 65.1767 26.6702 63.3333 26.6702H53.3333C51.49 26.6702 50 25.1802 50 23.3369C50 17.8236 45.5133 13.3369 40 13.3369C34.4867 13.3369 30 17.8236 30 23.3369C30 25.1802 28.5067 26.6702 26.6667 26.6702H16.6667C14.8267 26.6702 13.3333 25.1769 13.3333 23.3336Z" fill="#3980B3"/>
</g>
<defs>
<clipPath id="clip0_4309_9452">
<rect width="80" height="80" fill="white"/>
</clipPath>
</defs>
</svg>
