<svg width="80" height="80" viewBox="0 0 80 80" fill="none" xmlns="http://www.w3.org/2000/svg">
<g clip-path="url(#clip0_3627_21615)">
<path d="M28.9899 22.6L26.7099 29.9C26.1499 31.7 26.7833 33.6633 28.2866 34.7867C29.0499 35.36 29.9966 35.6767 30.9533 35.6767C31.8366 35.6767 32.6899 35.4167 33.4266 34.9267L40.0333 30.5033L46.7633 34.8867C48.3399 35.9133 50.4033 35.8267 51.8966 34.6833C53.3966 33.53 53.9999 31.5533 53.4032 29.7667L51.0433 22.5767L56.7499 17.93C58.1732 16.73 58.6999 14.75 58.0633 13.0033C57.4266 11.26 55.7499 10.0867 53.8899 10.0867H46.7299L44.1666 2.89C43.5199 1.16 41.8466 0 39.9999 0C38.1533 0 36.4799 1.16333 35.8266 2.91667L33.2699 10.0867H26.1099C24.2533 10.0867 22.5766 11.2567 21.9433 12.9967C21.2999 14.74 21.8166 16.72 23.2633 17.94L28.9933 22.6H28.9899ZM25.0699 14.1433C25.2299 13.71 25.6466 13.4167 26.1099 13.4167H34.4466C35.1533 13.4167 35.7799 12.9733 36.0166 12.31L38.9599 4.05667C39.2799 3.18667 40.7299 3.21333 41.0366 4.03333L43.9866 12.31C44.2199 12.9733 44.8499 13.4167 45.5566 13.4167H53.8932C54.3566 13.4167 54.7766 13.71 54.9332 14.1467C55.0932 14.58 54.9599 15.0767 54.6266 15.36L48.0533 20.7133C47.5166 21.15 47.3033 21.87 47.5233 22.5233L50.2399 30.81C50.3899 31.2567 50.2399 31.75 49.8699 32.0333C49.4933 32.3267 48.9766 32.34 48.5799 32.0867L40.9299 27.1033C40.3699 26.74 39.6466 26.7467 39.0933 27.1133L31.5733 32.1467C31.1866 32.4033 30.6633 32.3933 30.2866 32.1133C29.9099 31.8333 29.7499 31.34 29.8933 30.8867L32.5066 22.5067C32.7099 21.8567 32.4966 21.1467 31.9666 20.7167L25.3866 15.3667C25.0366 15.0667 24.9032 14.5767 25.0666 14.1367L25.0699 14.1433ZM79.9999 18.33V52C79.9999 58.6767 77.3999 64.9533 72.6799 69.6767L62.8466 79.51C62.5199 79.8367 62.0933 79.9967 61.6666 79.9967C61.2399 79.9967 60.8132 79.8333 60.4866 79.51C59.8366 78.86 59.8366 77.8033 60.4866 77.1533L70.3199 67.32C74.4133 63.2267 76.6633 57.7867 76.6633 52V18.3333C76.6633 15.5767 74.4199 13.3333 71.6633 13.3333C68.9066 13.3333 66.6633 15.5767 66.6633 18.3333C66.6633 18.3333 66.6699 45.12 66.6633 45.18C66.6233 47.02 65.9666 48.85 64.7166 50.3333L55.9199 59.4867C55.5932 59.8267 55.1566 59.9967 54.7199 59.9967C54.3032 59.9967 53.8866 59.8433 53.5633 59.53C52.8999 58.8933 52.8799 57.8367 53.5166 57.1733L62.2366 48.1033C62.9866 47.2067 63.3499 46.06 63.3266 44.9067V44.8767C63.2966 43.7233 62.8732 42.5667 62.0532 41.65C61.1632 40.66 59.9399 40.07 58.6132 39.9967C57.3132 39.9333 56.0066 40.3733 55.0132 41.2633L45.9166 49.6367C44.1799 51.2367 42.8333 53.1467 41.8199 55.2733C42.7899 57.76 43.3266 60.4133 43.3266 63.1267V78.3233C43.3266 79.2433 42.5799 79.99 41.6599 79.99C40.7399 79.99 39.9933 79.2433 39.9933 78.3233V63.1267C39.9933 58.0167 37.8366 53.0967 34.0733 49.6333L24.9599 41.2467C23.9866 40.37 22.7032 39.93 21.3766 39.9967C20.0499 40.07 18.8232 40.6567 17.9366 41.65C16.2899 43.4867 16.2432 46.2967 17.8299 48.1833L26.4766 57.1667C27.1132 57.83 27.0966 58.8867 26.4299 59.5233C25.7732 60.16 24.7132 60.1467 24.0732 59.4767L15.3532 50.4067C14.0866 48.9 13.3966 47.0767 13.3332 45.25C13.3199 45.16 13.3332 18.32 13.3332 18.32C13.3332 15.5633 11.0899 13.32 8.33325 13.32C5.57658 13.32 3.33325 15.5633 3.33325 18.32V51.99C3.33325 57.7767 5.58658 63.2167 9.67658 67.31L19.5099 77.1433C20.1599 77.7933 20.1599 78.85 19.5099 79.5C19.1833 79.8267 18.7566 79.9867 18.3299 79.9867C17.9032 79.9867 17.4766 79.8233 17.1499 79.5L7.31658 69.6667C2.59658 64.9433 -0.00341797 58.6667 -0.00341797 51.99V18.3333C-0.00341797 13.74 3.73325 10 8.32992 10C12.9266 10 16.6632 13.74 16.6632 18.3333V38.3233C17.9666 37.3433 19.5299 36.77 21.1932 36.6767C23.4399 36.53 25.5499 37.3033 27.2033 38.7867L36.3333 47.19C37.7666 48.5067 38.9766 50.02 39.9933 51.6433C41.0133 50.0133 42.2233 48.51 43.6566 47.19L52.7699 38.8033C54.4433 37.3033 56.5899 36.5367 58.7966 36.68C60.4632 36.77 62.0266 37.3433 63.3266 38.3267V18.3367C63.3266 13.7433 67.0632 10.0033 71.6599 10.0033C76.2566 10.0033 79.9932 13.7433 79.9932 18.3367L79.9999 18.33Z" fill="#3980B3"/>
</g>
<defs>
<clipPath id="clip0_3627_21615">
<rect width="80" height="80" fill="white"/>
</clipPath>
</defs>
</svg>
