<svg width="48" height="48" viewBox="0 0 48 48" fill="none" xmlns="http://www.w3.org/2000/svg">
<g clip-path="url(#clip0_3751_10296)">
<path d="M28 3.00007C28 1.34407 29.344 7.24257e-05 31 7.24257e-05C32.656 7.24257e-05 34 1.34407 34 3.00007C34 4.65607 32.656 6.00007 31 6.00007C29.344 6.00007 28 4.65607 28 3.00007ZM45 10.0001C43.344 10.0001 42 11.3441 42 13.0001C42 14.6561 43.344 16.0001 45 16.0001C46.656 16.0001 48 14.6561 48 13.0001C48 11.3441 46.656 10.0001 45 10.0001ZM46 25.0001V41.0001C46 44.9901 40.84 48.0001 34 48.0001C29.698 48.0001 26.064 46.8081 23.956 44.9321C21.522 46.9521 17.25 48.0001 13 48.0001C6.54 48.0001 0 45.5961 0 41.0001V9.00007C0 4.40407 6.54 2.00007 13 2.00007C19.46 2.00007 26 4.40407 26 9.00007V19.7061C28.094 18.6381 30.866 18.0001 34 18.0001C40.84 18.0001 46 21.0101 46 25.0001ZM42 30.2941C39.906 31.3621 37.134 32.0001 34 32.0001C30.866 32.0001 28.094 31.3621 26 30.2941V33.0001C26 34.0581 29.038 36.0001 34 36.0001C38.962 36.0001 42 34.0581 42 33.0001V30.2941ZM22 14.1821C19.548 15.3841 16.266 16.0001 13 16.0001C9.734 16.0001 6.452 15.3841 4 14.1821V17.0001C4 17.8721 7.154 20.0001 13 20.0001C18.846 20.0001 22 17.8721 22 17.0001V14.1821ZM4 22.1821V25.0001C4 25.8721 7.154 28.0001 13 28.0001C18.846 28.0001 22 25.8721 22 25.0001V22.1821C19.548 23.3841 16.266 24.0001 13 24.0001C9.734 24.0001 6.452 23.3841 4 22.1821ZM4 33.0001C4 33.8721 7.154 36.0001 13 36.0001C18.846 36.0001 22 33.8721 22 33.0001V30.1821C19.548 31.3841 16.266 32.0001 13 32.0001C9.734 32.0001 6.452 31.3841 4 30.1821V33.0001ZM26 25.0001C26 26.0581 29.038 28.0001 34 28.0001C38.962 28.0001 42 26.0581 42 25.0001C42 23.9421 38.962 22.0001 34 22.0001C29.038 22.0001 26 23.9421 26 25.0001ZM4 9.00007C4 9.87207 7.154 12.0001 13 12.0001C18.846 12.0001 22 9.87207 22 9.00007C22 8.12807 18.846 6.00007 13 6.00007C7.154 6.00007 4 8.12807 4 9.00007ZM22 41.0001V38.1821C19.548 39.3841 16.266 40.0001 13 40.0001C9.734 40.0001 6.452 39.3841 4 38.1821V41.0001C4 41.8721 7.154 44.0001 13 44.0001C18.846 44.0001 22 41.8721 22 41.0001ZM42 41.0001V38.2941C39.906 39.3621 37.134 40.0001 34 40.0001C30.866 40.0001 28.094 39.3621 26 38.2941V41.0001C26 42.0581 29.038 44.0001 34 44.0001C38.962 44.0001 42 42.0581 42 41.0001ZM32.89 15.6641C33.23 15.8921 33.616 16.0001 33.998 16.0001C34.644 16.0001 35.278 15.6881 35.664 15.1101L43.664 3.11007C44.276 2.19207 44.028 0.948072 43.11 0.336072C42.19 -0.279928 40.948 -0.0299276 40.336 0.890072L32.336 12.8901C31.724 13.8081 31.972 15.0521 32.89 15.6641Z" fill="#517632"/>
</g>
<defs>
<clipPath id="clip0_3751_10296">
<rect width="48" height="48" fill="white"/>
</clipPath>
</defs>
</svg>
