<svg width="80" height="80" viewBox="0 0 80 80" fill="none" xmlns="http://www.w3.org/2000/svg">
<g opacity="0.8">
<path fill-rule="evenodd" clip-rule="evenodd" d="M39.9997 10.833C32.1756 10.833 25.833 17.1756 25.833 24.9997C25.833 32.8237 32.1756 39.1663 39.9997 39.1663C47.8237 39.1663 54.1663 32.8237 54.1663 24.9997C54.1663 17.1756 47.8237 10.833 39.9997 10.833ZM30.833 24.9997C30.833 19.9371 34.9371 15.833 39.9997 15.833C45.0623 15.833 49.1663 19.9371 49.1663 24.9997C49.1663 30.0623 45.0623 34.1663 39.9997 34.1663C34.9371 34.1663 30.833 30.0623 30.833 24.9997Z" fill="#3980B3"/>
<path d="M18.3332 17.4997C12.3501 17.4997 7.49982 22.3499 7.49982 28.333C7.49982 34.3161 12.3501 39.1663 18.3332 39.1663C19.7139 39.1663 20.8332 38.0471 20.8332 36.6663C20.8332 35.2856 19.7139 34.1663 18.3332 34.1663C15.1115 34.1663 12.4998 31.5547 12.4998 28.333C12.4998 25.1113 15.1115 22.4997 18.3332 22.4997C19.7139 22.4997 20.8332 21.3804 20.8332 19.9997C20.8332 18.619 19.7139 17.4997 18.3332 17.4997Z" fill="#3980B3"/>
<path d="M19.1563 43.1078C19.0319 41.7327 17.8163 40.7188 16.4412 40.8432C13.3128 41.1262 10.271 42.3297 7.59 44.3942C7.43553 44.5132 7.23205 44.6612 6.99295 44.8352C5.85732 45.6613 3.91833 47.0719 2.61162 48.726C1.77668 49.783 0.995882 51.1661 0.855306 52.8293C0.708084 54.5712 1.292 56.2632 2.54386 57.8056C4.46004 60.1665 7.08936 62.4997 10.753 62.4997C12.1337 62.4997 13.253 61.3804 13.253 59.9997C13.253 58.619 12.1337 57.4997 10.753 57.4997C9.42132 57.4997 8.07739 56.6893 6.42608 54.6547C5.85218 53.9476 5.81619 53.5031 5.83754 53.2504C5.86554 52.9191 6.04182 52.4499 6.53507 51.8255C7.36589 50.7738 8.53051 49.9178 9.66252 49.0858C9.99443 48.8418 10.3235 48.5999 10.6406 48.3558C12.6085 46.8404 14.7574 46.0159 16.8917 45.8228C18.2668 45.6984 19.2807 44.4829 19.1563 43.1078Z" fill="#3980B3"/>
<path d="M59.9997 17.4997C58.619 17.4997 57.4997 18.619 57.4997 19.9997C57.4997 21.3804 58.619 22.4997 59.9997 22.4997C63.2213 22.4997 65.833 25.1113 65.833 28.333C65.833 31.5547 63.2213 34.1663 59.9997 34.1663C58.619 34.1663 57.4997 35.2856 57.4997 36.6663C57.4997 38.0471 58.619 39.1663 59.9997 39.1663C65.9828 39.1663 70.833 34.3161 70.833 28.333C70.833 22.3499 65.9828 17.4997 59.9997 17.4997Z" fill="#3980B3"/>
<path d="M63.5583 40.8432C62.1832 40.7188 60.9676 41.7327 60.8432 43.1078C60.7188 44.4829 61.7327 45.6984 63.1078 45.8228C65.2421 46.0159 67.391 46.8404 69.3589 48.3558C69.6759 48.5999 70.0049 48.8417 70.3368 49.0856C71.4688 49.9176 72.6336 50.7738 73.4644 51.8255C73.9577 52.4499 74.1339 52.9191 74.162 53.2504C74.1833 53.5031 74.1473 53.9476 73.5734 54.6547C71.9221 56.6893 70.5782 57.4997 69.2465 57.4997C67.8658 57.4997 66.7465 58.619 66.7465 59.9997C66.7465 61.3804 67.8658 62.4997 69.2465 62.4997C72.9101 62.4997 75.5395 60.1665 77.4556 57.8056C78.7075 56.2632 79.2914 54.5712 79.1442 52.8293C79.0036 51.1661 78.2228 49.783 77.3879 48.726C76.0812 47.0719 74.1425 45.6616 73.0069 44.8354C72.7678 44.6615 72.564 44.5132 72.4095 44.3942C69.7285 42.3297 66.6867 41.1262 63.5583 40.8432Z" fill="#3980B3"/>
<path fill-rule="evenodd" clip-rule="evenodd" d="M25.6314 48.244C34.424 42.8071 45.5764 42.8071 54.369 48.244C54.6281 48.4042 54.9563 48.5963 55.3334 48.8169C57.041 49.8161 59.752 51.4025 61.6017 53.2826C62.7634 54.4635 63.9221 56.0733 64.1333 58.0803C64.3593 60.2274 63.448 62.2149 61.7094 63.935C58.8374 66.7764 55.2796 69.1663 50.6147 69.1663H29.3856C24.7207 69.1663 21.163 66.7764 18.2909 63.935C16.5523 62.2149 15.641 60.2274 15.867 58.0803C16.0783 56.0733 17.2369 54.4635 18.3987 53.2826C20.2483 51.4025 22.959 49.8163 24.6665 48.8172C25.0438 48.5964 25.3721 48.4043 25.6314 48.244ZM51.7393 52.4966C44.5582 48.0562 35.4421 48.0562 28.261 52.4966C27.8299 52.7632 27.3677 53.0357 26.8908 53.3169C25.1846 54.323 23.2903 55.4399 21.9629 56.7891C21.1463 57.6192 20.8794 58.2251 20.8395 58.6037C20.8144 58.8421 20.8265 59.41 21.8074 60.3805C24.2492 62.7963 26.6097 64.1663 29.3856 64.1663H50.6147C53.3906 64.1663 55.7511 62.7963 58.1929 60.3805C59.1739 59.41 59.1859 58.8421 59.1608 58.6037C59.1209 58.2251 58.854 57.6192 58.0374 56.7891C56.71 55.4399 54.8159 54.3231 53.1096 53.317C52.6327 53.0358 52.1704 52.7632 51.7393 52.4966Z" fill="#3980B3"/>
</g>
</svg>
