<svg width="24" height="24" viewBox="0 0 24 24" fill="none" xmlns="http://www.w3.org/2000/svg">
<path fill-rule="evenodd" clip-rule="evenodd" d="M5.74976 6.5C5.74976 3.6005 8.10026 1.25 10.9998 1.25C13.8993 1.25 16.2498 3.6005 16.2498 6.5C16.2498 9.39949 13.8993 11.75 10.9998 11.75C8.10026 11.75 5.74976 9.39949 5.74976 6.5ZM10.9998 2.75C8.92869 2.75 7.24976 4.42893 7.24976 6.5C7.24976 8.57107 8.92869 10.25 10.9998 10.25C13.0708 10.25 14.7498 8.57107 14.7498 6.5C14.7498 4.42893 13.0708 2.75 10.9998 2.75Z" fill="#6D6E71"/>
<path d="M12.8601 14.9247C10.5209 14.4808 8.04843 14.8832 5.96122 16.126C5.79332 16.226 5.60934 16.3303 5.41664 16.4397C4.70403 16.8439 3.87199 17.316 3.2919 17.8838C2.93177 18.2363 2.77826 18.5271 2.7537 18.7517C2.7342 18.9301 2.7793 19.2242 3.22993 19.6535C4.26578 20.6404 5.31835 21.25 6.5908 21.25H12.4999C12.9141 21.25 13.2499 21.5858 13.2499 22C13.2499 22.4142 12.9141 22.75 12.4999 22.75H6.5908C4.77249 22.75 3.36671 21.8556 2.19526 20.7396C1.51624 20.0927 1.17778 19.3646 1.26258 18.5887C1.34233 17.8592 1.78098 17.2637 2.24265 16.8118C2.98082 16.0893 4.05833 15.4814 4.77114 15.0792C4.93377 14.9875 5.0775 14.9064 5.1938 14.8372C7.60544 13.4012 10.4519 12.941 13.1397 13.451C13.5467 13.5282 13.814 13.9207 13.7368 14.3276C13.6596 14.7346 13.2671 15.0019 12.8601 14.9247Z" fill="#6D6E71"/>
<path fill-rule="evenodd" clip-rule="evenodd" d="M17.9989 13.25C18.6707 13.25 19.1207 13.7533 19.3635 14.245L19.3639 14.2459L20.0595 15.6484L20.0652 15.654C20.07 15.6583 20.0756 15.663 20.0819 15.6676C20.0881 15.6722 20.0943 15.6763 20.0999 15.6798L20.1082 15.6844L21.3633 15.8947C21.9035 15.9855 22.4912 16.275 22.69 16.8985C22.8885 17.521 22.5782 18.0974 22.1906 18.486L22.1897 18.487L21.2139 19.4708C21.2105 19.4778 21.206 19.4888 21.2021 19.5027C21.1977 19.5181 21.1956 19.5314 21.1949 19.5401L21.4742 20.7579C21.6003 21.3093 21.6123 22.0753 21.0178 22.5123C20.4201 22.9516 19.6921 22.7048 19.2068 22.4159L18.0301 21.7135L18.0227 21.7125C18.0162 21.7117 18.0088 21.7113 18.0009 21.7113C17.993 21.7113 17.9854 21.7117 17.9786 21.7125C17.9742 21.713 17.9705 21.7136 17.9675 21.7142L16.7923 22.4156C16.3054 22.7069 15.5791 22.9496 14.9822 22.5106C14.3891 22.0742 14.3977 21.3106 14.5247 20.7572L14.8039 19.5401C14.8031 19.5314 14.8011 19.5181 14.7967 19.5027C14.7927 19.4888 14.7883 19.4778 14.7849 19.4708L13.8073 18.4851C13.422 18.0967 13.1131 17.5211 13.3098 16.8998C13.5075 16.2757 14.0949 15.9855 14.6358 15.8946L15.8866 15.6851L15.8938 15.681C15.8965 15.6793 15.8994 15.6775 15.9023 15.6755C15.9055 15.6734 15.9087 15.6711 15.912 15.6687C15.9183 15.6639 15.924 15.6592 15.9289 15.6547L15.9352 15.6487L16.6322 14.2431C16.8769 13.7522 17.328 13.25 17.9989 13.25ZM17.2725 16.3282L17.9747 14.9123C17.9824 14.8969 17.9902 14.882 17.9976 14.8687C18.0045 14.8814 18.0115 14.8949 18.0187 14.9095L18.0194 14.9109L18.7223 16.3282C18.8369 16.5624 19.0173 16.7452 19.1865 16.8711C19.3568 16.9978 19.5838 17.1173 19.8393 17.1603L21.1151 17.374C21.1344 17.3772 21.1522 17.3808 21.1685 17.3844C21.1566 17.3978 21.1432 17.4121 21.1283 17.427L21.1265 17.4289L20.1346 18.4289C19.9388 18.6263 19.8214 18.8738 19.7591 19.093C19.6967 19.3127 19.6675 19.5824 19.727 19.8497L20.0121 21.0927C20.0172 21.115 20.0216 21.1362 20.0253 21.1563C20.0094 21.1475 19.9923 21.1378 19.975 21.1275L18.7797 20.4141C18.5274 20.2634 18.2427 20.2113 18.0009 20.2113C17.7583 20.2113 17.4753 20.2637 17.2239 20.4112L16.0225 21.1283C16.0054 21.1385 15.9891 21.1479 15.9733 21.1565C15.9771 21.1364 15.9816 21.1151 15.9867 21.0927L16.2707 19.8547L16.2718 19.8497C16.3312 19.5824 16.302 19.3127 16.2396 19.093C16.1774 18.8738 16.0599 18.6263 15.8642 18.4289L14.8723 17.4289C14.8567 17.4132 14.8429 17.3983 14.8307 17.3844C14.8469 17.3807 14.8649 17.3772 14.884 17.3739L16.1595 17.1603L16.1622 17.1598C16.4163 17.1163 16.6418 16.9959 16.8101 16.87C16.9779 16.7446 17.158 16.5622 17.2725 16.3282Z" fill="#6D6E71"/>
</svg>
