<svg width="48" height="48" viewBox="0 0 48 48" fill="none" xmlns="http://www.w3.org/2000/svg">
<g clip-path="url(#clip0_3751_10308)">
<path d="M17.0001 18.9998C17.0001 20.1018 17.2561 21.1458 17.7121 22.0738C16.7321 23.3298 16.1221 24.8878 16.0401 26.5858C14.1581 24.6098 13.0001 21.9378 13.0001 19.0018C13.0001 12.1798 19.2441 6.78782 26.3181 8.23982C30.4821 9.09582 33.8561 12.4498 34.7441 16.6078C35.0121 17.8638 35.0621 19.0938 34.9261 20.2698C34.8101 21.2658 33.9361 22.0018 32.9321 22.0018H32.8421C31.6581 22.0018 30.8261 20.9478 30.9561 19.7718C31.0441 18.9818 30.9981 18.1518 30.7961 17.3058C30.2001 14.7998 28.1561 12.7698 25.6461 12.1918C21.0741 11.1418 16.9981 14.6058 16.9981 19.0018L17.0001 18.9998ZM9.22005 16.4098C9.76805 13.2238 11.3261 10.3198 13.7421 8.05382C16.8001 5.18782 20.8041 3.77182 25.0021 4.03182C32.9081 4.54382 39.0901 11.4698 38.9981 19.7618C38.9601 23.2338 36.0521 25.9978 32.5821 25.9978H27.7701C27.2821 24.3398 25.7661 23.1198 23.9501 23.1198C21.7401 23.1198 19.9501 24.9098 19.9501 27.1198C19.9501 29.3298 21.7401 31.1198 23.9501 31.1198C25.0261 31.1198 26.0001 30.6898 26.7181 29.9978H32.5821C38.2201 29.9978 42.9181 25.5078 42.9981 19.8718C43.1461 9.42982 35.3021 0.689819 25.2601 0.0418194C19.9321 -0.304181 14.8781 1.50582 11.0081 5.13782C8.01005 7.94782 6.01605 11.6678 5.29805 15.6698C5.08005 16.8858 6.04205 18.0018 7.27605 18.0018C8.22005 18.0018 9.06205 17.3438 9.22005 16.4118V16.4098ZM24.0001 33.9998C16.6101 33.9998 10.2161 38.5838 8.09005 45.4038C7.76005 46.4578 8.35005 47.5798 9.40405 47.9098C10.4561 48.2278 11.5781 47.6478 11.9081 46.5958C13.4861 41.5358 18.4561 37.9998 23.9981 37.9998C29.5401 37.9998 34.5121 41.5358 36.0881 46.5958C36.3561 47.4518 37.1441 47.9998 37.9981 47.9998C38.1961 47.9998 38.3941 47.9698 38.5941 47.9098C39.6481 47.5798 40.2361 46.4578 39.9081 45.4038C37.7821 38.5838 31.3881 33.9998 23.9981 33.9998H24.0001Z" fill="#517632"/>
</g>
<defs>
<clipPath id="clip0_3751_10308">
<rect width="48" height="48" fill="white"/>
</clipPath>
</defs>
</svg>
