<svg width="80" height="81" viewBox="0 0 80 81" fill="none" xmlns="http://www.w3.org/2000/svg">
<g opacity="0.8" clip-path="url(#clip0_3627_21432)">
<path d="M6.66663 8.83333C6.66663 4.23 10.3966 0.5 15 0.5C19.6033 0.5 23.3333 4.23 23.3333 8.83333C23.3333 13.4367 19.6033 17.1667 15 17.1667C10.3966 17.1667 6.66663 13.4367 6.66663 8.83333ZM46.6666 27.1667C48.5066 27.1667 50 25.6767 50 23.8333C50 21.99 48.5066 20.5 46.6666 20.5H13.3333C5.97996 20.5 -3.9399e-05 26.48 -3.9399e-05 33.8333V43.8333C-3.9399e-05 45.6767 1.49329 47.1667 3.33329 47.1667C5.17329 47.1667 6.66663 45.6767 6.66663 43.8333V33.8333C6.66663 30.1567 9.65663 27.1667 13.3333 27.1667H20V43.8333C20 45.6767 21.4933 47.1667 23.3333 47.1667C25.1733 47.1667 26.6666 45.6767 26.6666 43.8333V27.1667H46.6666ZM65 0.5H33.3333C31.4933 0.5 30 1.99 30 3.83333C30 5.67667 31.4933 7.16667 33.3333 7.16667H65C69.5933 7.16667 73.3333 10.9033 73.3333 15.5V32.1667C73.3333 36.7633 69.5933 40.5 65 40.5H63.3333V37.1667C63.3333 35.3233 61.84 33.8333 60 33.8333H53.3333C51.4933 33.8333 50 35.3233 50 37.1667V40.5H36.6666C34.8266 40.5 33.3333 41.99 33.3333 43.8333C33.3333 45.6767 34.8266 47.1667 36.6666 47.1667H65C73.27 47.1667 80 40.4367 80 32.1667V15.5C80 7.23 73.27 0.5 65 0.5ZM68.3333 70.5C64.1433 70.5 60.2233 72.0933 57.5833 74.87C56.3133 76.2033 56.3666 78.3167 57.7033 79.5833C59.0366 80.8567 61.1466 80.7967 62.4166 79.4667C65.15 76.59 71.5166 76.59 74.2533 79.4667C74.9066 80.1533 75.7866 80.5033 76.67 80.5033C77.4966 80.5033 78.3233 80.2 78.9666 79.5867C80.3 78.32 80.3566 76.2067 79.0866 74.8733C76.4466 72.0967 72.53 70.5033 68.3366 70.5033L68.3333 70.5ZM40 70.5C35.81 70.5 31.89 72.0933 29.25 74.87C27.98 76.2033 28.0333 78.3167 29.37 79.5833C30.7033 80.8567 32.8166 80.7967 34.0833 79.4667C36.8166 76.59 43.1833 76.59 45.92 79.4667C46.5733 80.1533 47.4533 80.5033 48.3366 80.5033C49.1633 80.5033 49.99 80.2 50.6333 79.5867C51.9666 78.32 52.0233 76.2067 50.7533 74.8733C48.1133 72.0967 44.1966 70.5033 40.0033 70.5033L40 70.5ZM11.6666 70.5C7.47663 70.5 3.55663 72.0933 0.916627 74.87C-0.353373 76.2033 -0.300039 78.3167 1.03663 79.5833C2.36996 80.8567 4.48329 80.7967 5.74996 79.4667C8.48329 76.59 14.85 76.59 17.5866 79.4667C18.24 80.1533 19.12 80.5033 20.0033 80.5033C20.83 80.5033 21.6566 80.2 22.3 79.5867C23.6333 78.32 23.69 76.2067 22.42 74.8733C19.78 72.0967 15.8633 70.5033 11.67 70.5033L11.6666 70.5ZM18.3333 60.5C18.3333 56.8167 15.35 53.8333 11.6666 53.8333C7.98329 53.8333 4.99996 56.8167 4.99996 60.5C4.99996 64.1833 7.98329 67.1667 11.6666 67.1667C15.35 67.1667 18.3333 64.1833 18.3333 60.5ZM46.6666 60.5C46.6666 56.8167 43.6833 53.8333 40 53.8333C36.3166 53.8333 33.3333 56.8167 33.3333 60.5C33.3333 64.1833 36.3166 67.1667 40 67.1667C43.6833 67.1667 46.6666 64.1833 46.6666 60.5ZM75 60.5C75 56.8167 72.0166 53.8333 68.3333 53.8333C64.65 53.8333 61.6666 56.8167 61.6666 60.5C61.6666 64.1833 64.65 67.1667 68.3333 67.1667C72.0166 67.1667 75 64.1833 75 60.5Z" fill="#3980B3"/>
</g>
<defs>
<clipPath id="clip0_3627_21432">
<rect width="80" height="80" fill="white" transform="translate(0 0.5)"/>
</clipPath>
</defs>
</svg>
