<svg width="48" height="48" viewBox="0 0 48 48" fill="none" xmlns="http://www.w3.org/2000/svg">
<g clip-path="url(#clip0_3751_10314)">
<path d="M6 33.9999C7.106 33.9999 8 33.1059 8 31.9999C8 30.8939 8.896 29.9999 10 29.9999H22V31.9999C22 33.1059 22.894 33.9999 24 33.9999C25.106 33.9999 26 33.1059 26 31.9999V29.9999H38C39.104 29.9999 40 30.8959 40 31.9999C40 33.1039 40.894 33.9999 42 33.9999C43.106 33.9999 44 33.1059 44 31.9999C44 28.6919 41.308 25.9999 38 25.9999H26V23.7979C28.16 23.3579 30.07 22.2179 31.48 20.6279L33.392 21.7319C33.706 21.9139 34.05 21.9999 34.39 21.9999C35.082 21.9999 35.754 21.6419 36.124 20.9999C36.676 20.0419 36.348 18.8199 35.392 18.2679L33.486 17.1679C33.82 16.1719 34 15.1079 34 14.0019C34 12.8959 33.818 11.8299 33.486 10.8359L35.392 9.73591C36.35 9.18391 36.678 7.95991 36.124 7.00391C35.57 6.04591 34.344 5.71791 33.392 6.27191L31.48 7.37591C30.068 5.78591 28.16 4.64591 26 4.20591V2.00391C26 0.899906 25.106 0.00390625 24 0.00390625C22.894 0.00390625 22 0.899906 22 2.00391V4.20591C19.84 4.64591 17.93 5.78591 16.52 7.37591L14.608 6.27191C13.65 5.71791 12.428 6.04591 11.876 7.00391C11.324 7.96191 11.652 9.18391 12.608 9.73591L14.514 10.8359C14.18 11.8319 14 12.8959 14 14.0019C14 15.1079 14.182 16.1739 14.514 17.1679L12.608 18.2679C11.65 18.8199 11.322 20.0439 11.876 20.9999C12.248 21.6419 12.918 21.9999 13.61 21.9999C13.95 21.9999 14.294 21.9139 14.608 21.7319L16.52 20.6279C17.932 22.2179 19.84 23.3579 22 23.7979V25.9999H10C6.692 25.9999 4 28.6919 4 31.9999C4 33.1059 4.894 33.9999 6 33.9999ZM18 13.9999C18 10.6919 20.692 7.99991 24 7.99991C27.308 7.99991 30 10.6919 30 13.9999C30 17.3079 27.308 19.9999 24 19.9999C20.692 19.9999 18 17.3079 18 13.9999ZM26 35.9999H22C19.794 35.9999 18 37.7939 18 39.9999V43.9999C18 46.2059 19.794 47.9999 22 47.9999H26C28.206 47.9999 30 46.2059 30 43.9999V39.9999C30 37.7939 28.206 35.9999 26 35.9999ZM26 43.9999H22V39.9999H26V43.9999ZM44 35.9999H40C37.794 35.9999 36 37.7939 36 39.9999V43.9999C36 46.2059 37.794 47.9999 40 47.9999H44C46.206 47.9999 48 46.2059 48 43.9999V39.9999C48 37.7939 46.206 35.9999 44 35.9999ZM44 43.9999H40V39.9999H44V43.9999ZM8 35.9999H4C1.794 35.9999 0 37.7939 0 39.9999V43.9999C0 46.2059 1.794 47.9999 4 47.9999H8C10.206 47.9999 12 46.2059 12 43.9999V39.9999C12 37.7939 10.206 35.9999 8 35.9999ZM8 43.9999H4V39.9999H8V43.9999Z" fill="#517632"/>
</g>
<defs>
<clipPath id="clip0_3751_10314">
<rect width="48" height="48" fill="white"/>
</clipPath>
</defs>
</svg>
