<svg width="920" height="769" viewBox="0 0 920 769" fill="none" xmlns="http://www.w3.org/2000/svg">
<path d="M242.474 670.906L677.523 670.906L821.137 384.4L677.523 97.9624L242.474 97.9624L98.8599 384.4L242.474 670.906Z" stroke="#B9D288" stroke-width="3.79179" stroke-miterlimit="10"/>
<path d="M230.507 694.801L689.491 694.801L845.073 384.397L689.491 73.9924L230.507 73.9923L74.9245 384.397L230.507 694.801Z" stroke="#C7DBA0" stroke-width="3.79179" stroke-miterlimit="10"/>
<path d="M218.482 718.766L701.461 718.766L869.07 384.395L701.461 50.0924L218.482 50.0924L50.9318 384.395L218.482 718.766Z" stroke="#D5E4B8" stroke-width="3.79179" stroke-miterlimit="10"/>
<path d="M206.543 742.664L713.518 742.664L893.035 384.395L713.518 26.1268L206.543 26.1267L26.9658 384.395L206.543 742.664Z" stroke="#E3EDD0" stroke-width="3.79179" stroke-miterlimit="10"/>
<path d="M194.545 766.633L725.455 766.633L917 384.398L725.455 2.23124L194.545 2.23119L3.00027 384.398L194.545 766.633Z" stroke="#F1F6E7" stroke-width="3.79179" stroke-miterlimit="10"/>
</svg>
