<svg width="1070" height="1279" viewBox="0 0 1070 1279" fill="none" xmlns="http://www.w3.org/2000/svg">
<mask id="mask0_3217_4689" style="mask-type:luminance" maskUnits="userSpaceOnUse" x="170" y="170" width="730" height="938">
<path d="M899.649 924.612L899.649 353.579L535.004 170.683L170.454 353.579L170.454 924.612L535.004 1107.51L899.649 924.612Z" fill="white"/>
</mask>
<g mask="url(#mask0_3217_4689)">
<path d="M899.649 1107.51L899.649 170.683L170.454 170.683L170.454 1107.51L899.649 1107.51Z" fill="url(#paint0_linear_3217_4689)"/>
</g>
<path d="M933.764 941.888L933.764 336.386L535.005 136.504L136.34 336.386L136.34 941.888L535.005 1141.77L933.764 941.888Z" stroke="#B9D288" stroke-width="5.27742" stroke-miterlimit="10"/>
<path d="M967.026 958.544L967.026 319.729L535.005 103.189L102.984 319.729L102.984 958.544L535.005 1175.08L967.026 958.544Z" stroke="#C7DBA0" stroke-width="5.27742" stroke-miterlimit="10"/>
<path d="M1000.38 975.281L1000.38 303.069L535.003 69.791L69.72 303.069L69.72 975.281L535.003 1208.48L1000.38 975.281Z" stroke="#D5E4B8" stroke-width="5.27742" stroke-miterlimit="10"/>
<path d="M1033.64 991.897L1033.64 286.289L535.003 36.4363L36.3638 286.289L36.3637 991.897L535.003 1241.83L1033.64 991.897Z" stroke="#E3EDD0" stroke-width="5.27742" stroke-miterlimit="10"/>
<path d="M1067 1008.6L1067 269.674L535.005 3.08225L3.10489 269.674L3.10486 1008.6L535.005 1275.19L1067 1008.6Z" stroke="#F1F6E7" stroke-width="5.27742" stroke-miterlimit="10"/>
<defs>
<linearGradient id="paint0_linear_3217_4689" x1="218.171" y1="635.301" x2="947.366" y2="635.301" gradientUnits="userSpaceOnUse">
<stop stop-color="#386732"/>
<stop offset="0.18" stop-color="#467836"/>
<stop offset="0.5" stop-color="#5D933C"/>
<stop offset="0.78" stop-color="#6BA440"/>
<stop offset="1" stop-color="#70AA42"/>
</linearGradient>
</defs>
</svg>
