<svg width="57" height="44" viewBox="0 0 57 44" fill="none" xmlns="http://www.w3.org/2000/svg">
<mask id="mask0_3490_91" style="mask-type:luminance" maskUnits="userSpaceOnUse" x="7" y="0" width="51" height="43">
<path d="M19.5383 0.964844L7.04956 21.7469L19.5383 42.5289H44.5115L57.0002 21.7469L44.5115 0.964844H19.5383Z" fill="white"/>
</mask>
<g mask="url(#mask0_3490_91)">
<path d="M57.0002 0.964844H7.04956V42.5289H57.0002V0.964844Z" fill="#BED6AA"/>
</g>
<mask id="mask1_3490_91" style="mask-type:luminance" maskUnits="userSpaceOnUse" x="0" y="0" width="57" height="44">
<path d="M56.9999 0.964844H0.934326V43.9648H56.9999V0.964844Z" fill="white"/>
</mask>
<g mask="url(#mask1_3490_91)">
<path d="M9.80116 18.0131L8.6725 17.8961C7.81971 17.8311 7.11733 17.2723 6.87905 16.4666C6.5279 15.44 6.92922 14.3353 7.81964 13.8285L8.65995 15.9338C8.94839 16.6615 9.34968 17.3893 9.80116 18.0001M24.3991 7.1879C24.7377 7.14891 25.0762 7.18787 25.4525 7.31782C26.4181 7.75966 26.8822 8.95524 26.4684 9.99487C26.4308 10.1248 26.3555 10.2158 26.2802 10.3328C26.2426 10.3847 26.2049 10.4367 26.1673 10.4887L25.5403 11.3074C25.4776 10.7746 25.3647 10.2418 25.1892 9.61803L24.4116 7.1879H24.3991ZM20.6242 19.1956L20.5866 19.2347L21.1384 20.7551L19.044 21.6648L18.4546 20.1313V20.0923L15.6454 19.8324C13.0619 19.5725 10.8923 17.8831 9.97675 15.427L8.35897 11.1645C8.29627 11.0215 8.29627 10.8526 8.35897 10.7097C8.40914 10.5797 8.50942 10.4887 8.62229 10.4367L21.7654 5.53746C21.941 5.47248 22.0413 5.47248 22.2044 5.53746C22.3298 5.60243 22.4301 5.7194 22.4802 5.87535L23.8472 10.1379C24.5872 12.503 24.1106 15.0371 22.5555 16.9084L20.6242 19.2347V19.1956ZM18.2664 23.861C18.2915 23.757 18.3918 23.5231 18.5925 23.4582L25.5654 20.3652C25.7033 20.3133 25.8538 20.3133 25.9793 20.3652C26.1172 20.4172 26.2175 20.5212 26.2677 20.6511L26.7442 21.9247L23.772 22.9253L23.6968 22.9513L24.1106 24.3288L27.1707 23.2892L27.8604 25.1995L25.0136 26.2002L24.9383 26.2262L25.3647 27.6037L28.362 26.564L29.0518 28.4744L26.2677 29.41L26.1924 29.436L26.6189 30.8135L29.5534 29.7869L29.8419 30.5536C29.892 30.6965 29.892 30.8395 29.8419 30.9564C29.7917 31.0734 29.704 31.1644 29.566 31.2294L24.6499 33.7505C24.537 33.8025 24.4367 33.8024 24.3238 33.8024L20.135 33.2957L17.8525 26.2002L18.279 23.835L18.2664 23.861ZM25.2017 35.141L26.1924 34.6602L27.1205 36.8953L25.0261 37.6101L24.2862 35.3619C24.6122 35.3879 24.9133 35.3229 25.2017 35.141ZM23.2954 41.1319L25.4023 39.0786L28.0485 38.1819H30.5317C30.8076 38.1819 30.9706 38.2859 31.0835 38.5198L31.1838 38.8316L23.3456 42.0676L23.1951 41.7686C23.1449 41.5477 23.1951 41.3138 23.2954 41.1319ZM13.8269 35.7387L11.7576 29.3061L13.0493 28.7862L14.6044 33.6855L15.9338 33.2567L14.316 28.2144L16.6612 27.2398L18.7304 33.6076L13.8269 35.7387ZM30.6571 36.8044H28.6505L27.5719 34.1533L30.2432 32.7628C31.1336 32.308 31.5475 31.2424 31.2089 30.2807L27.6597 20.4042C27.2835 19.3776 26.2049 18.8577 25.1389 19.1956C25.0888 19.1956 25.0387 19.2346 25.0261 19.2866L22.5179 20.4042L22.1918 19.5595L23.5964 17.8571C24.5997 16.6876 25.2268 15.258 25.4149 13.6986L27.2083 11.4634C28.3871 10.0469 28.1865 7.85069 26.7568 6.56414C26.506 6.36921 26.2552 6.17425 25.9918 6.0443C25.3146 5.71941 24.6248 5.65446 23.8974 5.8234L23.7343 5.31656C23.5838 4.80974 23.2327 4.39387 22.7562 4.15995C22.2796 3.92603 21.7403 3.90006 21.2638 4.09499L8.12069 8.99428C7.6065 9.18921 7.20514 9.57902 6.9794 10.0858C6.77874 10.5537 6.76624 11.0735 6.94182 11.5413V11.5934L7.23024 12.3861C5.65006 13.1788 4.87253 15.1281 5.44942 16.8435C5.88836 18.143 7.00448 19.0787 8.384 19.2866L11.2936 19.6115C12.4975 20.5212 13.9397 21.093 15.3694 21.2229L17.3761 21.4179L17.7021 22.2755C17.2757 22.5484 16.9747 23.0163 16.8493 23.5881L16.4229 25.7454L1.26065 32.1131L1.1854 32.1391L1.67453 33.5166L10.3906 29.9038L12.4599 36.3366L1.2481 41.1449L1.17285 41.1709L1.73722 42.4833L19.671 34.7771L22.7185 35.154L23.8096 38.6107L22.3548 40.0532C21.7529 40.599 21.5773 41.4827 21.8908 42.2755L22.543 43.9648L33.0274 39.7154L32.4379 38.091C32.1871 37.2983 31.4848 36.8044 30.6195 36.8044" fill="#30461E"/>
<path d="M31.3712 11.4636C31.923 11.0998 32.3745 10.632 32.7131 10.0602C33.0642 10.632 33.5157 11.0998 34.055 11.4636C33.5157 11.8275 33.0517 12.2953 32.7131 12.8541C32.3619 12.2953 31.9104 11.8145 31.3712 11.4636ZM32.0233 15.3363V16.064H33.4279V15.3363C33.4279 13.5689 34.7573 12.1914 36.4629 12.1914H36.5381V10.7359H36.4629C34.7573 10.7359 33.4279 9.3454 33.4279 7.59102V6.86328H32.0233V7.59102C32.0233 9.35839 30.6939 10.7359 28.9883 10.7359H28.9131V12.1914H28.9883C30.6939 12.1914 32.0233 13.5689 32.0233 15.3363Z" fill="#30461E"/>
<path d="M3.95614 24.3679C4.50795 24.004 4.95944 23.5363 5.29805 22.9775C5.6492 23.5493 6.10061 24.017 6.63988 24.3679C6.08807 24.7318 5.63666 25.1996 5.29805 25.7584C4.9469 25.1996 4.49541 24.7188 3.95614 24.3679ZM4.60822 28.2406V28.9683H6.01282V28.2406C6.01282 26.4732 7.35478 25.0957 9.04783 25.0957H9.12308V23.6402H9.04783C7.34224 23.6402 6.01282 22.2627 6.01282 20.4953V19.7676H4.60822V20.4953C4.60822 22.2627 3.27888 23.6402 1.57329 23.6402H1.49805V25.0957H1.57329C3.27888 25.0957 4.60822 26.4732 4.60822 28.2406Z" fill="#30461E"/>
<path d="M36.5516 24.3679C35.9998 24.7318 35.5483 25.1996 35.2097 25.7584C34.8585 25.1996 34.4071 24.7188 33.8678 24.3679C34.4071 24.004 34.8585 23.5363 35.2097 22.9775C35.5608 23.5493 36.0123 24.017 36.5516 24.3679ZM38.9469 23.6402C37.2413 23.6402 35.912 22.2627 35.912 20.4953V19.7676H34.5074V20.4953C34.5074 22.2627 33.1655 23.6402 31.4725 23.6402H31.3972V25.0957H31.4725C33.1781 25.0957 34.5074 26.4732 34.5074 28.2406V28.9683H35.912V28.2406C35.912 26.4732 37.2413 25.0957 38.9469 25.0957H39.0222V23.6402H38.9469Z" fill="#30461E"/>
<path d="M20.7622 7.16211L19.4329 8.05879H19.6586C20.0097 8.51363 22.2672 12.8801 19.7589 15.4792L19.6963 15.5311L20.6744 16.5448L20.7246 16.4928C24.0857 13.01 21.151 7.57801 20.7873 7.21414L20.7372 7.16211H20.7622Z" fill="#30461E"/>
</g>
</svg>
