<svg width="57" height="44" viewBox="0 0 57 44" fill="none" xmlns="http://www.w3.org/2000/svg">
<mask id="mask0_3490_75" style="mask-type:luminance" maskUnits="userSpaceOnUse" x="6" y="0" width="52" height="43">
<path d="M19.5009 0.964844L6.99976 21.7469L19.5009 42.5289H44.499L57.0002 21.7469L44.499 0.964844H19.5009Z" fill="white"/>
</mask>
<g mask="url(#mask0_3490_75)">
<path d="M57.0002 0.964844H6.99976V42.5289H57.0002V0.964844Z" fill="#BED6AA"/>
</g>
<mask id="mask1_3490_75" style="mask-type:luminance" maskUnits="userSpaceOnUse" x="0" y="0" width="58" height="44">
<path d="M57.0004 0.964844H0.878906V43.9648H57.0004V0.964844Z" fill="white"/>
</mask>
<g mask="url(#mask1_3490_75)">
<path d="M21.1235 38.6383C21.4211 38.6383 21.6591 38.8982 21.6591 39.2229C21.6591 39.5477 21.4211 39.8076 21.1235 39.8076H18.0052V41.2886H19.2906C19.5882 41.2886 19.8262 41.5484 19.8262 41.8732C19.8262 42.198 19.5882 42.4577 19.2906 42.4577H17.1482C15.4701 42.4577 13.7919 42.0291 12.2922 41.2106C12.197 41.1587 12.0899 41.1327 11.9828 41.1327H10.2332V34.6501H11.0068C11.8519 34.6501 12.6255 34.1954 13.0897 33.4289L14.1966 31.6101C14.7917 30.6228 16.0176 30.3629 16.9102 31.0125C17.1959 31.2203 17.422 31.4932 17.5648 31.8309H16.1604V33.3119H21.7067C22.0043 33.3119 22.2423 33.5718 22.2423 33.8966C22.2423 34.2213 22.0043 34.4812 21.7067 34.4812H19.1954V35.9621H22.9207C23.2183 35.9621 23.4563 36.222 23.4563 36.5467C23.4563 36.8715 23.2183 37.1314 22.9207 37.1314H18.5884V38.6124H21.0878L21.1235 38.6383ZM23.5277 34.5981C23.6825 34.1044 23.6705 33.5718 23.4801 33.0911C23.2778 32.5845 22.9088 32.1947 22.4327 31.9868C22.2066 31.8959 21.9805 31.8439 21.7424 31.8439H19.1121L18.8146 31.1944C17.9933 29.4016 16.0057 28.6871 14.3632 29.5705C13.8514 29.8563 13.411 30.272 13.0897 30.8046L11.9828 32.6235C11.7685 32.9742 11.4115 33.1821 11.0306 33.1821H10.257V32.5974C10.257 32.1947 9.94755 31.8569 9.57859 31.8569H0.985352V33.338H8.88829V42.4838H0.985352V43.9648H9.57859C9.95946 43.9648 10.257 43.627 10.257 43.2243V42.6396H11.8519C13.4944 43.5101 15.3392 43.9648 17.1602 43.9648H19.3025C20.3499 43.9648 21.1949 43.0424 21.1949 41.8991C21.1949 41.7043 21.1711 41.4965 21.1116 41.3146C21.6234 41.3146 22.0995 41.0937 22.4566 40.704C22.8136 40.3142 23.016 39.7946 23.016 39.2359C23.016 39.0411 22.9921 38.8332 22.9326 38.6513C23.98 38.6513 24.825 37.716 24.825 36.5728C24.825 35.6764 24.2895 34.8709 23.5039 34.5981" fill="#30461E"/>
<path d="M18.7555 6.0174C18.7555 5.69262 18.9935 5.43278 19.2911 5.43278C19.5886 5.43278 19.8267 5.69262 19.8267 6.0174V26.5306H18.7555V6.0174ZM24.8374 18.6449V17.3847H29.6339C29.9315 17.3847 30.1695 17.6446 30.1695 17.9694C30.1695 18.2941 29.9315 18.554 29.6339 18.554H25.373C25.1945 18.554 25.0159 18.58 24.8374 18.6449ZM25.373 20.0479H29.6339C30.6813 20.0479 31.5263 19.1126 31.5263 17.9824V10.0967H36.2514V21.2302H25.373C25.0754 21.2302 24.8374 20.9703 24.8374 20.6455C24.8374 20.3208 25.0754 20.0609 25.373 20.0609M21.1835 15.9167V7.43348H29.6339C29.9315 7.43348 30.1695 7.69332 30.1695 8.0181V15.9947C29.991 15.9427 29.8124 15.9037 29.6339 15.9037H21.1835V15.9167ZM38.8223 26.5435H29.015C28.646 26.5435 28.3366 26.8813 28.3366 27.284V27.8687H27.5629C27.1821 27.8687 26.825 27.6608 26.6108 27.3101L25.5039 25.4913C24.5518 23.9453 22.6831 23.4387 21.1835 24.2961V17.3847H23.4687V20.6325C23.4687 21.7758 24.3256 22.6982 25.3611 22.6982H36.9179C37.2988 22.6982 37.5964 22.3604 37.5964 21.9577V9.34315C37.5964 8.92744 37.2869 8.60264 36.9179 8.60264H31.5144V8.0181C31.5144 6.87487 30.6694 5.95246 29.622 5.95246H21.1716C21.1359 4.84821 20.3027 3.96484 19.2792 3.96484C18.2556 3.96484 17.3868 4.88718 17.3868 6.03041V26.5435H16.8512C15.8038 26.5435 14.9587 27.4789 14.9587 28.6092V28.6871H16.3156V28.6092C16.3156 28.2844 16.5536 28.0246 16.8512 28.0246H22.3975V26.5435H21.1835V26.2188C21.8262 25.2834 23.0402 25.1016 23.9091 25.7901C24.0876 25.933 24.2542 26.1148 24.3732 26.3227L25.4801 28.1415C25.9443 28.908 26.7179 29.3627 27.5629 29.3627H28.3485V35.8453H26.5989C26.4918 35.8453 26.3847 35.8713 26.2895 35.9233C25.9205 36.1311 25.5396 36.3 25.1468 36.4559L25.0754 36.4819L25.5396 37.8719L25.611 37.8459C26.0038 37.69 26.3847 37.5082 26.7536 37.3263H28.3485V37.9109C28.3485 38.3266 28.6579 38.6514 29.0269 38.6514H38.8341V37.1704H29.7053V28.0246H38.8341V26.5435H38.8223Z" fill="#30461E"/>
</g>
</svg>
