<svg width="57" height="44" viewBox="0 0 57 44" fill="none" xmlns="http://www.w3.org/2000/svg">
<mask id="mask0_3490_59" style="mask-type:luminance" maskUnits="userSpaceOnUse" x="6" y="0" width="52" height="43">
<path d="M19.4636 0.964844L6.94995 21.7469L19.4636 42.5289H44.4866L57.0002 21.7469L44.4866 0.964844H19.4636Z" fill="white"/>
</mask>
<g mask="url(#mask0_3490_59)">
<path d="M57.0002 0.964844H6.94995V42.5289H57.0002V0.964844Z" fill="#BED6AA"/>
</g>
<mask id="mask1_3490_59" style="mask-type:luminance" maskUnits="userSpaceOnUse" x="0" y="0" width="57" height="44">
<path d="M56.9994 0.964844H0.822021V43.9648H56.9994V0.964844Z" fill="white"/>
</mask>
<g mask="url(#mask1_3490_59)">
<path d="M44.8981 19.603L36.3799 10.3455L40.079 6.33293L48.5971 15.5904L44.8981 19.603ZM40.4306 22.3257C39.8836 22.9276 39.5189 23.6728 39.3886 24.4753C38.9979 26.8685 37.9429 29.0468 36.3669 30.7664L35.7548 31.4257L30.7402 25.9657C30.8444 25.9657 30.9616 25.9657 31.0658 25.9657C31.5738 25.9657 32.0948 25.8654 32.6158 25.6361C33.0196 25.4498 33.2149 24.9482 33.0456 24.504C32.8763 24.0598 32.4204 23.8448 32.0036 24.0311C29.9587 24.9339 27.5101 22.4404 27.2366 22.1538C27.2366 22.1538 27.2366 22.1538 27.2236 22.1538L27.1714 22.0965L26.5072 21.3656L27.2626 20.5488C27.5752 20.2192 27.5752 19.6603 27.2626 19.3307C26.95 18.9868 26.4551 18.9868 26.1425 19.3307L24.827 20.7638L21.8053 24.0598C21.1801 24.7333 20.1642 24.7333 19.552 24.0598C19.2524 23.7302 19.0831 23.3003 19.0831 22.8274C19.0831 22.3544 19.2524 21.9245 19.552 21.6092L24.7749 15.9344C25.0614 15.6191 25.3871 15.3325 25.7387 15.1032C26.5593 14.5443 27.5101 14.2577 28.5 14.2577C29.2424 14.2577 29.9978 14.4297 30.6751 14.7736C32.212 15.5331 34.0355 15.1748 35.2207 13.8994L36.3278 12.6957L42.8272 19.7606L40.4567 22.3257H40.4306ZM35.4291 35.1946C35.2207 35.4095 34.9472 35.5385 34.6607 35.5385C34.3741 35.5385 34.1006 35.4095 33.8922 35.1946L26.1946 26.8255C25.882 26.4816 25.3871 26.4816 25.0745 26.8255C24.7619 27.1551 24.7619 27.714 25.0745 28.0436L33.3712 37.0575C33.5796 37.2725 33.6838 37.5735 33.6838 37.8887C33.6838 38.204 33.5666 38.5049 33.3712 38.7198C32.9544 39.1784 32.2641 39.1784 31.8473 38.7198L30.4537 37.2008C30.4537 37.2008 30.4407 37.1865 30.4276 37.1722L23.9934 30.1789C23.6808 29.8493 23.1859 29.8493 22.8733 30.1789C22.5607 30.5228 22.5607 31.0674 22.8733 31.397L29.3205 38.4046C29.5159 38.6196 29.6331 38.9205 29.6331 39.2215C29.6331 39.5224 29.5159 39.8233 29.3205 40.0526C28.9037 40.5111 28.2134 40.5111 27.7966 40.0526L20.8024 32.4574C20.4898 32.1135 19.9948 32.1135 19.6822 32.4574C19.3696 32.787 19.3696 33.346 19.6822 33.6756L24.8661 39.3074C25.0745 39.5367 25.1787 39.8233 25.1787 40.1385C25.1787 40.4538 25.0614 40.7404 24.853 40.9697C24.6447 41.199 24.3842 41.3136 24.0846 41.3136C24.0195 41.3136 23.9413 41.3137 23.8762 41.285C24.0064 40.3536 23.7329 39.3504 23.0687 38.6339C22.5347 38.0463 21.8183 37.731 21.0498 37.731C21.0238 37.731 21.0108 37.731 20.9847 37.731C20.9977 36.9142 20.7242 36.0974 20.1511 35.4669C19.6041 34.8793 18.8877 34.564 18.1323 34.564C18.0932 34.564 18.0411 34.564 17.989 34.564C18.0281 33.7185 17.7546 32.8587 17.1554 32.2138C16.4391 31.4256 15.4231 31.1533 14.4984 31.3826L13.9253 30.7664C12.3623 29.0611 11.3204 26.9115 10.9166 24.5469C10.7733 23.6728 10.3826 22.8846 9.79647 22.2541L8.38979 20.7351L16.3479 12.0938L18.3277 14.2434C19.0831 15.0746 20.1251 15.5187 21.1931 15.5187C21.662 15.5187 22.1569 15.4328 22.6128 15.2465C22.8342 15.1605 23.0687 15.0888 23.3031 15.0602L18.3928 20.3911C17.7937 21.0504 17.455 21.9102 17.455 22.8417C17.455 23.7732 17.7806 24.633 18.3928 25.2922C19.018 25.9657 19.8255 26.3097 20.6461 26.3097C21.4666 26.3097 22.2742 25.9657 22.8993 25.2922L25.374 22.6124L26.0383 23.3432L26.0904 23.4005C26.0904 23.4005 26.1034 23.4149 26.1164 23.4292L35.4161 33.5465C35.6245 33.7615 35.7287 34.0625 35.7287 34.3777C35.7287 34.693 35.6115 34.9939 35.4161 35.2088M21.9355 41.8296C21.7011 42.0876 21.3755 42.2308 21.0368 42.2308C20.6982 42.2308 20.3725 42.0876 20.1381 41.8296C19.6432 41.2851 19.6432 40.4108 20.1381 39.8806C20.3856 39.6083 20.7112 39.4794 21.0368 39.4794C21.3624 39.4794 21.6881 39.6083 21.9355 39.8806C22.4305 40.4108 22.4305 41.2851 21.9355 41.8296ZM19.018 38.6625C18.7835 38.9205 18.4579 39.0637 18.1193 39.0637C17.7806 39.0637 17.468 38.9205 17.2206 38.6625C16.7256 38.1323 16.7256 37.2582 17.2206 36.7136C17.468 36.4413 17.7936 36.3123 18.1193 36.3123C18.4449 36.3123 18.7705 36.4413 19.018 36.7136C19.5129 37.2582 19.5129 38.1323 19.018 38.6625ZM16.0223 35.4095C15.5273 35.954 14.7198 35.954 14.2249 35.4095C13.9904 35.1515 13.8472 34.8076 13.8472 34.435C13.8472 34.0624 13.9774 33.7185 14.2249 33.4606C14.4724 33.1883 14.798 33.0593 15.1236 33.0593C15.4492 33.0593 15.7748 33.1883 16.0223 33.4606C16.5172 34.0051 16.5172 34.8793 16.0223 35.4095ZM6.41005 20.4771L2.71101 16.4646L12.3102 6.03196L16.0093 10.0445L6.39701 20.4771H6.41005ZM50.2513 15.0029L40.613 4.52727C40.3004 4.18334 39.8054 4.18334 39.4928 4.52727L34.6737 9.75794C34.5304 9.91558 34.4392 10.1449 34.4392 10.3741C34.4392 10.6034 34.5174 10.8184 34.6737 10.9903L35.1556 11.5062L34.0485 12.71C33.3321 13.4839 32.2251 13.6988 31.2742 13.2402C30.4016 12.8103 29.4117 12.581 28.4479 12.581C27.2887 12.581 26.1686 12.8963 25.1656 13.4982C24.7489 13.3835 24.319 13.3262 23.8892 13.3262C23.264 13.3262 22.6519 13.4409 22.0658 13.6701C21.128 14.0427 20.1251 13.8135 19.4478 13.0683L17.468 10.9187L17.7025 10.6608C17.8458 10.5031 17.9369 10.2738 17.9369 10.0445C17.9369 9.81519 17.8588 9.60026 17.7025 9.44263L12.8833 4.21204C12.5707 3.88244 12.0758 3.88244 11.7632 4.21204L1.03083 15.8627C0.718238 16.1923 0.718238 16.7369 1.03083 17.0808L5.84998 22.3114C5.99325 22.469 6.20165 22.5694 6.41005 22.5694C6.61845 22.5694 6.82683 22.4834 6.9701 22.3114L7.25665 21.9962L8.65028 23.5152C9.00195 23.9021 9.2364 24.375 9.32758 24.9052C9.79647 27.6137 10.9817 30.0786 12.7791 32.0275L13.0396 32.3141C12.5317 32.9017 12.2581 33.6469 12.2581 34.4494C12.2581 35.2519 12.5577 36.0543 13.0917 36.6419C13.6518 37.2438 14.3812 37.5447 15.1106 37.5447C15.1627 37.5447 15.2017 37.5447 15.2538 37.5447C15.2148 38.3902 15.4883 39.2501 16.0874 39.8949C16.6214 40.4825 17.3508 40.7978 18.1062 40.7978C18.1323 40.7978 18.1453 40.7978 18.1714 40.7978C18.1584 41.6146 18.4319 42.4315 19.005 43.062C19.552 43.6496 20.2683 43.9648 21.0238 43.9648C21.7792 43.9648 22.5086 43.6352 23.0426 43.062C23.0947 43.0047 23.1338 42.9617 23.1729 42.9044C23.4594 43.0047 23.746 43.062 24.0455 43.062C24.7619 43.062 25.4261 42.761 25.9341 42.2165C26.2076 41.9299 26.403 41.5859 26.5332 41.2133L26.6114 41.2993C27.1324 41.8582 27.8227 42.1448 28.5 42.1448C29.1773 42.1448 29.8676 41.8582 30.3886 41.2993C30.6621 40.9984 30.8705 40.6401 31.0007 40.2532C31.4696 40.6258 32.0166 40.7978 32.5637 40.7978C33.241 40.7978 33.9313 40.5111 34.4523 39.9522C34.9602 39.4077 35.2338 38.6768 35.2338 37.903C35.2338 37.6737 35.2077 37.4444 35.1556 37.2151C35.6636 37.1005 36.1325 36.8282 36.5102 36.427C37.0181 35.8824 37.2917 35.1516 37.2917 34.3777C37.2917 33.7759 37.1223 33.1882 36.7967 32.701L37.4349 32.0132C39.2454 30.0356 40.4437 27.5421 40.8995 24.805C40.9777 24.3464 41.1861 23.9164 41.5117 23.5725L43.8822 20.993L44.299 21.4516C44.4553 21.6236 44.6506 21.7095 44.859 21.7095C45.0674 21.7095 45.2628 21.6236 45.4191 21.4516L50.2382 16.2209C50.3815 16.0633 50.4727 15.834 50.4727 15.6191C50.4727 15.4041 50.3945 15.1748 50.2382 15.0029" fill="#30461E"/>
</g>
</svg>
