<svg width="56" height="44" viewBox="0 0 56 44" fill="none" xmlns="http://www.w3.org/2000/svg">
<mask id="mask0_3490_40" style="mask-type:luminance" maskUnits="userSpaceOnUse" x="6" y="0" width="51" height="43">
<path d="M18.6128 0.964844L6.14893 21.7469L18.6128 42.5289H43.5363L56.0002 21.7469L43.5363 0.964844H18.6128Z" fill="white"/>
</mask>
<g mask="url(#mask0_3490_40)">
<path d="M56.0002 0.964844H6.14893V42.5289H56.0002V0.964844Z" fill="#BED6AA"/>
</g>
<mask id="mask1_3490_40" style="mask-type:luminance" maskUnits="userSpaceOnUse" x="0" y="0" width="56" height="44">
<path d="M55.9982 0.964844H0.0441895V43.9648H55.9982V0.964844Z" fill="white"/>
</mask>
<g mask="url(#mask1_3490_40)">
<path d="M21.1865 29.1065C21.0244 29.8316 20.6376 30.5962 19.702 30.5962H13.0779V32.2047H19.702C22.1596 32.2047 22.8083 29.6602 22.8083 28.3022C22.8083 27.854 22.4715 27.498 22.0473 27.498H7.40179C7.20219 27.498 7.0026 27.5771 6.86538 27.7353L-0.295166 35.3029L0.777652 36.4368L7.71366 29.1065H21.1865Z" fill="#30461E"/>
<path d="M22.5954 36.9252L29.6312 29.4894C30.6292 28.4347 31.041 27.2086 30.8538 25.9297C30.6542 24.5718 29.8683 23.6489 29.6312 23.3984C29.3318 23.082 28.8453 23.082 28.5584 23.3984L23.1568 29.1071L24.2297 30.2409L29.02 25.1782C29.6188 26.1934 29.4317 27.5514 28.5459 28.3556L21.7347 35.554H9.74635C9.54676 35.554 9.34717 35.6331 9.20994 35.7913L4.98096 40.2607L6.05385 41.3945L10.0582 37.1625H22.0466C22.2462 37.1625 22.4458 37.0834 22.583 36.9252" fill="#30461E"/>
<path d="M18.5294 3.96484C8.08792 3.96484 -0.39502 12.9431 -0.39502 23.9648V24.1494H1.12695V23.9648C1.12695 13.8264 8.93621 5.57324 18.5294 5.57324C28.1225 5.57324 35.9317 13.8264 35.9317 23.9648C35.9317 34.1033 28.1225 42.3564 18.5294 42.3564H18.3547V43.9648H18.5294C28.9708 43.9648 37.4537 34.9866 37.4537 23.9648C37.4537 12.9431 28.9583 3.96484 18.5294 3.96484Z" fill="#30461E"/>
<path d="M14.2634 23.1609V24.7693H17.3697C17.5693 24.7693 17.7689 24.6902 17.9061 24.532L23.6445 18.4805V20.4318H25.1665V16.5293C25.1665 16.081 24.8296 15.7251 24.4054 15.7251H20.1266V17.3335H22.5592L17.0453 23.1609H14.251H14.2634Z" fill="#30461E"/>
<path d="M4.88222 26.523L6.54132 24.7695H11.0947V23.1611H6.22945C6.02985 23.1611 5.83026 23.2534 5.69304 23.3984L3.80933 25.3892L4.88222 26.523Z" fill="#30461E"/>
<path d="M17.9069 7.66992C11.657 7.66992 6.21795 11.902 4.3592 18.2039L4.30933 18.3885L5.76886 18.8763L5.81881 18.6917C7.47796 13.0621 12.3307 9.27832 17.9069 9.27832H18.1315V7.66992H17.9069Z" fill="#30461E"/>
</g>
</svg>
