<svg width="57" height="44" viewBox="0 0 57 44" fill="none" xmlns="http://www.w3.org/2000/svg">
<mask id="mask0_3490_25" style="mask-type:luminance" maskUnits="userSpaceOnUse" x="7" y="0" width="50" height="43">
<path d="M19.5752 0.964844L7.09888 21.7469L19.5752 42.5289H44.5235L56.9998 21.7469L44.5235 0.964844H19.5752Z" fill="white"/>
</mask>
<g mask="url(#mask0_3490_25)">
<path d="M56.9998 0.964844H7.09888V42.5289H56.9998V0.964844Z" fill="#BED6AA"/>
</g>
<mask id="mask1_3490_25" style="mask-type:luminance" maskUnits="userSpaceOnUse" x="0" y="0" width="57" height="44">
<path d="M56.9993 0.964844H0.989502V43.9648H56.9993V0.964844Z" fill="white"/>
</mask>
<g mask="url(#mask1_3490_25)">
<path d="M23.368 11.6158L23.0937 10.8383C22.9939 10.5485 22.8817 10.2586 22.7446 9.96871C23.4054 10.1664 24.0537 10.4035 24.6896 10.6934L23.3555 11.6158H23.368ZM15.912 14.0008L14.553 20.1807C14.3535 20.0226 14.1167 19.904 13.8548 19.8513C13.3935 19.7459 12.9197 19.8513 12.5332 20.128L2.95773 26.835C2.94526 26.5056 2.93277 26.1894 2.93277 25.8599C2.93277 21.8805 4.29183 18.0461 6.74804 15.0549C9.04217 12.2615 12.1966 10.3377 15.6253 9.65248C16.1365 11.036 16.2362 12.5777 15.9245 14.014M10.8126 26.5714C10.6381 26.69 10.5259 26.8745 10.4885 27.0854C10.4511 27.2962 10.4885 27.507 10.6007 27.6915L16.922 37.6532L12.209 40.9474C7.45869 38.7205 4.00504 34.0031 3.14474 28.6138L8.71798 24.7267L9.2915 25.6228C9.51593 25.9785 10.0146 26.0839 10.3388 25.8467C10.5009 25.7281 10.6256 25.5437 10.663 25.3328C10.7004 25.122 10.663 24.9112 10.5508 24.7267L9.98971 23.8307L13.381 21.472C13.381 21.472 13.5057 21.4194 13.568 21.4325C13.6304 21.4457 13.6927 21.4852 13.7301 21.5379L21.5851 34.0691C21.5851 34.0691 21.6349 34.2009 21.6225 34.2667C21.61 34.3326 21.5726 34.3985 21.5102 34.438L18.1937 36.7572L11.8599 26.7823C11.7477 26.5978 11.5732 26.4792 11.3737 26.4397C11.1742 26.4002 10.9747 26.4397 10.8002 26.5583M25.4626 30.8407C24.4776 30.6694 23.4926 30.9067 22.6573 31.4865L22.0339 31.9212L15.7375 21.8805L17.3833 14.3697C17.8197 12.3932 17.5953 10.2849 16.7599 8.45334C16.7599 8.42699 16.7349 8.40065 16.7349 8.38748C16.5729 8.04488 16.3983 7.70227 16.1863 7.38603C16.0243 7.12249 15.9744 6.81946 16.0243 6.51639C16.0866 6.21333 16.2487 5.94979 16.4981 5.77849C16.922 5.47543 17.4955 5.54128 17.8695 5.91023L18.9792 7.05661C20.1637 8.26887 21.0988 9.7842 21.6723 11.4181L22.2833 13.1707V13.2101C22.2833 13.2101 22.3331 13.276 22.3456 13.3024C22.4578 13.4869 22.6324 13.6055 22.8319 13.645C23.0313 13.6845 23.2308 13.6451 23.4054 13.5265L29.6269 9.17805C29.9262 8.96722 30.2878 8.8882 30.6493 8.96726C31.0109 9.04632 31.3101 9.27029 31.5096 9.58653C31.7091 9.90277 31.7839 10.2849 31.7091 10.667C31.6343 11.0492 31.4348 11.3654 31.1231 11.5762L29.3651 12.8017H29.3402C29.016 13.0652 28.9287 13.5528 29.1531 13.9086C29.39 14.2775 29.8638 14.3829 30.2129 14.1325L31.4099 13.2893C31.7091 13.0785 32.0832 12.9994 32.4323 13.0784C32.7938 13.1575 33.0931 13.3683 33.2926 13.6978C33.4921 14.0272 33.5669 14.3961 33.4921 14.7782C33.4172 15.1603 33.2178 15.4766 32.9061 15.6874L31.1605 16.9129C30.986 17.0315 30.8738 17.2159 30.8363 17.4267C30.7989 17.6376 30.8363 17.8484 30.9486 18.0329C31.173 18.3887 31.6593 18.4941 31.9959 18.2569L33.2053 17.4136C33.8287 16.9787 34.6765 17.1632 35.088 17.822C35.4994 18.4809 35.3249 19.3769 34.7015 19.8117L32.9559 21.0372C32.6068 21.2744 32.5071 21.7751 32.744 22.1441C32.9684 22.4998 33.4546 22.6052 33.7913 22.368L35.0007 21.5248C35.2999 21.314 35.6615 21.2349 36.0231 21.3139C36.3847 21.393 36.6839 21.6038 36.8834 21.9333C37.0829 22.2495 37.1577 22.6447 37.0829 23.0137C37.0081 23.3958 36.8086 23.7121 36.4969 23.9229L27.1458 30.4586C26.6346 30.8144 26.0237 30.9593 25.4252 30.8539M38.1427 21.0372C37.7686 20.4442 37.22 20.0094 36.5842 19.8117C36.9707 18.8762 36.8834 17.7825 36.3348 16.926C35.9607 16.3331 35.4121 15.8982 34.7763 15.7006C34.8511 15.5029 34.9134 15.3053 34.9508 15.0945C35.1005 14.3039 34.9508 13.4869 34.5269 12.8017C34.1529 12.2087 33.6043 11.7739 32.9684 11.5762C33.3549 10.6407 33.2676 9.54701 32.7315 8.69052C31.8588 7.29378 30.0633 6.9117 28.7417 7.83407L26.1359 9.65248C24.7395 8.91458 23.2433 8.38749 21.7097 8.07124C21.211 7.28064 20.625 6.54269 19.9891 5.88385L18.8795 4.73747C18.0067 3.84145 16.6352 3.7097 15.6253 4.42124C15.0393 4.82973 14.6528 5.44906 14.5156 6.17378C14.3785 6.85898 14.5032 7.57054 14.8398 8.16349C11.2615 8.99363 7.96988 11.0492 5.55107 14.0008C2.85797 17.2818 1.36182 21.4984 1.36182 25.8599C1.36182 26.6901 1.41169 27.5334 1.52391 28.3504C2.3468 34.6884 6.33657 40.1436 11.9472 42.5945C14.0294 43.5037 16.2238 43.9648 18.493 43.9648C22.0838 43.9648 25.525 42.8053 28.4425 40.6048C31.2977 38.457 33.4297 35.479 34.6142 32.0135C34.6765 31.8158 34.6765 31.5919 34.5893 31.4074C34.502 31.2097 34.3524 31.0647 34.1653 30.9988C33.9783 30.933 33.7664 30.933 33.5793 31.0252C33.3923 31.1175 33.2552 31.2756 33.1928 31.4865C32.1081 34.6489 30.1631 37.3501 27.5697 39.3135C24.914 41.3163 21.7721 42.3836 18.5054 42.3836C16.9345 42.3836 15.4009 42.1464 13.9296 41.6589L22.3082 35.7952C22.6947 35.5185 22.969 35.0969 23.0688 34.6093C23.156 34.1482 23.0687 33.6738 22.8568 33.2785L23.4802 32.8436C23.9914 32.4878 24.6023 32.3429 25.2008 32.4483C26.1858 32.6196 27.1707 32.3825 28.0061 31.8027L34.0531 27.5729C34.0157 28.0209 33.9534 28.4689 33.8786 28.9038C33.8412 29.1146 33.8786 29.3255 34.0033 29.5099C34.1155 29.6812 34.29 29.813 34.4895 29.8393C34.901 29.9184 35.2999 29.6285 35.3747 29.1936C35.5368 28.2976 35.6241 27.3753 35.649 26.4529L37.3696 25.2538C38.0055 24.8058 38.4419 24.1206 38.604 23.3168C38.7536 22.5262 38.604 21.7092 38.1801 21.0372" fill="#30461E"/>
</g>
</svg>
