<svg width="32" height="33" viewBox="0 0 32 33" fill="none" xmlns="http://www.w3.org/2000/svg">
<path fill-rule="evenodd" clip-rule="evenodd" d="M14.5724 5.30286C14.5723 5.30318 14.5726 5.30254 14.5724 5.30286L12.2285 10.0294C11.9797 10.5394 11.5635 10.9762 11.1349 11.2966C10.7054 11.6177 10.1709 11.8911 9.62001 11.9854L9.61647 11.986L5.36411 12.6983C4.18161 12.897 3.79307 13.3664 3.70199 13.654C3.6097 13.9454 3.65971 14.5611 4.50855 15.417L7.81486 18.7506C8.24385 19.1831 8.53045 19.7611 8.68842 20.3175C8.8466 20.8746 8.9055 21.5145 8.77427 22.1048L8.77281 22.1114L7.82623 26.2381C7.47297 27.7772 7.82975 28.3448 8.01408 28.4804C8.19335 28.6123 8.82975 28.7857 10.1777 27.9792L14.1713 25.5955C14.7265 25.2698 15.3918 25.1355 16.0022 25.1355C16.6116 25.1355 17.2771 25.2694 17.8296 25.5994C17.8294 25.5993 17.8297 25.5995 17.8296 25.5994L21.815 27.9781C21.8148 27.978 21.8152 27.9783 21.815 27.9781C23.1741 28.7874 23.8097 28.6146 23.9857 28.4852C24.1658 28.3528 24.5226 27.7886 24.168 26.2373L23.2201 22.1048C23.0889 21.5145 23.1478 20.8746 23.306 20.3175C23.4639 19.7611 23.7505 19.1831 24.1795 18.7506L27.4858 15.417L27.4882 15.4145C28.3427 14.5589 28.3901 13.9449 28.298 13.6558C28.206 13.3674 27.8138 12.8972 26.6303 12.6983L22.3779 11.986C21.8214 11.8925 21.2827 11.6201 20.8497 11.298C20.4182 10.9769 20.0015 10.5397 19.7525 10.0294L17.4068 5.29913C16.8438 4.15785 16.2728 3.93115 15.9955 3.93115C15.7165 3.93115 15.1419 4.16094 14.5724 5.30286ZM19.2001 4.41371C18.4966 2.98786 17.3946 1.93115 15.9955 1.93115C14.5981 1.93115 13.4927 2.98592 12.7825 4.41059L12.7816 4.41245L10.4352 9.14404L10.4316 9.15137C10.3602 9.29829 10.1909 9.50521 9.93737 9.69473C9.68434 9.88389 9.43963 9.98682 9.28384 10.0138C9.28339 10.0139 9.28294 10.014 9.28249 10.0141L5.03317 10.7259C3.49597 10.9842 2.21086 11.7381 1.79533 13.0502C1.38101 14.3584 1.99093 15.7187 3.08853 16.8253L6.39483 20.159C6.52578 20.291 6.67247 20.5397 6.76446 20.8637C6.85584 21.1856 6.86395 21.4787 6.82251 21.6681C6.82232 21.669 6.82212 21.6699 6.82193 21.6708L5.87688 25.7908C5.87687 25.7908 5.87689 25.7907 5.87688 25.7908C5.48359 27.5045 5.62005 29.2021 6.82888 30.0914C8.04279 30.9845 9.69947 30.596 11.2046 29.6954L15.1833 27.3206C15.1842 27.3201 15.185 27.3196 15.1859 27.3191C15.3642 27.2154 15.6577 27.1355 16.0022 27.1355C16.3492 27.1355 16.6367 27.2165 16.8041 27.3165L20.7908 29.696C22.2976 30.5935 23.9564 30.9889 25.1702 30.0967C26.3798 29.2076 26.5097 27.5068 26.1177 25.7917L25.1725 21.6708C25.1723 21.6699 25.1721 21.669 25.1719 21.6681C25.1304 21.4787 25.1385 21.1856 25.2299 20.8637C25.3219 20.5397 25.4686 20.291 25.5996 20.159L28.9035 16.8278C28.9038 16.8274 28.9042 16.827 28.9045 16.8267C30.0092 15.72 30.6211 14.3585 30.2035 13.0484C29.7855 11.7371 28.4979 10.9841 26.9617 10.726L22.7089 10.0136C22.5455 9.9861 22.2971 9.88201 22.0435 9.69334C21.7896 9.50446 21.6207 9.29799 21.5495 9.15137L19.2001 4.41371C19.2002 4.41391 19.2 4.4135 19.2001 4.41371Z" fill="#6D6E71"/>
</svg>
