<svg width="32" height="33" viewBox="0 0 32 33" fill="none" xmlns="http://www.w3.org/2000/svg">
<path d="M15.9948 1.93115C17.3938 1.93115 18.4958 2.98786 19.1994 4.41371L21.5488 9.15137C21.62 9.29799 21.7889 9.50446 22.0428 9.69334C22.2964 9.88201 22.5447 9.9861 22.7081 10.0136L26.961 10.726C28.4972 10.9841 29.7847 11.7371 30.2028 13.0484C30.6204 14.3585 30.0085 15.72 28.9038 16.8267L28.9027 16.8278L25.5988 20.159C25.4679 20.291 25.3212 20.5397 25.2292 20.8637C25.1378 21.1856 25.1297 21.4787 25.1711 21.6681L25.1717 21.6708L26.117 25.7917C26.509 27.5068 26.3791 29.2076 25.1694 30.0967C23.9556 30.9889 22.2969 30.5935 20.79 29.696L16.8034 27.3165C16.636 27.2165 16.3485 27.1355 16.0015 27.1355C15.657 27.1355 15.3634 27.2154 15.1851 27.3191L15.1826 27.3206L11.2038 29.6954C9.69873 30.596 8.04205 30.9845 6.82814 30.0914C5.61932 29.2021 5.48286 27.5045 5.87615 25.7908L6.8212 21.6708L6.82178 21.6681C6.86321 21.4787 6.8551 21.1856 6.76373 20.8637C6.67174 20.5397 6.52505 20.291 6.3941 20.159L3.0878 16.8253C1.9902 15.7187 1.38028 14.3584 1.7946 13.0502C2.21013 11.7381 3.49524 10.9842 5.03244 10.7259L9.28176 10.0141L9.28311 10.0138C9.43889 9.98682 9.68361 9.88389 9.93664 9.69473C10.1901 9.50521 10.3595 9.29829 10.4308 9.15137L10.4344 9.14404L12.7808 4.41245L12.7818 4.41059C13.4919 2.98592 14.5974 1.93115 15.9948 1.93115Z" fill="url(#paint0_linear_4206_8620)"/>
<defs>
<linearGradient id="paint0_linear_4206_8620" x1="15.8833" y1="28.7237" x2="15.8833" y2="0.0551264" gradientUnits="userSpaceOnUse">
<stop stop-color="#386732"/>
<stop offset="0.18" stop-color="#467836"/>
<stop offset="0.5" stop-color="#5D933C"/>
<stop offset="0.78" stop-color="#6BA440"/>
<stop offset="1" stop-color="#70AA42"/>
</linearGradient>
</defs>
</svg>
