<svg width="101" height="85" viewBox="0 0 101 85" fill="none" xmlns="http://www.w3.org/2000/svg">
<path d="M53.7295 59.1791C51.8559 61.0863 49.447 62.0231 46.5695 62.0231C43.6921 62.0231 41.2161 61.1197 39.4428 59.2795C37.6695 57.4393 36.7661 54.9968 36.7661 51.952C36.7661 49.8776 37.2345 47.8032 38.1713 45.7287C39.1082 43.6543 40.7476 41.0779 43.0897 37.9663L47.841 31.7764H50.5511C44.5285 39.5723 42.9894 41.4794 41.4837 44.0892C43.3574 43.4869 45.2311 43.1523 46.971 43.1523C49.7815 43.1523 52.0568 43.9553 53.897 45.6617C55.7038 47.3012 56.6406 49.5096 56.6406 52.2197C56.6406 54.9299 55.6702 57.3724 53.763 59.2126L53.7295 59.1791ZM46.6363 60.0156C51.0863 60.0156 54.3653 56.7032 54.3653 52.3201C54.3653 47.937 51.1532 44.9926 46.2348 44.9926C44.4949 44.9926 42.2868 45.4276 40.48 46.1302C39.5097 48.1712 39.0748 49.9445 39.0748 51.8516C39.0748 56.8705 41.9856 59.9821 46.6698 59.9821L46.6363 60.0156Z" fill="#3980B3"/>
<path d="M18.2974 10.8982L14.7843 5.64514L24.4204 2.5L31.3462 5.4109L46.9381 18.4933L58.6487 19.999L61.1246 22.1069H63.2325L66.9799 26.1889V28.2967L71.1957 30.4046V35.8919L76.2481 41.145H79.2927L82.6721 49.2085L92.1745 50.9484L95.8214 50.0115L99 53.8593L95.8214 63.0939L72.4672 71.1574L65.2067 73.7338L59.1172 80.3921L55.6038 77.9497L48.678 78.05L40.2464 76.7786L39.4434 82.5H37.9042L30.8779 72.0944L26.2941 63.4619L20.3048 58.6774L18.5316 54.1269L20.1711 48.7401L14.7843 41.7137L5.75035 23.7129L2.23721 22.2073C2.23721 22.2073 3.74285 16.2516 4.1109 16.0174C4.47894 15.7832 10.6687 15.7831 10.6687 15.7831L12.5424 13.3406L18.2974 10.8982Z" stroke="#3980B3" stroke-width="4" stroke-linejoin="round"/>
</svg>
