<svg width="405" height="404" viewBox="0 0 405 404" fill="none" xmlns="http://www.w3.org/2000/svg">
<g clip-path="url(#clip0_2_64)">
<path d="M63.8895 62.8892C91.3006 35.4781 126.224 16.8109 164.245 9.24821C202.265 1.6855 241.674 5.56695 277.488 20.4017C313.303 35.2365 343.914 60.3583 365.45 92.5903C386.987 124.822 398.482 162.717 398.482 201.482C398.482 240.247 386.987 278.142 365.45 310.374C343.914 342.606 313.303 367.728 277.488 382.562C241.674 397.397 202.265 401.279 164.245 393.716C126.224 386.153 91.3006 367.486 63.8895 340.075L202.482 201.482L63.8895 62.8892Z" fill="#3775A3"/>
<path d="M63.8894 340.075C34.6215 310.807 15.3705 273.025 8.89546 232.143L202.482 201.482L63.8894 340.075Z" fill="#639AC2"/>
<path d="M6.59607 194.79C8.15322 149.206 25.5589 105.593 55.8146 71.4631L202.482 201.481L6.59607 194.79Z" fill="#A5C5DC"/>
<path d="M9.31227 234.668C7.08628 221.711 6.16963 208.563 6.57619 195.422L202.482 201.483L9.31227 234.668Z" fill="#7CABCC"/>
<path d="M55.7156 71.5771C58.4365 68.5029 61.2534 65.5151 64.162 62.6178L202.482 201.483L55.7156 71.5771Z" fill="#C3D8E7"/>
</g>
<defs>
<clipPath id="clip0_2_64">
<rect width="554.372" height="554.372" fill="white" transform="translate(-74.7036 -75.7031)"/>
</clipPath>
</defs>
</svg>
