<svg width="189" height="188" viewBox="0 0 189 188" fill="none" xmlns="http://www.w3.org/2000/svg">
<path d="M94.4424 -0.00149947C146.325 -0.00150174 188.385 42.0579 188.385 93.9407C188.385 145.824 146.325 187.883 94.4424 187.883C42.5596 187.883 0.500181 145.824 0.500179 93.9407C0.500177 42.0579 42.5596 -0.0014972 94.4424 -0.00149947ZM94.4424 150.306C125.572 150.306 150.808 125.07 150.808 93.9407C150.808 62.811 125.572 37.5754 94.4424 37.5754C63.3127 37.5754 38.0771 62.811 38.0771 93.9407C38.0771 125.07 63.3127 150.306 94.4424 150.306Z" fill="#6591BD" fill-opacity="0.3"/>
<path d="M94.4427 2.43272C116.726 2.43272 138.243 10.5635 154.958 25.2997C171.673 40.0358 182.437 60.3646 185.23 82.4722C188.022 104.58 182.653 126.947 170.128 145.377C157.603 163.807 138.783 177.033 117.2 182.575C95.6168 188.116 72.7532 185.592 52.8987 175.476C33.0442 165.36 17.5633 148.346 9.36025 127.628C1.15725 106.909 0.795938 83.9097 8.34411 62.9438C15.8923 41.978 30.8312 24.4867 50.3581 13.7517L65.7877 41.818C53.0952 48.7958 43.3849 60.1651 38.4786 73.7929C33.5723 87.4207 33.8072 102.37 39.1391 115.837C44.4711 129.304 54.5337 140.363 67.4391 146.939C80.3445 153.514 95.2059 155.155 109.235 151.553C123.264 147.951 135.497 139.354 143.638 127.374C151.779 115.395 155.27 100.856 153.454 86.4863C151.639 72.1164 144.643 58.9027 133.778 49.3242C122.913 39.7457 108.927 34.4607 94.4427 34.4607L94.4427 2.43272Z" fill="#6592BE"/>
</svg>
