<svg width="189" height="188" viewBox="0 0 189 188" fill="none" xmlns="http://www.w3.org/2000/svg">
<path d="M94.4424 -0.00149947C146.325 -0.00150174 188.385 42.0579 188.385 93.9407C188.385 145.824 146.325 187.883 94.4424 187.883C42.5596 187.883 0.500181 145.824 0.500179 93.9407C0.500177 42.0579 42.5596 -0.0014972 94.4424 -0.00149947ZM94.4424 150.306C125.572 150.306 150.808 125.07 150.808 93.9407C150.808 62.811 125.572 37.5754 94.4424 37.5754C63.3127 37.5754 38.0771 62.811 38.0771 93.9407C38.0771 125.07 63.3127 150.306 94.4424 150.306Z" fill="#5865A6" fill-opacity="0.3"/>
<path d="M94.4427 2.43272C114.259 2.43272 133.54 8.86524 149.386 20.7633C165.233 32.6613 176.789 49.3818 182.318 68.4112C187.846 87.4405 187.048 107.75 180.044 126.287C173.039 144.824 160.207 160.586 143.475 171.204C126.744 181.822 107.018 186.722 87.263 185.168C67.5079 183.613 48.7914 175.687 33.927 162.583C19.0627 149.478 8.85395 131.902 4.83549 112.498C0.817024 93.0935 3.20603 72.909 11.6433 54.9788L40.6231 68.6156C35.1389 80.2703 33.586 93.3902 36.198 106.003C38.81 118.616 45.4457 130.04 55.1075 138.558C64.7693 147.076 76.9351 152.228 89.7759 153.238C102.617 154.249 115.439 151.064 126.314 144.162C137.189 137.261 145.53 127.015 150.083 114.966C154.636 102.917 155.155 89.7158 151.561 77.3467C147.968 64.9776 140.456 54.1093 130.156 46.3756C119.856 38.6418 107.323 34.4607 94.4427 34.4607L94.4427 2.43272Z" fill="#5865A7"/>
</svg>
