<svg width="189" height="188" viewBox="0 0 189 188" fill="none" xmlns="http://www.w3.org/2000/svg">
<path d="M94.4424 -0.00148421C146.325 -0.00148648 188.385 42.0579 188.385 93.9407C188.385 145.824 146.325 187.883 94.4424 187.883C42.5596 187.883 0.500181 145.824 0.500179 93.9408C0.500177 42.0579 42.5596 -0.00148194 94.4424 -0.00148421ZM94.4424 150.306C125.572 150.306 150.808 125.07 150.808 93.9408C150.808 62.811 125.572 37.5754 94.4424 37.5754C63.3127 37.5754 38.0771 62.811 38.0771 93.9408C38.0771 125.07 63.3127 150.306 94.4424 150.306Z" fill="#E7A032" fill-opacity="0.3"/>
<path d="M94.4427 2.4327C110.1 2.4327 125.495 6.45002 139.156 14.1004C152.816 21.7508 164.286 32.7783 172.467 46.1282C180.647 59.478 185.266 74.7036 185.881 90.3486C186.495 105.994 183.086 121.535 175.977 135.485C168.869 149.436 158.3 161.329 145.282 170.028C132.264 178.726 117.231 183.939 101.622 185.168C86.0136 186.396 70.3506 183.599 56.1318 177.044C41.9129 170.489 29.6138 160.395 20.4108 147.729L46.322 128.903C52.3039 137.136 60.2983 143.697 69.5406 147.958C78.7829 152.219 88.9638 154.037 99.1095 153.238C109.255 152.44 119.026 149.052 127.488 143.397C135.95 137.743 142.82 130.013 147.44 120.945C152.061 111.877 154.277 101.775 153.877 91.606C153.478 81.4368 150.476 71.5401 145.158 62.8627C139.841 54.1853 132.386 47.0174 123.506 42.0447C114.627 37.0719 104.62 34.4607 94.4427 34.4607L94.4427 2.4327Z" fill="#E7A032"/>
</svg>
