<svg width="189" height="188" viewBox="0 0 189 188" fill="none" xmlns="http://www.w3.org/2000/svg">
<path d="M94.4424 -0.00148421C146.325 -0.00148648 188.385 42.0579 188.385 93.9407C188.385 145.824 146.325 187.883 94.4424 187.883C42.5596 187.883 0.500181 145.824 0.500179 93.9408C0.500177 42.0579 42.5596 -0.00148194 94.4424 -0.00148421ZM94.4424 150.306C125.572 150.306 150.808 125.07 150.808 93.9408C150.808 62.811 125.572 37.5754 94.4424 37.5754C63.3127 37.5754 38.0771 62.811 38.0771 93.9408C38.0771 125.07 63.3127 150.306 94.4424 150.306Z" fill="#9B999B" fill-opacity="0.3"/>
<path d="M94.4427 2.4327C114.997 2.4327 134.953 9.35284 151.095 22.078C167.237 34.8032 178.624 52.5923 183.423 72.579C188.221 92.5656 186.151 113.586 177.546 132.252C168.94 150.919 154.301 166.144 135.987 175.476C117.672 184.807 96.7499 187.701 76.5903 183.691C56.4307 179.681 38.2082 169.001 24.8591 153.371C11.51 137.741 3.81172 118.073 3.00475 97.5338C2.19778 76.9951 8.3291 56.7829 20.4108 40.1539L46.3219 58.9794C38.4689 69.7883 34.4835 82.9263 35.008 96.2764C35.5326 109.627 40.5364 122.411 49.2134 132.571C57.8903 142.73 69.7349 149.672 82.8386 152.279C95.9424 154.885 109.542 153.004 121.446 146.939C133.351 140.873 142.866 130.976 148.46 118.843C154.053 106.71 155.399 93.047 152.28 80.0557C149.161 67.0644 141.759 55.5015 131.267 47.2301C120.775 38.9588 107.803 34.4607 94.4427 34.4607L94.4427 2.4327Z" fill="#9C9A9C"/>
</svg>
