<svg width="335" height="334" viewBox="0 0 335 334" fill="none" xmlns="http://www.w3.org/2000/svg">
<path opacity="0.3" d="M167.467 -0.0017773C259.467 -0.00178132 334.047 74.5786 334.047 166.578C334.047 258.578 259.467 333.158 167.467 333.158C75.4676 333.158 0.887219 258.578 0.887215 166.578C0.887211 74.5786 75.4676 -0.00177328 167.467 -0.0017773ZM167.467 266.526C222.667 266.526 267.415 221.778 267.415 166.578C267.415 111.378 222.667 66.6302 167.467 66.6302C112.267 66.6302 67.5192 111.378 67.5192 166.578C67.5192 221.778 112.267 266.526 167.467 266.526Z" fill="url(#paint0_linear_9_12)"/>
<path d="M167.467 4.31362C206.541 4.31362 244.303 18.4135 273.815 44.0227C303.327 69.6319 322.607 105.03 328.113 143.715C333.618 182.399 324.98 221.771 303.785 254.597C282.589 287.423 250.26 311.498 212.738 322.4C175.215 333.301 135.019 330.296 99.5336 313.937C64.0487 297.579 35.6585 268.965 19.5789 233.352C3.49928 197.74 0.810332 157.521 12.006 120.085C23.2018 82.6494 47.5301 50.5107 80.5216 29.5737L110.953 77.5252C89.5081 91.1343 73.6947 112.024 66.4175 136.358C59.1402 160.691 60.8881 186.833 71.3398 209.981C81.7915 233.129 100.245 251.728 123.31 262.362C146.376 272.995 172.503 274.948 196.893 267.862C221.283 260.776 242.296 245.127 256.074 223.79C269.851 202.454 275.466 176.862 271.887 151.717C268.308 126.572 255.776 103.563 236.594 86.9171C217.411 70.2711 192.865 61.1062 167.467 61.1062L167.467 4.31362Z" fill="url(#paint1_linear_9_12)"/>
<defs>
<linearGradient id="paint0_linear_9_12" x1="312.246" y1="167.928" x2="-20.9143" y2="167.928" gradientUnits="userSpaceOnUse">
<stop stop-color="#386732"/>
<stop offset="0.18" stop-color="#467836"/>
<stop offset="0.5" stop-color="#5D933C"/>
<stop offset="0.78" stop-color="#6BA440"/>
<stop offset="1" stop-color="#70AA42"/>
</linearGradient>
<linearGradient id="paint1_linear_9_12" x1="308.495" y1="167.893" x2="-16.0339" y2="167.893" gradientUnits="userSpaceOnUse">
<stop stop-color="#386732"/>
<stop offset="0.18" stop-color="#467836"/>
<stop offset="0.5" stop-color="#5D933C"/>
<stop offset="0.78" stop-color="#6BA440"/>
<stop offset="1" stop-color="#70AA42"/>
</linearGradient>
</defs>
</svg>
