<svg width="402" height="398" viewBox="0 0 402 398" fill="none" xmlns="http://www.w3.org/2000/svg">
<path d="M251.866 9.81526C220.984 1.54031 188.546 0.945788 157.381 8.08353C126.216 15.2213 97.2699 29.8746 73.0673 50.7657C48.8646 71.6568 30.1401 98.1515 18.5262 127.939C6.91236 157.727 2.76187 189.904 6.43663 221.664C10.1114 253.424 21.4998 283.803 39.609 310.152C57.7181 336.501 81.998 358.02 110.332 372.833C138.665 387.645 170.192 395.301 202.164 395.134C234.135 394.967 265.581 386.981 293.758 371.872L201.138 199.137L251.866 9.81526Z" fill="#3775A3"/>
<path d="M293.598 371.958C326.392 354.412 353.518 327.898 371.806 295.512L201.138 199.137L293.598 371.958Z" fill="#639AC2"/>
<path d="M397.116 202.03C397.512 175.257 392.417 148.687 382.147 123.959C371.877 99.2312 356.65 76.8698 337.404 58.2544L201.138 199.136L397.116 202.03Z" fill="#A5C5DC"/>
<path d="M371.432 296.173C387.777 267.489 396.611 235.14 397.115 202.13L201.138 199.138L371.432 296.173Z" fill="#7CABCC"/>
<path d="M337.125 57.987C313.349 35.0814 284.173 18.5526 252.304 9.93416L201.138 199.138L337.125 57.987Z" fill="#C3D8E7"/>
</svg>
