<svg width="324" height="331" viewBox="0 0 324 331" fill="none" xmlns="http://www.w3.org/2000/svg">
<path d="M122.676 13.5844C152.146 5.68786 183.283 6.58478 212.25 16.1647C241.217 25.7446 266.749 43.5889 285.7 67.4994C304.651 91.4099 316.194 120.342 318.906 150.731C321.618 181.12 315.381 211.639 300.964 238.528L163.149 164.632L122.676 13.5844Z" fill="#3775A3"/>
<path d="M301.165 238.152C284.057 270.269 256.283 295.414 222.629 309.255C188.975 323.096 151.547 324.767 116.794 313.98L163.149 164.633L301.165 238.152Z" fill="#639AC2"/>
<path d="M65.179 286.512C45.2974 270.531 29.627 249.929 19.5343 226.502C9.44165 203.075 5.2331 177.535 7.27564 152.109C9.31819 126.682 17.5498 102.141 31.2527 80.6261C44.9557 59.1109 63.7139 41.2744 85.8917 28.6719L163.149 164.63L65.179 286.512Z" fill="#A5C5DC"/>
<path d="M116.933 314.024C98.104 308.199 80.5461 298.867 65.1839 286.52L163.149 164.633L116.933 314.024Z" fill="#7CABCC"/>
<path d="M85.3132 29.0072C99.5454 20.8395 114.975 14.9629 131.034 11.5929L163.148 164.636L85.3132 29.0072Z" fill="#C3D8E7"/>
</svg>
