<svg width="324" height="331" viewBox="0 0 324 331" fill="none" xmlns="http://www.w3.org/2000/svg">
<path d="M131.989 11.4893C161.068 5.57639 191.23 8.05936 218.95 18.6482C246.671 29.2371 270.806 47.4947 288.538 71.2886C306.269 95.0825 316.864 123.43 319.086 153.021C321.308 182.612 315.064 212.224 301.085 238.399L163.149 164.729L131.989 11.4893Z" fill="#3775A3"/>
<path d="M301.165 238.25C282.466 273.354 251.093 300.013 213.431 312.802C175.769 325.591 134.65 323.548 98.4411 307.09L163.149 164.73L301.165 238.25Z" fill="#639AC2"/>
<path d="M58.2781 280.726C41.8176 265.844 28.7129 247.629 19.8348 227.293C10.9566 206.956 6.50844 184.962 6.78581 162.773C7.06318 140.585 12.0598 118.709 21.4435 98.6007C30.8272 78.4921 44.3832 60.6108 61.2105 46.1453L163.15 164.728L58.2781 280.726Z" fill="#A5C5DC"/>
<path d="M98.5794 307.154C83.6342 300.378 69.8486 291.292 57.7286 280.23L163.149 164.731L98.5794 307.154Z" fill="#7CABCC"/>
<path d="M58.0035 48.9836C79.9684 29.0312 107.157 15.7403 136.394 10.6633L163.148 164.734L58.0035 48.9836Z" fill="#C3D8E7"/>
</svg>
