<svg width="403" height="405" viewBox="0 0 403 405" fill="none" xmlns="http://www.w3.org/2000/svg">
<path d="M249.323 16.1833C208.993 5.37699 166.245 7.95412 127.506 23.5273C88.7662 39.1004 56.1288 66.828 34.4999 102.542C12.871 138.255 3.41953 180.025 7.56638 221.571C11.7132 263.117 29.2343 302.194 57.4955 332.928L199.42 202.421L249.323 16.1833Z" fill="#3775A3"/>
<path d="M57.3728 332.794C84.9049 362.791 121.227 383.303 161.133 391.388C201.039 399.474 242.48 394.719 279.517 377.804L199.421 202.421L57.3728 332.794Z" fill="#639AC2"/>
<path d="M384.769 255.534C393.151 226.284 394.491 195.466 388.681 165.599C382.87 135.732 370.073 107.664 351.336 83.6905L199.422 202.42L384.769 255.534Z" fill="#A5C5DC"/>
<path d="M276.817 379.013C302.811 367.62 325.97 350.629 344.64 329.252C363.31 307.876 377.03 282.641 384.821 255.35L199.421 202.421L276.817 379.013Z" fill="#7CABCC"/>
<path d="M351.176 83.4912C323.501 48.1767 284.376 23.6197 240.541 14.0505L199.419 202.422L351.176 83.4912Z" fill="#C3D8E7"/>
</svg>
