<svg width="202" height="200" viewBox="0 0 202 200" fill="none" xmlns="http://www.w3.org/2000/svg">
<path d="M100.092 3.53875C121.745 3.53875 142.77 10.8176 159.789 24.2058C176.807 37.594 188.832 56.3144 193.929 77.3593C199.027 98.4042 196.903 120.552 187.898 140.244C178.893 159.936 163.529 176.03 144.276 185.939C125.023 195.848 102.998 198.998 81.739 194.882C60.4803 190.766 41.2221 179.623 27.0587 163.244C12.8952 146.865 4.64868 126.201 3.64395 104.571C2.63922 82.9403 8.93463 61.6002 21.5188 43.9787L100.092 100.09L100.092 3.53875Z" fill="url(#paint0_linear_9_2)"/>
<defs>
<linearGradient id="paint0_linear_9_2" x1="184.007" y1="100.873" x2="-9.09644" y2="100.873" gradientUnits="userSpaceOnUse">
<stop stop-color="#386732"/>
<stop offset="0.18" stop-color="#467836"/>
<stop offset="0.5" stop-color="#5D933C"/>
<stop offset="0.78" stop-color="#6BA440"/>
<stop offset="1" stop-color="#70AA42"/>
</linearGradient>
</defs>
</svg>
