<svg width="189" height="188" viewBox="0 0 189 188" fill="none" xmlns="http://www.w3.org/2000/svg">
<path d="M94.4424 -0.00148421C146.325 -0.00148648 188.385 42.0579 188.385 93.9407C188.385 145.824 146.325 187.883 94.4424 187.883C42.5596 187.883 0.500181 145.824 0.500179 93.9408C0.500177 42.0579 42.5596 -0.00148194 94.4424 -0.00148421ZM94.4424 150.306C125.572 150.306 150.808 125.07 150.808 93.9408C150.808 62.811 125.572 37.5754 94.4424 37.5754C63.3127 37.5754 38.0771 62.811 38.0771 93.9408C38.0771 125.07 63.3127 150.306 94.4424 150.306Z" fill="#B37D2E" fill-opacity="0.3"/>
<path d="M94.4427 2.4327C144.981 2.4327 185.951 43.4025 185.951 93.9412C185.951 144.48 144.981 185.45 94.4427 185.45C43.904 185.45 2.93423 144.48 2.93423 93.9412C2.93423 43.4025 43.904 2.43271 94.4427 2.4327ZM94.4427 153.422C127.293 153.422 153.923 126.791 153.923 93.9412C153.923 61.091 127.293 34.4607 94.4427 34.4607C61.5925 34.4607 34.9622 61.091 34.9622 93.9412C34.9622 126.791 61.5926 153.422 94.4427 153.422Z" fill="#B37D2E"/>
</svg>
