<svg width="12" height="13" viewBox="0 0 12 13" fill="none" xmlns="http://www.w3.org/2000/svg">
<path fill-rule="evenodd" clip-rule="evenodd" d="M2.77922 5.60417C2.23796 5.60417 2.125 5.70729 2.125 6.20139V7.09722C2.125 7.59132 2.23796 7.69445 2.77922 7.69445L4.08766 7.69445L4.08766 11.2778C4.08766 11.7719 4.20062 11.875 4.74188 11.875L6.05032 11.875C6.59158 11.875 6.70455 11.7719 6.70455 11.2778L6.70455 7.69445L8.17373 7.69445C8.58423 7.69445 8.69 7.62161 8.80278 7.26129L9.08316 6.36546C9.27634 5.74823 9.1573 5.60417 8.45411 5.60417L6.70455 5.60417V4.11111C6.70455 3.78127 6.99745 3.51389 7.35877 3.51389L9.22078 3.51389C9.76204 3.51389 9.875 3.41077 9.875 2.91667V1.72222C9.875 1.22812 9.76204 1.125 9.22078 1.125L7.35877 1.125C5.55219 1.125 4.08766 2.46193 4.08766 4.11111V5.60417L2.77922 5.60417Z" fill="#604D39"/>
</svg>
