<svg width="12" height="13" viewBox="0 0 12 13" fill="none" xmlns="http://www.w3.org/2000/svg">
<path fill-rule="evenodd" clip-rule="evenodd" d="M3.375 6.5C3.375 5.05025 4.55025 3.875 6 3.875C7.44975 3.875 8.625 5.05025 8.625 6.5C8.625 7.94975 7.44975 9.125 6 9.125C4.55025 9.125 3.375 7.94975 3.375 6.5ZM6 4.625C4.96447 4.625 4.125 5.46447 4.125 6.5C4.125 7.53553 4.96447 8.375 6 8.375C7.03553 8.375 7.875 7.53553 7.875 6.5C7.875 5.46447 7.03553 4.625 6 4.625Z" fill="#604D39"/>
<path d="M8.75391 4.25C9.03005 4.25 9.25391 4.02614 9.25391 3.75C9.25391 3.47386 9.03005 3.25 8.75391 3.25H8.74942C8.47327 3.25 8.24942 3.47386 8.24942 3.75C8.24942 4.02614 8.47327 4.25 8.74942 4.25H8.75391Z" fill="#604D39"/>
<path fill-rule="evenodd" clip-rule="evenodd" d="M6.02859 1.375C7.12393 1.37499 7.98428 1.37499 8.65599 1.4653C9.34432 1.55784 9.89044 1.75136 10.3195 2.18046C10.7486 2.60956 10.9422 3.15568 11.0347 3.84401C11.125 4.51572 11.125 5.37605 11.125 6.4714V6.52858C11.125 7.62393 11.125 8.48428 11.0347 9.15599C10.9422 9.84432 10.7486 10.3904 10.3195 10.8195C9.89044 11.2486 9.34432 11.4422 8.65599 11.5347C7.98428 11.625 7.12395 11.625 6.0286 11.625H5.97142C4.87607 11.625 4.01572 11.625 3.34401 11.5347C2.65568 11.4422 2.10956 11.2486 1.68046 10.8195C1.25136 10.3904 1.05784 9.84432 0.965297 9.15599C0.874988 8.48428 0.874993 7.62394 0.875 6.52859V6.47141C0.874993 5.37606 0.874988 4.51572 0.965297 3.84401C1.05784 3.15568 1.25136 2.60956 1.68046 2.18046C2.10956 1.75136 2.65568 1.55784 3.34401 1.4653C4.01572 1.37499 4.87605 1.37499 5.9714 1.375H6.02859ZM3.44395 2.20861C2.83879 2.28997 2.47731 2.44426 2.21079 2.71079C1.94426 2.97731 1.78997 3.33879 1.70861 3.94395C1.6258 4.5599 1.625 5.36981 1.625 6.5C1.625 7.63019 1.6258 8.4401 1.70861 9.05605C1.78997 9.66121 1.94426 10.0227 2.21079 10.2892C2.47731 10.5557 2.83879 10.71 3.44395 10.7914C4.0599 10.8742 4.86981 10.875 6 10.875C7.13019 10.875 7.9401 10.8742 8.55605 10.7914C9.16121 10.71 9.52269 10.5557 9.78921 10.2892C10.0557 10.0227 10.21 9.66121 10.2914 9.05605C10.3742 8.4401 10.375 7.63019 10.375 6.5C10.375 5.36981 10.3742 4.5599 10.2914 3.94395C10.21 3.33879 10.0557 2.97731 9.78921 2.71079C9.52269 2.44426 9.16121 2.28997 8.55605 2.20861C7.9401 2.1258 7.13019 2.125 6 2.125C4.86981 2.125 4.0599 2.1258 3.44395 2.20861Z" fill="#604D39"/>
</svg>
