<svg width="12" height="13" viewBox="0 0 12 13" fill="none" xmlns="http://www.w3.org/2000/svg">
<path d="M3.5 2.875C3.5 3.49632 2.99632 4 2.375 4C1.75368 4 1.25 3.49632 1.25 2.875C1.25 2.25368 1.75368 1.75 2.375 1.75C2.99632 1.75 3.5 2.25368 3.5 2.875Z" fill="#604D39"/>
<path d="M2.25 5C1.7786 5 1.54289 5 1.39645 5.14645C1.25 5.29289 1.25 5.5286 1.25 6L1.25 10.25C1.25 10.7214 1.25 10.9571 1.39645 11.1036C1.54289 11.25 1.7786 11.25 2.25 11.25H2.5C2.9714 11.25 3.20711 11.25 3.35355 11.1036C3.5 10.9571 3.5 10.7214 3.5 10.25L3.5 6C3.5 5.5286 3.5 5.29289 3.35355 5.14645C3.20711 5 2.9714 5 2.5 5H2.25Z" fill="#604D39"/>
<path d="M5.5 5L5.91302 5C6.22803 5 6.38553 5 6.5025 5.06843C6.57657 5.11177 6.63824 5.17343 6.68158 5.2475C6.75001 5.36447 6.75002 5.52197 6.75003 5.83698C7.13833 5.32654 7.73246 5.00012 8.39838 5.00012C9.56819 5.00012 10.75 6.00748 10.75 7.25012L10.7494 10.0003C10.7493 10.4716 10.7492 10.7073 10.6028 10.8537C10.4563 11.0001 10.2207 11.0001 9.74937 11.0001H9.49998C9.02858 11.0001 8.79287 11.0001 8.64643 10.8536C8.49998 10.7072 8.49998 10.4715 8.49998 10.0001V7.75006C8.49998 7.33585 8.18387 7.00006 7.79393 7.00006C7.01406 7.00006 6.75003 7.67163 6.75003 8.50006L6.75001 10.25C6.75001 10.7214 6.75 10.9571 6.60356 11.1036C6.45711 11.25 6.22141 11.25 5.75001 11.25H5.5C5.0286 11.25 4.79289 11.25 4.64645 11.1036C4.5 10.9571 4.5 10.7214 4.5 10.25L4.5 6C4.5 5.5286 4.5 5.29289 4.64645 5.14645C4.79289 5 5.0286 5 5.5 5Z" fill="#604D39"/>
</svg>
