<svg width="16" height="17" viewBox="0 0 16 17" fill="none" xmlns="http://www.w3.org/2000/svg">
<path d="M11.7176 7.48675C11.8944 7.27461 11.8657 6.95933 11.6536 6.78255C11.4415 6.60577 11.1262 6.63443 10.9494 6.84657L9.61913 8.44289C9.39781 8.70847 9.26323 8.86833 9.15525 8.96789C9.13768 8.98409 9.1231 8.99648 9.11129 9.0059C9.09948 8.99648 9.0849 8.98409 9.06732 8.96789C8.95934 8.86834 8.82476 8.70847 8.60344 8.44289L8.1453 7.89312C7.95039 7.65917 7.77337 7.4467 7.61085 7.29687C7.43878 7.13823 7.20405 6.97365 6.88906 6.97365C6.57408 6.97365 6.33935 7.13823 6.16727 7.29687C6.00475 7.44671 5.82775 7.65916 5.63282 7.89312L4.28273 9.51323C4.10595 9.72537 4.13461 10.0407 4.34675 10.2174C4.55889 10.3942 4.87417 10.3656 5.05095 10.1534L6.38122 8.55709C6.60254 8.29151 6.73712 8.13165 6.8451 8.0321C6.86267 8.01589 6.87725 8.0035 6.88906 7.99409C6.90087 8.0035 6.91545 8.01589 6.93303 8.0321C7.04101 8.13165 7.17559 8.29151 7.39691 8.55709L7.85505 9.10687C8.04997 9.34082 8.22698 9.55328 8.3895 9.70311C8.56157 9.86175 8.7963 10.0263 9.11129 10.0263C9.42627 10.0263 9.661 9.86175 9.83308 9.70311C9.9956 9.55328 10.1726 9.34083 10.3675 9.10688L11.7176 7.48675Z" fill="#604D39"/>
<path fill-rule="evenodd" clip-rule="evenodd" d="M8.00017 1.33331C4.04213 1.33331 0.833507 4.54194 0.833507 8.49998C0.833507 9.48725 1.03342 10.4291 1.39545 11.2863C1.49042 11.5111 1.55445 11.6631 1.59721 11.7799C1.64082 11.899 1.64695 11.942 1.64772 11.9531C1.65205 12.0158 1.63621 12.1009 1.52811 12.5049L0.850498 15.0374C0.804343 15.2099 0.853687 15.3939 0.979954 15.5202C1.10622 15.6465 1.29024 15.6958 1.46274 15.6497L3.99526 14.972C4.39928 14.8639 4.4844 14.8481 4.547 14.8524C4.55811 14.8532 4.60119 14.8593 4.72029 14.9029C4.83706 14.9457 4.98901 15.0097 5.21387 15.1047C6.07106 15.4667 7.01291 15.6666 8.00017 15.6666C11.9582 15.6666 15.1668 12.458 15.1668 8.49998C15.1668 4.54194 11.9582 1.33331 8.00017 1.33331ZM1.83351 8.49998C1.83351 5.09422 4.59442 2.33331 8.00017 2.33331C11.4059 2.33331 14.1668 5.09422 14.1668 8.49998C14.1668 11.9057 11.4059 14.6666 8.00017 14.6666C7.14895 14.6666 6.33922 14.4945 5.60294 14.1835L5.59138 14.1786C5.38109 14.0898 5.20658 14.0161 5.06418 13.9639C4.92152 13.9117 4.77133 13.8656 4.61604 13.8548C4.36391 13.8374 4.10238 13.9077 3.80189 13.9885L2.04017 14.46L2.5116 12.6983C2.59243 12.3978 2.66278 12.1363 2.64533 11.8841C2.63459 11.7288 2.58846 11.5786 2.53622 11.436C2.48408 11.2936 2.41039 11.1191 2.32159 10.9089L2.31666 10.8972C2.00569 10.1609 1.83351 9.3512 1.83351 8.49998Z" fill="#604D39"/>
</svg>
