<svg width="12" height="13" viewBox="0 0 12 13" fill="none" xmlns="http://www.w3.org/2000/svg">
<path fill-rule="evenodd" clip-rule="evenodd" d="M1.16612 1.82928C1.23023 1.7039 1.35918 1.625 1.5 1.625H4C4.12042 1.625 4.2335 1.68282 4.30401 1.78044L6.772 5.19767L10.2348 1.73483C10.3813 1.58839 10.6187 1.58839 10.7652 1.73483C10.9116 1.88128 10.9116 2.11872 10.7652 2.26517L7.2168 5.81354L10.804 10.7804C10.8865 10.8946 10.898 11.0453 10.8339 11.1707C10.7698 11.2961 10.6408 11.375 10.5 11.375H8C7.87959 11.375 7.7665 11.3172 7.696 11.2196L5.228 7.80233L1.76517 11.2652C1.61872 11.4116 1.38128 11.4116 1.23484 11.2652C1.08839 11.1187 1.08839 10.8813 1.23484 10.7348L4.78321 7.18646L1.196 2.21956C1.11355 2.1054 1.10201 1.95466 1.16612 1.82928ZM2.23341 2.375L8.19174 10.625H9.76659L3.80826 2.375H2.23341Z" fill="#604D39"/>
</svg>
