<svg width="12" height="13" viewBox="0 0 12 13" fill="none" xmlns="http://www.w3.org/2000/svg">
<path fill-rule="evenodd" clip-rule="evenodd" d="M3.34843 2.13587C4.17792 1.96678 5.07075 1.875 6.00005 1.875C6.92936 1.875 7.82219 1.96678 8.65168 2.13587L8.71532 2.14883C9.66263 2.34165 10.2938 2.47012 10.8378 3.16946C11.3759 3.86129 11.3755 4.6636 11.3751 5.9062V7.0938C11.3755 8.3364 11.3759 9.13871 10.8378 9.83054C10.2938 10.5299 9.66263 10.6584 8.71532 10.8512L8.65168 10.8641C7.82219 11.0332 6.92936 11.125 6.00005 11.125C5.07075 11.125 4.17792 11.0332 3.34843 10.8641L3.28479 10.8512C2.33748 10.6584 1.70627 10.5299 1.16235 9.83054C0.62426 9.13871 0.624561 8.3364 0.625027 7.0938L0.625027 5.9062C0.624561 4.6636 0.62426 3.86129 1.16235 3.16946C1.70628 2.47012 2.33748 2.34165 3.28479 2.14883L3.34843 2.13587ZM5.64732 4.62612C5.90659 4.73493 6.22152 4.91082 6.60658 5.12586C6.65727 5.15417 6.7082 5.18229 6.75919 5.21044C7.01089 5.34939 7.26405 5.48915 7.4975 5.65701C7.7073 5.80787 7.90636 5.99482 7.97226 6.26745C8.00925 6.4205 8.00925 6.57949 7.97226 6.73255C7.90637 7.00518 7.7073 7.19213 7.4975 7.34299C7.26404 7.51086 7.01086 7.65063 6.75914 7.78959C6.70817 7.81773 6.65726 7.84583 6.60658 7.87413C6.22152 8.08919 5.90659 8.26507 5.64732 8.37388C5.22582 8.55077 4.77886 8.56508 4.4115 8.26409C4.18158 8.07571 4.1003 7.80597 4.06465 7.53414C3.97847 6.87718 3.97843 6.12309 4.06465 5.46586C4.1003 5.19403 4.18158 4.92429 4.4115 4.73591C4.77886 4.43492 5.22582 4.44923 5.64732 4.62612Z" fill="#604D39"/>
</svg>
